<svg width="236" height="200" viewBox="0 0 236 200" fill="none" xmlns="http://www.w3.org/2000/svg">
<g clip-path="url(#clip0_1_4503)">
<g opacity="0.1">
<path opacity="0.08" d="M14.3314 124.642C14.3314 124.642 21.4209 163.232 57.3784 184.143C93.3298 205.055 138.023 200.066 174.351 196.987C210.679 193.906 235.192 169.091 234.663 137.374C234.135 105.657 205.285 100.766 185.037 67.6807C164.789 34.6011 164.364 22.7646 129.536 5.86586C94.7088 -11.0267 47.3851 9.93404 27.1435 51.1931C6.90182 92.452 14.3314 124.642 14.3314 124.642Z" fill="#184AFB"/>
<path opacity="0.7" d="M14.3314 124.642C14.3314 124.642 21.4209 163.232 57.3784 184.143C93.3298 205.055 138.023 200.066 174.351 196.987C210.679 193.906 235.192 169.091 234.663 137.374C234.135 105.657 205.285 100.766 185.037 67.6807C164.789 34.6011 164.364 22.7646 129.536 5.86586C94.7088 -11.0267 47.3851 9.93404 27.1435 51.1931C6.90182 92.452 14.3314 124.642 14.3314 124.642Z" fill="#184AFB"/>
</g>
<mask id="mask0_1_4503" style="mask-type:luminance" maskUnits="userSpaceOnUse" x="8" y="0" width="233" height="200">
<path d="M240.178 0H8V199.038H240.178V0Z" fill="white"/>
</mask>
<g mask="url(#mask0_1_4503)">
<path d="M206.613 146.264L203.316 197.401C203.242 197.922 202.803 198.368 202.29 198.368C201.703 198.368 201.264 197.922 201.264 197.326C201.264 197.326 201.264 197.326 201.264 197.252L202.656 146.189H206.613V146.264Z" fill="#2E3038" stroke="#2E3038" stroke-linecap="round" stroke-linejoin="round"/>
<path d="M215.188 146.264L218.485 197.401C218.485 197.922 218.925 198.368 219.511 198.368C220.098 198.368 220.537 197.922 220.537 197.326L219.145 146.338L215.188 146.264Z" fill="#2E3038" stroke="#2E3038" stroke-linecap="round" stroke-linejoin="round"/>
<path d="M181.768 146.264L185.065 197.401C185.065 197.922 185.505 198.368 186.091 198.368C186.678 198.368 187.117 197.922 187.117 197.326L185.725 146.338L181.768 146.264Z" fill="#2E3038" stroke="#2E3038" stroke-linecap="round" stroke-linejoin="round"/>
<path d="M168.137 146.264L164.839 197.401C164.766 197.922 164.326 198.368 163.813 198.368C163.227 198.368 162.787 197.922 162.787 197.326L164.179 146.338L168.137 146.264Z" fill="#2E3038" stroke="#2E3038" stroke-linecap="round" stroke-linejoin="round"/>
<path d="M226.181 94.6809C226.181 94.6809 192.908 93.4155 190.123 93.4155C187.338 93.4155 186.678 94.6809 186.678 94.6809L181.915 128.697C181.915 128.697 167.183 124.381 164.252 124.976C161.32 125.571 165.717 146.86 165.717 146.86H182.428L182.721 145.594H220.465L230.505 97.1375C229.845 94.9042 226.181 94.6809 226.181 94.6809Z" fill="white" stroke="#2E3038" stroke-linecap="round" stroke-linejoin="round"/>
<path d="M213.575 115.969C213.575 115.969 216.947 138.3 213.062 140.905C212.476 141.277 209.178 143.212 206.173 142.914C203.755 142.691 186.459 142.914 186.459 142.914C186.459 142.914 184.04 138.3 183.6 134.876C183.161 131.452 186.899 116.788 186.899 116.788L213.575 115.969Z" fill="white" stroke="#2E3038" stroke-linecap="round" stroke-linejoin="round"/>
<path d="M185.214 127.879C185.214 127.879 160.149 130.485 158.975 131.229C157.803 131.973 152.38 136.737 153.332 139.863C154.285 142.989 151.94 143.213 154.065 143.734C156.191 144.255 186.679 144.18 186.679 144.18" fill="#184AFB"/>
<path d="M185.214 127.879C185.214 127.879 160.149 130.485 158.975 131.229C157.803 131.973 152.38 136.737 153.332 139.863C154.285 142.989 151.94 143.213 154.065 143.734C156.191 144.255 186.679 144.18 186.679 144.18" stroke="#2E3038" stroke-linecap="round" stroke-linejoin="round"/>
<path d="M221.93 142.319H162.42V146.86H221.93V142.319Z" fill="white" stroke="#2E3038" stroke-linecap="round" stroke-linejoin="round"/>
<path d="M207.859 128.846H172.021C172.021 128.846 170.116 131.005 169.895 135.545C169.675 140.086 170.116 141.054 173.413 142.244C176.711 143.436 206.1 142.84 206.1 142.84" fill="#184AFB"/>
<path d="M207.859 128.846H172.021C172.021 128.846 170.116 131.005 169.895 135.545C169.675 140.086 170.116 141.054 173.413 142.244C176.711 143.436 206.1 142.84 206.1 142.84" stroke="#2E3038" stroke-linecap="round" stroke-linejoin="round"/>
<path d="M179.642 186.608L175.904 177.601L169.748 178.792L174.439 186.831L171.727 192.34L165.864 196.21C165.864 196.21 165.204 196.88 168.137 196.657C171.068 196.433 177.15 196.657 177.15 196.657L180.962 192.115C180.962 192.115 182.354 189.809 179.642 186.608Z" fill="white" stroke="#2E3038" stroke-linecap="round" stroke-linejoin="round"/>
<path d="M181.33 190.553L181.476 196.434H180.523L179.277 193.531L181.33 190.553Z" fill="#2E3038" stroke="#2E3038" stroke-linecap="round" stroke-linejoin="round"/>
<path d="M177.151 196.731L180.963 192.19C180.963 192.19 181.989 190.479 180.596 188.022C177.884 192.785 174.22 194.2 174.22 194.2L170.409 193.307L165.792 196.359C165.792 196.359 165.133 197.029 168.064 196.806C170.995 196.582 177.151 196.731 177.151 196.731Z" fill="#2E3038" stroke="#2E3038" stroke-linecap="round" stroke-linejoin="round"/>
<path d="M164.912 140.607L177.445 179.238L168.503 180.877L150.914 140.681C150.914 140.681 149.521 134.653 153.259 132.791C156.997 130.93 168.136 129.888 168.136 129.888" fill="#184AFB"/>
<path d="M164.912 140.607L177.445 179.238L168.503 180.877L150.914 140.681C150.914 140.681 149.521 134.653 153.259 132.791C156.997 130.93 168.136 129.888 168.136 129.888" stroke="#2E3038" stroke-linecap="round" stroke-linejoin="round"/>
<path d="M205.22 146.786C205.22 146.786 200.896 125.422 203.754 124.902C206.612 124.381 221.417 128.623 221.417 128.623L226.18 94.6811C226.18 94.6811 231.164 93.8622 231.75 98.4029C232.264 102.943 221.93 146.786 221.93 146.786H205.22Z" fill="#2E3038" stroke="#2E3038" stroke-linecap="round" stroke-linejoin="round"/>
<path d="M154.212 83.8879L152.013 80.166C151.573 79.4217 150.768 78.9751 149.961 79.0496L147.836 79.124L144.245 78.0075C143.805 77.8586 143.292 78.0075 142.999 78.4541L142.852 78.603L146.15 80.0916L142.852 81.357L139.335 79.5706C139.041 79.4217 138.675 79.4961 138.528 79.7939C138.309 80.0916 138.381 80.5382 138.675 80.7615L143.585 84.6322C143.878 84.8555 144.318 85.0043 144.684 84.9299L150.108 83.8133L151.647 85.5254L154.212 83.8879Z" fill="white" stroke="#2E3038" stroke-linecap="round" stroke-linejoin="round"/>
<path d="M192.102 76.2212L171.947 97.6587L152.746 81.8782L150.107 83.8136L171.215 108.154L189.538 98.1048L192.102 76.2212Z" fill="white" stroke="#2E3038" stroke-linecap="round" stroke-linejoin="round"/>
<path d="M222.224 81.729L232.777 114.629L223.69 114.927L214.602 99.4449C214.602 99.4449 219.732 83.8877 222.224 81.729Z" fill="white" stroke="#2E3038" stroke-linecap="round" stroke-linejoin="round"/>
<path d="M210.717 76.0724L222.222 81.7294L212.622 109.047L213.722 116.639L186.824 116.714L190.049 104.432L187.85 96.5424C187.557 95.4999 187.557 94.4578 187.777 93.4156L192.101 76.2212L203.387 74.3604L210.717 76.0724Z" fill="white" stroke="#2E3038" stroke-linecap="round" stroke-linejoin="round"/>
<path d="M210.204 74.4347C210.204 74.4347 212.476 75.9978 212.549 77.3377C212.549 78.1565 212.549 79.5707 212.476 80.6872C212.402 81.5061 212.256 82.3993 211.889 83.1436L207.859 88.1307L203.168 84.3345L199.284 86.3443C199.284 86.3443 198.551 80.2406 200.236 75.9978C201.922 71.7551 209.325 73.3926 210.204 74.4347Z" fill="white" stroke="#2E3038" stroke-linecap="round" stroke-linejoin="round"/>
<path d="M213.428 62.6738C213.428 62.6738 212.476 66.0235 212.036 68.2565C211.596 70.4895 210.717 74.9556 210.79 76.5932C210.863 78.2308 203.9 85.3764 203.095 84.3344C202.289 83.2923 201.336 77.1142 201.336 77.1142L202.215 67.14C202.141 67.14 211.23 56.9424 213.428 62.6738Z" fill="white" stroke="#2E3038" stroke-linecap="round" stroke-linejoin="round"/>
<path d="M198.917 57.4636C198.917 57.4636 197.672 59.5477 197.672 60.441C197.672 61.3341 198.112 63.1206 198.038 63.6416C197.965 64.1627 196.719 65.8747 196.573 66.4702C196.426 66.9911 196.646 67.5122 197.086 67.7356C197.379 67.8844 197.672 68.0333 197.965 68.2565C197.965 68.2565 198.332 72.8715 198.917 74.0625C199.504 75.2535 200.017 75.7745 201.776 75.9234C203.535 76.0722 207.639 74.2113 208.226 72.7227C208.812 71.2339 208.885 69.4475 208.958 67.3634C209.032 65.2792 207.566 62.153 206.467 59.25C205.367 56.347 200.824 54.5606 198.917 57.4636Z" fill="white" stroke="#2E3038" stroke-linecap="round" stroke-linejoin="round"/>
<path d="M217.68 72.5738C220.755 72.5738 223.249 70.0411 223.249 66.9168C223.249 63.7926 220.755 61.2598 217.68 61.2598C214.603 61.2598 212.109 63.7926 212.109 66.9168C212.109 70.0411 214.603 72.5738 217.68 72.5738Z" fill="#2E3038" stroke="#2E3038" stroke-linecap="round" stroke-linejoin="round"/>
<path d="M198.844 57.1658C198.844 57.1658 201.116 55.2306 205.146 59.1011C209.177 62.9717 207.638 68.7032 210.349 69.8941C213.061 71.0851 218.045 65.2048 218.631 62.2274C219.218 59.25 217.459 53.2207 212.036 52.0298C206.612 50.8388 200.09 51.6577 198.844 57.1658Z" fill="#2E3038" stroke="#2E3038" stroke-linecap="round" stroke-linejoin="round"/>
<path d="M198.844 57.1659C198.697 55.454 199.87 53.9653 201.483 53.8164C201.702 53.8164 201.996 53.8164 202.215 53.8164C205.88 54.0397 206.246 59.9201 208.152 62.2276C210.057 64.535 211.083 64.1628 211.083 64.1628C211.083 64.1628 207.786 65.1304 205.66 63.9395C203.535 62.7485 202.581 56.1239 198.844 57.1659Z" fill="#2E3038" stroke="#2E3038" stroke-linecap="round" stroke-linejoin="round"/>
<path d="M207.345 67.6611C207.345 67.6611 211.23 62.525 212.109 66.3212C212.989 70.1174 209.911 71.085 208.445 70.6385C206.979 70.1918 207.199 69.373 207.199 69.373" fill="white"/>
<path d="M207.345 67.6611C207.345 67.6611 211.23 62.525 212.109 66.3212C212.989 70.1174 209.911 71.085 208.445 70.6385C206.979 70.1918 207.199 69.373 207.199 69.373" stroke="#2E3038" stroke-linecap="round" stroke-linejoin="round"/>
<path d="M198.699 111.727C198.699 111.727 191.296 112.768 190.05 112.768C188.804 112.768 185.727 116.714 185.727 116.714H199.285L198.699 111.727Z" fill="white" stroke="#2E3038" stroke-linecap="round" stroke-linejoin="round"/>
<path d="M230.138 106.665L232.777 112.768C233.216 114.033 232.557 115.374 231.311 115.82C231.09 115.895 230.87 115.969 230.578 115.969L198.551 116.118L198.771 111.727L223.615 107.706" fill="white"/>
<path d="M230.138 106.665L232.777 112.768C233.216 114.033 232.557 115.374 231.311 115.82C231.09 115.895 230.87 115.969 230.578 115.969L198.551 116.118L198.771 111.727L223.615 107.706" stroke="#2E3038" stroke-linecap="round" stroke-linejoin="round"/>
<path d="M187.264 190.553L187.411 196.434H186.458L185.285 193.531L187.264 190.553Z" fill="#2E3038" stroke="#2E3038" stroke-linecap="round" stroke-linejoin="round"/>
<path d="M185.58 186.607L184.407 178.048L178.251 178.42L180.376 186.906L177.665 192.413L171.802 196.284C171.802 196.284 171.142 196.954 174.073 196.731C177.005 196.507 183.088 196.731 183.088 196.731L186.899 192.19C186.972 192.19 188.291 189.808 185.58 186.607Z" fill="white" stroke="#2E3038" stroke-linecap="round" stroke-linejoin="round"/>
<path d="M183.088 196.731L186.899 192.19C186.899 192.19 187.925 190.479 186.532 188.022C183.821 192.785 180.157 194.2 180.157 194.2L176.419 193.307L171.802 196.359C171.802 196.359 171.142 197.029 174.073 196.806C177.005 196.582 183.088 196.731 183.088 196.731Z" fill="#2E3038" stroke="#2E3038" stroke-linecap="round" stroke-linejoin="round"/>
<path d="M182.794 133.982L185.432 179.611L177.077 179.834L168.941 138.374C168.941 138.374 169.089 130.484 171.58 129.591C174.072 128.698 180.668 129.665 180.668 129.665" fill="#184AFB"/>
<path d="M182.794 133.982L185.432 179.611L177.077 179.834L168.941 138.374C168.941 138.374 169.089 130.484 171.58 129.591C174.072 128.698 180.668 129.665 180.668 129.665" stroke="#2E3038" stroke-linecap="round" stroke-linejoin="round"/>
<path d="M146.369 35.7285L156.703 65.2047C156.703 65.2047 155.31 71.8294 151.206 71.6061C147.102 71.3827 146.003 65.5025 144.903 64.6836C143.804 63.8649 142.191 57.4635 142.191 57.4635L146.369 35.7285Z" fill="white" stroke="#2E3038" stroke-linecap="round" stroke-linejoin="round"/>
<path d="M119.619 29.8481L102.836 35.9518L109.285 83.2923H139.554L146.369 35.7285L128.194 29.9227L119.619 29.8481Z" fill="white" stroke="#2E3038" stroke-linecap="round" stroke-linejoin="round"/>
<path d="M121.232 37.9616L123.651 41.6089L121.526 73.1693L124.677 81.357L127.828 73.3925L125.116 42.1299L127.315 36.7707L124.237 32.6768L121.232 37.9616Z" fill="#184AFB" stroke="#2E3038" stroke-linecap="round" stroke-linejoin="round"/>
<path d="M124.602 36.3983L120.278 39.6734L117.42 31.1134L119.399 26.7218L128.266 26.4985L130.392 28.5082L129.952 39.4502L124.602 36.3983Z" fill="white" stroke="#2E3038" stroke-linecap="round" stroke-linejoin="round"/>
<path d="M129.147 24.4889L128.487 29.997L123.651 36.324L119.986 29.8481V19.5762C119.986 19.5762 126.362 21.2137 129.147 24.4889Z" fill="white" stroke="#2E3038" stroke-linecap="round" stroke-linejoin="round"/>
<path d="M117.494 13.0259C117.494 7.96431 121.085 3.94482 125.555 3.94482C130.026 3.94482 132.518 8.26204 132.518 13.2492C132.518 14.8868 132.152 17.6408 132.078 19.1296C131.859 21.6603 131.126 22.7023 129.587 25.0098C124.749 32.4533 120.791 21.5114 118.74 17.8642C117.934 16.3754 117.494 14.7378 117.494 13.0259Z" fill="white" stroke="#2E3038" stroke-linecap="round" stroke-linejoin="round"/>
<path d="M129.074 14.5889L129.807 19.7993L127.389 19.7248" fill="white"/>
<path d="M129.074 14.5889L129.807 19.7993L127.389 19.7248" stroke="#2E3038" stroke-linecap="round" stroke-linejoin="round"/>
<path d="M134.423 13.6958L122.917 13.7702C122.623 14.6634 122.843 15.7055 123.503 16.4498C124.236 17.1942 127.241 16.8965 127.681 16.7476C128.12 16.5987 128.413 14.4401 128.413 14.4401H129.292C129.292 14.4401 129.366 16.6731 130.612 16.8221C131.858 16.9709 133.47 16.9709 133.763 16.7476C135.083 15.7799 134.423 13.6958 134.423 13.6958Z" fill="white" stroke="#2E3038" stroke-linecap="round" stroke-linejoin="round"/>
<path d="M118.96 18.683C118.96 18.683 121.524 24.0423 122.184 25.9776C122.844 27.9129 125.849 29.3271 128.926 28.285C132.005 27.243 131.198 22.628 131.198 22.628C131.198 22.628 127.901 19.7995 127.314 20.395C126.728 20.9905 123.43 23.7445 123.21 23.0746C122.99 22.4047 121.598 18.683 121.598 18.683L120.938 16.0033L122.33 15.1101C122.77 14.7379 122.844 14.1424 122.477 13.6959L121.817 12.7282C121.671 12.5049 121.598 12.2071 121.671 11.9094C121.817 11.0906 122.33 9.37862 123.357 8.93201C124.822 8.33653 126.581 9.22974 128.267 9.60192C129.952 9.97413 131.711 8.4854 131.711 8.4854L132.444 10.9417C134.057 9.37862 135.229 7.36888 135.742 5.21027C136.549 1.63741 128.193 0.223145 125.482 0.223145C122.77 0.223145 118.519 1.71184 117.273 5.65688C116.027 9.60192 118.226 18.0131 118.96 18.683Z" fill="#2E3038" stroke="#2E3038" stroke-linecap="round" stroke-linejoin="round"/>
<path d="M119.327 17.0453C119.327 17.0453 117.055 14.5146 117.055 17.2686C117.055 20.0227 117.714 20.0227 119.106 20.9903C120.499 21.958 120.939 20.7671 120.939 20.7671" fill="white"/>
<path d="M119.327 17.0453C119.327 17.0453 117.055 14.5146 117.055 17.2686C117.055 20.0227 117.714 20.0227 119.106 20.9903C120.499 21.958 120.939 20.7671 120.939 20.7671" stroke="#2E3038" stroke-linecap="round" stroke-linejoin="round"/>
<path d="M149.593 188.617H149.667L149.447 187.575L139.553 83.3667H109.211L99.2441 188.692H99.3174L105.767 189.287C105.767 189.287 112.876 164.947 112.876 163.161C112.876 161.374 114.928 144.552 114.928 144.552L125.042 108.451L134.056 144.403C134.056 144.403 136.108 161.225 136.108 163.012C136.108 164.798 143.291 189.212 143.291 189.212L149.373 188.692L149.593 188.617Z" fill="#2E3038" stroke="#2E3038" stroke-linecap="round" stroke-linejoin="round"/>
<path d="M99.3907 188.617C99.3907 188.617 95.5065 191.669 93.3078 192.562C91.1091 193.456 86.9316 195.688 86.9316 195.688C86.9316 195.688 86.9316 197.103 90.5229 197.103H104.667L104.447 188.617H99.3907Z" fill="#2E3038" stroke="#2E3038" stroke-linecap="round" stroke-linejoin="round"/>
<path d="M104.667 195.54C99.0243 195.837 93.3077 195.688 87.6646 195.242L86.9316 195.614C86.9316 195.614 86.9316 197.029 90.5229 197.029H104.741L104.667 195.54Z" fill="white" stroke="#2E3038" stroke-linecap="round" stroke-linejoin="round"/>
<path d="M149.008 188.617C149.008 188.617 152.891 191.669 155.09 192.562C157.289 193.456 161.467 195.688 161.467 195.688C161.467 195.688 161.467 197.103 157.875 197.103H143.73L144.024 188.617H149.008Z" fill="#2E3038" stroke="#2E3038" stroke-linecap="round" stroke-linejoin="round"/>
<path d="M143.73 195.54C149.373 195.837 155.09 195.688 160.734 195.242L161.467 195.614C161.467 195.614 161.467 197.029 157.875 197.029H143.73V195.54Z" fill="white" stroke="#2E3038" stroke-linecap="round" stroke-linejoin="round"/>
<path d="M102.836 35.9521L91.623 66.2471H102.323L106.354 57.9848L102.836 35.9521Z" fill="white" stroke="#2E3038" stroke-linecap="round" stroke-linejoin="round"/>
<path d="M151.646 61.5572C147.175 59.6964 132.81 58.7288 132.078 58.7288C131.345 58.7288 108.039 56.7934 106.134 56.4957C104.228 56.1979 102.029 60.6641 102.029 60.6641L112.143 60.3663L124.456 62.897C124.456 62.897 149.373 72.0525 151.28 71.5315C151.499 71.457 151.793 71.3082 151.939 71.0849" fill="white"/>
<path d="M151.646 61.5572C147.175 59.6964 132.81 58.7288 132.078 58.7288C131.345 58.7288 108.039 56.7934 106.134 56.4957C104.228 56.1979 102.029 60.6641 102.029 60.6641L112.143 60.3663L124.456 62.897C124.456 62.897 149.373 72.0525 151.28 71.5315C151.499 71.457 151.793 71.3082 151.939 71.0849" stroke="#2E3038" stroke-linecap="round" stroke-linejoin="round"/>
<path d="M99.5382 60.1431L138.088 56.2725L138.381 59.6221L105.035 69.8941C105.035 69.8941 99.0251 71.3083 94.3346 70.4151C89.6442 69.5219 91.8428 64.8325 92.9422 62.0784" fill="white"/>
<path d="M99.5382 60.1431L138.088 56.2725L138.381 59.6221L105.035 69.8941C105.035 69.8941 99.0251 71.3083 94.3346 70.4151C89.6442 69.5219 91.8428 64.8325 92.9422 62.0784" stroke="#2E3038" stroke-linecap="round" stroke-linejoin="round"/>
<path d="M138.088 56.2724L145.49 55.9746L147.688 60.4408L138.381 59.6219L138.088 56.2724Z" fill="white" stroke="#2E3038" stroke-linecap="round" stroke-linejoin="round"/>
<path d="M187.266 121.552L193.568 197.699C193.641 198.145 194.081 198.443 194.52 198.443C194.52 198.443 194.52 198.443 194.594 198.443C194.961 198.368 195.253 197.996 195.181 197.55L190.856 121.626L187.266 121.552Z" fill="#2E3038" stroke="#2E3038" stroke-linecap="round" stroke-linejoin="round"/>
<path d="M229.553 121.552L235.929 197.996C236.002 198.443 236.442 198.74 236.881 198.74H236.955C237.322 198.666 237.614 198.294 237.541 197.847L233.217 121.626L229.553 121.552Z" fill="#2E3038" stroke="#2E3038" stroke-linecap="round" stroke-linejoin="round"/>
<path d="M54.9792 121.552L51.6812 197.029C51.6079 197.401 51.9011 197.847 52.2676 197.922C52.7073 197.996 53.147 197.773 53.2203 197.327C53.2203 197.327 53.2203 197.252 53.2203 197.178L58.5704 121.552H54.9792Z" fill="#2E3038" stroke="#2E3038" stroke-linecap="round" stroke-linejoin="round"/>
<path d="M15.9894 121.552L12.6914 196.731C12.6914 197.178 12.9113 197.55 13.351 197.624C13.7907 197.699 14.2305 197.475 14.3038 197.029V196.955L19.5805 121.552H15.9894Z" fill="#2E3038" stroke="#2E3038" stroke-linecap="round" stroke-linejoin="round"/>
<path d="M237.834 117.384H13.6445V123.934H237.834V117.384Z" fill="#184AFB" stroke="#2E3038" stroke-linecap="round" stroke-linejoin="round"/>
<path d="M237.834 117.384H13.6445V119.616H237.834V117.384Z" fill="#2E3038" stroke="#2E3038" stroke-linecap="round" stroke-linejoin="round"/>
<path d="M237.761 117.384H181.695V123.934H237.761V117.384Z" fill="#2E3038" stroke="#2E3038" stroke-linecap="round" stroke-linejoin="round"/>
<path d="M239.814 115.225H11.666V117.756H239.814V115.225Z" fill="#184AFB" stroke="#2E3038" stroke-linecap="round" stroke-linejoin="round"/>
<path d="M239.813 115.225H184.041V117.756H239.813V115.225Z" fill="#2E3038" stroke="#2E3038" stroke-linecap="round" stroke-linejoin="round"/>
<path d="M62.4542 114.927H93.0889C93.3087 114.927 93.5286 114.778 93.6751 114.554L102.177 94.9039C102.323 94.6062 102.177 94.234 101.884 94.0852C101.81 94.0852 101.737 94.0107 101.664 94.0107H70.9557C70.7358 94.0107 70.516 94.1596 70.4427 94.3829L62.0145 114.033C61.868 114.331 62.0145 114.704 62.3077 114.853C62.3077 114.927 62.381 114.927 62.4542 114.927Z" fill="white" stroke="#2E3038" stroke-linecap="round" stroke-linejoin="round"/>
<path d="M65.3136 113.438H91.4043C91.6242 113.438 91.7707 113.289 91.844 113.14L99.0996 96.3931C99.2462 96.169 99.0996 95.7973 98.8798 95.7229C98.8065 95.6484 98.7332 95.6484 98.6598 95.6484H72.5691C72.3493 95.6484 72.2027 95.7973 72.1294 95.9462L64.8739 112.694C64.7273 112.917 64.8739 113.289 65.167 113.364C65.2403 113.438 65.2403 113.438 65.3136 113.438Z" fill="#184AFB" stroke="#2E3038" stroke-linecap="round" stroke-linejoin="round"/>
<path d="M93.5291 113.662H47.5039V115.15H93.5291V113.662Z" fill="white" stroke="#2E3038" stroke-linecap="round" stroke-linejoin="round"/>
<path d="M93.5297 113.662H71.25V115.15H93.5297V113.662Z" fill="white" stroke="#2E3038" stroke-linecap="round" stroke-linejoin="round"/>
<path d="M108.332 103.017H100.197V115.225H108.332V103.017Z" fill="white" stroke="#2E3038" stroke-linecap="round" stroke-linejoin="round"/>
<path d="M107.966 113.587H107.087C106.72 113.587 106.427 113.289 106.427 112.917C106.427 112.545 106.72 112.247 107.087 112.247H107.966C108.699 112.247 109.212 111.652 109.212 110.982V108.005C109.212 107.26 108.625 106.739 107.966 106.739H106.867C106.5 106.739 106.207 106.441 106.207 106.069C106.207 105.697 106.5 105.399 106.867 105.399H107.966C109.432 105.399 110.531 106.59 110.531 108.005V110.982C110.531 112.396 109.358 113.587 107.966 113.587Z" fill="white" stroke="#2E3038" stroke-linecap="round" stroke-linejoin="round"/>
<path d="M171.654 114.927H141.019C140.8 114.927 140.58 114.778 140.506 114.554L132.005 94.9039C131.858 94.6062 132.005 94.234 132.298 94.0852C132.372 94.0852 132.445 94.0107 132.518 94.0107H163.153C163.373 94.0107 163.592 94.1596 163.738 94.3829L172.24 114.033C172.387 114.331 172.24 114.704 171.947 114.853C171.874 114.927 171.727 114.927 171.654 114.927Z" fill="white" stroke="#2E3038" stroke-linecap="round" stroke-linejoin="round"/>
<path d="M186.678 113.662H140.652V115.15H186.678V113.662Z" fill="white" stroke="#2E3038" stroke-linecap="round" stroke-linejoin="round"/>
<path d="M172.387 113.662H140.652V115.15H172.387V113.662Z" fill="white" stroke="#2E3038" stroke-linecap="round" stroke-linejoin="round"/>
<path d="M152.672 102.273C153.111 103.166 152.818 104.283 151.939 104.73C151.06 105.176 149.96 104.879 149.521 103.985C149.08 103.092 149.374 102.05 150.254 101.529C151.06 101.008 152.159 101.38 152.672 102.273Z" fill="white" stroke="#2E3038" stroke-linecap="round" stroke-linejoin="round"/>
<path d="M21.9992 97.3604C21.9992 97.3604 24.2712 102.199 24.4911 103.464C24.7109 104.73 25.0041 107.334 24.0513 108.526C22.8787 109.94 21.7794 108.824 21.7794 108.824C21.7794 108.824 18.7745 108.079 18.7745 105.474C18.7745 102.869 18.5547 99.37 18.5547 99.37L21.9992 97.3604Z" fill="white" stroke="#2E3038" stroke-linecap="round" stroke-linejoin="round"/>
<path d="M19.5078 104.953L23.7585 106.069" stroke="#2E3038" stroke-linecap="round" stroke-linejoin="round"/>
<path d="M20.5338 102.05L21.7064 103.986C21.7064 103.986 18.9214 108.824 20.3872 107.559C21.853 106.293 24.7112 104.73 24.4181 103.464C23.9783 102.125 23.4653 100.86 22.7324 99.5942" fill="white"/>
<path d="M20.5338 102.05L21.7064 103.986C21.7064 103.986 18.9214 108.824 20.3872 107.559C21.853 106.293 24.7112 104.73 24.4181 103.464C23.9783 102.125 23.4653 100.86 22.7324 99.5942" stroke="#2E3038" stroke-linecap="round" stroke-linejoin="round"/>
<path d="M63.187 51.5088C63.187 51.5088 65.0193 57.3147 65.0193 58.4312C65.0193 59.25 64.9459 60.0688 64.8726 60.8875L66.485 63.4183C66.7049 63.7905 66.5583 64.1627 66.2651 64.386L63.7734 65.8747C63.7734 65.8747 63.407 71.8295 63.0404 72.5738C62.674 73.3181 56.4445 73.1693 56.4445 73.1693L54.3924 77.1144L43.9121 72.946L46.6971 65.2792L46.1108 53.7419C46.1108 53.7419 52.5602 47.9359 63.187 51.5088Z" fill="white" stroke="#2E3038" stroke-linecap="round" stroke-linejoin="round"/>
<path d="M56.0043 65.5765C56.0043 65.5765 54.1721 67.2885 52.7796 67.4374C51.3871 67.5862 46.9898 66.5442 46.6234 66.0231C46.2569 65.5021 43.1788 59.0262 43.3254 55.9C43.4719 52.7737 43.5452 48.1588 46.8432 46.5956C50.1412 45.0326 55.418 45.5536 58.1297 43.8416C60.8414 42.1296 65.2387 40.7153 67.5106 43.6926C69.7825 46.6701 68.0969 50.9128 66.2647 52.6249C64.4325 54.3369 62.1606 54.8579 62.3804 55.6023C62.6003 56.3466 63.9928 57.2399 63.1865 58.3563C62.3804 59.4728 59.5222 60.5894 59.5222 61.036C59.5222 61.4825 60.1818 63.1201 59.4489 63.3434C58.716 63.5668 57.8365 61.7803 57.0304 61.7803C56.2242 61.7803 54.5385 64.0878 56.0043 65.5765Z" fill="#2E3038" stroke="#2E3038" stroke-linecap="round" stroke-linejoin="round"/>
<path d="M55.8594 65.8745L57.3252 66.2466C57.1786 67.6609 57.545 69.0752 58.4244 70.1916" fill="white"/>
<path d="M55.8594 65.8745L57.3252 66.2466C57.1786 67.6609 57.545 69.0752 58.4244 70.1916" stroke="#2E3038" stroke-linecap="round" stroke-linejoin="round"/>
<path d="M57.5449 61.8552L67.8787 59.25" stroke="#2E3038" stroke-linecap="round" stroke-linejoin="round"/>
<path d="M65.2383 59.0269L67.5836 59.1014C67.5836 59.1014 68.3897 61.781 65.9712 62.1532" stroke="#2E3038" stroke-linecap="round" stroke-linejoin="round"/>
<path d="M54.8315 187.724C54.8315 187.724 64.3591 193.828 66.0447 193.828C67.7303 193.828 68.5365 195.391 67.7303 195.54C66.9241 195.688 61.7206 195.912 58.2028 196.061C54.685 196.21 52.3397 195.912 50.3609 195.912C48.3822 195.912 46.0369 196.061 45.0109 195.54C43.9848 195.019 45.6704 189.212 45.6704 188.245C45.6704 187.278 53.6589 187.055 54.8315 187.724Z" fill="#2E3038" stroke="#2E3038" stroke-linecap="round" stroke-linejoin="round"/>
<path d="M67.0709 194.126C63.3333 195.391 57.3969 194.572 53.7325 194.2C50.8742 193.902 46.4036 193.902 44.5714 193.828C44.4981 194.721 44.5714 195.391 44.8645 195.54C45.8906 196.06 48.2358 195.912 50.2146 195.912C52.1934 195.912 54.5386 196.284 58.0565 196.06C61.5743 195.837 66.7778 195.688 67.5839 195.54C68.3169 195.465 68.0237 194.572 67.0709 194.126Z" fill="white" stroke="#2E3038" stroke-linecap="round" stroke-linejoin="round"/>
<path d="M62.3069 145.743L54.7582 184.077L56.2973 188.022C55.1979 189.66 53.439 190.851 51.5335 191.297C49.4081 191.744 47.2095 191.967 45.0108 191.967C45.0108 191.967 44.2046 187.724 44.7177 187.204C45.2307 186.683 45.3773 184.673 45.3773 184.673L49.7013 146.115L62.3069 145.743Z" fill="#184AFB" stroke="#2E3038" stroke-linecap="round" stroke-linejoin="round"/>
<path d="M85.2465 186.46C85.2465 186.46 91.1096 191.372 93.7479 192.266C96.3864 193.159 99.2446 193.977 99.2446 194.796C99.2446 195.615 92.8685 196.508 88.0315 195.987C83.1944 195.466 75.7922 193.307 74.1799 193.307C72.5675 193.307 72.8607 188.916 72.8607 188.171C72.8607 187.427 81.069 182.067 85.2465 186.46Z" fill="#2E3038" stroke="#2E3038" stroke-linecap="round" stroke-linejoin="round"/>
<path d="M99.3184 194.795C99.3184 194.498 98.9519 194.2 98.3657 193.903C93.6019 194.572 88.6916 194.498 83.9278 193.828C79.0908 193.157 75.0599 192.19 73.0078 191.669C73.1544 192.562 73.5208 193.306 74.1805 193.306C75.8661 193.306 83.1949 195.54 88.0319 195.986C92.869 196.433 99.3184 195.614 99.3184 194.795Z" fill="white" stroke="#2E3038" stroke-linecap="round" stroke-linejoin="round"/>
<path d="M56.1509 128.623C61.1345 128.251 66.1914 128.325 71.175 128.995C79.6765 130.037 98.7315 131.229 99.098 133.386C99.4645 135.545 84.2937 181.546 84.2937 182.737C84.2937 183.928 85.6129 185.119 85.9793 185.789C86.1993 186.235 86.2725 186.756 86.3458 187.352C86.3458 187.352 82.2416 191.818 79.0902 193.009C75.9388 194.2 73.2271 193.083 72.5675 193.083C71.908 193.083 71.908 188.468 72.421 186.31C72.934 184.152 73.7402 178.494 73.96 177.973C74.1799 177.452 83.2677 144.776 83.2677 144.776C83.2677 144.776 58.3495 148.869 43.472 147.157C28.5944 145.445 27.0554 143.063 26.2491 139.49C25.443 135.917 27.0554 128.772 27.0554 128.772L56.1509 128.623Z" fill="#184AFB" stroke="#2E3038" stroke-linecap="round" stroke-linejoin="round"/>
<path d="M54.2458 139.639C53.8793 140.16 53.5129 140.606 53.1465 141.054" stroke="#2E3038" stroke-linecap="round" stroke-linejoin="round"/>
<path d="M58.7902 130.484C57.8374 132.94 56.7381 135.322 55.4922 137.63" stroke="#2E3038" stroke-linecap="round" stroke-linejoin="round"/>
<path d="M56.8112 132.196C54.7591 135.545 51.7542 138.225 48.0898 139.64" stroke="#2E3038" stroke-linecap="round" stroke-linejoin="round"/>
<path d="M94.7754 141.575C95.3617 141.352 95.8747 141.129 96.3877 140.905L94.7754 141.575Z" fill="white"/>
<path d="M94.7754 141.575C95.3617 141.352 95.8747 141.129 96.3877 140.905" stroke="#2E3038" stroke-linecap="round" stroke-linejoin="round"/>
<path d="M83.1953 144.775C86.42 144.18 89.5714 143.361 92.7228 142.319L83.1953 144.775Z" fill="white"/>
<path d="M83.1953 144.775C86.42 144.18 89.5714 143.361 92.7228 142.319" stroke="#2E3038" stroke-linecap="round" stroke-linejoin="round"/>
<path d="M102.543 88.3541C102.91 86.9399 103.496 87.0143 102.983 86.5678C102.324 85.8978 101.811 86.7166 99.9784 87.7586C98.1461 88.8008 96.2406 90.1406 96.2406 90.1406C96.3139 89.7685 96.4604 89.3962 96.6803 89.0985C97.1201 88.2797 97.4132 87.3865 97.4132 86.4933C97.4132 85.7489 96.827 85.8978 96.607 86.6422C96.3872 87.3865 94.2618 88.6519 94.1885 89.2474C94.1153 89.8429 93.6755 92.1504 93.6755 92.1504C93.0159 93.1924 93.0159 97.9567 93.0159 97.9567L79.4575 108.303L72.5684 116.49C72.5684 116.49 75.5732 121.403 77.2588 120.734C78.9445 120.063 79.7507 119.393 83.7815 115.969C87.1529 113.066 95.7276 99.8173 95.7276 99.8173C97.1934 98.849 98.5859 97.8077 99.9051 96.6163C101.444 94.9044 102.324 92.6713 102.47 90.3639C102.397 89.6195 102.397 88.9496 102.543 88.3541Z" fill="white" stroke="#2E3038" stroke-linecap="round" stroke-linejoin="round"/>
<path d="M39.7356 72.5737C39.7356 72.5737 41.0548 67.661 46.4781 68.6287C51.9015 69.5963 56.1522 74.2113 57.105 75.8489C58.0577 77.4864 39.3691 75.1789 39.3691 75.1789L39.7356 72.5737Z" fill="white" stroke="#2E3038" stroke-linecap="round" stroke-linejoin="round"/>
<path d="M71.3213 115.523C71.3213 115.523 70.0754 116.937 71.3213 119.095C72.2008 120.585 73.7398 121.775 76.6714 121.254C79.4563 120.733 83.5606 113.811 83.5606 108.898C83.5606 103.986 80.0426 103.687 78.7235 104.655C77.4043 105.623 71.3213 115.523 71.3213 115.523Z" fill="white" stroke="#2E3038" stroke-linecap="round" stroke-linejoin="round"/>
<path d="M42.0798 72.0526C42.0798 72.0526 29.0343 78.3051 27.2021 79.4961C25.3699 80.6871 24.1973 95.4251 24.1973 98.0308C24.1973 100.636 26.0296 125.571 26.5426 129.814C27.0555 134.057 43.1057 136.96 48.4559 135.396C53.8059 133.834 59.0094 130.038 59.0094 128.623C59.0094 127.209 58.4964 115.746 58.8628 113.513C59.2292 111.28 62.2341 101.975 62.2341 101.975L71.3952 116.788C71.3952 116.788 72.3479 118.574 75.7191 117.16C80.5562 115.15 80.996 107.261 80.996 107.261C80.996 107.261 75.6458 97.7327 74.1068 92.9688C72.5677 88.205 71.9082 84.6322 71.2486 83.8133C70.5889 82.9946 55.4915 75.8488 52.8531 73.9879C49.775 71.5316 45.7442 70.8617 42.0798 72.0526Z" fill="white" stroke="#2E3038" stroke-linecap="round" stroke-linejoin="round"/>
<path d="M62.1619 101.901L57.8379 95.4995" stroke="#2E3038" stroke-linecap="round" stroke-linejoin="round"/>
<path d="M61.4287 101.008L53.8066 97.2114" stroke="#2E3038" stroke-linecap="round" stroke-linejoin="round"/>
<path d="M38.7812 149.763L45.4505 197.996C45.5238 198.443 45.8903 198.74 46.33 198.666H46.4033C46.7697 198.591 47.0628 198.219 46.9896 197.773L42.2991 148.944L38.7812 149.763Z" fill="#2E3038" stroke="#2E3038" stroke-linecap="round" stroke-linejoin="round"/>
<path d="M19.5806 150.135L8.3674 197.55C8.29412 197.996 8.51398 198.443 8.95371 198.517H9.027C9.39344 198.591 9.83318 198.294 9.90646 197.922L22.8786 151.921L19.5806 150.135Z" fill="#2E3038" stroke="#2E3038" stroke-linecap="round" stroke-linejoin="round"/>
<path d="M39.8078 149.539L32.6987 197.699C32.6254 198.145 32.9186 198.592 33.3584 198.666H33.4317C33.7981 198.666 34.1645 198.443 34.2378 197.996L43.2523 151.028L39.8078 149.539Z" fill="#2E3038" stroke="#2E3038" stroke-linecap="round" stroke-linejoin="round"/>
<path d="M65.0195 149.763L71.6888 197.996C71.7621 198.443 72.1285 198.74 72.5682 198.666H72.6416C73.008 198.591 73.3011 198.219 73.2278 197.773L68.4641 148.944L65.0195 149.763Z" fill="#2E3038" stroke="#2E3038" stroke-linecap="round" stroke-linejoin="round"/>
<path d="M8.95312 99.6681L17.0882 153.409H74.9129C74.9129 153.409 75.7923 137.928 73.2272 132.493C70.6621 127.059 39.2213 138.746 38.0487 138.448C37.2425 138.225 38.4884 110.535 40.0275 99.6681C40.4672 96.7652 38.4151 94.0108 35.5569 93.5642C35.337 93.5642 35.0439 93.4897 34.824 93.4897H14.2299C11.2984 93.4897 8.95312 95.8717 8.95312 98.8489C8.95312 99.147 8.95312 99.37 8.95312 99.6681Z" fill="#184AFB" stroke="#2E3038" stroke-linecap="round" stroke-linejoin="round"/>
<path d="M73.3014 132.419C70.7362 126.912 39.2955 138.672 38.1228 138.374C37.3166 138.151 38.5625 110.462 40.1016 99.5933C40.6147 96.7655 38.7824 94.0855 35.9975 93.5645C33.2125 93.0434 30.5741 94.9043 30.0611 97.7328C29.9145 98.4029 29.9145 98.9981 30.0611 99.6683L38.1961 153.41H75.0603C74.987 153.41 75.7931 137.928 73.3014 132.419Z" fill="#2E3038" stroke="#2E3038" stroke-linecap="round" stroke-linejoin="round"/>
<path d="M102.543 88.354C102.543 88.354 101.59 89.3216 100.197 90.9592L102.543 88.354Z" fill="white"/>
<path d="M102.543 88.354C102.543 88.354 101.59 89.3216 100.197 90.9592" stroke="#2E3038" stroke-linecap="round" stroke-linejoin="round"/>
<path d="M102.397 90.2148C102.397 90.2148 101.224 92.5223 100.564 93.6388L102.397 90.2148Z" fill="white"/>
<path d="M102.397 90.2148C102.397 90.2148 101.224 92.5223 100.564 93.6388" stroke="#2E3038" stroke-linecap="round" stroke-linejoin="round"/>
</g>
</g>
<defs>
<clipPath id="clip0_1_4503">
<rect width="236" height="200" fill="white"/>
</clipPath>
</defs>
</svg>
