<svg width="255" height="240" viewBox="0 0 255 240" fill="none" xmlns="http://www.w3.org/2000/svg">
<g clip-path="url(#clip0_1_5362)">
<path opacity="0.08" d="M1.53068 147.556C1.53068 147.556 9.68616 191.358 51.0505 215.094C92.4079 238.83 143.821 233.168 185.612 229.672C227.403 226.175 255.601 198.009 254.993 162.008C254.386 126.007 221.197 120.456 197.905 82.9021C174.612 45.3549 174.123 31.9197 134.059 12.7387C93.9943 -6.43541 39.5546 17.3494 16.2693 64.1807C-7.01614 111.012 1.53068 147.556 1.53068 147.556Z" fill="white"/>
<path d="M1.53068 147.556C1.53068 147.556 9.68616 191.358 51.0505 215.094C92.4079 238.83 143.821 233.168 185.612 229.672C227.403 226.175 255.601 198.009 254.993 162.008C254.386 126.007 221.197 120.456 197.905 82.9021C174.612 45.3549 174.123 31.9197 134.059 12.7387C93.9943 -6.43541 39.5546 17.3494 16.2693 64.1807C-7.01614 111.012 1.53068 147.556 1.53068 147.556Z" fill="white"/>
<path d="M254.306 94.4783C258.778 68.3497 241.171 43.5534 214.983 39.0922C188.795 34.6312 163.939 52.1955 159.467 78.322C154.996 104.451 172.602 129.247 198.79 133.707C224.978 138.169 249.834 120.605 254.306 94.4783Z" fill="#184AFB"/>
<path d="M218.998 119.025C237.057 112.352 246.278 92.3363 239.59 74.3176C232.9 56.299 212.838 47.102 194.776 53.7751C176.715 60.4483 167.497 80.4639 174.185 98.4826C180.873 116.501 200.937 125.698 218.998 119.025Z" fill="white"/>
<path d="M215.581 105.534C226.797 101.637 232.533 89.91 228.397 79.3415C224.259 68.775 211.813 63.3683 200.599 67.2652C189.383 71.164 183.644 82.8909 187.782 93.4594C191.92 104.026 204.365 109.433 215.581 105.534Z" fill="#184AFB"/>
<path d="M206.886 97.2001C212.865 97.2001 217.712 92.365 217.712 86.401C217.712 80.4352 212.865 75.6001 206.886 75.6001C200.909 75.6001 196.062 80.4352 196.062 86.401C196.062 92.365 200.909 97.2001 206.886 97.2001Z" fill="#111111"/>
<path d="M151.908 57.2855C151.342 57.2855 150.874 56.8327 150.859 56.2686C150.859 56.1294 150.336 42.2206 145.15 32.3445C143.941 30.0392 142.767 28.1656 141.656 26.2922C137.771 20.0238 135.045 7.63342 134.863 0.522359C134.863 0.236803 135.101 0 135.387 0C135.673 0 135.912 0.236803 135.912 0.522359C136.086 7.36876 139.72 19.2159 143.438 25.2404C144.598 27.114 145.793 29.0502 147.03 31.4182C152.438 41.7261 152.956 55.6557 152.977 56.2477C152.991 56.8188 152.537 57.2994 151.964 57.3203L151.908 57.2855Z" fill="#2E3038"/>
<path d="M132.571 138C132.312 138 132.095 137.812 132.054 137.561C131.529 134.288 134.317 118.359 140.076 109.528C145.834 100.697 146.429 93.3908 146.435 93.3143C146.471 92.7362 146.973 92.2973 147.553 92.3392C148.133 92.374 148.574 92.8754 148.533 93.4535C148.533 93.7669 147.98 101.268 141.844 110.677C135.855 119.858 132.668 134.727 133.102 137.409C133.144 137.694 132.948 137.958 132.661 138H132.571Z" fill="#2E3038"/>
<path d="M150.272 54.8478L149.399 63.902L150.097 66.862C150.097 66.862 149.922 73.6528 149.748 77.1351C149.628 79.3151 149.272 81.4742 148.699 83.5775L146.777 87.0599L146.254 94.1988L148.874 94.373C148.874 94.373 152.193 75.394 152.543 71.0409C152.892 66.6879 152.892 54.4995 152.892 54.4995L150.272 54.8478Z" fill="#184AFB" stroke="#2E3038" stroke-linecap="round" stroke-linejoin="round"/>
<path d="M69.3813 225.137C68.962 227.568 68.3191 229.963 67.4595 232.276C66.2366 235.236 65.7123 237.499 67.11 238.37C68.5077 239.24 69.7307 241.156 73.5743 237.499C77.418 233.843 77.418 231.579 77.418 229.664C77.4529 228.152 77.5717 226.642 77.7674 225.137C77.7674 225.137 72.5261 222.525 69.3813 225.137Z" fill="white" stroke="#2E3038" stroke-linecap="round" stroke-linejoin="round"/>
<path d="M103.1 211.709C103.1 211.709 103.331 211.952 103.722 212.315C104.875 213.422 106.196 214.334 107.642 215.017C110.089 216.062 112.36 216.584 112.36 217.804C112.36 219.022 109.913 219.196 106.769 219.196C103.624 219.196 101.178 218.325 99.2565 218.152C97.3346 217.977 94.0151 217.977 93.491 217.977C92.9668 217.977 91.7439 215.54 92.4427 212.928C93.1416 210.316 98.2081 209.097 99.7806 209.968C101.353 210.838 103.1 211.709 103.1 211.709Z" fill="white" stroke="#2E3038" stroke-linecap="round" stroke-linejoin="round"/>
<path d="M78.8154 120.665C78.8154 120.665 76.719 131.461 76.3695 135.291C76.0202 139.122 76.719 154.967 76.3695 157.753C76.0202 160.538 73.5742 179.343 73.3995 183C73.2248 186.657 70.6041 191.183 70.6041 196.93V218.172C70.6041 218.172 68.6823 220.262 69.0317 221.655C69.2624 222.804 69.3812 223.967 69.3812 225.137C70.5901 224.42 72.0437 224.232 73.3995 224.615C75.496 225.311 77.942 226.356 77.942 226.356C78.7665 224.74 79.1859 222.943 79.1649 221.132C79.1649 217.998 78.9902 215.386 79.3397 214.864C79.689 214.342 81.2615 198.323 83.5326 193.447C85.8039 188.571 89.8223 160.017 90.3464 158.449L94.0153 147.479C94.0153 147.479 94.19 173.423 94.19 176.906C94.19 180.388 93.4911 185.611 93.4911 189.268C93.4911 192.925 93.3165 204.591 93.3165 205.114C93.3165 205.635 91.9188 208.074 91.9188 208.77C91.9188 209.466 92.7923 214.515 92.7923 214.515C92.7923 214.515 96.636 212.426 98.2083 212.078C99.8296 211.835 101.465 211.722 103.1 211.73C102.688 210.47 102.164 209.244 101.528 208.074C100.829 207.028 102.227 200.063 102.052 197.452C101.877 194.84 105.197 183.697 106.245 177.428C107.293 171.159 107.468 145.913 107.119 142.43C106.769 138.947 106.594 134.594 106.594 134.594V120.665C106.594 120.665 101.877 124.322 92.2682 121.884C82.6592 119.446 79.1649 118.575 78.8154 120.665Z" fill="#2E3038" stroke="#2E3038" stroke-linecap="round" stroke-linejoin="round"/>
<path d="M128.956 72.2597L146.253 72.0855L149.747 70.3443C149.747 70.3443 153.416 69.9961 153.94 71.7373C154.465 73.4785 154.814 75.2197 153.765 75.0455C153.123 74.9062 152.592 74.4466 152.368 73.8267C151.823 74.565 151.102 75.164 150.272 75.5679C149.3 76.0763 148.147 76.146 147.126 75.7421L127.733 80.4433C128.328 77.7479 128.74 75.0107 128.956 72.2597Z" fill="white" stroke="#2E3038" stroke-linecap="round" stroke-linejoin="round"/>
<path d="M121.619 72.9563C122.339 72.5802 123.101 72.2877 123.89 72.0857C124.415 72.0857 128.782 70.1704 130.18 73.3045C131.578 76.4387 131.229 79.3988 128.433 81.14C125.637 82.8812 122.842 81.6623 122.667 80.6176C122.493 79.5729 121.619 72.9563 121.619 72.9563Z" fill="#184AFB" stroke="#2E3038" stroke-linecap="round" stroke-linejoin="round"/>
<path d="M49.3945 48.9066C50.0794 53.4059 51.2045 57.8216 52.7629 62.098C55.2928 68.9374 64.6432 75.1709 69.6121 79.8512C72.2886 82.3168 74.7415 85.0052 76.9499 87.8886C76.9499 87.8886 79.8431 105.398 79.2421 109.716C78.641 114.034 78.033 120.86 78.2777 121.828C78.5222 122.797 90.3117 125.909 96.3287 125.185C102.346 124.461 106.811 122.071 107.398 119.913C107.986 117.754 107.88 115.595 108.097 112.948C108.314 110.301 110.019 99.276 110.019 94.7141C110.019 90.1522 109.536 84.2669 109.536 84.2669C109.536 84.2669 125.904 81.6272 126.868 80.4293C127.833 79.2314 127.714 74.9132 126.386 73.7083C125.058 72.5034 114.352 72.6288 113.632 72.6288C112.912 72.6288 109.781 71.194 106.644 71.194C103.506 71.194 93.6452 69.996 92.3243 69.5154C90.2628 68.8608 88.1592 68.3454 86.0348 67.9553C83.1486 67.3564 75.5522 65.6779 75.5522 65.6779C75.5522 65.6779 69.0529 61.499 66.4044 58.713C63.7557 55.9272 60.5062 52.3542 56.1734 50.3136C51.8405 48.2728 49.8767 46.7475 49.3945 48.9066Z" fill="#184AFB" stroke="#2E3038" stroke-linecap="round" stroke-linejoin="round"/>
<path d="M53.7549 62.0984L60.8551 57.7803C60.8551 57.7803 56.662 62.8158 55.439 64.3759" stroke="#2E3038" stroke-linecap="round" stroke-linejoin="round"/>
<path d="M61.7849 57.418C61.7849 57.418 60.8275 63.54 59.3809 66.0543" stroke="#2E3038" stroke-linecap="round" stroke-linejoin="round"/>
<path d="M83.707 80.6178L76.3691 66.3398L81.7852 82.359" stroke="#2E3038" stroke-linecap="round" stroke-linejoin="round"/>
<path d="M109.739 76.0905L109.564 84.288L112.186 74.8716" stroke="#2E3038" stroke-linecap="round" stroke-linejoin="round"/>
<path d="M86.8027 111.562C86.9353 111.939 87.0677 112.287 87.2002 112.607" stroke="#2E3038" stroke-linecap="round" stroke-linejoin="round"/>
<path d="M77.0684 74.2866C77.0684 74.2866 82.0511 96.6158 85.6921 108.247" stroke="#2E3038" stroke-linecap="round" stroke-linejoin="round"/>
<path d="M94.1897 78.006L97.6839 82.8813L92.792 115.442L97.1597 122.922L101.353 113.874L99.431 82.7072L101.528 76.9612L96.9851 72.9565L94.1897 78.006Z" fill="#2E3038" stroke="#2E3038" stroke-linecap="round" stroke-linejoin="round"/>
<path d="M90.1918 65.2183L87.8997 66.1794L86.0967 67.9763L90.9117 80.8124L97.2012 77.1281L103.693 79.2175C103.693 79.2175 99.9686 70.9364 98.0398 68.1783C96.111 65.4202 90.1918 65.2183 90.1918 65.2183Z" fill="#184AFB" stroke="#2E3038" stroke-linecap="round" stroke-linejoin="round"/>
<path d="M103.771 43.8576C103.771 43.8576 104.547 45.4038 106.287 42.7014C108.027 39.9991 107.685 36.5167 106.483 37.1296C105.281 37.7425 105.127 39.4489 105.127 39.4489C103.708 38.4877 102.136 37.7843 100.473 37.3594C98.3762 36.9694 89.9901 37.3594 87.0899 40.2569C84.1898 43.1542 83.5957 47.9878 84.7628 50.307C85.9298 52.6263 89.6127 61.5134 89.6127 61.5134C89.6127 61.5134 93.1069 60.1622 95.2384 59.4239C97.3698 58.6856 101.234 52.4591 101.626 48.9767C102.017 45.4944 101.828 45.4944 101.828 45.4944L103.771 43.8576Z" fill="#2E3038" stroke="#2E3038" stroke-linecap="round" stroke-linejoin="round"/>
<path d="M103.771 43.8573C104.526 45.6195 105.176 47.4303 105.707 49.2691C106.098 51.0103 105.322 51.7833 106.098 52.9395L108.034 55.8438L106.482 58.1631C106.482 58.1631 106.482 63.7349 106.287 64.9259C106.23 66.0542 105.267 66.9247 104.134 66.8691C104.078 66.8691 104.015 66.8621 103.959 66.8551C102.513 66.7437 101.087 66.486 99.6966 66.0821L97.1738 77.1003L89.6123 66.4721V61.4435L92.9109 57.9611C92.9109 57.9611 90.9681 54.4787 91.9395 53.3226C92.9109 52.1664 93.2952 50.4252 94.4623 51.9714C95.1332 52.8002 95.5385 53.81 95.6224 54.8687L96.9781 54.6737L97.3694 51.3864C97.3694 51.3864 100.668 50.0352 100.472 48.294C100.277 46.5527 98.3758 45.5916 98.1452 44.2404C97.9145 42.8892 103.771 43.8573 103.771 43.8573Z" fill="white" stroke="#2E3038" stroke-linecap="round" stroke-linejoin="round"/>
<path d="M105.114 50.2232C105.114 50.2232 103.548 48.7816 102.108 50.1048" stroke="#2E3038" stroke-linecap="round" stroke-linejoin="round"/>
<path d="M104.394 53.2248C104.394 53.7541 104.233 54.179 104.03 54.179C103.828 54.179 103.667 53.7541 103.667 53.2248C103.667 52.6955 103.835 52.2637 104.03 52.2637C104.226 52.2637 104.394 52.6955 104.394 53.2248Z" fill="#2E3038"/>
<path d="M135.832 6.79102L101.121 64.5988L133.037 132.15" stroke="#2E3038" stroke-linecap="round" stroke-linejoin="round"/>
<path d="M113.283 64.5987C113.283 64.5987 110.781 66.2633 109.788 66.4305C108.796 66.5976 102.8 65.2674 102.8 65.2674L104.47 60.7681C104.47 60.7681 109.648 61.4646 110.815 61.771C111.983 62.0775 113.283 64.5987 113.283 64.5987Z" fill="white" stroke="#2E3038" stroke-linecap="round" stroke-linejoin="round"/>
<path d="M157.358 70.4979H157.316L106.482 63.6933C106.203 63.6305 106.021 63.352 106.091 63.0665C106.147 62.8157 106.378 62.6485 106.629 62.6624L157.393 69.9755C157.54 69.9965 157.638 70.1287 157.617 70.275C157.595 70.4004 157.483 70.4979 157.358 70.4979Z" fill="#2E3038"/>
<path d="M98.9771 58.4832C98.9771 58.4832 104.393 60.8861 105.833 61.0046C107.273 61.1229 107.042 61.9657 106.532 63.1636C106.022 64.3615 105.33 68.1992 104.246 68.3246C103.163 68.4499 100.515 67.3634 100.515 67.0012C100.515 66.639 101.472 66.4023 101.472 66.4023C101.472 66.4023 98.8303 66.2838 97.8659 65.3227C96.9015 64.3615 94.6164 61.8403 94.6164 61.8403C94.6164 61.8403 75.3562 59.5558 72.1137 59.5558C68.8711 59.5558 57.6686 58.9569 54.9012 58.6016C52.1338 58.2464 51.2882 57.0415 50.0862 54.5203C48.8842 51.9991 48.6396 47.444 49.9674 46.9635C51.2952 46.4829 60.7994 47.5625 64.2866 49.0041C67.7739 50.4459 84.5042 54.8825 87.5161 56.1988C90.5281 57.5151 98.9771 58.4832 98.9771 58.4832Z" fill="white" stroke="#2E3038" stroke-linecap="round" stroke-linejoin="round"/>
<path d="M62.2035 59.18C61.6095 57.7105 61.1132 56.1991 60.701 54.6668C60.1978 52.6609 60.8058 49.7288 61.2251 48.1339C56.9762 47.1866 51.022 46.6225 49.9947 46.9916C48.6669 47.4721 48.9115 52.0272 50.1136 54.5484C51.3155 57.0696 52.1611 58.2676 54.9286 58.6298C56.1585 58.783 59.0726 58.985 62.2035 59.18Z" fill="#184AFB" stroke="#2E3038" stroke-linecap="round" stroke-linejoin="round"/>
<path d="M56.6135 46.7475C55.9426 49.0181 55.9426 51.4417 56.6135 53.7123C57.1167 55.8714 57.9763 57.9399 59.1433 59.8274L64.5593 60.3079L65.0345 59.4652C65.0345 59.4652 62.0295 56.4703 61.785 53.7123C61.6521 52.0546 62.2741 50.4249 63.4761 49.2688C63.4761 49.2688 58.5423 44.8252 56.6135 46.7475Z" fill="#184AFB" stroke="#2E3038" stroke-linecap="round" stroke-linejoin="round"/>
</g>
<defs>
<clipPath id="clip0_1_5362">
<rect width="255" height="240" fill="white"/>
</clipPath>
</defs>
</svg>
