<svg width="214" height="200" viewBox="0 0 214 200" fill="none" xmlns="http://www.w3.org/2000/svg">
<g clip-path="url(#clip0_1_4042)">
<g opacity="0.08">
<path opacity="0.08" d="M2.03087 118.512C2.03087 118.512 8.85094 155.144 43.4422 174.995C78.0276 194.845 121.023 190.11 155.97 187.186C190.918 184.262 214.499 160.706 213.991 130.598C213.482 100.49 185.729 95.8478 166.25 64.4411C146.772 33.0399 146.363 21.804 112.859 5.7627C79.3542 -10.2728 33.8345 9.62453 14.356 48.79C-5.11648 87.9556 2.03087 118.512 2.03087 118.512Z" fill="#184AFB"/>
<path opacity="0.7" d="M2.03087 118.512C2.03087 118.512 8.85094 155.144 43.4422 174.995C78.0276 194.845 121.023 190.11 155.97 187.186C190.918 184.262 214.499 160.706 213.991 130.598C213.482 100.49 185.729 95.8478 166.25 64.4411C146.772 33.0399 146.363 21.804 112.859 5.7627C79.3542 -10.2728 33.8345 9.62453 14.356 48.79C-5.11648 87.9556 2.03087 118.512 2.03087 118.512Z" fill="#184AFB"/>
</g>
<mask id="mask0_1_4042" style="mask-type:luminance" maskUnits="userSpaceOnUse" x="6" y="0" width="193" height="200">
<path d="M198.234 0.194458H6.36719V199.805H198.234V0.194458Z" fill="white"/>
</mask>
<g mask="url(#mask0_1_4042)">
<path d="M85.5233 73.5494L65.5879 148.605L88.1392 135.178L100.994 154.066L99.3694 75.1159L85.5233 73.5494Z" fill="#184AFB"/>
<path d="M88.9962 131.151L70.4141 142.25L87.7786 76.8167L96.4382 77.8013L97.7915 143.951L88.9962 131.151Z" fill="white"/>
<path d="M113.082 74.0867L144.879 145.069L123.861 134.507L110.781 156.035L99.6406 77.8909L113.082 74.0867Z" fill="#184AFB"/>
<path d="M103.023 80.0391L111.367 77.7118L138.654 138.58L122.733 130.568L112.585 147.262L103.023 80.0391Z" fill="white"/>
<path d="M142.082 54.5282C142.082 58.4667 135.181 61.2864 134.009 64.8668C132.79 68.5368 136.669 74.8473 134.414 77.9355C132.159 81.0236 124.897 79.3229 121.74 81.5607C118.583 83.7985 118.087 91.1833 114.344 92.3912C110.735 93.5549 105.909 87.916 101.941 87.916C97.9713 87.916 93.1452 93.5107 89.5374 92.3912C85.8386 91.1833 85.2523 83.7985 82.1402 81.5607C79.028 79.3229 71.7665 81.0236 69.4663 77.9355C67.1661 74.8473 71.09 68.5815 69.8722 64.8668C68.6996 61.2864 61.7988 58.5115 61.7988 54.5282C61.7988 50.5449 68.6996 47.7701 69.8722 44.1896C71.09 40.5196 67.2112 34.209 69.4663 31.1209C71.7214 28.0327 78.9829 29.7334 82.1402 27.4956C85.2974 25.2579 85.7935 17.8732 89.5374 16.6648C93.1452 15.5011 97.926 21.0956 101.941 21.0956C105.954 21.0956 110.735 15.5011 114.344 16.6648C118.042 17.8732 118.628 25.2579 121.74 27.4956C124.853 29.7334 132.114 28.0327 134.414 31.1209C136.714 34.209 132.79 40.5196 134.009 44.1896C135.181 47.7701 142.082 50.5896 142.082 54.5282Z" fill="#184AFB"/>
<path opacity="0.6" d="M137.706 54.5281C137.706 58.0638 131.528 60.5701 130.49 63.7478C129.408 67.0598 132.881 72.6542 130.851 75.3843C128.821 78.1145 122.372 76.5927 119.576 78.6068C116.778 80.6207 116.327 87.1999 112.99 88.274C109.787 89.3036 105.503 84.2907 101.94 84.2907C98.3771 84.2907 94.0918 89.2584 90.935 88.2292C87.5973 87.1551 87.1012 80.576 84.35 78.562C81.5987 76.548 75.1039 78.0697 73.0743 75.3396C71.0447 72.6095 74.5176 67.015 73.4352 63.703C72.3978 60.5254 66.2188 58.0191 66.2188 54.4834C66.2188 50.9476 72.3526 48.4414 73.4352 45.2637C74.5176 41.9965 71.0447 36.3573 73.0743 33.6271C75.0588 30.897 81.5536 32.4187 84.35 30.4047C87.1463 28.3907 87.5973 21.8116 90.935 20.7375C94.137 19.7081 98.4224 24.7207 101.985 24.7207C105.548 24.7207 109.833 19.7081 113.036 20.7375C116.373 21.8116 116.869 28.3907 119.62 30.4047C122.372 32.4187 128.866 30.8522 130.896 33.6271C132.925 36.402 129.452 41.9965 130.535 45.2637C131.573 48.486 137.706 50.9924 137.706 54.5281Z" fill="white"/>
<path d="M101.987 84.067C118.427 84.067 131.754 70.8419 131.754 54.5281C131.754 38.2142 118.427 24.9893 101.987 24.9893C85.5462 24.9893 72.2188 38.2142 72.2188 54.5281C72.2188 70.8419 85.5462 84.067 101.987 84.067Z" fill="white"/>
<path d="M88.7969 44.0309L98.6959 36.2832H107.761V64.9529V71.6814H97.1781L97.1847 64.9529V46.1567L92.7873 49.4539L88.7969 44.0309Z" fill="#184AFB"/>
<path d="M188.357 86.5286C187.68 83.4403 187.32 83.6194 183.576 82.411C179.427 81.1131 175.142 80.397 170.812 80.2627C168.016 80.1732 165.219 80.4865 162.559 81.2026C162.559 81.2026 157.822 81.7844 154.44 82.5453C151.508 88.3188 154.801 96.2408 154.801 96.2408C154.801 96.2408 158.95 105.236 158.95 109.846C158.95 114.456 155.387 122.512 155.252 122.736C155.117 122.959 144.337 141.534 141.586 147.844C138.834 154.155 138.79 156.705 140.278 159.212C141.766 161.719 158.59 184.678 158.59 184.678C158.59 184.678 154.079 189.825 152.004 191.123C149.929 192.42 147.359 192.644 148.261 193.764C149.163 194.882 155.117 195.285 156.74 194.928C158.364 194.569 162.062 191.347 164.182 189.87C166.302 188.393 168.242 187.364 167.429 185.528C166.618 183.694 164.859 182.082 164.092 180.605C163.325 179.128 160.709 174.876 159.221 169.64C157.733 164.404 156.65 161.226 154.936 158.362C153.222 155.497 152.05 154.423 152.05 154.423C152.05 154.423 158.409 148.65 161.792 145.696C165.175 142.742 168.196 140.37 168.196 140.37C168.196 140.37 179.697 128.643 180.735 126.093C181.772 123.542 184.569 115.486 186.643 108.458C188.718 101.432 189.033 89.6169 188.357 86.5286Z" fill="#184AFB" stroke="#2E3038" stroke-width="0.9672" stroke-linecap="round" stroke-linejoin="round"/>
<path d="M154.801 96.2408C154.801 96.2408 151.508 88.3188 154.44 82.5453C153.629 82.7243 152.862 82.9481 152.095 83.1719C149.298 84.2013 135.632 89.885 134.234 90.5116C132.836 91.1381 130.266 93.2417 130.897 95.4346C131.528 97.6284 132.611 98.2992 137.301 98.3443C141.992 98.3886 154.801 96.2408 154.801 96.2408Z" fill="#2E3038" stroke="#2E3038" stroke-width="0.9672" stroke-linecap="round" stroke-linejoin="round"/>
<path d="M144.742 56.2736C144.742 56.2736 148.936 58.3771 149.162 58.7798C149.387 59.1827 149.071 59.9436 148.801 60.5253C148.53 61.1072 146.906 62.4946 146.14 62.8079C145.373 63.1212 146.005 60.9282 146.005 59.675C146.005 58.4219 143.839 57.3925 143.659 56.8106C143.479 56.2288 144.201 56.0497 144.742 56.2736Z" fill="white" stroke="#2E3038" stroke-width="0.9672" stroke-linecap="round" stroke-linejoin="round"/>
<path d="M136.714 97.8514L135.09 98.2992C133.466 98.747 130.67 98.9709 130.219 98.3886C129.768 97.8072 128.234 90.0638 128.46 85.7229C128.686 81.3815 135.18 62.9422 135.902 61.5547C136.624 60.1673 142.983 55.6469 142.983 55.6469C142.983 55.6469 143.795 55.4231 144.742 56.3183C145.689 57.2134 148.44 59.0484 148.305 59.7645C148.17 60.4806 146.591 62.7184 145.96 63.3001C145.329 63.882 144.246 63.3001 144.246 63.3001C144.246 63.3001 143.434 64.6876 142.397 65.1352C141.359 65.5827 138.924 65.0456 138.924 65.0456C138.924 65.0456 136.939 77.3535 137.525 82.0529C138.112 86.7522 139.284 92.2125 138.427 94.8532" fill="#2E3038"/>
<path d="M136.714 97.8514L135.09 98.2992C133.466 98.747 130.67 98.9709 130.219 98.3886C129.768 97.8072 128.234 90.0638 128.46 85.7229C128.686 81.3815 135.18 62.9422 135.902 61.5547C136.624 60.1673 142.983 55.6469 142.983 55.6469C142.983 55.6469 143.795 55.4231 144.742 56.3183C145.689 57.2134 148.44 59.0484 148.305 59.7645C148.17 60.4806 146.591 62.7184 145.96 63.3001C145.329 63.882 144.246 63.3001 144.246 63.3001C144.246 63.3001 143.434 64.6876 142.397 65.1352C141.359 65.5827 138.924 65.0456 138.924 65.0456C138.924 65.0456 136.939 77.3535 137.525 82.0529C138.112 86.7522 139.284 92.2125 138.427 94.8532" stroke="#2E3038" stroke-width="0.9672" stroke-linecap="round" stroke-linejoin="round"/>
<path d="M142.397 65.0457C143.434 64.5982 144.246 63.2107 144.246 63.2107C144.246 63.2107 145.284 63.7925 145.96 63.2107C146.636 62.6289 148.17 60.4359 148.306 59.675C148.441 58.9142 145.735 57.1239 144.742 56.2288C143.75 55.3337 142.983 55.5575 142.983 55.5575C142.983 55.5575 136.623 60.0778 135.902 61.4652C135.722 61.8233 135.226 63.166 134.504 65.0457C135.722 65.896 137.165 66.4331 138.653 66.6122C138.788 65.538 138.924 64.9114 138.924 64.9114C138.924 64.9114 141.36 65.4933 142.397 65.0457Z" fill="white" stroke="#2E3038" stroke-width="0.9672" stroke-linecap="round" stroke-linejoin="round"/>
<path d="M148.938 60.391C148.938 60.391 149.975 60.6596 149.66 61.4204C149.343 62.1813 148.261 62.9422 147.584 62.8974C146.908 62.8526 146.773 61.9575 147.224 61.1967C147.675 60.4358 148.577 60.0778 148.938 60.391Z" fill="white" stroke="#2E3038" stroke-width="0.9672" stroke-linecap="round" stroke-linejoin="round"/>
<path d="M144.247 63.2554C144.247 63.2554 143.66 62.584 144.022 62.0917C144.382 61.5994 145.15 61.9575 145.15 61.9575L144.022 60.5701" stroke="#2E3038" stroke-width="0.9672" stroke-linecap="round" stroke-linejoin="round"/>
<path d="M152.997 116.694C155.313 116.694 157.191 114.83 157.191 112.532C157.191 110.233 155.313 108.369 152.997 108.369C150.681 108.369 148.803 110.233 148.803 112.532C148.803 114.83 150.681 116.694 152.997 116.694Z" fill="white" stroke="#2E3038" stroke-width="0.9672" stroke-linecap="round" stroke-linejoin="round"/>
<path d="M151.914 108.458C152.815 106.087 154.71 104.251 157.101 103.401C161.25 101.88 167.97 100.268 171.849 95.2106C175.728 90.1531 174.33 80.4415 174.33 80.4415L177.352 80.8444C177.352 80.8444 176.946 90.5567 175.007 95.7036C173.067 100.85 167.159 103.759 162.422 104.565C157.687 105.371 153.853 105.281 151.914 108.458Z" fill="white" stroke="#2E3038" stroke-width="0.9672" stroke-linecap="round" stroke-linejoin="round"/>
<path d="M151.915 108.459C151.915 108.459 151.419 105.147 154.44 101.701C157.462 98.255 162.288 94.4505 163.1 90.9143C163.912 87.379 163.01 81.2474 163.01 81.2474L165.626 80.5312C166.347 83.7537 166.347 87.0657 165.716 90.2877C164.588 95.2559 161.837 97.6727 158.41 100.268C154.981 102.865 151.915 108.459 151.915 108.459Z" fill="white" stroke="#2E3038" stroke-width="0.9672" stroke-linecap="round" stroke-linejoin="round"/>
<path d="M185.335 83.8879C183.575 85.3201 182.493 87.4236 182.313 89.6611C181.997 93.4656 182.673 103.491 182.673 107.474C182.673 111.458 179.742 117.366 180.148 120.453C180.554 123.542 184.658 127.166 186.868 124.795C189.078 122.423 190.792 114.635 191.604 104.565C192.416 94.4948 191.739 87.7817 190.477 85.7676C189.213 83.7536 187.184 82.3662 185.335 83.8879Z" fill="#2E3038" stroke="#2E3038" stroke-width="0.9672" stroke-linecap="round" stroke-linejoin="round"/>
<path d="M187.772 121.751C187.321 124.258 185.922 126.674 184.434 127.166C182.946 127.659 181.277 125.645 178.887 121.841C176.496 118.036 175.278 113.874 174.376 109.489C173.564 105.46 172.978 101.432 172.617 97.3594C172.527 95.6585 172.617 95.2116 173.564 94.2266C174.512 93.2417 177.985 92.3912 177.985 92.3912L178.571 91.362C178.842 90.87 180.42 90.5567 181.141 91.0045C181.863 91.4514 182.269 93.8682 182.269 93.8682C182.269 93.8682 184.344 95.032 184.344 96.1957C184.344 97.3594 182.991 98.6125 181.548 100.582C180.104 102.551 179.653 101.835 179.473 103.67C179.293 105.505 180.375 107.922 182.179 109.578C183.983 111.234 186.689 113.292 187.411 116.605" fill="#2E3038"/>
<path d="M187.772 121.751C187.321 124.258 185.922 126.674 184.434 127.166C182.946 127.659 181.277 125.645 178.887 121.841C176.496 118.036 175.278 113.874 174.376 109.489C173.564 105.46 172.978 101.432 172.617 97.3594C172.527 95.6585 172.617 95.2116 173.564 94.2266C174.512 93.2417 177.985 92.3912 177.985 92.3912L178.571 91.362C178.842 90.87 180.42 90.5567 181.141 91.0045C181.863 91.4514 182.269 93.8682 182.269 93.8682C182.269 93.8682 184.344 95.032 184.344 96.1957C184.344 97.3594 182.991 98.6125 181.548 100.582C180.104 102.551 179.653 101.835 179.473 103.67C179.293 105.505 180.375 107.922 182.179 109.578C183.983 111.234 186.689 113.292 187.411 116.605" stroke="#2E3038" stroke-width="0.9672" stroke-linecap="round" stroke-linejoin="round"/>
<path d="M179.518 103.983C179.518 103.849 179.518 103.714 179.518 103.581C179.653 101.745 180.104 102.461 181.592 100.492C183.081 98.5231 184.389 97.27 184.389 96.1063C184.389 94.9426 182.314 93.7789 182.314 93.7789C182.314 93.7789 181.954 91.3621 181.186 90.9143C180.42 90.4674 178.886 90.7807 178.616 91.2727L178.03 92.3019C178.03 92.3019 174.557 93.1072 173.609 94.1373C172.662 95.1665 172.572 95.6143 172.662 97.27C172.707 98.3444 173.068 101.297 173.564 104.431C175.503 104.834 177.578 104.655 179.518 103.983Z" fill="white" stroke="#2E3038" stroke-width="0.9672" stroke-linecap="round" stroke-linejoin="round"/>
<path d="M180.87 125.913C171.984 122.959 160.98 121.573 156.019 121.035C155.612 122.065 155.297 122.691 155.252 122.781C155.117 123.004 144.337 141.578 141.586 147.888C138.834 154.199 138.79 156.75 140.278 159.257C141.766 161.763 158.59 184.723 158.59 184.723C161.295 184.41 163.731 182.574 164.768 181.68C164.542 181.366 164.318 181.008 164.137 180.695C163.416 179.218 160.754 174.966 159.266 169.729C157.778 164.493 156.695 161.315 154.981 158.451C153.267 155.587 152.095 154.512 152.095 154.512C152.095 154.512 158.454 148.739 161.837 145.785C165.219 142.831 168.242 140.459 168.242 140.459C168.242 140.459 179.743 128.734 180.78 126.182C180.78 126.048 180.825 125.958 180.87 125.913Z" fill="#2E3038" stroke="#2E3038" stroke-width="0.9672" stroke-linecap="round" stroke-linejoin="round"/>
<path d="M164.723 181.68C163.866 183.29 160.348 186.334 160.348 186.334C160.348 186.334 159.446 185.394 158.949 184.723C158.543 184.23 158.408 184.365 158.363 184.454L158.589 184.723C158.589 184.723 154.079 189.87 152.003 191.167C149.929 192.466 147.358 192.689 148.26 193.808C149.162 194.927 155.116 195.33 156.739 194.972C158.363 194.614 162.061 191.391 164.181 189.914C166.302 188.437 168.241 187.408 167.428 185.573C166.753 184.141 165.58 182.888 164.723 181.68Z" fill="#184AFB" stroke="#2E3038" stroke-width="0.9672" stroke-linecap="round" stroke-linejoin="round"/>
<path d="M155.522 194.077C153.989 194.48 149.884 193.629 148.08 193.182C147.99 193.405 148.035 193.629 148.216 193.764C149.117 194.882 155.071 195.285 156.695 194.928C158.318 194.569 162.017 191.347 164.137 189.87C166.257 188.393 168.196 187.364 167.384 185.528C167.294 185.305 167.159 185.126 167.068 184.902C166.663 185.394 166.211 185.976 165.76 186.558C164.452 188.213 157.507 193.54 155.522 194.077Z" fill="white" stroke="#2E3038" stroke-width="0.9672" stroke-linecap="round" stroke-linejoin="round"/>
<path d="M176.359 129.583C176.359 129.583 169.91 123.855 163.686 121.841C157.462 119.827 145.735 120.364 142.803 121.573C139.872 122.781 141.089 126.496 141.18 130.792C141.27 135.089 144.202 143.1 145.464 147.62C146.727 152.141 147.178 157.197 147.314 158.988C147.449 160.778 147.449 161.404 147.449 161.404C147.449 161.404 139.241 161.315 137.12 161.136C135.001 160.958 133.738 161.584 133.377 162.3C133.152 162.658 133.061 163.105 133.152 163.553C133.152 163.553 138.699 167.134 143.48 169.103C148.261 171.072 152.861 172.326 153.448 172.012C154.034 171.699 154.62 167.268 154.62 164.18C154.62 161.091 155.568 146.322 155.568 143.681V136.879C155.568 136.879 169.865 144.443 175.548 142.652C181.231 140.862 180.87 125.958 180.87 125.958L176.27 124.526" fill="#2E3038"/>
<path d="M176.359 129.583C176.359 129.583 169.91 123.855 163.686 121.841C157.462 119.827 145.735 120.364 142.803 121.573C139.872 122.781 141.089 126.496 141.18 130.792C141.27 135.089 144.202 143.1 145.464 147.62C146.727 152.141 147.178 157.197 147.314 158.988C147.449 160.778 147.449 161.404 147.449 161.404C147.449 161.404 139.241 161.315 137.12 161.136C135.001 160.958 133.738 161.584 133.377 162.3C133.152 162.658 133.061 163.105 133.152 163.553C133.152 163.553 138.699 167.134 143.48 169.103C148.261 171.072 152.861 172.326 153.448 172.012C154.034 171.699 154.62 167.268 154.62 164.18C154.62 161.091 155.568 146.322 155.568 143.681V136.879C155.568 136.879 169.865 144.443 175.548 142.652C181.231 140.862 180.87 125.958 180.87 125.958L176.27 124.526" stroke="#2E3038" stroke-width="0.9672" stroke-linecap="round" stroke-linejoin="round"/>
<path d="M147.404 161.36C147.404 161.36 139.196 161.271 137.076 161.092C134.956 160.912 133.693 161.539 133.333 162.256C133.107 162.613 133.016 163.061 133.107 163.509C133.107 163.509 138.654 167.089 143.435 169.059C148.217 171.028 152.816 172.281 153.403 171.967C153.899 171.699 154.44 168.208 154.575 165.299C151.508 162.703 147.404 161.36 147.404 161.36Z" fill="#184AFB" stroke="#2E3038" stroke-width="0.9672" stroke-linecap="round" stroke-linejoin="round"/>
<path d="M153.403 171.967C153.629 171.878 153.854 171.073 154.08 170.042C151.508 169.864 148.983 169.282 146.547 168.387C142.398 166.82 135.587 163.553 133.242 162.389C133.107 162.703 133.016 163.105 133.107 163.464C133.107 163.464 138.654 167.044 143.435 169.013C148.216 170.982 152.816 172.236 153.403 171.967Z" fill="white" stroke="#2E3038" stroke-width="0.9672" stroke-linecap="round" stroke-linejoin="round"/>
<path d="M155.521 136.834C155.521 136.834 155.431 130.479 152.184 127.301" stroke="#2E3038" stroke-width="0.9672" stroke-linecap="round" stroke-linejoin="round"/>
<path d="M150.516 73.2808C150.516 73.2808 152.275 79.0095 153.041 81.0235C153.808 83.0376 153.898 84.1564 156.334 86.4838C158.769 88.8107 159.266 90.6009 161.836 90.8248C164.407 91.0487 165.354 89.4824 165.354 89.4824C165.354 89.4824 165.715 91.7647 167.023 92.4815C168.331 93.1974 171.307 93.331 173.157 89.7505C175.006 86.1705 173.879 84.4697 173.247 82.769C172.615 81.0683 171.758 79.0095 171.758 79.0095C172.661 77.7563 173.157 76.2347 173.112 74.6682C172.977 72.2514 172.255 71.9381 171.489 71.7143C170.721 71.4906 168.556 72.878 167.609 72.4752C166.662 72.0724 168.24 69.7003 165.76 69.4765C163.279 69.2528 160.754 72.6094 156.334 72.9675C151.913 73.3255 150.335 71.9829 150.516 73.2808Z" fill="white" stroke="#2E3038" stroke-width="0.9672" stroke-linecap="round" stroke-linejoin="round"/>
<path d="M165.309 89.4824L169.323 85.0067C171.082 83.0374 171.082 80.1283 171.082 80.1283" fill="white"/>
<path d="M165.309 89.4824L169.323 85.0067C171.082 83.0374 171.082 80.1283 171.082 80.1283" stroke="#2E3038" stroke-width="0.9672" stroke-linecap="round" stroke-linejoin="round"/>
<path d="M157.461 80.1283C157.461 80.1283 157.957 82.3661 157.461 83.485C156.965 84.6039 157.371 85.1857 158.228 85.2305C158.634 85.32 159.04 85.2305 159.4 85.0962" stroke="#2E3038" stroke-width="0.9672" stroke-linecap="round" stroke-linejoin="round"/>
<path d="M160.033 80.3523C160.033 80.3523 160.53 78.8753 162.829 79.3228" stroke="#2E3038" stroke-width="1.9344" stroke-linecap="round" stroke-linejoin="round"/>
<path d="M154.215 80.7551C154.215 80.7551 155.568 79.9942 156.515 81.0236" stroke="#2E3038" stroke-width="1.9344" stroke-linecap="round" stroke-linejoin="round"/>
<path d="M152.996 78.5173C152.996 78.5173 154.62 76.9062 156.514 79.4125" stroke="#2E3038" stroke-width="0.9672" stroke-linecap="round" stroke-linejoin="round"/>
<path d="M158.77 78.7409C158.77 78.7409 159.537 76.1451 161.927 76.5031" stroke="#2E3038" stroke-width="0.9672" stroke-linecap="round" stroke-linejoin="round"/>
<path d="M160.98 85.7677C160.98 85.7677 164.634 85.0516 165.355 80.7998C165.355 80.7998 167.16 83.6641 165.897 85.9915C164.634 88.3188 162.965 87.9608 162.965 87.9608L160.98 85.7677Z" stroke="#2E3038" stroke-width="0.9672" stroke-linecap="round" stroke-linejoin="round"/>
<path d="M152.861 65.2247C152.861 65.2247 154.71 62.7184 152.636 63.0764C150.561 63.4345 147.224 67.3282 147.63 71.043C148.035 74.7577 155.568 75.5634 159.221 75.0263C161.431 74.6682 163.46 73.6835 165.039 72.1618C165.039 72.1618 163.686 75.0263 165.13 75.3843C166.573 75.7424 167.249 75.3843 167.249 75.3843C167.249 75.3843 168.602 78.3829 169.008 77.4878C169.414 76.5927 168.918 75.8766 169.143 74.713C169.685 71.9828 171.759 72.0724 171.759 72.0724C171.759 72.0724 172.121 65.3142 169.594 62.6736C167.069 60.0331 160.438 59.7197 157.688 61.1519C154.936 62.5841 152.861 65.2247 152.861 65.2247Z" fill="#2E3038" stroke="#2E3038" stroke-width="0.9672" stroke-linecap="round" stroke-linejoin="round"/>
<path d="M18.6358 182.037C18.6358 182.037 13.1333 184.857 10.9233 187.408C8.71326 189.959 11.1939 191.705 15.7041 190.228C20.2145 188.751 21.8381 182.485 21.8381 182.485C21.8381 182.485 20.3046 181.232 18.6358 182.037Z" fill="#184AFB" stroke="#2E3038" stroke-width="0.9672" stroke-linecap="round" stroke-linejoin="round"/>
<path d="M77.089 182.037C77.089 182.037 82.5915 184.857 84.8016 187.408C87.0116 189.959 84.531 191.705 80.0207 190.228C75.5105 188.751 73.8867 182.485 73.8867 182.485C73.8867 182.485 75.4653 181.232 77.089 182.037Z" fill="#184AFB" stroke="#2E3038" stroke-width="0.9672" stroke-linecap="round" stroke-linejoin="round"/>
<path d="M42.4053 66.6122L42.3151 71.4906C40.2854 70.9983 38.2558 70.4164 36.2713 69.7451C33.0239 68.5815 32.212 69.6109 30.2726 71.2221C28.3332 72.8332 19.2676 83.2166 18.3204 84.1117C17.3733 85.0069 14.3965 89.4824 14.3965 91.8098C14.3965 94.1372 16.2457 95.7036 19.899 93.7788C23.5523 91.8549 30.2726 86.5733 30.2726 86.5733C30.2726 86.5733 33.7456 96.8222 33.7907 98.5682C33.8358 100.313 31.4003 104.162 30.1373 107.653C28.8744 111.144 28.243 120.946 27.3861 124.303C26.5291 127.659 24.274 131.195 22.515 140.146C20.756 149.097 20.6207 155.989 20.2147 157.735C19.8088 159.481 19.2676 166.149 18.6362 171.43C18.0047 176.712 17.5988 182.485 18.2753 183.112C18.9518 183.738 20.9364 184.141 21.8836 183.112C22.8307 182.082 29.9569 164.18 31.4003 160.062C32.8435 155.945 42.4955 137.327 43.3074 135.223C44.1191 133.12 45.6075 130.255 45.6075 130.255C45.6075 130.255 50.614 139.564 52.3279 144.219C54.0417 148.874 63.3329 166.82 65.9037 171.52C68.4746 176.22 72.7142 182.485 73.8418 183.112C74.9694 183.738 76.8637 183.335 77.0441 182.127C77.2245 180.919 75.3302 162.256 73.8869 158.765C72.4436 155.274 71.4965 153.304 71.0906 150.753C70.6846 148.202 66.7607 127.212 64.9115 123.363C63.0623 119.513 62.7917 118.797 62.7465 118.574C62.7014 118.35 61.3935 113.874 59.4992 109.265C57.6049 104.655 55.485 100.581 55.485 100.581L58.9579 91.1381C58.9579 91.1381 64.0545 101.612 66.445 103.804C68.8354 106.042 76.5479 115.62 76.5479 115.62L78.9836 113.203L71.0906 99.7762C71.0906 99.7762 69.3766 91.0939 67.347 85.6334C65.3174 80.1732 63.8291 76.1452 61.168 74.892C58.507 73.6389 52.824 73.3255 51.7866 72.9228C50.7492 72.52 51.1101 72.1619 51.0199 71.9829C50.9297 71.8039 51.3807 67.2835 51.3807 67.2835C51.3807 67.2835 47.5921 68.5815 45.788 68.0444C44.7055 67.5521 43.5328 67.1045 42.4053 66.6122Z" fill="#2E3038" stroke="#2E3038" stroke-width="0.9672" stroke-linecap="round" stroke-linejoin="round"/>
<path d="M55.5288 100.492L59.0017 91.0487C59.0017 91.0487 57.1525 78.2487 53.6796 73.1914C53.0482 73.1466 52.4619 73.0124 51.8755 72.8333C50.8381 72.4305 51.199 72.0725 51.1088 71.8934C51.0186 71.7144 51.4696 67.1941 51.4696 67.1941C51.4696 67.1941 47.681 68.492 45.8769 67.9102C44.7041 67.5521 43.5315 67.1046 42.4039 66.5675L42.3137 71.4459C42.3137 71.4459 41.4116 71.2669 40.0135 70.8641C38.5251 72.7438 32.4814 80.6656 30.3164 86.4839C30.3164 86.4839 33.7893 96.7328 33.8344 98.4788C33.8795 99.7319 32.6167 102.104 31.3989 104.655C33.6089 106.132 37.5779 107.877 44.0276 107.966C51.7853 108.101 55.9348 106.356 57.784 105.192C56.5662 102.506 55.5288 100.492 55.5288 100.492Z" fill="#184AFB" stroke="#2E3038" stroke-width="0.9672" stroke-linecap="round" stroke-linejoin="round"/>
<path d="M50.9296 78.2487C52.2827 76.9508 52.6886 74.9368 52.6886 73.0123C52.418 72.9676 52.1474 72.9228 51.8768 72.8332C50.8394 72.4305 51.2003 72.0725 51.1101 71.8934C51.0199 71.7144 51.4709 67.194 51.4709 67.194C51.4709 67.194 47.6823 68.4919 45.8782 67.9549C44.7054 67.5969 43.5328 67.1493 42.4052 66.6122L42.315 71.4906C42.315 71.4906 42.0444 71.4458 41.5483 71.3116C41.1875 72.7438 40.4658 76.5928 42.8111 78.6963C45.0663 80.6655 48.8549 80.2627 50.9296 78.2487Z" fill="white"/>
<path d="M39.8331 70.7745C39.8331 70.7745 39.6526 75.832 38.3447 78.6068C37.0367 81.3817 35.6836 81.7844 35.6836 81.7844C36.2249 82.1425 36.8112 82.4111 37.3975 82.6796C38.48 83.1272 38.7055 82.9482 38.7055 82.9482C38.7055 82.9482 40.7351 81.6502 41.6823 78.2936C42.2687 76.0557 42.4941 73.7732 42.3588 71.4906L39.8331 70.7745Z" fill="white" stroke="#2E3038" stroke-width="0.9672" stroke-linecap="round" stroke-linejoin="round"/>
<path d="M43.6687 44.9057C43.6687 44.9057 43.5785 42.6231 47.773 41.5042C51.9676 40.3853 55.6209 43.6973 55.9818 45.8903C56.3425 48.0833 55.6209 49.2917 55.1248 49.4707C54.6287 49.6498 52.3735 47.412 49.081 46.3378C45.7885 45.2637 43.2177 45.9351 43.6687 44.9057Z" fill="#2E3038" stroke="#2E3038" stroke-width="0.9672" stroke-linecap="round" stroke-linejoin="round"/>
<path d="M39.3839 56.0499C39.3839 56.0499 38.8878 54.5282 37.5799 55.4681C36.2719 56.408 36.9033 59.2723 37.4896 60.1227C38.076 60.9731 39.2938 60.9731 39.5193 60.3912C39.7448 59.8094 39.7899 56.408 39.7899 56.408" fill="white"/>
<path d="M39.3839 56.0499C39.3839 56.0499 38.8878 54.5282 37.5799 55.4681C36.2719 56.408 36.9033 59.2723 37.4896 60.1227C38.076 60.9731 39.2938 60.9731 39.5193 60.3912C39.7448 59.8094 39.7899 56.408 39.7899 56.408" stroke="#2E3038" stroke-width="0.9672" stroke-linecap="round" stroke-linejoin="round"/>
<path d="M39.2031 48.6651C39.2031 48.6651 37.7598 50.7686 38.4363 52.9168C39.1129 55.0652 38.7972 56.5421 38.7972 59.0037C38.7972 61.4652 40.6013 64.7772 41.774 66.7912C42.9466 68.8052 45.3371 71.222 47.9079 70.4612C50.4788 69.7003 54.2223 64.3744 54.9439 61.9128C55.6656 59.4513 55.3499 58.8694 55.8009 57.84C56.5225 56.0498 56.8833 54.0806 56.8383 52.156C56.8383 49.3812 53.5007 45.6217 49.3963 44.458C45.292 43.2944 40.7366 44.5028 39.2031 48.6651Z" fill="white" stroke="#2E3038" stroke-width="0.9672" stroke-linecap="round" stroke-linejoin="round"/>
<path d="M46.5284 62.9995C46.3826 62.9971 46.2365 62.9748 46.0931 62.9377C45.6918 62.8413 45.2102 62.6756 45.045 62.2355C44.9429 61.8745 45.0255 61.4862 45.2615 61.1994C45.3464 61.0782 45.4413 60.9669 45.5338 60.8581C45.6528 60.7295 45.7626 60.5886 45.8575 60.4402C46.2438 59.8022 46.1344 58.9912 45.9764 58.148C45.9642 58.0812 46.0082 58.0169 46.0736 58.0021C46.1394 57.9897 46.2025 58.0342 46.2147 58.101C46.3754 58.959 46.497 59.8566 46.064 60.5738C45.9619 60.7345 45.8452 60.8853 45.7186 61.0263C45.626 61.1276 45.5388 61.2364 45.4585 61.3477C45.2783 61.5728 45.2102 61.8695 45.2737 62.1514C45.3977 62.4827 45.8062 62.6187 46.1489 62.7004C46.3654 62.782 46.6037 62.777 46.8157 62.6855C46.8715 62.6484 46.9469 62.6682 46.9832 62.7251C47.0199 62.782 47.0004 62.8586 46.9446 62.8957C46.818 62.9699 46.6745 63.0045 46.5284 62.9995Z" fill="#2E3038"/>
<path d="M54.7633 58.5113C54.7633 58.5113 55.4399 56.4526 56.7478 57.0791C58.0558 57.7057 57.5146 60.7939 56.4772 61.7337C55.4399 62.6736 54.3574 62.2261 54.3574 61.6442" fill="white"/>
<path d="M54.7633 58.5113C54.7633 58.5113 55.4399 56.4526 56.7478 57.0791C58.0558 57.7057 57.5146 60.7939 56.4772 61.7337C55.4399 62.6736 54.3574 62.2261 54.3574 61.6442" stroke="#2E3038" stroke-width="0.9672" stroke-linecap="round" stroke-linejoin="round"/>
<path d="M44.3438 65.2107C44.3438 65.2107 46.4185 67.0009 49.2599 65.1659" stroke="#2E3038" stroke-linecap="round" stroke-linejoin="round"/>
<path d="M43.7135 59.1379C44.0623 59.1379 44.3449 58.6971 44.3449 58.1533C44.3449 57.6095 44.0623 57.1687 43.7135 57.1687C43.3648 57.1687 43.082 57.6095 43.082 58.1533C43.082 58.6971 43.3648 59.1379 43.7135 59.1379Z" fill="#2E3038"/>
<path d="M49.8463 59.1379C50.1951 59.1379 50.4777 58.6971 50.4777 58.1533C50.4777 57.6095 50.1951 57.1687 49.8463 57.1687C49.4976 57.1687 49.2148 57.6095 49.2148 58.1533C49.2148 58.6971 49.4976 59.1379 49.8463 59.1379Z" fill="#2E3038"/>
<path d="M42 55.6919C42.8569 54.931 44.0296 54.7072 45.0669 55.11" stroke="#2E3038" stroke-linecap="round" stroke-linejoin="round"/>
<path d="M48.3125 55.3337C48.3125 55.3337 50.6128 54.3491 51.8756 56.3184" stroke="#2E3038" stroke-linecap="round" stroke-linejoin="round"/>
<path d="M49.3962 44.5028C45.2918 43.2944 40.7816 44.5028 39.248 48.6651C39.248 48.6651 37.8047 50.7687 38.4813 52.9169C38.7068 53.5883 38.8421 54.3043 38.8872 54.9758L39.0225 55.11C39.5187 54.5281 39.8795 53.812 39.9697 53.0512C40.1501 51.7981 42.9464 48.5757 47.592 48.8889C52.2376 49.2022 54.4025 52.4694 54.8535 54.5729C55.3046 56.6765 54.177 58.1981 55.8909 57.8849C56.6126 56.0946 56.9734 54.1253 56.9282 52.2009C56.838 49.426 53.5004 45.7112 49.3962 44.5028Z" fill="#2E3038" stroke="#2E3038" stroke-width="0.9672" stroke-linecap="round" stroke-linejoin="round"/>
<path d="M79.0273 113.113L83.4473 114.009C83.8082 114.098 84.1239 114.277 84.3494 114.545C85.0711 115.486 86.7849 117.589 86.9203 118.216C87.1007 119.021 87.1007 119.245 86.8752 119.245C86.5144 119.245 86.1535 119.2 85.7927 119.111C85.432 119.065 84.169 117.231 83.1317 117.142C82.1394 117.007 81.1472 116.739 80.2 116.381C80.2 116.381 82.3649 117.992 82.861 118.395C83.3572 118.797 83.267 119.021 82.9061 119.156C82.5453 119.289 82.0943 119.111 81.5982 118.887C81.102 118.663 80.9216 118.619 79.298 117.947C77.6742 117.275 76.5918 115.53 76.5918 115.53L79.0273 113.113Z" fill="white" stroke="#2E3038" stroke-width="0.9672" stroke-linecap="round" stroke-linejoin="round"/>
<path d="M43.7574 83.9328C44.479 84.4251 45.3811 84.6041 46.1929 84.4251C47.546 84.067 51.1993 81.4712 53.4544 78.4725C55.7096 75.4739 56.7018 73.8179 56.7018 73.8179L53.0936 72.7438C53.0936 72.7438 51.1993 77.846 48.6736 80.0838C46.1478 82.3216 42.4043 83.3957 42.4043 83.3957L43.7574 83.9328Z" fill="white" stroke="#2E3038" stroke-width="0.9672" stroke-linecap="round" stroke-linejoin="round"/>
<path d="M26.9796 59.8541C26.9796 59.8541 43.0362 83.5299 43.7579 83.9328C44.1186 84.1118 44.4795 84.2908 44.8403 84.4698C44.8403 84.4698 41.0517 84.4698 39.9692 83.5747C38.8867 82.6796 30.1819 66.657 29.4151 64.9115C28.8288 63.5689 28.1523 62.2709 27.3855 61.0177L26.709 59.7198L26.9796 59.8541Z" fill="white" stroke="#2E3038" stroke-width="0.9672" stroke-linecap="round" stroke-linejoin="round"/>
<path d="M26.9805 59.854C26.9805 59.854 33.6557 78.8752 34.1969 80.2179C34.7381 81.5606 36.6325 82.6347 37.6698 82.769L38.7071 82.9032C38.7071 82.9032 33.8812 75.071 31.7614 70.3716C29.6415 65.6722 26.9805 59.854 26.9805 59.854Z" fill="white" stroke="#2E3038" stroke-width="0.9672" stroke-linecap="round" stroke-linejoin="round"/>
<path d="M25.175 60.6597C27.4916 60.6597 29.3695 58.7963 29.3695 56.4975C29.3695 54.1987 27.4916 52.3352 25.175 52.3352C22.8584 52.3352 20.9805 54.1987 20.9805 56.4975C20.9805 58.7963 22.8584 60.6597 25.175 60.6597Z" fill="white" stroke="#2E3038" stroke-width="0.9672" stroke-linecap="round" stroke-linejoin="round"/>
<path d="M21.2965 92.8842C19.1315 94.0479 14.8468 96.7328 14.0349 95.5249C13.2231 94.316 13.3584 87.4238 15.3429 83.3063C17.3274 79.1888 20.8455 71.8488 20.9808 70.5956C21.116 69.3425 20.8003 60.9731 20.9357 60.6151C21.071 60.257 24.5889 58.3773 24.5889 58.3773C24.9498 58.2878 25.3557 58.4668 25.5812 58.7801C25.942 59.3619 27.4755 61.0179 27.4304 61.4654C27.3853 61.913 27.2951 62.2711 27.2951 62.2711C27.2951 62.2711 28.2423 62.8082 27.9717 63.6585C27.701 64.5089 27.3402 67.1494 26.799 67.5074C26.348 67.7313 25.8969 67.776 25.4008 67.6865C25.3557 68.3131 25.1753 68.9397 24.8596 69.4767C24.4536 70.1033 24.0477 70.4613 24.0026 70.6404C23.9575 70.8194 22.6946 90.6461 22.0181 91.3178" fill="#2E3038"/>
<path d="M21.2965 92.8842C19.1315 94.0479 14.8468 96.7328 14.0349 95.5249C13.2231 94.316 13.3584 87.4238 15.3429 83.3063C17.3274 79.1888 20.8455 71.8488 20.9808 70.5956C21.116 69.3425 20.8003 60.9731 20.9357 60.6151C21.071 60.257 24.5889 58.3773 24.5889 58.3773C24.9498 58.2878 25.3557 58.4668 25.5812 58.7801C25.942 59.3619 27.4755 61.0179 27.4304 61.4654C27.3853 61.913 27.2951 62.2711 27.2951 62.2711C27.2951 62.2711 28.2423 62.8082 27.9717 63.6585C27.701 64.5089 27.3402 67.1494 26.799 67.5074C26.348 67.7313 25.8969 67.776 25.4008 67.6865C25.3557 68.3131 25.1753 68.9397 24.8596 69.4767C24.4536 70.1033 24.0477 70.4613 24.0026 70.6404C23.9575 70.8194 22.6946 90.6461 22.0181 91.3178" stroke="#2E3038" stroke-width="0.9672" stroke-linecap="round" stroke-linejoin="round"/>
<path d="M27.2512 62.2711C27.2512 62.2711 27.2963 61.913 27.3865 61.4654C27.4768 61.0179 25.8981 59.3619 25.5374 58.7801C25.3118 58.4668 24.951 58.2878 24.5451 58.3773C24.5451 58.3773 21.0271 60.257 20.8918 60.6151C20.7565 60.9731 21.0271 67.7313 20.982 70.0138C21.839 70.6851 22.9665 70.9536 24.0038 70.6404C24.0038 70.5956 24.0038 70.5956 24.0038 70.5509C24.0489 70.3719 24.4549 70.0586 24.8608 69.3872C25.1315 68.8502 25.3118 68.2236 25.402 67.597C25.8531 67.6865 26.3492 67.6418 26.8002 67.418C27.3414 67.0599 27.7023 64.4193 27.9729 63.569C28.2435 62.7186 27.2512 62.2711 27.2512 62.2711Z" fill="white" stroke="#2E3038" stroke-width="0.9672" stroke-linecap="round" stroke-linejoin="round"/>
<path d="M27.2501 62.2708L24.3184 61.1072" stroke="#2E3038" stroke-width="0.9672" stroke-linecap="round" stroke-linejoin="round"/>
<path d="M23.959 62.7183C23.959 62.7183 27.0259 63.3896 27.2966 63.8819C27.477 64.1952 27.5671 64.5532 27.5671 64.9113" stroke="#2E3038" stroke-width="0.9672" stroke-linecap="round" stroke-linejoin="round"/>
<path d="M24.1387 64.3743C24.1387 64.3743 26.4389 64.8666 26.7997 65.1799C27.1606 65.4932 27.2057 66.6568 27.2057 66.6568" stroke="#2E3038" stroke-width="0.9672" stroke-linecap="round" stroke-linejoin="round"/>
<path d="M25.4023 67.6415V66.7464L26.0338 66.7017" stroke="#2E3038" stroke-width="0.9672" stroke-linecap="round" stroke-linejoin="round"/>
</g>
</g>
<defs>
<clipPath id="clip0_1_4042">
<rect width="214" height="200" fill="white"/>
</clipPath>
</defs>
</svg>
