<svg width="200" height="200" viewBox="0 0 200 200" fill="none" xmlns="http://www.w3.org/2000/svg">
<g clip-path="url(#clip0_1_4439)">
<g opacity="0.08">
<path opacity="0.08" d="M6.75178 112.767C6.75178 112.767 12.9698 147.681 44.5075 166.601C76.0399 185.522 115.24 181.008 147.102 178.221C178.965 175.434 200.465 152.983 200.001 124.286C199.537 95.5892 174.234 91.1648 156.475 61.2299C138.711 31.3118 138.337 20.6025 107.791 5.31315C77.2494 -9.98182 35.7426 8.98282 17.989 46.3124C0.23537 83.6421 6.75178 112.767 6.75178 112.767Z" fill="#184AFB"/>
<path opacity="0.7" d="M6.75178 112.767C6.75178 112.767 12.9698 147.681 44.5075 166.601C76.0399 185.522 115.24 181.008 147.102 178.221C178.965 175.434 200.465 152.983 200.001 124.286C199.537 95.5892 174.234 91.1648 156.475 61.2299C138.711 31.3118 138.337 20.6025 107.791 5.31315C77.2494 -9.98182 35.7426 8.98282 17.989 46.3124C0.23537 83.6421 6.75178 112.767 6.75178 112.767Z" fill="#184AFB"/>
</g>
<path d="M35.6289 176.899L143.563 133.89" stroke="#2E3038" stroke-width="0.495524" stroke-linecap="round" stroke-linejoin="round"/>
<path d="M87.6752 183.989C87.6752 185.843 83.3543 187.348 78.0155 187.348C72.6766 187.348 68.3555 185.843 68.3555 183.989C68.3555 182.135 72.682 180.659 78.0155 180.659C83.3491 180.659 87.6752 182.146 87.6752 183.989Z" stroke="#2E3038" stroke-width="0.495524" stroke-linecap="round" stroke-linejoin="round"/>
<path d="M68.3555 183.989C68.3555 183.989 68.7124 190.824 70.2629 195.048C71.8135 199.273 78.5376 200.722 82.1928 199.029C84.9049 197.774 86.2743 193.943 86.9886 190.468" stroke="#2E3038" stroke-width="0.495524" stroke-linecap="round" stroke-linejoin="round"/>
<path d="M83.9455 195.669C84.441 196.986 86.226 197.002 87.3395 196.868C89.4174 196.752 91.0642 194.986 91.1118 192.816C91.2131 191.212 90.7975 189.618 89.9395 188.286C89.2148 187.298 88.091 186.721 86.8971 186.709C85.8104 186.704 84.9259 187.614 84.9205 188.747C84.9205 188.875 84.9313 189.002 84.9526 189.13C84.9845 189.368 85.0857 189.591 85.2403 189.774C85.7305 190.329 86.4338 190.007 87.02 190.246C87.5637 190.518 87.9577 191.04 88.0858 191.656C88.3144 192.522 88.4321 193.322 87.8936 194.065C87.5048 194.549 86.8919 194.77 86.2952 194.654C85.7624 194.582 85.3148 194.098 84.7607 194.098C84.2598 194.098 83.8549 194.521 83.8496 195.037C83.8496 195.065 83.8496 195.093 83.8549 195.12C83.8549 195.309 83.8869 195.497 83.9455 195.669Z" fill="white" stroke="#2E3038" stroke-width="0.495524" stroke-linecap="round" stroke-linejoin="round"/>
<path d="M78.064 187.192C82.9253 187.192 86.866 186.146 86.866 184.855C86.866 183.564 82.9253 182.518 78.064 182.518C73.2027 182.518 69.2617 183.564 69.2617 184.855C69.2617 186.146 73.2027 187.192 78.064 187.192Z" fill="#2E3038"/>
<path d="M75.5757 178.87C75.3573 178.259 75.3093 177.594 75.4372 176.955C75.6876 175.844 76.5667 175.017 77.4885 174.412C78.453 173.879 79.3747 173.263 80.2379 172.569C81.0425 171.808 81.6233 170.632 81.3035 169.543C81.0425 168.922 80.7334 168.328 80.3818 167.756C79.8862 166.678 80.0247 165.402 80.744 164.469C81.5113 163.569 82.7634 163.32 83.7918 163.864C84.7936 164.48 85.1612 165.802 84.639 166.884C84.298 167.505 83.6746 167.9 83.2803 168.488C82.7421 169.343 82.7421 170.454 83.2803 171.309C83.6852 171.925 84.3459 172.369 84.5698 173.086C84.7243 173.835 84.4419 174.606 83.8451 175.05C83.2536 175.478 82.561 175.723 81.847 175.756C81.1277 175.777 80.4137 175.872 79.7157 176.05C77.984 176.611 77.0143 178.526 77.5524 180.331C77.675 180.735 77.8668 181.119 78.1173 181.446C78.5168 181.974 78.1492 181.674 77.5205 181.302C76.6201 180.758 75.9327 179.897 75.5757 178.87Z" fill="#2E3038"/>
<path opacity="0.7" d="M75.5816 178.865C75.3631 178.254 75.3152 177.588 75.4431 176.95C75.6935 175.839 76.5727 175.012 77.4944 174.406C78.4535 173.874 79.3753 173.258 80.2385 172.564C81.0483 171.803 81.6238 170.626 81.3041 169.538C81.0483 168.916 80.7393 168.316 80.3824 167.75C79.8815 166.673 80.0253 165.391 80.75 164.464C81.5119 163.559 82.7694 163.309 83.7977 163.859C84.7994 164.475 85.167 165.796 84.6449 166.878C84.2986 167.5 83.6752 167.895 83.2862 168.483C82.7374 169.338 82.7374 170.449 83.2862 171.304C83.6912 171.92 84.3519 172.364 84.5703 173.08C84.7248 173.823 84.4424 174.595 83.851 175.04C83.2596 175.467 82.5669 175.717 81.8476 175.75C81.1283 175.772 80.4143 175.867 79.7163 176.039C77.9793 176.605 77.0149 178.532 77.5584 180.341C77.6809 180.741 77.8674 181.113 78.1179 181.441C78.5228 181.968 78.1498 181.668 77.5211 181.291C76.6206 180.747 75.9386 179.886 75.5816 178.865Z" fill="white"/>
<path d="M69.2411 163.653L52.5051 94.9847C51.7752 92.0027 53.1925 88.8996 55.8779 87.6116C70.7223 80.5443 95.8397 72.9663 115.5 73.2772C118.66 73.3271 121.266 75.8754 121.516 79.162L125.832 135.9C126.045 138.698 124.479 141.319 121.975 142.351L69.2411 163.653Z" fill="#2E3038"/>
<path opacity="0.5" d="M69.2411 163.653L52.5051 94.9847C51.7752 92.0027 53.1925 88.8996 55.8779 87.6116C70.7223 80.5443 95.8397 72.9663 115.5 73.2772C118.66 73.3271 121.266 75.8754 121.516 79.162L125.832 135.9C126.045 138.698 124.479 141.319 121.975 142.351L69.2411 163.653Z" fill="#2E3038"/>
<path d="M111.718 185.277L141.725 172.025C142.541 171.676 142.935 170.704 142.6 169.855C142.482 169.56 142.291 169.304 142.04 169.122L130.222 160.239C129.78 159.912 129.215 159.833 128.709 160.028L98.0345 172.136C97.2033 172.453 96.7765 173.407 97.0804 174.274C97.1869 174.574 97.3739 174.834 97.6189 175.029L110.118 185.06C110.577 185.427 111.189 185.51 111.718 185.277Z" fill="#2E3038"/>
<path d="M125.24 163.825C125.24 163.825 134.83 165.258 135.949 170.715C137.068 176.172 115.745 176.372 113.875 172.275C112.004 168.178 122.059 163.825 125.24 163.825Z" fill="white"/>
<path d="M132.715 168.823C132.715 168.823 131.17 161.167 126.791 159.817C122.411 158.468 112.218 160.006 112.218 160.006L91.0115 147.026L77.3926 156.797L83.4347 159.35L83.3868 159.429C83.3868 159.429 84.3779 159.823 85.9817 160.428L89.5197 161.927L89.679 161.794C95.2045 163.786 103.064 166.39 107.663 166.918C107.663 166.918 110.491 169.977 113.39 170.559C113.39 170.559 115.244 171.01 116.294 170.687C117.498 170.215 118.831 170.238 120.024 170.749C121.505 171.393 126.497 173.824 127.707 173.152C128.916 172.481 127.063 170.299 123.668 168.305C123.668 168.305 130.456 170.426 131.879 170.426C133.301 170.426 133.856 170.171 133.792 169.871L132.715 168.823Z" fill="white"/>
<path d="M122.006 167.362C122.006 167.362 132.06 171.248 133.371 170.277C134.682 169.305 129.177 166.113 123.189 163.969" stroke="#2E3038" stroke-width="0.495524" stroke-linecap="round" stroke-linejoin="round"/>
<path d="M126.131 161.994C128.236 162.726 130.116 164.02 131.586 165.747" stroke="#2E3038" stroke-width="0.495524" stroke-linecap="round" stroke-linejoin="round"/>
<path d="M132.497 168.572C132.497 168.572 131.053 162.326 127.872 160.184C124.691 158.041 111.979 160.039 111.979 160.039L88.9336 145.649" stroke="#2E3038" stroke-width="0.495524" stroke-linecap="round" stroke-linejoin="round"/>
<path d="M77.8086 157.163C80.1104 158.135 83.0303 159.301 86.7124 160.667C99.8033 165.541 107.663 166.906 107.663 166.906C107.663 166.906 112.277 171.959 116.833 170.415C119.901 169.372 125.624 174.118 127.68 173.141C129.738 172.164 124.601 168.439 118.239 165.514" stroke="#2E3038" stroke-width="0.495524" stroke-linecap="round" stroke-linejoin="round"/>
<path d="M142.514 134.118L156.138 117.874C156.138 117.874 152.467 110.751 147.901 102.812C143.335 94.8729 137.916 86.1903 135.608 82.9148C129.183 79.6448 138.272 119.889 138.272 119.889L142.514 134.118Z" fill="#184AFB"/>
<path d="M156.421 118.613C150.614 105.444 135.609 82.7151 135.609 82.7151" stroke="#2E3038" stroke-width="0.495524" stroke-linecap="round" stroke-linejoin="round"/>
<path d="M87.491 128.933L99.2823 151.884L136.92 136.622L138.359 118.413C140.49 102.978 135.589 82.6762 135.589 82.6762L111.079 77.1855C111.079 77.1855 75.9125 89.738 75.3797 92.1144C74.8468 94.49 87.491 128.933 87.491 128.933Z" fill="#184AFB"/>
<path d="M87.491 128.933L99.2823 151.884L136.92 136.622L138.359 118.413C140.49 102.978 135.589 82.6762 135.589 82.6762L111.079 77.1855C111.079 77.1855 75.9125 89.738 75.3797 92.1144C74.8468 94.49 87.491 128.933 87.491 128.933Z" stroke="#2E3038" stroke-width="0.495524" stroke-miterlimit="10"/>
<path opacity="0.2" d="M80.1359 98.8315C81.0363 100.83 85.4641 111.206 87.0626 113.821C89.1942 94.9838 88.4531 92.9135 90.0782 91.9252L97.6445 87.3283L93.6912 84.8134L93.5094 83.9584C93.5094 83.9584 77.978 90.1099 75.4844 92.2081C75.4844 92.2081 77.3279 92.6243 80.1359 98.8315Z" fill="#2E3038"/>
<path d="M68.926 147.026C76.7424 148.386 84.7507 146.382 91.1236 141.475C91.1236 141.475 90.8405 123.792 89.1946 119.312C87.063 113.555 77.5097 91.0702 75.4583 92.2081C74.0037 93.0135 71.004 117.396 69.5973 133.513C69.0272 140.197 68.7288 145.504 68.926 147.026Z" fill="#184AFB"/>
<path d="M68.926 147.026C76.7424 148.386 84.7507 146.382 91.1236 141.475C91.1236 141.475 90.8405 123.792 89.1946 119.312C87.063 113.555 77.5097 91.0702 75.4583 92.2081C74.0037 93.0135 71.004 117.396 69.5973 133.513C69.0272 140.197 68.7288 145.504 68.926 147.026Z" stroke="#2E3038" stroke-width="0.495524" stroke-miterlimit="10"/>
<path d="M91.3301 114.742C92.8859 119.495 93.2063 124.597 92.247 129.522" stroke="#2E3038" stroke-width="0.495524" stroke-linecap="round" stroke-linejoin="round"/>
<path d="M79.0918 133.414C82.5764 133.014 86.0664 134.068 88.8047 136.35" stroke="#2E3038" stroke-width="0.495524" stroke-linecap="round" stroke-linejoin="round"/>
<path d="M83.377 130.732C86.526 132.281 89.1581 134.774 90.9373 137.894" stroke="#2E3038" stroke-width="0.495524" stroke-linecap="round" stroke-linejoin="round"/>
<path d="M136.473 101.646C137.448 106.315 138.172 111.034 138.652 115.787" stroke="#2E3038" stroke-width="0.495524" stroke-linecap="round" stroke-linejoin="round"/>
<path d="M78.0812 157.568C78.0812 157.568 92.0521 151.561 93.5334 149.24C95.014 146.921 91.5992 138.754 89.9153 137.388C88.2313 136.022 66.9665 140.247 67.5366 144.733C68.1068 149.219 69.7212 148.736 69.0766 152.505C68.6556 154.976 71.5168 160.495 78.0812 157.568Z" fill="white"/>
<path d="M78.2831 157.568C78.2831 157.568 92.2589 151.561 93.7351 149.24C95.2112 146.921 91.8061 138.754 90.1221 137.388C88.439 136.022 67.1685 140.247 67.7439 144.733C68.3193 149.219 69.9285 148.736 69.2891 152.505C68.8628 154.976 71.7188 160.495 78.2831 157.568Z" stroke="#2E3038" stroke-width="0.495524" stroke-miterlimit="10"/>
<path d="M144.218 137.538C144.085 137.422 143.957 137.305 143.835 137.178C140.286 133.574 142.534 129.027 145.433 125.874C148.097 122.965 152.85 118.534 156.857 118.035C158.663 117.807 159.468 118.851 160.517 120.172C161.12 120.927 161.865 121.555 162.446 122.332C164.263 124.858 164.162 128.356 162.212 130.765C160.549 132.68 158.263 133.386 156.069 134.357C153.405 135.528 150.921 137.466 148.214 138.426C146.829 138.876 145.316 138.537 144.218 137.538Z" fill="white"/>
<path d="M144.218 137.538C144.085 137.422 143.957 137.305 143.835 137.178C140.286 133.574 142.534 129.027 145.433 125.874C148.097 122.965 152.85 118.534 156.857 118.035C158.663 117.807 159.468 118.851 160.517 120.172C161.12 120.927 161.865 121.555 162.446 122.332C164.263 124.858 164.162 128.356 162.212 130.765C160.549 132.68 158.263 133.386 156.069 134.357C153.405 135.528 150.921 137.466 148.214 138.426C146.829 138.876 145.316 138.537 144.218 137.538Z" stroke="#2E3038" stroke-width="0.495524" stroke-miterlimit="10"/>
<path d="M91.0285 34.0211C90.7514 31.2897 91.5506 28.5526 93.2449 26.4486C94.9445 24.3667 97.1558 22.8122 99.6389 21.9406" stroke="#2E3038" stroke-width="0.495524" stroke-linecap="round" stroke-linejoin="round"/>
<path d="M115.281 70.6069C114.946 74.7651 114.818 84.5638 115.053 88.7332L99.9948 81.416C100.528 77.6465 100.725 70.7957 99.8242 67.1038L115.276 70.6069" fill="white"/>
<path d="M115.281 70.6069C114.946 74.7651 114.818 84.5638 115.053 88.7332L99.9948 81.416C100.528 77.6465 100.725 70.7957 99.8242 67.1038L115.276 70.6069" stroke="#2E3038" stroke-width="0.495524" stroke-miterlimit="10"/>
<path d="M100.527 69.4963C100.527 69.4963 104.982 78.1126 109.66 78.2735C114.231 78.4235 115.255 71.3284 115.255 71.3284C115.255 71.3284 113.358 75.0813 111.295 74.9981C109.234 74.9148 100.527 69.4963 100.527 69.4963Z" fill="#2E3038"/>
<path d="M120.029 34.0376C120.029 34.0376 100.571 29.6962 95.0667 34.9981C89.5619 40.2999 90.9368 46.2069 90.9368 46.2069L91.4381 47.9113C91.2996 47.9113 91.161 47.9224 91.0225 47.9557C89.5567 48.3165 88.0701 50.1763 88.5602 52.8356C89.0511 55.4949 92.1732 61.3353 94.4745 60.7135C94.7359 60.6469 94.9862 60.5358 95.2208 60.3971C95.9879 62.8009 96.6649 64.794 97.032 65.6045C98.4978 68.8245 109.649 75.5254 112.266 74.5983C114.882 73.6711 121.745 59.7864 122.081 56.4331C122.416 53.0799 120.029 34.0376 120.029 34.0376Z" fill="white"/>
<path d="M109.42 52.236C109.42 53.2075 109.079 54.0014 108.658 54.0014C108.237 54.0014 107.891 53.2131 107.891 52.236C107.891 51.2589 108.232 50.4761 108.653 50.4705C109.073 50.465 109.42 51.2699 109.42 52.236Z" fill="#2E3038"/>
<path d="M117.873 51.7863C117.873 52.7578 117.532 53.5518 117.111 53.5518C116.69 53.5518 116.349 52.7578 116.344 51.7863C116.338 50.8147 116.684 50.0209 117.111 50.0209C117.537 50.0209 117.873 50.8093 117.873 51.7863Z" fill="#2E3038"/>
<path d="M115.313 64.2888C113.997 64.1223 112.665 64.2166 111.381 64.5609" stroke="#2E3038" stroke-width="0.495524" stroke-linecap="round" stroke-linejoin="round"/>
<path d="M110.458 46.5222C108.678 46.8297 107.004 47.6022 105.584 48.7616" stroke="#2E3038" stroke-width="0.991049" stroke-linecap="round" stroke-linejoin="round"/>
<path d="M115.809 45.3942C116.908 45.3172 118.016 45.4843 119.051 45.8926" stroke="#2E3038" stroke-width="0.991049" stroke-linecap="round" stroke-linejoin="round"/>
<path d="M113.209 50.8871C113.363 52.0363 113.518 53.1855 113.677 54.3347C113.721 54.8344 113.832 55.3229 114.019 55.7837C114.413 56.6109 115.212 57.1383 116.096 57.1661C116.353 57.1328 116.613 57.1716 116.848 57.2771C117.061 57.4326 117.173 57.6935 117.152 57.96C117.093 58.4097 116.885 58.8205 116.566 59.1258C116.027 59.742 115.399 60.2694 114.706 60.6858" stroke="#2E3038" stroke-width="0.495524" stroke-linecap="round" stroke-linejoin="round"/>
<path d="M91.0117 51.4531C92.7805 52.991 93.6489 55.3782 93.313 57.7488" stroke="#2E3038" stroke-width="0.495524" stroke-linecap="round" stroke-linejoin="round"/>
<path d="M90.6973 54.3568C90.809 54.0959 91.0384 53.9126 91.3042 53.8627C91.5657 53.8071 91.8375 53.8071 92.0981 53.8627C92.2851 53.8905 92.4661 53.9571 92.6315 54.0459C92.8393 54.1847 92.9934 54.3957 93.0678 54.6399" stroke="#2E3038" stroke-width="0.495524" stroke-linecap="round" stroke-linejoin="round"/>
<path d="M95.9891 56.5887C95.9891 56.5887 97.1501 60.0529 94.2731 60.8246C91.977 61.4464 88.854 55.6116 88.3588 52.9468C88.0549 51.5922 88.3856 50.1653 89.2384 49.0994C89.654 48.5887 90.2133 48.2334 90.8367 48.0724C92.5363 47.6505 94.2306 49.7989 95.3016 51.5644C95.6263 52.1251 95.9778 52.6692 96.3674 53.1855" stroke="#2E3038" stroke-width="0.495524" stroke-linecap="round" stroke-linejoin="round"/>
<path d="M95.0241 60.5026C95.7912 62.9175 96.4622 64.9051 96.8302 65.7156C98.2951 68.9411 109.447 75.6366 112.064 74.7094C114.68 73.7822 121.543 59.8975 121.884 56.5442C122.224 53.191 119.848 34.1487 119.848 34.1487C119.848 34.1487 100.389 29.8073 94.8856 35.1091C89.3817 40.411 90.7349 46.318 90.7349 46.318" stroke="#2E3038" stroke-width="0.495524" stroke-miterlimit="10"/>
<path d="M124.537 24.8884C124.537 24.8884 127.542 31.4062 123.706 35.8419C119.869 40.2778 111.1 36.6247 111.1 36.6247" stroke="#2E3038" stroke-width="0.495524" stroke-linecap="round" stroke-linejoin="round"/>
<path d="M120.887 21.9182C119.672 22.4345 121.75 24.6552 119.16 25.3381C116.571 26.0209 96.0149 16.0778 90.8409 33.3991C90.8409 33.3991 81.6286 40.2167 89.2427 49.0994C89.6582 48.5886 90.2175 48.2332 90.8409 48.0722C92.4929 47.667 94.1336 49.6768 95.2106 51.4033C95.6894 52.8468 96.4409 54.1403 97.5864 53.7017C99.6756 52.9133 98.9717 50.1875 98.1197 48.1944C97.8479 47.5615 97.5543 47.0064 97.3362 46.6067C96.0253 44.2305 94.0859 41.6101 94.9708 38.7287C96.7396 35.2701 102.115 34.726 107.225 36.0861C115.687 38.3346 125.586 35.1146 125.432 28.7635C125.277 22.4123 122.102 21.4019 120.887 21.9182Z" fill="#2E3038"/>
<path opacity="0.5" d="M124.766 24.7718C124.756 24.744 124.739 24.7218 124.718 24.6996C123.685 21.9848 121.772 21.5407 120.887 21.9237C119.673 22.4401 121.75 24.6607 119.161 25.3436C116.571 26.0264 96.9851 16.5553 91.2414 32.2221C91.4119 30.168 92.179 28.2138 93.4414 26.6205C95.1037 24.5719 97.2725 23.0396 99.7132 22.1792C99.8405 22.1181 99.8942 21.9571 99.8353 21.8238C99.7825 21.7073 99.6595 21.6462 99.5426 21.6794C97.0223 22.5733 94.7842 24.161 93.0691 26.2819C91.5504 28.1805 90.7193 30.5788 90.7245 33.0493C86.9946 33.8821 84.0692 36.8966 83.2274 40.7773C83.1955 40.9217 83.2807 41.0604 83.4192 41.0937H83.4725C83.5898 41.0937 83.6963 41.0105 83.7229 40.8883C84.5008 37.3075 87.16 34.4873 90.5859 33.6156C89.1149 34.8481 82.4441 41.1382 89.2587 49.0937C89.6743 48.583 90.2344 48.2277 90.8578 48.0667C92.5089 47.6614 94.1504 49.6711 95.2266 51.3977C95.7063 52.8411 96.4578 54.1347 97.6033 53.6961C99.6916 52.9078 98.9885 50.1819 98.1357 48.1888C97.8639 47.5559 97.5712 47.0008 97.3522 46.601C96.0413 44.2249 94.102 41.6045 94.9868 38.7232C96.7556 35.2645 102.132 34.7204 107.241 36.0806C108.446 36.397 109.672 36.608 110.907 36.7135C110.934 36.7801 110.982 36.8301 111.046 36.8634C113.273 37.7461 115.634 38.2346 118.015 38.3068C120.189 38.3068 122.416 37.7516 123.935 36.0084C127.798 31.506 124.798 24.8383 124.766 24.7718ZM123.514 35.6642C120.664 38.9619 114.877 37.5962 112.383 36.7746C118.889 36.8801 124.889 34.1153 125.374 29.4907C125.602 31.7281 124.926 33.9654 123.514 35.6642Z" fill="#2E3038"/>
<path d="M109.191 87.3065C109.405 87.0844 115.367 85.9463 115.367 85.9463C115.367 85.9463 114.35 93.291 114.835 95.9396L112.367 96.3946C112.367 96.3946 109.97 91.7757 108.078 90.3378C106.187 88.8998 109.191 87.3065 109.191 87.3065Z" fill="#2E3038"/>
<path d="M112.729 95.173L112.766 126.346L119.511 131.659L122.378 124.141L114.082 94.4955L112.729 95.173Z" fill="#2E3038"/>
<path d="M112.511 82.2153L115.808 77.6352C115.974 77.3798 116.305 77.3133 116.55 77.4797C116.587 77.502 116.619 77.5353 116.646 77.5686L120.86 81.96C121.047 82.1377 121.084 82.4319 120.95 82.654L115.889 92.0586C115.776 92.3415 115.462 92.4748 115.191 92.3532C115.021 92.2748 114.898 92.1144 114.871 91.9252L112.42 82.7151C112.377 82.5429 112.415 82.3597 112.511 82.2153Z" fill="white"/>
<path d="M112.511 82.2153L115.808 77.6352C115.974 77.3798 116.305 77.3133 116.55 77.4797C116.587 77.502 116.619 77.5353 116.646 77.5686L120.86 81.96C121.047 82.1377 121.084 82.4319 120.95 82.654L115.889 92.0586C115.776 92.3415 115.462 92.4748 115.191 92.3532C115.021 92.2748 114.898 92.1144 114.871 91.9252L112.42 82.7151C112.377 82.5429 112.415 82.3597 112.511 82.2153Z" stroke="#2E3038" stroke-width="0.495524" stroke-linecap="round" stroke-linejoin="round"/>
<path d="M99.0412 76.9189L111.829 82.2263C112.106 82.3263 112.255 82.6427 112.16 82.9314C112.155 82.9426 112.155 82.9481 112.149 82.9591L108.866 92.6307C108.781 92.9244 108.489 93.091 108.206 93.0081C108.163 92.9964 108.121 92.9748 108.078 92.9469L93.6923 84.8135C93.4256 84.6802 93.3139 84.3526 93.4412 84.0751C93.4629 84.0362 93.4845 83.9973 93.5105 83.9585L98.3971 77.1132C98.5408 76.9023 98.8126 76.8189 99.0412 76.9189Z" fill="white"/>
<path d="M99.0412 76.9189L111.829 82.2263C112.106 82.3262 112.255 82.6427 112.16 82.9314C112.155 82.9426 112.155 82.9481 112.149 82.9591L108.866 92.6307C108.781 92.9244 108.489 93.091 108.206 93.0081C108.163 92.9964 108.121 92.9748 108.078 92.9469L93.6923 84.8135C93.4256 84.6802 93.3139 84.3526 93.4412 84.0751C93.4629 84.0362 93.4845 83.9973 93.5105 83.9585L98.3971 77.1132C98.5408 76.9023 98.8126 76.8189 99.0412 76.9189Z" stroke="#2E3038" stroke-width="0.495524" stroke-linecap="round" stroke-linejoin="round"/>
<path d="M141.982 132.886L138.199 119.778" stroke="#2E3038" stroke-width="0.495524" stroke-miterlimit="10"/>
<path d="M149.755 137.383L123.647 148.808C122.838 149.175 122.464 150.151 122.816 150.995C122.939 151.289 123.135 151.54 123.386 151.717L143.543 165.679L156.656 152.039L149.755 137.383Z" fill="white" stroke="#2E3038" stroke-width="0.495524" stroke-miterlimit="10"/>
<path d="M138.89 149.391L135.752 150.673L137.436 151.912L140.58 150.629L138.89 149.391ZM138.89 149.391L135.752 150.673L137.436 151.912L140.58 150.629L138.89 149.391ZM138.89 149.391L135.752 150.673L137.436 151.912L140.58 150.629L138.89 149.391ZM141.022 150.962L137.878 152.239L139.706 153.583L142.855 152.3L141.022 150.962ZM141.022 150.962L137.878 152.239L139.706 153.583L142.855 152.3L141.022 150.962ZM141.022 150.962L137.878 152.239L139.706 153.583L142.855 152.3L141.022 150.962ZM141.022 150.962L137.878 152.239L139.706 153.583L142.855 152.3L141.022 150.962ZM141.022 150.962L137.878 152.239L139.706 153.583L142.855 152.3L141.022 150.962ZM141.022 150.962L137.878 152.239L139.706 153.583L142.855 152.3L141.022 150.962ZM141.022 150.962L137.878 152.239L139.706 153.583L142.855 152.3L141.022 150.962ZM133.978 153.832L135.838 155.159L139.189 153.794L137.361 152.456L133.978 153.832ZM141.022 150.978L137.878 152.256L139.706 153.599L142.855 152.317L141.022 150.978ZM141.022 150.978L137.878 152.256L139.706 153.599L142.855 152.317L141.022 150.978ZM141.022 150.978L137.878 152.256L139.706 153.599L142.855 152.317L141.022 150.978ZM141.022 150.978L137.878 152.256L139.706 153.599L142.855 152.317L141.022 150.978ZM141.022 150.978L137.878 152.256L139.706 153.599L142.855 152.317L141.022 150.978ZM141.022 150.978L137.878 152.256L139.706 153.599L142.855 152.317L141.022 150.978ZM143.302 152.644L140.159 153.927L142.252 155.458L145.396 154.177L143.302 152.644ZM143.835 152.433L145.935 153.971L146.083 153.904L146.67 151.284L143.835 152.433ZM143.387 152.105L142.855 152.317L143.302 152.644L143.835 152.433L143.387 152.105ZM143.323 152.661L140.18 153.943L142.274 155.476L145.418 154.193L143.323 152.661ZM143.323 152.661L140.18 153.943L142.274 155.476L145.418 154.193L143.323 152.661ZM143.323 152.661L140.18 153.943L142.274 155.476L145.418 154.193L143.323 152.661ZM146.393 150.895L146.712 151.129L146.803 150.734L146.393 150.895ZM143.387 152.122L142.855 152.333L143.302 152.661L143.835 152.449L143.387 152.122ZM144.565 149.558L141.554 150.768L143.382 152.105L146.387 150.879L144.565 149.558ZM143.387 152.122L142.855 152.333L143.302 152.661L143.835 152.449L143.387 152.122ZM143.323 152.677L140.18 153.96L142.274 155.492L145.418 154.21L143.323 152.677ZM143.387 152.122L142.855 152.333L143.302 152.661L143.835 152.449L143.387 152.122ZM143.323 152.677L140.18 153.96L142.274 155.492L145.418 154.21L143.323 152.677ZM143.323 152.677L140.18 153.96L142.274 155.492L145.418 154.21L143.323 152.677ZM143.857 152.467L145.956 154.004L145.423 154.21L145.876 154.538L142.727 155.825L142.279 155.492L141.747 155.704L142.199 156.031L138.89 157.341L140.489 158.495L143.755 157.163L144.213 157.496L140.968 158.829L143.1 160.356L144.394 161.277L144.747 159.684L145.093 158.146L145.205 157.652L145.338 157.041L145.465 156.486L145.892 154.577V154.487L145.987 154.077L146.019 153.921L146.606 151.301L143.857 152.467ZM143.323 152.677L140.18 153.96L142.274 155.492L145.418 154.21L143.323 152.677ZM143.387 152.122L142.855 152.333L143.302 152.661L143.835 152.449L143.387 152.122ZM143.323 152.677L140.18 153.96L142.274 155.492L145.418 154.21L143.323 152.677ZM143.387 152.122L142.855 152.333L143.302 152.661L143.835 152.449L143.387 152.122ZM143.323 152.677L140.18 153.96L142.274 155.492L145.418 154.21L143.323 152.677ZM143.387 152.122L142.855 152.333L143.302 152.661L143.835 152.449L143.387 152.122ZM143.323 152.677L140.18 153.96L142.274 155.492L145.418 154.21L143.323 152.677ZM143.387 152.122L142.855 152.333L143.302 152.661L143.835 152.449L143.387 152.122ZM145.077 149.347L146.819 150.623L147.309 148.436L145.077 149.347ZM142.412 147.986L139.402 149.213L138.954 148.88L141.96 147.658L142.412 147.986L142.945 147.776L142.492 147.448L145.689 146.154L144.091 144.972L140.921 146.277L140.388 146.482L137.356 147.725L136.823 147.936L133.69 149.224L133.157 149.435L129.705 150.851L131.303 151.989L134.729 150.59L135.182 150.923L131.761 152.317L133.477 153.538L136.871 152.161L137.319 152.489L137.851 152.277L137.404 151.95L140.547 150.668L140.995 151.001L141.528 150.79L141.075 150.457L144.08 149.23L142.412 147.986ZM135.752 150.701L135.294 150.374L138.443 149.091L138.89 149.419L135.752 150.701ZM146.169 145.943L145.636 146.154L146.089 146.482L146.622 146.271L146.169 145.943ZM146.617 146.271L147.618 147.004L147.889 145.755L146.617 146.271ZM144.554 144.761L146.153 145.943L148.002 145.188L148.46 143.15L144.554 144.761ZM143.372 152.117L142.838 152.328L143.286 152.655L143.819 152.444L143.372 152.117ZM144.096 149.219L142.412 147.986L139.402 149.213L138.87 149.419L140.558 150.657L141.006 150.99L141.539 150.779L141.086 150.446L144.096 149.219ZM144.549 149.552L141.554 150.768L143.382 152.105L146.387 150.879L144.549 149.552ZM147.501 147.504L146.11 146.482L142.914 147.776L144.597 149.013L144.091 149.219L144.539 149.552L145.071 149.347L144.624 149.013L147.431 147.869L147.501 147.504ZM143.372 152.117L146.377 150.89L144.549 149.552L141.554 150.768L143.372 152.117ZM144.096 149.219L142.412 147.986L139.402 149.213L138.87 149.419L140.558 150.657L141.006 150.99L141.539 150.779L141.086 150.446L144.096 149.219ZM143.308 152.655L140.164 153.938L142.258 155.47L145.402 154.187L143.308 152.655ZM143.308 152.655L140.164 153.938L142.258 155.47L145.402 154.187L143.308 152.655ZM141.027 150.99L137.883 152.267L139.711 153.61L142.86 152.328L141.027 150.99ZM139.657 154.143L136.296 155.498L138.427 157.013L141.73 155.67L139.657 154.143ZM139.711 153.588L139.179 153.794L139.637 154.121L140.142 153.915L139.711 153.588ZM143.308 152.633L140.164 153.915L142.258 155.448L145.402 154.166L143.308 152.633ZM143.84 152.422L145.94 153.96L146.089 153.894L146.675 151.273L143.84 152.422ZM143.393 152.095L142.86 152.305L143.308 152.633L143.84 152.422L143.393 152.095ZM138.89 149.391L135.752 150.673L137.436 151.912L140.58 150.629L138.89 149.391ZM138.89 149.391L135.752 150.673L137.436 151.912L140.58 150.629L138.89 149.391ZM138.89 149.391L135.752 150.673L137.436 151.912L140.58 150.629L138.89 149.391Z" fill="#2E3038"/>
<path d="M143.564 165.679L150.742 132.991C151.014 131.759 151.84 130.732 152.958 130.243L191.513 113.305C192.041 113.077 192.643 113.332 192.867 113.882C192.958 114.11 192.973 114.365 192.904 114.604L183.649 147.137L143.564 165.679Z" fill="#184AFB" stroke="#2E3038" stroke-width="0.495524" stroke-miterlimit="10"/>
<path d="M172.522 135.556C173.625 136.217 173.86 137.943 173.056 139.409C172.25 140.875 170.689 141.524 169.586 140.863C168.483 140.203 168.25 138.477 169.054 137.011C169.858 135.545 171.419 134.89 172.522 135.556Z" fill="#2E3038"/>
</g>
<defs>
<clipPath id="clip0_1_4439">
<rect width="200" height="200" fill="white"/>
</clipPath>
</defs>
</svg>
