<svg width="173" height="120" viewBox="0 0 173 120" fill="none" xmlns="http://www.w3.org/2000/svg">
<path d="M172.368 120H0.566551C0.249433 120 0 119.751 0 119.432V0.568495C0 0.25013 0.249433 0 0.566551 0H172.368C172.685 0 172.934 0.25013 172.934 0.568495V119.432C172.934 119.751 172.685 120 172.368 120ZM1.13307 118.863H171.801V1.13681H1.13307V118.863Z" fill="#2E3038"/>
<path d="M155.626 17.7012C153.201 17.7012 151.23 15.723 151.23 13.2901C151.23 10.8572 153.201 8.87891 155.626 8.87891C158.048 8.87891 160.021 10.8572 160.021 13.2901C160.021 15.723 158.061 17.7012 155.626 17.7012ZM155.626 10.0157C153.824 10.0157 152.364 11.4823 152.364 13.2901C152.364 15.0978 153.824 16.5644 155.626 16.5644C157.427 16.5644 158.888 15.0978 158.888 13.2901C158.888 11.4823 157.427 10.0157 155.626 10.0157Z" fill="#2E3038"/>
<path d="M145.726 13.2902C145.726 15.4163 144.015 17.133 141.897 17.133C139.779 17.133 138.068 15.4163 138.068 13.2902C138.068 11.1642 139.779 9.44751 141.897 9.44751C144.015 9.44751 145.726 11.1756 145.726 13.2902Z" fill="#2E3038"/>
<path d="M131.997 13.2902C131.997 15.4163 130.287 17.133 128.168 17.133C126.05 17.133 124.34 15.4163 124.34 13.2902C124.34 11.1642 126.05 9.44751 128.168 9.44751C130.287 9.44751 131.997 11.1756 131.997 13.2902Z" fill="#2E3038"/>
<path d="M161.2 27.7852C161.2 27.2329 160.753 26.7852 160.2 26.7852H13.6094C13.0571 26.7852 12.6094 27.2329 12.6094 27.7852V108.45C12.6094 109.002 13.0571 109.45 13.6094 109.45H160.2C160.753 109.45 161.2 109.002 161.2 108.45V27.7852Z" fill="#18FBFB"/>
<path d="M87.4358 97.5345H87.2666C70.6713 97.1707 57.5091 83.3686 57.8726 66.713C58.2236 50.5008 71.2717 37.4719 87.4251 37.199H87.6068C104.213 37.2444 117.635 50.7964 117.578 67.4634C117.533 84.1304 104.031 97.6028 87.4358 97.5459V97.5345ZM87.4358 38.3246C71.4641 38.5973 58.7331 51.8081 58.9932 67.85C59.2533 83.4369 71.7367 96.0451 87.2772 96.3863H87.4483C103.431 96.4317 116.411 83.4711 116.457 67.4292C116.502 51.3875 103.589 38.3586 87.6068 38.3132L87.4358 38.3246Z" fill="#333333"/>
<path d="M80.6532 55.8938L80.502 78.6265L101.168 67.2695L80.6532 55.8938Z" fill="#333333"/>
</svg>
