<svg width="120" height="120" viewBox="0 0 120 120" fill="none" xmlns="http://www.w3.org/2000/svg">
<path fill-rule="evenodd" clip-rule="evenodd" d="M32.485 91.943C47.9747 107.433 73.6299 106.914 90.271 90.2729C106.912 73.6318 107.431 47.9765 91.9411 32.4869C89.5262 30.0719 74.2588 41.4239 57.8404 57.8423C41.4221 74.2607 30.0701 89.5281 32.485 91.943ZM49.6098 100.701C63.0159 104.43 78.3693 100.717 89.5423 89.5441C100.715 78.3712 104.428 63.0178 100.699 49.6117C102.859 62.0874 98.3043 76.4094 87.3559 87.3578C76.4075 98.3062 62.0856 102.861 49.6098 100.701ZM86.6271 86.629C75.1751 98.0811 60.0257 102.325 47.3715 99.1122C59.1684 100.734 73.2836 95.5999 84.4408 84.4427C95.598 73.2855 100.732 59.1703 99.1103 47.3733C102.323 60.0276 98.0792 75.177 86.6271 86.629ZM45.1661 97.6041C57.002 100.296 71.9419 95.484 83.712 83.7139C95.4822 71.9438 100.294 57.0039 97.6022 45.168C97.899 48.2243 97.6759 51.495 96.9594 54.8634C95.0804 63.6967 89.8037 73.2496 81.5257 81.5276C73.2477 89.8055 63.6948 95.0823 54.8615 96.9613C51.4931 97.6778 48.2224 97.9009 45.1661 97.6041ZM54.7109 95.9161C50.5603 96.799 46.6006 96.9048 43.043 96.2051C46.0676 96.3511 49.3829 95.8957 52.8401 94.89C61.1331 92.4776 70.345 86.8781 78.6106 78.6125C86.8762 70.3469 92.4757 61.135 94.8881 52.842C95.8938 49.3848 96.3492 46.0695 96.2032 43.0449C96.9029 46.6024 96.7971 50.5622 95.9142 54.7127C94.0873 63.3012 88.9373 72.6584 80.7969 80.7988C72.6565 88.9392 63.2993 94.0892 54.7109 95.9161ZM41.0664 94.9247C44.4609 95.4592 48.3886 95.0928 52.6097 93.8649C60.6833 91.5163 69.7291 86.0364 77.8818 77.8837C86.0346 69.7309 91.5144 60.6852 93.863 52.6116C95.0909 48.3905 95.4573 44.4628 94.9228 41.0683C94.8789 44.002 94.1444 47.3171 92.8124 50.8237C89.8689 58.5728 83.9494 67.4434 75.6955 75.6974C67.4416 83.9513 58.571 89.8708 50.8218 92.8143C47.3152 94.1463 44.0001 94.8808 41.0664 94.9247ZM50.5054 91.818C46.2221 93.445 42.373 94.1107 39.2197 93.7724C41.9794 93.5036 45.2438 92.4503 48.806 90.7334C56.0082 87.2622 64.5374 81.0252 72.7804 72.7822C81.0233 64.5393 87.2603 56.0101 90.7315 48.8079C92.4484 45.2457 93.5017 41.9812 93.7706 39.2216C94.1088 42.3749 93.4431 46.224 91.8161 50.5072C88.9435 58.0697 83.1311 66.8041 74.9667 74.9686C66.8023 83.133 58.0678 88.9454 50.5054 91.818ZM37.5163 92.7639C38.0184 92.7834 38.5504 92.7674 39.1114 92.7159C41.7103 92.4771 44.8695 91.4771 48.3985 89.7762C55.4529 86.3763 63.8762 80.2289 72.0516 72.0535C80.227 63.8781 86.3744 55.4548 89.7744 48.4004C91.4753 44.8713 92.4752 41.7122 92.714 39.1132C92.7656 38.5523 92.7815 38.0203 92.7621 37.5182C92.7225 37.7051 92.6781 37.8947 92.6292 38.0868C92.0141 40.5025 90.6401 43.4705 88.6449 46.7936C84.6503 53.4468 78.0979 61.6344 69.8653 69.8671C61.6326 78.0998 53.4449 84.6522 46.7917 88.6468C43.4686 90.6419 40.5006 92.0159 38.0849 92.6311C37.8929 92.68 37.7032 92.7243 37.5163 92.7639ZM37.8911 91.596C36.7887 91.8767 35.865 91.9745 35.1127 91.9101C40.6519 89.9338 53.2385 79.9349 66.5858 66.5876C79.933 53.2404 89.932 40.6538 91.9082 35.1146C91.9726 35.8669 91.8748 36.7906 91.5941 37.8929C91.0178 40.1563 89.7064 43.0144 87.7384 46.2922C83.8068 52.8405 77.3221 60.9527 69.1365 69.1384C60.9508 77.324 52.8386 83.8087 46.2903 87.7403C43.0126 89.7082 40.1544 91.0196 37.8911 91.596ZM90.555 33.2645C90.9745 33.1959 91.1243 33.2534 91.1576 33.2705C91.1747 33.3038 91.2322 33.4536 91.1635 33.873C91.0773 34.3999 90.8205 35.145 90.3506 36.116C89.4166 38.046 87.7616 40.6251 85.4841 43.6881C80.9395 49.8001 74.0383 57.6775 65.857 65.8589C57.6756 74.0402 49.7982 80.9414 43.6863 85.4859C40.6232 87.7635 38.0441 89.4185 36.1141 90.3525C35.1432 90.8224 34.3981 91.0792 33.8712 91.1654C33.4517 91.234 33.3019 91.1766 33.2686 91.1594C33.2515 91.1262 33.194 90.9764 33.2626 90.5569C33.3488 90.03 33.6056 89.2849 34.0755 88.314C35.0096 86.3839 36.6646 83.8048 38.9421 80.7418C43.4866 74.6298 50.3878 66.7524 58.5692 58.5711C66.7506 50.3897 74.6279 43.4885 80.7399 38.944C83.803 36.6665 86.382 35.0114 88.3121 34.0774C89.283 33.6075 90.0281 33.3507 90.555 33.2645Z" fill="#06DED1"/>
<path fill-rule="evenodd" clip-rule="evenodd" d="M28.058 87.515C12.5683 72.0253 13.0869 46.3701 29.7281 29.729C46.3692 13.0878 72.0244 12.5692 87.5141 28.0589C89.929 30.4738 78.577 45.7412 62.1587 62.1596C45.7403 78.5779 30.4729 89.9299 28.058 87.515ZM19.3004 70.3902C15.571 56.9841 19.2839 41.6307 30.4568 30.4577C41.6298 19.2848 56.9832 15.5719 70.3893 19.3013C57.9136 17.1407 43.5915 21.6957 32.6432 32.6441C21.6948 43.5925 17.1398 57.9144 19.3004 70.3902ZM33.372 33.3729C21.9199 44.8249 17.676 59.9743 20.8888 72.6285C19.2674 60.8316 24.4011 46.7164 35.5583 35.5592C46.7155 24.402 60.8307 19.2683 72.6276 20.8897C59.9734 17.6769 44.824 21.9208 33.372 33.3729ZM22.3969 74.8339C19.7051 62.998 24.5169 48.0581 36.2871 36.288C48.0572 24.5178 62.9971 19.706 74.833 22.3978C71.7767 22.101 68.5059 22.3241 65.1376 23.0406C56.3043 24.9196 46.7514 30.1963 38.4734 38.4743C30.1954 46.7523 24.9187 56.3052 23.0397 65.1385C22.3231 68.5069 22.1001 71.7776 22.3969 74.8339ZM24.0849 65.2891C23.2019 69.4397 23.0962 73.3994 23.7959 76.957C23.6499 73.9324 24.1053 70.6171 25.111 67.1599C27.5234 58.8669 33.1229 49.655 41.3885 41.3894C49.6541 33.1238 58.866 27.5243 67.159 25.1119C70.6162 24.1062 73.9315 23.6508 76.9561 23.7968C73.3986 23.0971 69.4388 23.2029 65.2882 24.0858C56.6998 25.9127 47.3426 31.0627 39.2022 39.2031C31.0618 47.3435 25.9118 56.7007 24.0849 65.2891ZM25.0763 78.9336C24.5418 75.5391 24.9082 71.6114 26.1361 67.3903C28.4847 59.3167 33.9645 50.2709 42.1173 42.1182C50.27 33.9654 59.3158 28.4856 67.3894 26.137C71.6105 24.9091 75.5382 24.5427 78.9327 25.0772C75.999 25.1211 72.6839 25.8556 69.1773 27.1876C61.4281 30.1311 52.5575 36.0506 44.3036 44.3045C36.0497 52.5584 30.1302 61.429 27.1867 69.1782C25.8547 72.6848 25.1202 75.9999 25.0763 78.9336ZM28.183 69.4946C26.556 73.7779 25.8903 77.627 26.2285 80.7803C26.4974 78.0206 27.5507 74.7562 29.2676 71.194C32.7388 63.9918 38.9758 55.4626 47.2187 47.2196C55.4617 38.9767 63.9909 32.7397 71.1931 29.2685C74.7553 27.5516 78.0197 26.4983 80.7794 26.2294C77.6261 25.8912 73.777 26.5569 69.4937 28.1839C61.9313 31.0565 53.1968 36.8689 45.0324 45.0333C36.868 53.1977 31.0556 61.9322 28.183 69.4946ZM27.237 82.4837C27.2176 81.9816 27.2335 81.4496 27.2851 80.8886C27.5239 78.2897 28.5238 75.1305 30.2247 71.6015C33.6247 64.5471 39.7721 56.1238 47.9475 47.9484C56.1229 39.773 64.5462 33.6256 71.6006 30.2256C75.1296 28.5247 78.2888 27.5248 80.8877 27.286C81.4487 27.2344 81.9807 27.2185 82.4828 27.2379C82.2959 27.2775 82.1062 27.3219 81.9142 27.3708C79.4985 27.9859 76.5305 29.3599 73.2074 31.3551C66.5542 35.3497 58.3665 41.9021 50.1338 50.1347C41.9012 58.3674 35.3488 66.5551 31.3542 73.2083C29.359 76.5314 27.985 79.4994 27.3699 81.9151C27.321 82.1071 27.2766 82.2968 27.237 82.4837ZM28.405 82.1089C28.1243 83.2113 28.0265 84.135 28.0909 84.8873C30.0671 79.3481 40.0661 66.7615 53.4133 53.4142C66.7606 40.067 79.3472 30.068 84.8864 28.0918C84.1341 28.0274 83.2104 28.1252 82.108 28.4059C79.8447 28.9822 76.9865 30.2936 73.7088 32.2616C67.1605 36.1932 59.0483 42.6779 50.8626 50.8635C42.677 59.0492 36.1923 67.1614 32.2607 73.7097C30.2927 76.9874 28.9813 79.8456 28.405 82.1089ZM86.7365 29.445C86.8051 29.0255 86.7476 28.8757 86.7305 28.8424C86.6972 28.8253 86.5474 28.7678 86.1279 28.8365C85.601 28.9227 84.8559 29.1795 83.885 29.6494C81.955 30.5834 79.3759 32.2384 76.3128 34.5159C70.2009 39.0605 62.3235 45.9617 54.1421 54.143C45.9608 62.3244 39.0595 70.2018 34.515 76.3137C32.2375 79.3768 30.5825 81.9559 29.6484 83.8859C29.1786 84.8568 28.9218 85.6019 28.8356 86.1288C28.7669 86.5483 28.8244 86.6981 28.8415 86.7314C28.8748 86.7485 29.0246 86.806 29.4441 86.7374C29.971 86.6512 30.7161 86.3944 31.687 85.9245C33.6171 84.9904 36.1961 83.3354 39.2592 81.0579C45.3712 76.5134 53.2485 69.6122 61.4299 61.4308C69.6113 53.2494 76.5125 45.3721 81.057 39.2601C83.3345 36.197 84.9895 33.618 85.9236 31.6879C86.3935 30.717 86.6503 29.9719 86.7365 29.445Z" fill="#06DED1"/>
</svg>
