<svg width="96" height="96" viewBox="0 0 96 96" fill="none" xmlns="http://www.w3.org/2000/svg">
<path d="M23.9411 0.5C30.2603 0.5 36.1164 5.64845 40.4227 14.282C44.7138 22.8854 47.3823 34.8058 47.3823 48C47.3823 61.1942 44.7138 73.1146 40.4227 81.718C36.1164 90.3516 30.2603 95.5 23.9411 95.5C17.622 95.5 11.7658 90.3516 7.45963 81.718C3.16851 73.1146 0.5 61.1942 0.5 48C0.5 34.8058 3.16851 22.8854 7.45963 14.282C11.7658 5.64845 17.622 0.5 23.9411 0.5Z" stroke="#3D5A5C"/>
<path d="M27.3786 0.5C33.6978 0.5 39.5539 5.64845 43.8602 14.282C48.1513 22.8854 50.8198 34.8058 50.8198 48C50.8198 61.1942 48.1513 73.1146 43.8602 81.718C39.5539 90.3516 33.6978 95.5 27.3786 95.5C21.0595 95.5 15.2033 90.3516 10.8971 81.718C6.60601 73.1146 3.9375 61.1942 3.9375 48C3.9375 34.8058 6.60601 22.8854 10.8971 14.282C15.2033 5.64845 21.0595 0.5 27.3786 0.5Z" stroke="#3D5A5C"/>
<path d="M30.8142 0.5C37.1333 0.5 42.9895 5.64845 47.2957 14.282C51.5868 22.8854 54.2553 34.8058 54.2553 48C54.2553 61.1942 51.5868 73.1146 47.2957 81.718C42.9895 90.3516 37.1333 95.5 30.8142 95.5C24.4951 95.5 18.6389 90.3516 14.3327 81.718C10.0416 73.1146 7.37305 61.1942 7.37305 48C7.37305 34.8058 10.0416 22.8854 14.3327 14.282C18.6389 5.64845 24.4951 0.5 30.8142 0.5Z" stroke="#3D5A5C"/>
<path d="M34.2517 0.5C40.5708 0.5 46.427 5.64845 50.7332 14.282C55.0243 22.8854 57.6928 34.8058 57.6928 48C57.6928 61.1942 55.0243 73.1146 50.7332 81.718C46.427 90.3516 40.5708 95.5 34.2517 95.5C27.9326 95.5 22.0764 90.3516 17.7702 81.718C13.4791 73.1146 10.8105 61.1942 10.8105 48C10.8105 34.8058 13.4791 22.8854 17.7702 14.282C22.0764 5.64845 27.9326 0.5 34.2517 0.5Z" stroke="#3D5A5C"/>
<path d="M37.6892 0.5C44.0083 0.5 49.8645 5.64845 54.1707 14.282C58.4618 22.8854 61.1303 34.8058 61.1303 48C61.1303 61.1942 58.4618 73.1146 54.1707 81.718C49.8645 90.3516 44.0083 95.5 37.6892 95.5C31.3701 95.5 25.5139 90.3516 21.2077 81.718C16.9166 73.1146 14.248 61.1942 14.248 48C14.248 34.8058 16.9166 22.8854 21.2077 14.282C25.5139 5.64845 31.3701 0.5 37.6892 0.5Z" stroke="#3D5A5C"/>
<path d="M41.1267 0.5C47.4458 0.5 53.302 5.64845 57.6082 14.282C61.8993 22.8854 64.5678 34.8058 64.5678 48C64.5678 61.1942 61.8993 73.1146 57.6082 81.718C53.302 90.3516 47.4458 95.5 41.1267 95.5C34.8076 95.5 28.9514 90.3516 24.6452 81.718C20.3541 73.1146 17.6855 61.1942 17.6855 48C17.6855 34.8058 20.3541 22.8854 24.6452 14.282C28.9514 5.64845 34.8076 0.5 41.1267 0.5Z" stroke="#3D5A5C"/>
<path d="M44.5622 0.5C50.8813 0.5 56.7375 5.64845 61.0438 14.282C65.3349 22.8854 68.0034 34.8058 68.0034 48C68.0034 61.1942 65.3349 73.1146 61.0438 81.718C56.7375 90.3516 50.8813 95.5 44.5622 95.5C38.2431 95.5 32.3869 90.3516 28.0807 81.718C23.7896 73.1146 21.1211 61.1942 21.1211 48C21.1211 34.8058 23.7896 22.8854 28.0807 14.282C32.3869 5.64845 38.2431 0.5 44.5622 0.5Z" stroke="#3D5A5C"/>
<path d="M47.9997 0.5C54.3188 0.5 60.175 5.64845 64.4813 14.282C68.7724 22.8854 71.4409 34.8058 71.4409 48C71.4409 61.1942 68.7724 73.1146 64.4813 81.718C60.175 90.3516 54.3188 95.5 47.9997 95.5C41.6806 95.5 35.8244 90.3516 31.5182 81.718C27.2271 73.1146 24.5586 61.1942 24.5586 48C24.5586 34.8058 27.2271 22.8854 31.5182 14.282C35.8244 5.64845 41.6806 0.5 47.9997 0.5Z" stroke="#3D5A5C"/>
<path d="M51.4372 0.5C57.7563 0.5 63.6125 5.64845 67.9188 14.282C72.2099 22.8854 74.8784 34.8058 74.8784 48C74.8784 61.1942 72.2099 73.1146 67.9188 81.718C63.6125 90.3516 57.7563 95.5 51.4372 95.5C45.1181 95.5 39.2619 90.3516 34.9557 81.718C30.6646 73.1146 27.9961 61.1942 27.9961 48C27.9961 34.8058 30.6646 22.8854 34.9557 14.282C39.2619 5.64845 45.1181 0.5 51.4372 0.5Z" stroke="#3D5A5C"/>
<path d="M54.8747 0.5C61.1938 0.5 67.05 5.64845 71.3563 14.282C75.6474 22.8854 78.3159 34.8058 78.3159 48C78.3159 61.1942 75.6474 73.1146 71.3563 81.718C67.05 90.3516 61.1938 95.5 54.8747 95.5C48.5556 95.5 42.6994 90.3516 38.3932 81.718C34.1021 73.1146 31.4336 61.1942 31.4336 48C31.4336 34.8058 34.1021 22.8854 38.3932 14.282C42.6994 5.64845 48.5556 0.5 54.8747 0.5Z" stroke="#3D5A5C"/>
<path d="M58.3103 0.5C64.6294 0.5 70.4856 5.64845 74.7918 14.282C79.0829 22.8854 81.7514 34.8058 81.7514 48C81.7514 61.1942 79.0829 73.1146 74.7918 81.718C70.4856 90.3516 64.6294 95.5 58.3103 95.5C51.9912 95.5 46.135 90.3516 41.8288 81.718C37.5377 73.1146 34.8691 61.1942 34.8691 48C34.8691 34.8058 37.5377 22.8854 41.8288 14.282C46.135 5.64845 51.9912 0.5 58.3103 0.5Z" stroke="#3D5A5C"/>
<path d="M61.7478 0.5C68.0669 0.5 73.9231 5.64845 78.2293 14.282C82.5204 22.8854 85.1889 34.8058 85.1889 48C85.1889 61.1942 82.5204 73.1146 78.2293 81.718C73.9231 90.3516 68.0669 95.5 61.7478 95.5C55.4287 95.5 49.5725 90.3516 45.2663 81.718C40.9752 73.1146 38.3066 61.1942 38.3066 48C38.3066 34.8058 40.9752 22.8854 45.2663 14.282C49.5725 5.64845 55.4287 0.5 61.7478 0.5Z" stroke="#3D5A5C"/>
<path d="M65.1853 0.5C71.5044 0.5 77.3606 5.64845 81.6668 14.282C85.9579 22.8854 88.6264 34.8058 88.6264 48C88.6264 61.1942 85.9579 73.1146 81.6668 81.718C77.3606 90.3516 71.5044 95.5 65.1853 95.5C58.8662 95.5 53.01 90.3516 48.7038 81.718C44.4127 73.1146 41.7441 61.1942 41.7441 48C41.7441 34.8058 44.4127 22.8854 48.7038 14.282C53.01 5.64845 58.8662 0.5 65.1853 0.5Z" stroke="#3D5A5C"/>
<path d="M68.6228 0.5C74.9419 0.5 80.7981 5.64845 85.1043 14.282C89.3954 22.8854 92.0639 34.8058 92.0639 48C92.0639 61.1942 89.3954 73.1146 85.1043 81.718C80.7981 90.3516 74.9419 95.5 68.6228 95.5C62.3037 95.5 56.4475 90.3516 52.1413 81.718C47.8502 73.1146 45.1816 61.1942 45.1816 48C45.1816 34.8058 47.8502 22.8854 52.1413 14.282C56.4475 5.64845 62.3037 0.5 68.6228 0.5Z" stroke="#3D5A5C"/>
<path d="M72.0583 0.5C78.3774 0.5 84.2336 5.64845 88.5398 14.282C92.831 22.8854 95.4995 34.8058 95.4995 48C95.4995 61.1942 92.831 73.1146 88.5398 81.718C84.2336 90.3516 78.3774 95.5 72.0583 95.5C65.7392 95.5 59.883 90.3516 55.5768 81.718C51.2857 73.1146 48.6172 61.1942 48.6172 48C48.6172 34.8058 51.2857 22.8854 55.5768 14.282C59.883 5.64845 65.7392 0.5 72.0583 0.5Z" stroke="#3D5A5C"/>
</svg>
