<svg width="96" height="96" viewBox="0 0 96 96" fill="none" xmlns="http://www.w3.org/2000/svg">
<path d="M71.5948 1C84.5211 1 95.0001 11.4795 95.0001 24.4068C95.0001 37.334 84.5211 47.8136 71.5948 47.8136H48.1895V24.4068C48.1895 11.4795 58.6684 1 71.5948 1Z" stroke="#1F69F8" stroke-width="2"/>
<path d="M69.1542 5.88037C80.7327 5.88037 90.119 15.2672 90.119 26.8465C90.119 38.4258 80.7327 47.8126 69.1542 47.8126H48.1895V26.8465C48.1895 15.2672 57.5758 5.88037 69.1542 5.88037Z" stroke="#1F69F8" stroke-width="2"/>
<path d="M66.7137 10.7637C76.9443 10.7637 85.2379 19.0577 85.2379 29.2891C85.2379 39.5205 76.9443 47.8145 66.7137 47.8145H48.1895V29.2891C48.1895 19.0577 56.4831 10.7637 66.7137 10.7637Z" stroke="#1F69F8" stroke-width="2"/>
<path d="M64.2732 15.6445C73.1559 15.6445 80.3569 22.8459 80.3569 31.7293C80.3569 40.6127 73.1559 47.814 64.2732 47.814H48.1895V31.7293C48.1895 22.8459 55.3904 15.6445 64.2732 15.6445Z" stroke="#1F69F8" stroke-width="2"/>
<path d="M61.8326 20.5249C69.3675 20.5249 75.4758 26.6335 75.4758 34.169C75.4758 41.7044 69.3675 47.813 61.8326 47.813H48.1895V34.169C48.1895 26.6335 54.2978 20.5249 61.8326 20.5249Z" stroke="#1F69F8" stroke-width="2"/>
<path d="M59.3921 25.4053C65.5791 25.4053 70.5948 30.4211 70.5948 36.6087C70.5948 42.7962 65.5791 47.8121 59.3921 47.8121H48.1895V36.6087C48.1895 30.4211 53.2051 25.4053 59.3921 25.4053Z" stroke="#1F69F8" stroke-width="2"/>
<path d="M56.9516 30.2886C61.7907 30.2886 65.7137 34.2117 65.7137 39.0513C65.7137 43.8909 61.7907 47.814 56.9516 47.814H48.1895V39.0513C48.1895 34.2117 52.1124 30.2886 56.9516 30.2886Z" stroke="#1F69F8" stroke-width="2"/>
<path d="M71.5948 95C84.5211 95 95.0001 84.5205 95.0001 71.5932C95.0001 58.666 84.5211 48.1864 71.5948 48.1864H48.1895V71.5932C48.1895 84.5205 58.6684 95 71.5948 95Z" stroke="#1F69F8" stroke-width="2"/>
<path d="M69.1542 90.1196C80.7327 90.1196 90.119 80.7328 90.119 69.1535C90.119 57.5742 80.7327 48.1874 69.1542 48.1874H48.1895V69.1535C48.1895 80.7328 57.5758 90.1196 69.1542 90.1196Z" stroke="#1F69F8" stroke-width="2"/>
<path d="M66.7137 85.2363C76.9443 85.2363 85.2379 76.9423 85.2379 66.7109C85.2379 56.4795 76.9443 48.1855 66.7137 48.1855H48.1895V66.7109C48.1895 76.9423 56.4831 85.2363 66.7137 85.2363Z" stroke="#1F69F8" stroke-width="2"/>
<path d="M64.2732 80.3555C73.1559 80.3555 80.3569 73.1541 80.3569 64.2707C80.3569 55.3873 73.1559 48.186 64.2732 48.186H48.1895V64.2707C48.1895 73.1541 55.3904 80.3555 64.2732 80.3555Z" stroke="#1F69F8" stroke-width="2"/>
<path d="M61.8326 75.4751C69.3675 75.4751 75.4758 69.3665 75.4758 61.831C75.4758 54.2956 69.3675 48.187 61.8326 48.187H48.1895V61.831C48.1895 69.3665 54.2978 75.4751 61.8326 75.4751Z" stroke="#1F69F8" stroke-width="2"/>
<path d="M59.3921 70.5947C65.5791 70.5947 70.5948 65.5789 70.5948 59.3913C70.5948 53.2038 65.5791 48.1879 59.3921 48.1879H48.1895V59.3913C48.1895 65.5789 53.2051 70.5947 59.3921 70.5947Z" stroke="#1F69F8" stroke-width="2"/>
<path d="M56.9516 65.7114C61.7907 65.7114 65.7137 61.7883 65.7137 56.9487C65.7137 52.1091 61.7907 48.186 56.9516 48.186H48.1895V56.9487C48.1895 61.7883 52.1124 65.7114 56.9516 65.7114Z" stroke="#1F69F8" stroke-width="2"/>
<path d="M24.4052 1C11.4789 1 0.999935 11.4795 0.999935 24.4068C0.999935 37.334 11.4789 47.8136 24.4052 47.8136H47.8105V24.4068C47.8105 11.4795 37.3316 1 24.4052 1Z" stroke="#1F69F8" stroke-width="2"/>
<path d="M26.8458 5.88037C15.2673 5.88037 5.881 15.2672 5.881 26.8465C5.881 38.4258 15.2673 47.8126 26.8458 47.8126H47.8105V26.8465C47.8105 15.2672 38.4242 5.88037 26.8458 5.88037Z" stroke="#1F69F8" stroke-width="2"/>
<path d="M29.2863 10.7637C19.0557 10.7637 10.7621 19.0577 10.7621 29.2891C10.7621 39.5205 19.0557 47.8145 29.2863 47.8145H47.8105V29.2891C47.8105 19.0577 39.5169 10.7637 29.2863 10.7637Z" stroke="#1F69F8" stroke-width="2"/>
<path d="M31.7268 15.6445C22.8441 15.6445 15.6431 22.8459 15.6431 31.7293C15.6431 40.6127 22.8441 47.814 31.7268 47.814H47.8105V31.7293C47.8105 22.8459 40.6096 15.6445 31.7268 15.6445Z" stroke="#1F69F8" stroke-width="2"/>
<path d="M34.1674 20.5249C26.6325 20.5249 20.5242 26.6335 20.5242 34.169C20.5242 41.7044 26.6325 47.813 34.1674 47.813H47.8105V34.169C47.8105 26.6335 41.7022 20.5249 34.1674 20.5249Z" stroke="#1F69F8" stroke-width="2"/>
<path d="M36.6079 25.4053C30.4209 25.4053 25.4052 30.4211 25.4052 36.6087C25.4052 42.7962 30.4209 47.8121 36.6079 47.8121H47.8105V36.6087C47.8105 30.4211 42.7949 25.4053 36.6079 25.4053Z" stroke="#1F69F8" stroke-width="2"/>
<path d="M39.0484 30.2886C34.2093 30.2886 30.2863 34.2117 30.2863 39.0513C30.2863 43.8909 34.2093 47.814 39.0484 47.814H47.8105V39.0513C47.8105 34.2117 43.8876 30.2886 39.0484 30.2886Z" stroke="#1F69F8" stroke-width="2"/>
<path d="M24.4052 95C11.4789 95 0.999935 84.5205 0.999935 71.5932C0.999935 58.666 11.4789 48.1864 24.4052 48.1864H47.8105V71.5932C47.8105 84.5205 37.3316 95 24.4052 95Z" stroke="#1F69F8" stroke-width="2"/>
<path d="M26.8458 90.1196C15.2673 90.1196 5.881 80.7328 5.881 69.1535C5.881 57.5742 15.2673 48.1874 26.8458 48.1874H47.8105V69.1535C47.8105 80.7328 38.4242 90.1196 26.8458 90.1196Z" stroke="#1F69F8" stroke-width="2"/>
<path d="M29.2863 85.2363C19.0557 85.2363 10.7621 76.9423 10.7621 66.7109C10.7621 56.4795 19.0557 48.1855 29.2863 48.1855H47.8105V66.7109C47.8105 76.9423 39.5169 85.2363 29.2863 85.2363Z" stroke="#1F69F8" stroke-width="2"/>
<path d="M31.7268 80.3555C22.8441 80.3555 15.6431 73.1541 15.6431 64.2707C15.6431 55.3873 22.8441 48.186 31.7268 48.186H47.8105V64.2707C47.8105 73.1541 40.6096 80.3555 31.7268 80.3555Z" stroke="#1F69F8" stroke-width="2"/>
<path d="M34.1674 75.4751C26.6325 75.4751 20.5242 69.3665 20.5242 61.831C20.5242 54.2956 26.6325 48.187 34.1674 48.187H47.8105V61.831C47.8105 69.3665 41.7022 75.4751 34.1674 75.4751Z" stroke="#1F69F8" stroke-width="2"/>
<path d="M36.6079 70.5947C30.4209 70.5947 25.4052 65.5789 25.4052 59.3913C25.4052 53.2038 30.4209 48.1879 36.6079 48.1879H47.8105V59.3913C47.8105 65.5789 42.7949 70.5947 36.6079 70.5947Z" stroke="#1F69F8" stroke-width="2"/>
<path d="M39.0484 65.7114C34.2093 65.7114 30.2863 61.7883 30.2863 56.9487C30.2863 52.1091 34.2093 48.186 39.0484 48.186H47.8105V56.9487C47.8105 61.7883 43.8876 65.7114 39.0484 65.7114Z" stroke="#1F69F8" stroke-width="2"/>
</svg>
