<svg width="210" height="48" viewBox="0 0 210 48" fill="none" xmlns="http://www.w3.org/2000/svg">
<path d="M44.66 4.96V19H41.24V4.96H44.66ZM57.2384 4.96V7.7H53.5184V19H50.0984V7.7H46.3784V4.96H57.2384ZM73.2931 4.96V7.7H69.5731V19H66.1531V7.7H62.4331V4.96H73.2931ZM83.7495 16.52H78.5095L77.6695 19H74.0895L79.1695 4.96H83.1295L88.2095 19H84.5895L83.7495 16.52ZM82.8695 13.88L81.1295 8.74L79.4095 13.88H82.8695ZM90.5356 4.96H94.0356L91.7956 10.32H89.4956L90.5356 4.96ZM99.4647 16.36H103.945V19H96.0447V4.96H99.4647V16.36ZM108.996 4.96V19H105.576V4.96H108.996ZM127.374 4.96V19H123.954V10.58L120.814 19H118.054L114.894 10.56V19H111.474V4.96H115.514L119.454 14.68L123.354 4.96H127.374ZM44.6 28.96V37.36C44.6 38.2 44.8067 38.8467 45.22 39.3C45.6333 39.7533 46.24 39.98 47.04 39.98C47.84 39.98 48.4533 39.7533 48.88 39.3C49.3067 38.8467 49.52 38.2 49.52 37.36V28.96H52.94V37.34C52.94 38.5933 52.6733 39.6533 52.14 40.52C51.6067 41.3867 50.8867 42.04 49.98 42.48C49.0867 42.92 48.0867 43.14 46.98 43.14C45.8733 43.14 44.88 42.9267 44 42.5C43.1333 42.06 42.4467 41.4067 41.94 40.54C41.4333 39.66 41.18 38.5933 41.18 37.34V28.96H44.6ZM67.3816 28.96L62.5216 38.36V43H59.1016V38.36L54.2416 28.96H58.1216L60.8416 34.84L63.5416 28.96H67.3816ZM72.1195 28.96V37.36C72.1195 38.2 72.3262 38.8467 72.7395 39.3C73.1529 39.7533 73.7595 39.98 74.5595 39.98C75.3595 39.98 75.9729 39.7533 76.3995 39.3C76.8262 38.8467 77.0395 38.2 77.0395 37.36V28.96H80.4595V37.34C80.4595 38.5933 80.1929 39.6533 79.6595 40.52C79.1262 41.3867 78.4062 42.04 77.4995 42.48C76.6062 42.92 75.6062 43.14 74.4995 43.14C73.3929 43.14 72.3995 42.9267 71.5195 42.5C70.6529 42.06 69.9662 41.4067 69.4595 40.54C68.9529 39.66 68.6995 38.5933 68.6995 37.34V28.96H72.1195ZM87.9411 43.14C86.9144 43.14 85.9944 42.9733 85.1811 42.64C84.3678 42.3067 83.7144 41.8133 83.2211 41.16C82.7411 40.5067 82.4878 39.72 82.4611 38.8H86.1011C86.1544 39.32 86.3344 39.72 86.6411 40C86.9478 40.2667 87.3478 40.4 87.8411 40.4C88.3478 40.4 88.7478 40.2867 89.0411 40.06C89.3344 39.82 89.4811 39.4933 89.4811 39.08C89.4811 38.7333 89.3611 38.4467 89.1211 38.22C88.8944 37.9933 88.6078 37.8067 88.2611 37.66C87.9278 37.5133 87.4478 37.3467 86.8211 37.16C85.9144 36.88 85.1744 36.6 84.6011 36.32C84.0278 36.04 83.5344 35.6267 83.1211 35.08C82.7078 34.5333 82.5011 33.82 82.5011 32.94C82.5011 31.6333 82.9744 30.6133 83.9211 29.88C84.8678 29.1333 86.1011 28.76 87.6211 28.76C89.1678 28.76 90.4144 29.1333 91.3611 29.88C92.3078 30.6133 92.8144 31.64 92.8811 32.96H89.1811C89.1544 32.5067 88.9878 32.1533 88.6811 31.9C88.3744 31.6333 87.9811 31.5 87.5011 31.5C87.0878 31.5 86.7544 31.6133 86.5011 31.84C86.2478 32.0533 86.1211 32.3667 86.1211 32.78C86.1211 33.2333 86.3344 33.5867 86.7611 33.84C87.1878 34.0933 87.8544 34.3667 88.7611 34.66C89.6678 34.9667 90.4011 35.26 90.9611 35.54C91.5344 35.82 92.0278 36.2267 92.4411 36.76C92.8544 37.2933 93.0611 37.98 93.0611 38.82C93.0611 39.62 92.8544 40.3467 92.4411 41C92.0411 41.6533 91.4544 42.1733 90.6811 42.56C89.9078 42.9467 88.9944 43.14 87.9411 43.14ZM107.326 28.96V43H103.906V37.22H98.5858V43H95.1658V28.96H98.5858V34.46H103.906V28.96H107.326ZM125.695 28.96V43H122.275V34.58L119.135 43H116.375L113.215 34.56V43H109.795V28.96H113.835L117.775 38.68L121.675 28.96H125.695ZM136.894 40.52H131.654L130.814 43H127.234L132.314 28.96H136.274L141.354 43H137.734L136.894 40.52ZM136.014 37.88L134.274 32.74L132.554 37.88H136.014ZM147.98 43.14C146.953 43.14 146.033 42.9733 145.22 42.64C144.407 42.3067 143.753 41.8133 143.26 41.16C142.78 40.5067 142.527 39.72 142.5 38.8H146.14C146.193 39.32 146.373 39.72 146.68 40C146.987 40.2667 147.387 40.4 147.88 40.4C148.387 40.4 148.787 40.2867 149.08 40.06C149.373 39.82 149.52 39.4933 149.52 39.08C149.52 38.7333 149.4 38.4467 149.16 38.22C148.933 37.9933 148.647 37.8067 148.3 37.66C147.967 37.5133 147.487 37.3467 146.86 37.16C145.953 36.88 145.213 36.6 144.64 36.32C144.067 36.04 143.573 35.6267 143.16 35.08C142.747 34.5333 142.54 33.82 142.54 32.94C142.54 31.6333 143.013 30.6133 143.96 29.88C144.907 29.1333 146.14 28.76 147.66 28.76C149.207 28.76 150.453 29.1333 151.4 29.88C152.347 30.6133 152.853 31.64 152.92 32.96H149.22C149.193 32.5067 149.027 32.1533 148.72 31.9C148.413 31.6333 148.02 31.5 147.54 31.5C147.127 31.5 146.793 31.6133 146.54 31.84C146.287 32.0533 146.16 32.3667 146.16 32.78C146.16 33.2333 146.373 33.5867 146.8 33.84C147.227 34.0933 147.893 34.3667 148.8 34.66C149.707 34.9667 150.44 35.26 151 35.54C151.573 35.82 152.067 36.2267 152.48 36.76C152.893 37.2933 153.1 37.98 153.1 38.82C153.1 39.62 152.893 40.3467 152.48 41C152.08 41.6533 151.493 42.1733 150.72 42.56C149.947 42.9467 149.033 43.14 147.98 43.14ZM158.625 28.96V43H155.205V28.96H158.625Z" fill="#2E3038"/>
<ellipse cx="6.31598" cy="10.5219" rx="6.31598" ry="6.52193" fill="#184AFB"/>
<path d="M0 23.5649L24.0007 11.8254V22.2605L0 34V23.5649Z" fill="#2E3038"/>
</svg>
