<svg width="213" height="200" viewBox="0 0 213 200" fill="none" xmlns="http://www.w3.org/2000/svg">
<g clip-path="url(#clip0_1_4639)">
<path opacity="0.08" d="M1.27638 122.964C1.27638 122.964 8.07261 159.465 42.5429 179.245C77.0074 199.025 119.852 194.307 154.677 191.393C189.503 188.479 213.002 165.008 212.495 135.007C211.989 105.006 184.332 100.38 164.922 69.0852C145.511 37.7958 145.104 26.5999 111.717 10.6156C78.3294 -5.36276 32.963 14.4579 13.5585 53.484C-5.84597 92.5101 1.27638 122.964 1.27638 122.964Z" fill="white"/>
<path d="M1.27638 122.964C1.27638 122.964 8.07261 159.465 42.5429 179.245C77.0074 199.025 119.852 194.307 154.677 191.393C189.503 188.479 213.002 165.008 212.495 135.007C211.989 105.006 184.332 100.38 164.922 69.0852C145.511 37.7958 145.104 26.5999 111.717 10.6156C78.3294 -5.36276 32.963 14.4579 13.5585 53.484C-5.84597 92.5101 1.27638 122.964 1.27638 122.964Z" fill="white"/>
<path d="M211.921 78.732C215.647 56.9582 200.975 36.2946 179.152 32.5769C157.329 28.8594 136.616 43.4963 132.889 65.2684C129.162 87.0422 143.834 107.706 165.658 111.423C187.481 115.141 208.194 100.504 211.921 78.732Z" fill="#184AFB"/>
<path d="M182.499 99.1875C197.548 93.6265 205.232 76.9469 199.658 61.9313C194.083 46.9157 177.365 39.2516 162.314 44.8125C147.263 50.3735 139.581 67.0531 145.154 82.0687C150.728 97.0843 167.448 104.748 182.499 99.1875Z" fill="white"/>
<path d="M179.651 87.9448C188.997 84.6974 193.778 74.925 190.331 66.1179C186.883 57.3125 176.51 52.8069 167.165 56.0543C157.819 59.3034 153.037 69.0758 156.485 77.8828C159.934 86.6883 170.304 91.1939 179.651 87.9448Z" fill="#184AFB"/>
<path d="M172.405 81C177.388 81 181.427 76.9708 181.427 72.0008C181.427 67.0292 177.388 63 172.405 63C167.424 63 163.385 67.0292 163.385 72.0008C163.385 76.9708 167.424 81 172.405 81Z" fill="#111111"/>
<path d="M126.59 47.7379C126.119 47.7379 125.729 47.3606 125.717 46.8905C125.717 46.7745 125.28 35.1838 120.959 26.9538C119.951 25.0326 118.973 23.4713 118.048 21.9101C114.81 16.6865 112.538 6.36119 112.387 0.4353C112.387 0.197336 112.584 0 112.823 0C113.062 0 113.26 0.197336 113.26 0.4353C113.406 6.14063 116.434 16.0132 119.532 21.0337C120.499 22.595 121.495 24.2085 122.526 26.1818C127.033 34.7718 127.464 46.3797 127.481 46.8731C127.493 47.349 127.115 47.7495 126.637 47.7669L126.59 47.7379Z" fill="#2E3038"/>
<path d="M110.475 115C110.259 115 110.079 114.843 110.044 114.635C109.607 111.907 111.931 98.633 116.729 91.2737C121.528 83.9143 122.024 77.8259 122.029 77.7621C122.058 77.2804 122.477 76.9147 122.961 76.9496C123.444 76.9786 123.811 77.3964 123.777 77.8781C123.777 78.1393 123.316 84.3903 118.203 92.2313C113.212 99.8815 110.556 112.273 110.918 114.507C110.953 114.746 110.79 114.965 110.55 115H110.475Z" fill="#2E3038"/>
<path d="M125.226 45.7062L124.497 53.2514L125.079 55.7181C125.079 55.7181 124.934 61.3771 124.788 64.279C124.689 66.0957 124.392 67.8949 123.915 69.6477L122.313 72.5497L121.877 78.4988L124.06 78.6439C124.06 78.6439 126.826 62.8281 127.118 59.2005C127.409 55.573 127.409 45.416 127.409 45.416L125.226 45.7062Z" fill="#184AFB" stroke="#2E3038" stroke-linecap="round" stroke-linejoin="round"/>
<path d="M57.8187 187.614C57.4693 189.639 56.9336 191.636 56.2172 193.563C55.1981 196.03 54.7613 197.916 55.926 198.641C57.0907 199.367 58.1099 200.963 61.3129 197.916C64.516 194.869 64.516 192.982 64.516 191.387C64.5451 190.127 64.6441 188.868 64.8071 187.614C64.8071 187.614 60.4394 185.438 57.8187 187.614Z" fill="white" stroke="#2E3038" stroke-linecap="round" stroke-linejoin="round"/>
<path d="M85.9177 176.424C85.9177 176.424 86.1098 176.627 86.436 176.929C87.3968 177.852 88.4976 178.612 89.7029 179.181C91.7417 180.052 93.6341 180.486 93.6341 181.503C93.6341 182.518 91.5954 182.663 88.9748 182.663C86.3545 182.663 84.3162 181.938 82.7147 181.793C81.1131 181.647 78.3469 181.647 77.9101 181.647C77.4733 181.647 76.4542 179.616 77.0366 177.44C77.619 175.263 81.8411 174.247 83.1515 174.973C84.4617 175.699 85.9177 176.424 85.9177 176.424Z" fill="white" stroke="#2E3038" stroke-linecap="round" stroke-linejoin="round"/>
<path d="M65.6787 100.554C65.6787 100.554 63.9317 109.551 63.6405 112.743C63.3493 115.935 63.9317 129.139 63.6405 131.461C63.3493 133.782 61.311 149.453 61.1655 152.501C61.0198 155.547 58.836 159.32 58.836 164.108V181.81C58.836 181.81 57.2345 183.552 57.5256 184.713C57.7178 185.67 57.8168 186.639 57.8168 187.614C58.8243 187.017 60.0356 186.86 61.1655 187.179C62.9125 187.759 64.9508 188.63 64.9508 188.63C65.638 187.283 65.9875 185.786 65.97 184.277C65.97 181.665 65.8243 179.488 66.1156 179.054C66.4067 178.618 67.7171 165.269 69.6097 161.206C71.5024 157.143 74.8511 133.347 75.2878 132.041L78.3453 122.9C78.3453 122.9 78.4908 144.52 78.4908 147.422C78.4908 150.324 77.9085 154.676 77.9085 157.724C77.9085 160.771 77.7629 170.493 77.7629 170.928C77.7629 171.363 76.5982 173.395 76.5982 173.975C76.5982 174.555 77.3261 178.763 77.3261 178.763C77.3261 178.763 80.5292 177.022 81.8394 176.732C83.1906 176.529 84.5533 176.436 85.916 176.442C85.5725 175.391 85.1356 174.37 84.6057 173.395C84.0233 172.524 85.1881 166.72 85.0424 164.544C84.8969 162.367 87.6633 153.081 88.5368 147.857C89.4104 142.633 89.5558 121.594 89.2649 118.692C88.9732 115.79 88.8277 112.162 88.8277 112.162V100.554C88.8277 100.554 84.8969 103.602 76.8893 101.57C68.8818 99.5386 65.97 98.8131 65.6787 100.554Z" fill="#2E3038" stroke="#2E3038" stroke-linecap="round" stroke-linejoin="round"/>
<path d="M107.464 60.2165L121.879 60.0714L124.79 58.6204C124.79 58.6204 127.848 58.3302 128.284 59.7812C128.721 61.2322 129.012 62.6831 128.139 62.538C127.603 62.4219 127.161 62.0389 126.974 61.5224C126.52 62.1376 125.92 62.6367 125.227 62.9734C124.417 63.397 123.457 63.4551 122.606 63.1185L106.445 67.0361C106.941 64.79 107.284 62.509 107.464 60.2165Z" fill="white" stroke="#2E3038" stroke-linecap="round" stroke-linejoin="round"/>
<path d="M101.35 60.7967C101.95 60.4832 102.585 60.2395 103.242 60.0712C103.679 60.0712 107.319 58.4751 108.484 61.0869C109.648 63.6986 109.358 66.1654 107.028 67.6164C104.698 69.0674 102.369 68.0516 102.223 67.1811C102.078 66.3105 101.35 60.7967 101.35 60.7967Z" fill="#184AFB" stroke="#2E3038" stroke-linecap="round" stroke-linejoin="round"/>
<path d="M41.1621 40.7557C41.7328 44.5051 42.6704 48.1848 43.9691 51.7485C46.0773 57.448 53.8694 62.6426 58.0101 66.5428C60.2405 68.5975 62.2846 70.8378 64.1249 73.2407C64.1249 73.2407 66.5359 87.832 66.0351 91.4303C65.5342 95.0286 65.0275 100.717 65.2314 101.524C65.4352 102.331 75.2597 104.925 80.274 104.321C85.2881 103.718 89.0091 101.726 89.4986 99.9273C89.988 98.1281 89.9 96.329 90.0812 94.1238C90.2615 91.9177 91.6828 82.7302 91.6828 78.9286C91.6828 75.127 91.2804 70.2226 91.2804 70.2226C91.2804 70.2226 104.92 68.0228 105.723 67.0246C106.527 66.0263 106.428 62.4279 105.322 61.4237C104.215 60.4196 95.2935 60.5241 94.6935 60.5241C94.0934 60.5241 91.4842 59.3285 88.8698 59.3285C86.2549 59.3285 78.0377 58.3302 76.9369 57.9297C75.219 57.3841 73.466 56.9546 71.6957 56.6296C69.2905 56.1305 62.9602 54.7318 62.9602 54.7318C62.9602 54.7318 57.5441 51.2493 55.337 48.9277C53.1298 46.6061 50.4218 43.6286 46.8111 41.9281C43.2005 40.2275 41.5639 38.9564 41.1621 40.7557Z" fill="#184AFB" stroke="#2E3038" stroke-linecap="round" stroke-linejoin="round"/>
<path d="M44.7949 51.7483L50.7117 48.1499C50.7117 48.1499 47.2175 52.3462 46.1984 53.6463" stroke="#2E3038" stroke-linecap="round" stroke-linejoin="round"/>
<path d="M51.4877 47.8481C51.4877 47.8481 50.6899 52.9499 49.4844 55.0451" stroke="#2E3038" stroke-linecap="round" stroke-linejoin="round"/>
<path d="M69.7555 67.1815L63.6406 55.2832L68.154 68.6325" stroke="#2E3038" stroke-linecap="round" stroke-linejoin="round"/>
<path d="M91.4482 63.4083L91.3027 70.2396L93.487 62.3926" stroke="#2E3038" stroke-linecap="round" stroke-linejoin="round"/>
<path d="M72.3359 92.9688C72.4464 93.2822 72.5567 93.5722 72.6671 93.8389" stroke="#2E3038" stroke-linecap="round" stroke-linejoin="round"/>
<path d="M64.2227 61.9058C64.2227 61.9058 68.3749 80.5134 71.4091 90.2063" stroke="#2E3038" stroke-linecap="round" stroke-linejoin="round"/>
<path d="M78.4909 65.0048L81.4028 69.0675L77.3262 96.2016L80.9659 102.435L84.4602 94.8951L82.8587 68.9224L84.6058 64.1341L80.8204 60.7969L78.4909 65.0048Z" fill="#2E3038" stroke="#2E3038" stroke-linecap="round" stroke-linejoin="round"/>
<path d="M75.1607 54.3486L73.2505 55.1496L71.748 56.647L75.7606 67.3438L81.0018 64.2735L86.412 66.0147C86.412 66.0147 83.308 59.1137 81.7006 56.8153C80.0933 54.5169 75.1607 54.3486 75.1607 54.3486Z" fill="#184AFB" stroke="#2E3038" stroke-linecap="round" stroke-linejoin="round"/>
<path d="M86.4764 36.5477C86.4764 36.5477 87.123 37.8361 88.5731 35.5842C90.0231 33.3322 89.7375 30.4303 88.7359 30.941C87.7344 31.4517 87.6064 32.8737 87.6064 32.8737C86.4239 32.0728 85.1136 31.4866 83.7275 31.1325C81.9805 30.8075 74.992 31.1325 72.5752 33.5471C70.1585 35.9615 69.6634 39.9895 70.636 41.9222C71.6085 43.8549 74.6776 51.2608 74.6776 51.2608C74.6776 51.2608 77.5894 50.1348 79.3656 49.5196C81.1418 48.9044 84.3623 43.7156 84.6885 40.8136C85.0146 37.9116 84.8574 37.9116 84.8574 37.9116L86.4764 36.5477Z" fill="#2E3038" stroke="#2E3038" stroke-linecap="round" stroke-linejoin="round"/>
<path d="M86.4746 36.5474C87.1037 38.0159 87.6454 39.5249 88.0878 41.0572C88.4136 42.5082 87.7674 43.1525 88.4136 44.1159L90.0273 46.5362L88.734 48.4689C88.734 48.4689 88.7341 53.1121 88.5712 54.1046C88.5242 55.0448 87.7212 55.7703 86.7774 55.7239C86.7308 55.7239 86.6784 55.7181 86.6318 55.7123C85.4263 55.6194 84.2383 55.4047 83.0794 55.0681L80.977 64.25L74.6758 55.3931V51.2026L77.4246 48.3006C77.4246 48.3006 75.8056 45.3986 76.6151 44.4351C77.4246 43.4717 77.7448 42.0207 78.7175 43.3092C79.2765 43.9998 79.6143 44.8414 79.6842 45.7236L80.814 45.5611L81.14 42.8216C81.14 42.8216 83.8889 41.6957 83.7258 40.2447C83.5627 38.7936 81.9787 37.9926 81.7865 36.8667C81.5943 35.7407 86.4746 36.5474 86.4746 36.5474Z" fill="white" stroke="#2E3038" stroke-linecap="round" stroke-linejoin="round"/>
<path d="M87.5945 41.8525C87.5945 41.8525 86.2895 40.6511 85.0898 41.7538" stroke="#2E3038" stroke-linecap="round" stroke-linejoin="round"/>
<path d="M86.9943 44.3542C86.9943 44.7952 86.8604 45.1493 86.6915 45.1493C86.5226 45.1493 86.3887 44.7952 86.3887 44.3542C86.3887 43.913 86.5284 43.5532 86.6915 43.5532C86.8545 43.5532 86.9943 43.913 86.9943 44.3542Z" fill="#2E3038"/>
<path d="M113.194 5.65918L84.2676 53.8323L110.864 110.125" stroke="#2E3038" stroke-linecap="round" stroke-linejoin="round"/>
<path d="M94.4019 53.8319C94.4019 53.8319 92.317 55.219 91.4897 55.3583C90.6632 55.4976 85.666 54.3891 85.666 54.3891L87.0579 50.6396C87.0579 50.6396 91.373 51.2201 92.3457 51.4754C93.3185 51.7308 94.4019 53.8319 94.4019 53.8319Z" fill="white" stroke="#2E3038" stroke-linecap="round" stroke-linejoin="round"/>
<path d="M131.131 58.748H131.096L88.7347 53.0775C88.5022 53.0252 88.3507 52.7931 88.409 52.5552C88.4552 52.3462 88.6476 52.2068 88.8575 52.2184L131.161 58.3126C131.283 58.3301 131.364 58.4404 131.347 58.5623C131.329 58.6668 131.236 58.748 131.131 58.748Z" fill="#2E3038"/>
<path d="M82.4811 48.7363C82.4811 48.7363 86.9944 50.7388 88.1941 50.8375C89.3942 50.9361 89.2017 51.6384 88.7767 52.6367C88.3517 53.6349 87.7752 56.833 86.8721 56.9375C85.9695 57.0419 83.7623 56.1365 83.7623 55.8347C83.7623 55.5329 84.5602 55.3356 84.5602 55.3356C84.5602 55.3356 82.3588 55.2369 81.5551 54.4359C80.7514 53.6349 78.8471 51.5339 78.8471 51.5339C78.8471 51.5339 62.797 49.6302 60.0949 49.6302C57.3927 49.6302 48.0574 49.1311 45.7511 48.835C43.445 48.539 42.7403 47.5349 41.7386 45.4339C40.737 43.3329 40.5331 39.537 41.6397 39.1366C42.7462 38.7361 50.6663 39.6357 53.5723 40.8371C56.4784 42.0386 70.4203 45.7357 72.9302 46.8327C75.4403 47.9296 82.4811 48.7363 82.4811 48.7363Z" fill="white" stroke="#2E3038" stroke-linecap="round" stroke-linejoin="round"/>
<path d="M51.837 49.3166C51.342 48.092 50.9285 46.8325 50.5849 45.5556C50.1656 43.884 50.6723 41.4406 51.0217 40.1115C47.481 39.3221 42.5192 38.852 41.6631 39.1596C40.5566 39.56 40.7604 43.3559 41.7621 45.4569C42.7637 47.558 43.4684 48.5562 45.7746 48.858C46.7996 48.9858 49.228 49.1541 51.837 49.3166Z" fill="#184AFB" stroke="#2E3038" stroke-linecap="round" stroke-linejoin="round"/>
<path d="M47.1771 38.9567C46.6181 40.8488 46.6181 42.8685 47.1771 44.7607C47.5964 46.5599 48.3127 48.2837 49.2853 49.8566L53.7986 50.257L54.1946 49.5548C54.1946 49.5548 51.6904 47.059 51.4867 44.7607C51.376 43.3793 51.8942 42.0212 52.8959 41.0577C52.8959 41.0577 48.7844 37.3548 47.1771 38.9567Z" fill="#184AFB" stroke="#2E3038" stroke-linecap="round" stroke-linejoin="round"/>
</g>
<defs>
<clipPath id="clip0_1_4639">
<rect width="212.5" height="200" fill="white"/>
</clipPath>
</defs>
</svg>
