<svg width="38" height="44" viewBox="0 0 38 44" fill="none" xmlns="http://www.w3.org/2000/svg">
<path d="M19.0015 22.216C24.7679 22.216 29.4424 17.4666 29.4424 11.608C29.4424 5.74936 24.7679 1 19.0015 1C13.2351 1 8.56055 5.74936 8.56055 11.608C8.56055 17.4666 13.2351 22.216 19.0015 22.216Z" stroke="#184AFB" stroke-width="2" stroke-linejoin="round"/>
<path d="M26.7126 26.5479H25.8268C23.9333 28.2202 21.5089 29.1412 19 29.1412C16.4911 29.1412 14.0667 28.2202 12.1732 26.5479H11.2874C9.03451 26.757 6.88209 27.5936 5.06704 28.9655C3.25198 30.3375 1.84467 32.1916 1 34.3239C1 34.3239 5.72441 42.9999 19 42.9999C32.2756 42.9999 37 34.3239 37 34.3239C36.1553 32.1916 34.748 30.3375 32.933 28.9655C31.1179 27.5936 28.9655 26.757 26.7126 26.5479Z" stroke="#184AFB" stroke-width="2" stroke-linejoin="round"/>
</svg>
