<svg width="120" height="120" viewBox="0 0 120 120" fill="none" xmlns="http://www.w3.org/2000/svg">
<path fill-rule="evenodd" clip-rule="evenodd" d="M32.4869 91.9412C47.9766 107.431 73.6319 106.912 90.2731 90.2711C106.914 73.6299 107.433 47.9746 91.9432 32.4849C89.5282 30.0699 74.2608 41.422 57.8424 57.8404C41.4239 74.2588 30.0719 89.5263 32.4869 91.9412ZM49.6117 100.699C63.0179 104.428 78.3713 100.715 89.5443 89.5423C100.717 78.3694 104.43 63.0159 100.701 49.6097C102.861 62.0855 98.3064 76.4076 87.358 87.356C76.4096 98.3044 62.0875 102.859 49.6117 100.699ZM86.6292 86.6272C75.1771 98.0793 60.0277 102.323 47.3734 99.1104C59.1704 100.732 73.2856 95.5981 84.4428 84.4409C95.6001 73.2836 100.734 59.1684 99.1124 47.3714C102.325 60.0257 98.0813 75.1751 86.6292 86.6272ZM45.168 97.6023C57.004 100.294 71.9439 95.4823 83.7141 83.7121C95.4842 71.9419 100.296 57.002 97.6043 45.166C97.9011 48.2223 97.678 51.4931 96.9615 54.8614C95.0825 63.6948 89.8057 73.2477 81.5277 81.5257C73.2497 89.8037 63.6967 95.0805 54.8634 96.9595C51.4951 97.676 48.2243 97.8991 45.168 97.6023ZM54.7128 95.9143C50.5622 96.7972 46.6025 96.903 43.0449 96.2033C46.0695 96.3493 49.3848 95.8939 52.842 94.8882C61.1351 92.4758 70.347 86.8763 78.6126 78.6106C86.8782 70.345 92.4777 61.1331 94.8902 52.84C95.8959 49.3828 96.3512 46.0675 96.2053 43.0429C96.905 46.6005 96.7992 50.5602 95.9163 54.7108C94.0894 63.2993 88.9394 72.6565 80.7989 80.797C72.6585 88.9374 63.3013 94.0874 54.7128 95.9143ZM41.0683 94.9229C44.4628 95.4574 48.3905 95.091 52.6116 93.8631C60.6853 91.5145 69.731 86.0346 77.8838 77.8818C86.0366 69.7291 91.5164 60.6833 93.865 52.6096C95.0929 48.3885 95.4594 44.4608 94.9249 41.0663C94.881 44 94.1464 47.3151 92.8145 50.8217C89.871 58.5709 83.9514 67.4415 75.6975 75.6955C67.4435 83.9494 58.5729 89.869 50.8237 92.8125C47.3171 94.1445 44.002 94.879 41.0683 94.9229ZM50.5073 91.8162C46.224 93.4432 42.3749 94.1089 39.2216 93.7706C41.9812 93.5018 45.2457 92.4485 48.8079 90.7316C56.0102 87.2604 64.5394 81.0234 72.7824 72.7804C81.0253 64.5374 87.2624 56.0082 90.7336 48.806C92.4505 45.2437 93.5037 41.9793 93.7726 39.2196C94.1108 42.3729 93.4451 46.222 91.8181 50.5053C88.9456 58.0678 83.1332 66.8023 74.9687 74.9667C66.8042 83.1312 58.0698 88.9436 50.5073 91.8162ZM37.5182 92.7621C38.0203 92.7816 38.5523 92.7656 39.1132 92.7141C41.7122 92.4753 44.8714 91.4753 48.4005 89.7744C55.4549 86.3745 63.8781 80.227 72.0536 72.0516C80.229 63.8762 86.3765 55.4529 89.7764 48.3985C91.4773 44.8694 92.4773 41.7102 92.7161 39.1113C92.7676 38.5503 92.7836 38.0183 92.7641 37.5162C92.7245 37.7031 92.6802 37.8927 92.6313 38.0848C92.0161 40.5005 90.6421 43.4686 88.6469 46.7916C84.6523 53.4448 78.1 61.6325 69.8672 69.8653C61.6345 78.098 53.4468 84.6504 46.7936 88.645C43.4705 90.6401 40.5025 92.0141 38.0868 92.6293C37.8947 92.6782 37.7051 92.7225 37.5182 92.7621ZM37.8929 91.5942C36.7906 91.8749 35.8669 91.9727 35.1146 91.9083C40.6538 89.932 53.2404 79.933 66.5877 66.5857C79.935 53.2385 89.934 40.6518 91.9102 35.1126C91.9747 35.8649 91.8769 36.7886 91.5962 37.891C91.0198 40.1543 89.7084 43.0125 87.7405 46.2902C83.8088 52.8386 77.3241 60.9508 69.1385 69.1365C60.9528 77.3222 52.8405 83.8069 46.2922 87.7385C43.0145 89.7064 40.1563 91.0178 37.8929 91.5942ZM90.5571 33.2625C90.9765 33.1939 91.1264 33.2514 91.1596 33.2685C91.1767 33.3017 91.2342 33.4516 91.1656 33.871C91.0794 34.3979 90.8226 35.1431 90.3527 36.114C89.4187 38.044 87.7636 40.6231 85.4861 43.6862C80.9416 49.7982 74.0403 57.6756 65.8589 65.857C57.6775 74.0384 49.8002 80.9396 43.6882 85.4841C40.6251 87.7617 38.046 89.4167 36.116 90.3507C35.145 90.8206 34.3999 91.0774 33.873 91.1636C33.4535 91.2322 33.3037 91.1748 33.2705 91.1576C33.2533 91.1244 33.1959 90.9746 33.2645 90.5551C33.3507 90.0282 33.6075 89.2831 34.0774 88.3121C35.0114 86.3821 36.6664 83.803 38.944 80.7399C43.4885 74.6279 50.3897 66.7506 58.5711 58.5692C66.7525 50.3878 74.6299 43.4865 80.7419 38.942C83.805 36.6645 86.3841 35.0094 88.3141 34.0754C89.2851 33.6055 90.0302 33.3487 90.5571 33.2625Z" fill="#43B7F8"/>
<path fill-rule="evenodd" clip-rule="evenodd" d="M28.058 87.5143C12.5683 72.0246 13.087 46.3693 29.7282 29.7281C46.3693 13.087 72.0247 12.5683 87.5144 28.058C89.9293 30.473 78.5773 45.7404 62.1589 62.1589C45.7405 78.5773 30.473 89.9293 28.058 87.5143ZM19.3005 70.3895C15.5711 56.9833 19.284 41.6299 30.4569 30.4569C41.6299 19.284 56.9834 15.5711 70.3895 19.3005C57.9138 17.1398 43.5917 21.6948 32.6433 32.6433C21.6949 43.5917 17.1398 57.9137 19.3005 70.3895ZM33.3721 33.372C21.92 44.8241 17.6761 59.9735 20.8889 72.6278C19.2674 60.8308 24.4011 46.7156 35.5584 35.5584C46.7157 24.4011 60.8309 19.2674 72.6279 20.8888C59.9736 17.676 44.8241 21.92 33.3721 33.372ZM22.3969 74.8332C19.7051 62.9972 24.517 48.0573 36.2872 36.2872C48.0574 24.517 62.9973 19.7051 74.8332 22.3969C71.7769 22.1001 68.5062 22.3232 65.1378 23.0397C56.3045 24.9187 46.7515 30.1955 38.4735 38.4735C30.1955 46.7515 24.9188 56.3045 23.0397 65.1378C22.3232 68.5061 22.1001 71.7769 22.3969 74.8332ZM24.0849 65.2884C23.202 69.439 23.0962 73.3988 23.796 76.9563C23.65 73.9317 24.1054 70.6164 25.1111 67.1592C27.5235 58.8661 33.123 49.6543 41.3886 41.3886C49.6543 33.123 58.8662 27.5235 67.1592 25.111C70.6164 24.1054 73.9318 23.65 76.9563 23.796C73.3988 23.0962 69.439 23.202 65.2885 24.0849C56.7 25.9119 47.3427 31.0619 39.2023 39.2023C31.0619 47.3427 25.9119 56.6999 24.0849 65.2884ZM25.0763 78.9329C24.5419 75.5384 24.9083 71.6107 26.1362 67.3896C28.4848 59.316 33.9647 50.2702 42.1174 42.1174C50.2702 33.9646 59.316 28.4848 67.3897 26.1362C71.6108 24.9083 75.5384 24.5418 78.933 25.0763C75.9992 25.1202 72.6841 25.8548 69.1775 27.1868C61.4283 30.1303 52.5577 36.0498 44.3038 44.3037C36.0498 52.5577 30.1303 61.4283 27.1868 69.1775C25.8548 72.6841 25.1203 75.9992 25.0763 78.9329ZM28.1831 69.4939C26.5561 73.7772 25.8904 77.6263 26.2286 80.7796C26.4975 78.02 27.5508 74.7555 29.2677 71.1933C32.7389 63.9911 38.9759 55.4618 47.2189 47.2189C55.4619 38.9759 63.9911 32.7388 71.1933 29.2676C74.7556 27.5508 78.02 26.4975 80.7796 26.2286C77.6264 25.8904 73.7773 26.5561 69.494 28.1831C61.9315 31.0557 53.197 36.8681 45.0326 45.0325C36.8681 53.197 31.0557 61.9315 28.1831 69.4939ZM27.2371 82.4831C27.2177 81.9809 27.2336 81.449 27.2852 80.888C27.5239 78.289 28.5239 75.1299 30.2248 71.6008C33.6248 64.5464 39.7722 56.1231 47.9477 47.9476C56.1231 39.7722 64.5464 33.6248 71.6008 30.2248C75.1299 28.5239 78.2891 27.5239 80.888 27.2851C81.449 27.2336 81.981 27.2177 82.4831 27.2371C82.2961 27.2767 82.1065 27.321 81.9145 27.3699C79.4987 27.9851 76.5307 29.3591 73.2077 31.3543C66.5544 35.3489 58.3667 41.9013 50.134 50.134C41.9013 58.3667 35.3489 66.5544 31.3543 73.2076C29.3591 76.5307 27.9851 79.4987 27.37 81.9145C27.3211 82.1065 27.2767 82.2961 27.2371 82.4831ZM28.4051 82.1083C28.1244 83.2106 28.0266 84.1344 28.091 84.8866C30.0672 79.3474 40.0663 66.7608 53.4135 53.4135C66.7608 40.0662 79.3474 30.0672 84.8867 28.091C84.1344 28.0266 83.2106 28.1244 82.1083 28.4051C79.845 28.9814 76.9868 30.2928 73.7091 32.2607C67.1607 36.1924 59.0485 42.6771 50.8628 50.8628C42.6771 59.0485 36.1924 67.1607 32.2608 73.709C30.2928 76.9868 28.9814 79.8449 28.4051 82.1083ZM86.7368 29.4442C86.8054 29.0247 86.7479 28.8749 86.7308 28.8416C86.6975 28.8245 86.5477 28.767 86.1282 28.8356C85.6013 28.9218 84.8562 29.1786 83.8853 29.6485C81.9552 30.5826 79.3762 32.2376 76.3131 34.5151C70.2011 39.0597 62.3237 45.9609 54.1423 54.1423C45.9609 62.3237 39.0597 70.2011 34.5151 76.3131C32.2376 79.3761 30.5826 81.9552 29.6485 83.8853C29.1787 84.8562 28.9219 85.6013 28.8357 86.1282C28.767 86.5477 28.8245 86.6975 28.8416 86.7307C28.8749 86.7479 29.0247 86.8053 29.4442 86.7367C29.9711 86.6505 30.7162 86.3937 31.6871 85.9238C33.6172 84.9898 36.1963 83.3348 39.2593 81.0572C45.3713 76.5127 53.2487 69.6115 61.4301 61.4301C69.6115 53.2487 76.5127 45.3713 81.0573 39.2593C83.3348 36.1962 84.9898 33.6171 85.9239 31.6871C86.3937 30.7162 86.6506 29.9711 86.7368 29.4442Z" fill="#43B7F8"/>
</svg>
