<svg width="126" height="30" viewBox="0 0 126 30" fill="none" xmlns="http://www.w3.org/2000/svg">
<ellipse cx="6.31579" cy="6.52174" rx="6.31579" ry="6.52174" fill="#184AFB"/>
<path d="M0 19.5643L24 7.8252V18.26L0 29.9991V19.5643Z" fill="#2E3038"/>
<path d="M40.66 7.95951V21.9995H37.24V7.95951H40.66ZM53.2384 7.95951V10.6995H49.5184V21.9995H46.0984V10.6995H42.3784V7.95951H53.2384ZM69.2931 7.95951V10.6995H65.5731V21.9995H62.1531V10.6995H58.4331V7.95951H69.2931ZM79.7495 19.5195H74.5095L73.6695 21.9995H70.0895L75.1695 7.95951H79.1295L84.2095 21.9995H80.5895L79.7495 19.5195ZM78.8695 16.8795L77.1295 11.7395L75.4095 16.8795H78.8695ZM86.5356 7.95951H90.0356L87.7956 13.3195H85.4956L86.5356 7.95951ZM95.4647 19.3595H99.9447V21.9995H92.0447V7.95951H95.4647V19.3595ZM104.996 7.95951V21.9995H101.576V7.95951H104.996ZM123.374 7.95951V21.9995H119.954V13.5795L116.814 21.9995H114.054L110.894 13.5595V21.9995H107.474V7.95951H111.514L115.454 17.6795L119.354 7.95951H123.374Z" fill="#2E3038"/>
</svg>
