<svg width="98" height="98" viewBox="0 0 98 98" fill="none" xmlns="http://www.w3.org/2000/svg">
<path d="M97.001 48.9678L84.894 42.0669L60.7344 55.9229V69.7784L72.7872 76.7336L97.001 62.8775V48.9678Z" fill="#39CCFB" stroke="#F0F0F0" stroke-miterlimit="10"/>
<path d="M72.9736 7.93311L60.7344 14.8041V42.1821L72.9736 48.9998L85.2677 42.1821V14.8041L72.9736 7.93311Z" fill="#39CCFB" stroke="#F0F0F0" stroke-miterlimit="10"/>
<path d="M25.5332 7.84787V21.4907L49 35.1333L60.7332 28.3386V14.6957L37.2666 1L25.5332 7.84787Z" fill="#39CCFB" stroke="#F0F0F0" stroke-miterlimit="10"/>
<path d="M1 48.9782L13.285 55.9333L37.8 42.0773V28.2214L25.515 21.2666L1 35.1223V48.9782Z" fill="#39CCFB" stroke="#F0F0F0" stroke-miterlimit="10"/>
<path d="M24.9734 90.0667L37.2677 83.2043V55.8624L24.9734 49L12.7344 55.8624V83.2043L24.9734 90.0667Z" fill="#39CCFB" stroke="#F0F0F0" stroke-miterlimit="10"/>
<path d="M73.5323 90.1948V76.5307L49.3726 62.8667L37.2656 69.672V83.336L61.4795 97L73.5323 90.1948Z" fill="#39CCFB" stroke="#F0F0F0" stroke-miterlimit="10"/>
</svg>
