<svg width="98" height="98" viewBox="0 0 98 98" fill="none" xmlns="http://www.w3.org/2000/svg">
<path d="M49.4629 42.143L25.4629 28.4287V55.8573L49.4629 69.5716V42.143Z" fill="#8B1FF8" stroke="#F0F0F0" stroke-miterlimit="10"/>
<path d="M49 14.7144L73 28.4286L49 42.1429L25 28.4286L49 14.7144Z" fill="#8B1FF8" stroke="#F0F0F0" stroke-miterlimit="10"/>
<path d="M48.9863 42.143L72.9863 28.4287V55.8573L48.9863 69.5716V42.143Z" fill="#8B1FF8" stroke="#F0F0F0" stroke-miterlimit="10"/>
<path d="M49.4629 69.5712L25.4629 55.8569V83.2855L49.4629 96.9998V69.5712Z" fill="#8B1FF8" stroke="#F0F0F0" stroke-miterlimit="10"/>
<path d="M48.9863 69.5712L72.9863 55.8569V83.2855L48.9863 96.9998V69.5712Z" fill="#8B1FF8" stroke="#F0F0F0" stroke-miterlimit="10"/>
<path d="M73 1L97 14.7143L73 28.4286L49 14.7143L73 1Z" fill="#8B1FF8" stroke="#F0F0F0" stroke-miterlimit="10"/>
<path d="M25.4611 28.4286L1.46094 14.7144V42.1429L25.4611 55.8572V28.4286Z" fill="#8B1FF8" stroke="#F0F0F0" stroke-miterlimit="10"/>
<path d="M25 1L49 14.7143L25 28.4286L1 14.7143L25 1Z" fill="#8B1FF8" stroke="#F0F0F0" stroke-miterlimit="10"/>
<path d="M72.9863 28.4286L96.9865 14.7144V42.1429L72.9863 55.8572V28.4286Z" fill="#8B1FF8" stroke="#F0F0F0" stroke-miterlimit="10"/>
</svg>
