<svg width="268" height="240" viewBox="0 0 268 240" fill="none" xmlns="http://www.w3.org/2000/svg">
<g clip-path="url(#clip0_1_5706)">
<path opacity="0.1" d="M2.23679 149.403C2.23679 149.403 10.7877 195.575 54.1579 220.596C97.5208 245.617 151.428 239.649 195.245 235.963C239.062 232.277 268.627 202.587 267.99 164.638C267.353 126.688 232.556 120.836 208.134 81.2495C183.704 41.6846 183.192 27.5223 141.184 7.30299C99.1841 -12.9236 42.1046 12.1559 17.69 61.5221C-6.72447 110.888 2.23679 149.403 2.23679 149.403Z" fill="#1F69F8"/>
<mask id="mask0_1_5706" style="mask-type:luminance" maskUnits="userSpaceOnUse" x="7" y="26" width="237" height="207">
<path d="M243.521 26.4863H7.77441V232.597H243.521V26.4863Z" fill="white"/>
</mask>
<g mask="url(#mask0_1_5706)">
<path d="M137.246 221.106L50.7664 228.27C48.2833 228.482 45.8004 226.426 45.2327 223.66L8.48394 42.7284C7.91639 39.9623 6.7813 34.7848 16.8553 34.2882L104.258 27.5503C106.741 27.3375 109.224 29.3943 109.792 32.1604L147.108 213.305C147.676 215.787 144.98 220.893 137.246 221.106Z" fill="#2E3038"/>
<path d="M50.4118 228.624C47.8578 228.624 45.4458 226.497 44.8781 223.66L8.12935 42.7993C7.77464 41.1681 7.27803 38.7566 8.76785 36.8416C10.1158 35.1394 12.7407 34.1465 16.7845 34.0046L104.258 27.2667C106.883 27.0538 109.579 29.2526 110.146 32.1605L147.463 213.305C147.747 214.581 147.25 216.213 146.115 217.632C144.98 219.05 142.497 221.319 137.246 221.461L50.8374 228.624C50.6955 228.624 50.5537 228.624 50.4118 228.624ZM104.613 27.905H104.329L16.8555 34.6429C13.0954 34.8556 10.5414 35.7068 9.3354 37.2671C8.05841 38.9693 8.48407 41.0971 8.76785 42.5866L45.5877 223.518C46.0843 226.071 48.4254 228.057 50.6955 227.844L137.175 220.681C142.142 220.539 144.554 218.411 145.548 217.135C146.47 216.142 146.895 214.723 146.754 213.376L109.437 32.2314C108.94 29.749 106.812 27.905 104.613 27.905Z" fill="#2E3038"/>
<path d="M143.845 217.774L57.3639 224.936C54.8808 225.149 52.3978 223.093 51.8303 220.327L15.0814 39.395C14.5138 36.6289 16.0747 34.2174 18.5576 34.0047L105.038 26.9121C107.521 26.6994 110.004 28.7561 110.572 31.5222L147.321 212.454C147.888 215.149 146.328 217.561 143.845 217.774Z" fill="white"/>
<path d="M57.0807 225.291C54.5267 225.291 52.1147 223.163 51.5472 220.398L14.7274 39.4658C14.3727 38.0473 14.7274 36.4869 15.5787 35.3521C16.2881 34.4301 17.3523 33.7918 18.5583 33.7208L105.039 26.4864C107.664 26.2736 110.359 28.4723 110.927 31.3803L147.676 212.312C148.031 213.731 147.676 215.29 146.825 216.497C146.115 217.418 145.051 218.056 143.845 218.127L57.4354 225.291H57.0807ZM105.393 27.1956H105.11L18.6292 34.3591C17.6361 34.4301 16.7137 34.9265 16.1462 35.7067C15.4368 36.7706 15.153 38.0473 15.4368 39.2529L52.2566 220.256C52.7532 222.809 55.0944 224.794 57.3645 224.581L143.845 217.418C144.838 217.347 145.76 216.851 146.328 216.071C147.037 215.007 147.321 213.731 147.037 212.454L110.289 31.593C109.721 29.1106 107.593 27.1956 105.393 27.1956Z" fill="#2E3038"/>
<path d="M70.7014 41.31L58.8538 42.3029C58.1444 42.3029 57.5058 41.8064 57.3639 41.0262C57.222 40.4588 57.5058 39.8205 58.1444 39.6078C58.2153 39.6078 58.2863 39.6078 58.2863 39.6078L70.2047 38.6147C70.9143 38.6147 71.5527 39.1112 71.6946 39.8914C71.9074 40.5298 71.5527 41.0971 70.9143 41.31C70.8433 41.31 70.7724 41.31 70.7014 41.31Z" fill="#2E3038"/>
<path d="M138.879 200.821L55.4487 207.702L22.46 45.4945L42.2532 43.8633L44.8782 45.7074C45.7295 46.3457 46.7937 46.6294 47.8578 46.5584L82.7621 43.7214C83.8263 43.6505 84.7486 43.154 85.387 42.3029L87.0188 40.1751L105.89 38.6147L138.879 200.821Z" fill="#184AFB"/>
<path d="M55.449 208.127C55.3071 208.127 55.1652 207.985 55.0942 207.843L22.1055 45.5657C22.1055 45.4948 22.1055 45.3529 22.1764 45.282C22.2474 45.2111 22.3183 45.1401 22.3892 45.1401L42.1825 43.5089C42.2534 43.5089 42.3244 43.5089 42.3953 43.5798L45.0203 45.4238C45.8006 45.9913 46.7938 46.275 47.7871 46.204L82.6914 43.296C83.6136 43.2252 84.4649 42.7286 85.0326 42.0194L86.6642 39.8917C86.7351 39.8207 86.8061 39.7498 86.948 39.7498L105.819 38.1895C106.032 38.1895 106.174 38.3313 106.174 38.4732L139.163 200.752C139.163 200.821 139.163 200.963 139.092 201.034C139.021 201.105 138.95 201.176 138.808 201.176L55.449 208.127ZM22.8858 45.7784L55.7327 207.348L138.454 200.468L105.606 38.9696L87.1608 40.4591L85.671 42.445C84.9616 43.367 83.9683 43.9344 82.7623 44.0053L47.858 46.9133C46.7228 46.9842 45.5878 46.6296 44.5946 45.9913L42.1825 44.2181L22.8858 45.7784Z" fill="#2E3038"/>
<path d="M100.853 209.049C100.64 207.914 99.6466 207.135 98.5115 207.135C97.5182 207.276 96.8797 208.127 96.9507 209.12C96.9507 209.191 96.9507 209.333 97.0216 209.404C97.2344 210.539 98.2277 211.318 99.3628 211.318C100.356 211.176 100.995 210.326 100.924 209.333C100.924 209.262 100.924 209.191 100.853 209.049Z" fill="#2E3038"/>
<path d="M46.8647 80.2478L37.9259 80.9571C36.436 80.9571 35.1591 79.8932 34.9463 78.4746L32.9598 68.545C32.676 67.0556 33.5273 65.7081 34.8753 65.6371L43.8141 64.8569C45.304 64.8569 46.581 65.9208 46.7938 67.4103L48.7802 77.2689C49.064 78.8293 48.2127 80.1768 46.8647 80.2478Z" fill="white"/>
<path d="M37.7836 81.3831C36.2228 81.3121 34.8749 80.1065 34.5911 78.617L32.6046 68.6874C32.3918 67.8363 32.6046 66.9852 33.1012 66.2759C33.5269 65.7085 34.1655 65.3539 34.8749 65.2829L43.8138 64.5737C45.4454 64.5737 46.8644 65.7085 47.2191 67.3398L49.2054 77.1985C49.4183 78.0496 49.2054 78.9007 48.7089 79.6099C48.2832 80.1773 47.6447 80.5319 47.0063 80.6029L38.0673 81.3121L37.7836 81.3831ZM43.9557 65.2829H43.8138L34.8749 65.9922C34.3783 66.0632 33.9525 66.2759 33.6688 66.7015C33.314 67.2688 33.1722 67.9072 33.3141 68.5456L35.3005 78.4751C35.5133 79.7518 36.6484 80.6738 37.9255 80.6738L46.8644 79.9646C47.361 79.8936 47.7866 79.6809 48.0704 79.2553C48.4251 78.7589 48.567 78.0496 48.4251 77.4113L46.4387 67.5525C46.2258 66.3468 45.2326 65.3539 43.9557 65.2829Z" fill="white"/>
<path d="M66.7994 78.6169L57.8605 79.3261C56.3706 79.3261 55.0937 78.2622 54.8808 76.7728L52.8944 66.9141C52.6106 65.4247 53.4619 64.077 54.8099 64.0062L63.7488 63.2969C65.2386 63.2969 66.5155 64.3608 66.7283 65.8502L68.7148 75.7089C68.9986 77.1983 68.1473 78.5459 66.7994 78.6169Z" fill="white"/>
<path d="M57.7191 79.7517C56.1583 79.6809 54.8104 78.4751 54.5266 76.9148L52.5402 67.0561C52.3274 66.205 52.5402 65.3539 53.0368 64.6446C53.4624 64.0773 54.101 63.7225 54.8104 63.6517L63.7493 62.9424C65.381 62.9424 66.7999 64.1481 67.1546 65.7085L69.141 75.5672C69.3539 76.4183 69.141 77.2694 68.6444 77.9787C68.2187 78.5461 67.5803 78.9007 66.8709 78.9716L57.9319 79.6809L57.7191 79.7517ZM63.8912 63.6517H63.7493L54.8104 64.361C54.3138 64.4318 53.8882 64.6446 53.6044 65.0702C53.2496 65.6376 53.1077 66.2759 53.2496 66.9142L55.2361 76.7729C55.4489 78.0495 56.5839 78.9716 57.861 78.9716L66.7999 78.2624C67.2965 78.1914 67.7222 77.9787 68.0059 77.6241C68.3606 77.0566 68.5025 76.4183 68.3606 75.7799L66.3743 65.9213C66.1615 64.7156 65.0972 63.7225 63.8912 63.6517Z" fill="white"/>
<path d="M86.6636 76.9854L77.7247 77.6947C76.235 77.6947 74.9579 76.6308 74.7451 75.1414L72.7586 65.2827C72.4749 63.7933 73.3263 62.4457 74.6741 62.3747L83.6131 61.6655C85.1028 61.6655 86.3799 62.7294 86.5927 64.1479L88.5791 74.0775C88.9339 75.5669 88.0825 76.8436 86.6636 76.9854Z" fill="white"/>
<path d="M77.5834 78.0491C76.0227 77.9782 74.6747 76.7725 74.3909 75.2121L72.4044 65.3534C72.1916 64.5023 72.4044 63.6512 72.9011 62.9419C73.3268 62.3745 73.9653 62.0199 74.6747 61.949L83.6136 61.2397C85.2452 61.2397 86.7351 62.3745 87.0189 64.0058L89.0054 73.8645C89.2182 74.7156 89.0053 75.5667 88.5086 76.2759C88.083 76.8433 87.4445 77.1981 86.7351 77.2689L77.7962 77.9782L77.5834 78.0491ZM83.7555 62.0199H83.6136L74.6747 62.7292C74.1781 62.7292 73.7524 63.0128 73.4687 63.3675C73.114 63.935 72.9721 64.5733 73.114 65.2116L75.1713 75.0703C75.3841 76.3469 76.5193 77.2689 77.7962 77.2689L86.7351 76.5596C87.2317 76.4888 87.6574 76.2759 87.9411 75.8504C88.2958 75.3539 88.4377 74.6447 88.2958 74.0064L86.3095 64.0767C86.0257 63.0128 85.0324 62.0908 83.7555 62.0199Z" fill="white"/>
<path d="M106.599 75.3542L97.6602 76.0634C96.1704 76.0634 94.8934 74.9995 94.6806 73.5101L92.6942 63.6514C92.4103 62.162 93.2617 60.8144 94.6096 60.7435L103.549 60.0342C105.038 60.0342 106.315 61.0981 106.528 62.5875L108.515 72.4462C108.798 73.9356 107.947 75.2123 106.599 75.3542Z" fill="white"/>
<path d="M97.5189 76.4183C95.9582 76.3474 94.6102 75.1416 94.3264 73.5813L92.34 63.7226C92.1271 62.8715 92.34 62.0204 92.8366 61.3111C93.2623 60.7438 93.9008 60.3891 94.6102 60.3182L103.549 59.6089C105.181 59.6089 106.6 60.7438 106.954 62.375L108.941 72.2337C109.154 73.0848 108.941 73.9359 108.444 74.6452C108.019 75.2126 107.38 75.5672 106.671 75.6381L97.7317 76.3474L97.5189 76.4183ZM103.691 60.3182H103.549L94.6102 61.0275C94.1136 61.0984 93.6879 61.3111 93.4042 61.7367C93.0494 62.2332 92.9076 62.9424 93.1204 63.5098L95.1067 73.4394C95.3197 74.716 96.4547 75.6381 97.7317 75.6381L106.671 74.9289C107.167 74.8579 107.593 74.6452 107.877 74.2196C108.231 73.6521 108.373 73.0138 108.231 72.3755L106.245 62.5168C105.961 61.3821 104.968 60.46 103.691 60.3182Z" fill="white"/>
<path d="M51.5471 103.015L42.6082 103.724C41.1183 103.724 39.8414 102.661 39.6285 101.171L37.5711 91.3126C37.2874 89.8231 38.1387 88.4755 39.4866 88.4046L48.4256 87.6953C49.9153 87.6953 51.1923 88.7592 51.4052 90.2487L53.3916 100.107C53.7463 101.597 52.895 102.873 51.5471 103.015Z" fill="white"/>
<path d="M42.3959 104.15C40.8351 104.079 39.4872 102.874 39.2034 101.313L37.2169 91.4545C37.0041 90.6034 37.2169 89.7523 37.7135 89.043C38.1392 88.4756 38.7778 88.121 39.4162 88.0501L48.3552 87.3408C50.0577 87.3408 51.4767 88.5466 51.7604 90.1779L53.7468 100.036C53.9596 100.888 53.7468 101.739 53.2502 102.448C52.8246 103.015 52.1861 103.37 51.5476 103.441L42.6087 104.15H42.3959ZM48.568 88.0501H48.4261L39.4872 88.7593C38.9906 88.7593 38.5649 89.043 38.2812 89.3976C37.9264 89.8942 37.7845 90.6034 37.9264 91.2418L39.9128 101.171C40.1256 102.448 41.2607 103.37 42.5378 103.37L51.4767 102.661C51.9733 102.59 52.3989 102.377 52.6827 101.952C53.0374 101.455 53.1793 100.746 53.0374 100.107L51.051 90.2488C50.8381 89.043 49.8449 88.121 48.568 88.0501Z" fill="white"/>
<path d="M71.4107 101.384L62.4718 102.093C60.9819 102.093 59.705 101.029 59.4922 99.5399L57.5057 89.6812C57.2219 88.1917 58.0733 86.8441 59.4212 86.7733L68.3601 86.064C69.8499 86.064 71.127 87.1279 71.3398 88.6173L73.3261 98.476C73.6099 99.9655 72.7586 101.242 71.4107 101.384Z" fill="white"/>
<path d="M62.3304 102.448C60.7697 102.377 59.4217 101.171 59.138 99.6105L57.1515 89.7518C56.9387 88.9007 57.1515 88.0496 57.6482 87.3404C58.0739 86.7729 58.7123 86.4183 59.3508 86.3474L68.2897 85.6382C69.9215 85.6382 71.4113 86.7729 71.695 88.4043L73.6815 98.2629C73.8943 99.114 73.6815 99.9651 73.1848 100.674C72.7591 101.242 72.1207 101.596 71.4822 101.667L62.5433 102.377L62.3304 102.448ZM68.5025 86.4184H68.3607L59.4217 87.1275C58.9252 87.1985 58.4995 87.4112 58.2157 87.8368C57.861 88.3333 57.7192 89.0426 57.861 89.6809L59.8474 99.5396C60.0602 100.816 61.1954 101.738 62.4723 101.738L71.4112 101.029C71.9078 101.029 72.3335 100.745 72.6172 100.391C72.972 99.8942 73.114 99.1849 72.972 98.5466L70.9856 88.6879C70.7728 87.4112 69.7085 86.4892 68.5025 86.4184Z" fill="white"/>
<path d="M111.21 98.0503L102.271 98.8305C100.782 98.8305 99.5047 97.7666 99.2919 96.2772L97.3055 86.4185C97.0217 84.929 97.873 83.5814 99.2209 83.5106L108.16 82.8013C109.65 82.8013 110.927 83.8652 111.139 85.2838L113.126 95.1423C113.41 96.6318 112.558 97.9794 111.21 98.0503Z" fill="white"/>
<path d="M102.13 99.1854C100.569 99.1145 99.2214 97.9087 98.9377 96.3484L96.9513 86.4897C96.7385 85.6386 96.9513 84.7875 97.4479 84.0783C97.8736 83.5109 98.512 83.1563 99.1505 83.0853L108.089 82.376C109.721 82.376 111.14 83.5109 111.495 85.1422L113.481 95.0718C113.694 95.9228 113.481 96.7739 112.985 97.4831C112.559 98.0506 111.92 98.4053 111.282 98.4761L102.343 99.1854H102.13ZM108.302 83.0853H108.16L99.2214 83.7946C98.7249 83.7946 98.2992 84.0783 98.0154 84.4329C97.6607 84.9293 97.5189 85.6386 97.6607 86.2769L99.6472 96.1356C99.86 97.4123 100.995 98.3343 102.272 98.3343L111.211 97.625C111.708 97.5541 112.133 97.3414 112.417 96.9158C112.772 96.4194 112.914 95.7101 112.772 95.0718L110.785 85.3549C110.572 84.0783 109.579 83.1563 108.302 83.0853Z" fill="white"/>
<path d="M56.1588 125.783L47.2199 126.491C45.73 126.491 44.453 125.428 44.2402 123.938L42.2537 114.08C41.97 112.59 42.8213 111.243 44.1693 111.172L53.1082 110.462C54.598 110.462 55.875 111.526 56.0878 113.015L58.0742 122.874C58.358 124.364 57.5067 125.641 56.1588 125.783Z" fill="white"/>
<path d="M47.0062 126.846C45.4455 126.775 44.0975 125.569 43.8138 124.009L41.8273 114.151C41.6145 113.299 41.8273 112.448 42.324 111.739C42.7496 111.171 43.3881 110.817 44.0266 110.746L52.9655 110.037C54.6682 110.037 56.087 111.242 56.3708 112.874L58.3573 122.732C58.5701 123.583 58.3573 124.435 57.8607 125.143C57.4349 125.711 56.7964 126.066 56.158 126.137L47.219 126.846H47.0062ZM53.1783 110.746H53.0365L44.0975 111.455C43.6009 111.526 43.1753 111.739 42.8915 112.164C42.5368 112.661 42.3949 113.37 42.5368 114.009L44.5232 123.867C44.736 125.143 45.8712 126.066 47.1481 126.066L56.087 125.356C56.5836 125.285 57.0093 125.072 57.293 124.648C57.6479 124.151 57.7897 123.442 57.6479 122.803L55.6614 113.015C55.4486 111.81 54.4554 110.888 53.1783 110.746Z" fill="white"/>
<path d="M76.023 124.08L67.0841 124.79C65.5943 124.79 64.3173 123.726 64.1045 122.236L62.118 112.377C61.8342 110.888 62.6856 109.54 64.0335 109.47L72.9724 108.76C74.4622 108.76 75.7393 109.824 75.9521 111.314L77.9384 121.173C78.2223 122.661 77.3709 124.009 76.023 124.08Z" fill="white"/>
<path d="M66.9417 125.214C65.381 125.143 64.033 123.938 63.7492 122.377L61.7628 112.519C61.55 111.668 61.7628 110.817 62.2594 110.107C62.6851 109.54 63.3235 109.185 63.962 109.114L72.9009 108.405C74.5327 108.405 76.0225 109.54 76.3062 111.171L78.2927 121.03C78.5055 121.881 78.2927 122.732 77.7961 123.442C77.3704 124.009 76.7319 124.364 76.0934 124.435L67.1545 125.143L66.9417 125.214ZM73.1138 109.114H72.9719L64.033 109.824C63.5364 109.895 63.1107 110.107 62.827 110.533C62.4723 111.029 62.3304 111.739 62.4723 112.377L64.4586 122.236C64.6715 123.513 65.8066 124.435 67.0835 124.435L76.0225 123.725C76.5191 123.654 76.9447 123.442 77.2285 123.016C77.5833 122.519 77.7252 121.81 77.5833 121.171L75.5968 111.313C75.384 110.178 74.3199 109.256 73.1138 109.114Z" fill="white"/>
<path d="M95.9575 122.449L87.0186 123.158C85.5288 123.158 84.2518 122.094 84.039 120.605L82.0526 110.746C81.7687 109.257 82.6201 107.909 83.968 107.838L92.9069 107.129C94.3968 107.129 95.6738 108.193 95.8866 109.682L97.873 119.541C98.1568 121.031 97.3055 122.378 95.9575 122.449Z" fill="white"/>
<path d="M86.8772 123.584C85.3165 123.513 83.9685 122.308 83.6847 120.747L81.6984 110.888C81.4856 110.037 81.6984 109.186 82.195 108.477C82.6206 107.909 83.2591 107.555 83.8976 107.484L92.8365 106.774C94.4682 106.774 95.958 107.909 96.2418 109.541L98.2282 119.4C98.4411 120.25 98.2282 121.101 97.7316 121.811C97.306 122.378 96.6674 122.732 96.029 122.803L87.09 123.513L86.8772 123.584ZM93.0493 107.484H92.9074L83.9685 108.193C83.4719 108.264 83.0463 108.477 82.7625 108.902C82.4078 109.399 82.2659 110.108 82.4078 110.746L84.3941 120.605C84.6071 121.882 85.7421 122.803 87.0191 122.803L95.958 122.095C96.4546 122.095 96.8802 121.811 97.1641 121.456C97.5188 120.96 97.6607 120.25 97.5188 119.612L95.5324 109.753C95.3195 108.477 94.3264 107.555 93.0493 107.484Z" fill="white"/>
<path d="M115.893 120.818L106.954 121.527C105.464 121.527 104.187 120.463 103.974 118.973L101.988 109.115C101.704 107.625 102.556 106.278 103.904 106.207L112.843 105.498C114.333 105.498 115.609 106.561 115.822 108.051L117.809 117.91C118.092 119.399 117.17 120.676 115.893 120.818Z" fill="white"/>
<path d="M106.741 121.881C105.18 121.81 103.833 120.605 103.549 119.044L101.491 109.185C101.279 108.334 101.491 107.483 101.988 106.774C102.414 106.207 103.052 105.852 103.691 105.781L112.629 105.072C114.333 105.072 115.752 106.278 116.035 107.909L118.022 117.768C118.234 118.618 118.022 119.47 117.525 120.179C117.099 120.747 116.461 121.101 115.822 121.171L106.883 121.881H106.741ZM112.913 105.852H112.771L103.833 106.561C103.336 106.632 102.91 106.845 102.626 107.27C102.272 107.767 102.13 108.476 102.272 109.114L104.258 118.973C104.471 120.25 105.606 121.171 106.883 121.171L115.822 120.463C116.319 120.392 116.745 120.179 117.028 119.753C117.383 119.257 117.525 118.547 117.383 117.91L115.397 108.051C115.184 106.845 114.191 105.923 112.913 105.852Z" fill="white"/>
<path d="M60.7701 148.479L51.8312 149.188C50.3413 149.188 49.0644 148.124 48.8515 146.705L46.8651 136.775C46.5813 135.287 47.4327 133.939 48.7806 133.868L57.7195 133.158C59.2093 133.158 60.4863 134.222 60.6992 135.64L62.6855 145.5C62.9693 147.06 62.118 148.408 60.7701 148.479Z" fill="white"/>
<path d="M51.6888 149.613C50.1281 149.542 48.7801 148.337 48.4964 146.776L46.5099 136.917C46.2971 136.066 46.5099 135.215 47.0066 134.506C47.4323 133.939 48.0707 133.584 48.7801 133.513L57.7191 132.804C59.3508 132.804 60.8406 133.939 61.1244 135.569L63.1108 145.428C63.3236 146.279 63.1108 147.131 62.6142 147.84C62.1886 148.408 61.55 148.763 60.8406 148.832L51.9017 149.542L51.6888 149.613ZM57.8609 133.513H57.7191L48.7801 134.222C48.2836 134.293 47.8579 134.506 47.5741 134.932C47.2194 135.498 47.0776 136.137 47.2194 136.776L49.2058 146.634C49.4186 147.911 50.5538 148.832 51.8307 148.832L60.7696 148.124C61.2662 148.053 61.6919 147.84 61.9758 147.415C62.3305 146.847 62.4724 146.208 62.3305 145.57L60.2731 135.782C60.0602 134.506 59.0671 133.584 57.8609 133.513Z" fill="white"/>
<path d="M80.6343 146.847L71.6953 147.557C70.2056 147.557 68.9285 146.492 68.7157 145.075L66.7293 135.216C66.4456 133.726 67.2969 132.378 68.6447 132.307L77.5837 131.599C79.0734 131.599 80.3505 132.662 80.5633 134.081L82.5498 143.939C82.9045 145.428 82.0531 146.705 80.6343 146.847Z" fill="white"/>
<path d="M71.553 147.982C69.9923 147.911 68.6443 146.705 68.3605 145.145L66.3742 135.287C66.1613 134.435 66.3742 133.584 66.8708 132.874C67.2964 132.308 67.9349 131.953 68.6443 131.882L77.5832 131.173C79.215 131.173 80.7047 132.307 80.9885 134.01L82.975 143.868C83.1878 144.72 82.975 145.571 82.4784 146.279C82.0527 146.847 81.4143 147.202 80.7047 147.273L71.7658 147.982H71.553ZM77.7251 131.882H77.5832L68.6443 132.591C68.1477 132.662 67.7221 132.874 67.4383 133.3C67.0836 133.868 66.9417 134.506 67.0836 135.145L69.07 145.003C69.2829 146.279 70.4179 147.202 71.6949 147.202L80.6338 146.492C81.1304 146.421 81.5561 146.208 81.8399 145.784C82.1946 145.216 82.3365 144.578 82.1946 143.939L80.2081 134.081C79.9953 132.874 79.0021 131.953 77.7251 131.882Z" fill="white"/>
<path d="M100.569 145.216L91.6299 145.926C90.1401 145.926 88.8631 144.861 88.6503 143.443L86.6639 133.584C86.3801 132.095 87.2314 130.747 88.5793 130.676L97.5182 129.967C99.0081 129.967 100.285 131.031 100.498 132.45L102.484 142.379C102.768 143.797 101.917 145.074 100.569 145.216Z" fill="white"/>
<path d="M91.4877 146.28C89.9269 146.209 88.579 145.003 88.2952 143.443L86.3087 133.584C86.0959 132.734 86.3087 131.882 86.8053 131.173C87.231 130.605 87.8695 130.25 88.579 130.25L97.5178 129.542C99.1495 129.542 100.639 130.676 100.923 132.379L102.91 142.237C103.122 143.089 102.91 143.939 102.413 144.649C101.987 145.216 101.349 145.571 100.639 145.642L91.7005 146.351L91.4877 146.28ZM97.6597 130.25H97.5178L88.579 130.96C88.0823 131.031 87.6566 131.244 87.3729 131.669C87.0182 132.237 86.8763 132.876 87.0182 133.513L89.0046 143.372C89.2174 144.649 90.3525 145.571 91.6296 145.571L100.568 144.861C101.065 144.791 101.491 144.578 101.774 144.152C102.129 143.655 102.271 142.947 102.129 142.308L100.143 132.379C99.859 131.244 98.8658 130.321 97.6597 130.25Z" fill="white"/>
<path d="M120.504 143.584L111.565 144.294C110.075 144.294 108.798 143.23 108.586 141.812L106.528 131.952C106.244 130.463 107.096 129.115 108.444 129.044L117.383 128.335C118.872 128.335 120.149 129.399 120.362 130.818L122.348 140.677C122.703 142.166 121.852 143.443 120.504 143.584Z" fill="white"/>
<path d="M111.352 144.649C109.791 144.578 108.443 143.372 108.159 141.812L106.173 131.953C105.96 131.102 106.173 130.25 106.67 129.541C107.095 128.974 107.734 128.62 108.372 128.549L117.312 127.839C118.943 127.839 120.433 128.974 120.717 130.605L122.703 140.464C122.916 141.315 122.703 142.166 122.206 142.875C121.781 143.443 121.142 143.797 120.433 143.868L111.494 144.578L111.352 144.649ZM117.524 128.549H117.382L108.443 129.257C107.947 129.328 107.521 129.541 107.237 129.967C106.882 130.463 106.741 131.173 106.882 131.811L108.869 141.67C109.082 142.946 110.217 143.868 111.494 143.868L120.433 143.159C120.93 143.159 121.355 142.875 121.639 142.45C121.994 141.883 122.136 141.244 121.994 140.606L120.007 130.676C119.794 129.612 118.801 128.691 117.524 128.549Z" fill="white"/>
<path d="M65.3814 171.246L56.4425 171.955C54.9527 171.955 53.6757 170.891 53.4629 169.473L51.4764 159.613C51.1926 158.124 52.044 156.776 53.3919 156.705L62.3308 155.997C63.8206 155.997 65.0977 157.06 65.3105 158.479L67.297 168.338C67.5807 169.828 66.7293 171.104 65.3814 171.246Z" fill="white"/>
<path d="M56.3001 172.31C54.7394 172.239 53.3914 171.033 53.1076 169.472L51.1212 159.613C50.9084 158.763 51.1212 157.912 51.6178 157.202C52.0435 156.634 52.6819 156.28 53.3204 156.209L62.2593 155.5C63.8911 155.5 65.3809 156.634 65.6646 158.337L67.6511 168.196C67.8639 169.047 67.6511 169.897 67.1545 170.607C66.7289 171.175 66.0903 171.529 65.3809 171.6L56.4419 172.31H56.3001ZM62.4722 156.28H62.3303L53.3914 156.989C52.8948 156.989 52.4691 157.273 52.1854 157.699C51.8307 158.195 51.6888 158.905 51.8307 159.542L53.8171 169.401C54.0299 170.678 55.165 171.6 56.4419 171.6L65.3809 170.891C65.8775 170.82 66.3031 170.607 66.587 170.181C66.9417 169.685 67.0836 168.976 66.9417 168.338L64.9552 158.479C64.6715 157.273 63.6783 156.351 62.4722 156.28Z" fill="white"/>
<path d="M85.3159 169.614L76.377 170.323C74.8872 170.323 73.6101 169.259 73.3973 167.841L71.411 157.912C71.1272 156.422 71.9785 155.075 73.3264 155.004L82.2653 154.295C83.7551 154.295 85.0321 155.359 85.245 156.777L87.2314 166.635C87.5152 168.196 86.6638 169.472 85.3159 169.614Z" fill="white"/>
<path d="M76.1644 170.678C74.6036 170.607 73.2557 169.402 72.972 167.841L70.9855 157.912C70.7727 157.06 70.9855 156.21 71.4821 155.501C71.9077 154.933 72.5462 154.578 73.1848 154.507L82.1236 153.798C83.7554 153.798 85.2451 154.933 85.5289 156.565L87.5154 166.423C87.7282 167.274 87.5154 168.125 87.0188 168.835C86.5931 169.402 85.9546 169.757 85.3161 169.828L76.3773 170.536L76.1644 170.678ZM82.3364 154.578H82.1945L73.2557 155.288C72.759 155.359 72.3334 155.572 72.0496 155.997C71.6949 156.494 71.553 157.202 71.6949 157.841L73.6814 167.77C73.8942 169.047 75.0293 169.97 76.3063 169.97L85.2451 169.26C85.7417 169.189 86.1675 168.976 86.4512 168.551C86.8059 168.054 86.9478 167.345 86.8059 166.707L84.8195 156.848C84.6067 155.642 83.6135 154.72 82.3364 154.578Z" fill="white"/>
<path d="M105.18 167.912L96.2412 168.621C94.7515 168.621 93.4745 167.557 93.2617 166.139L91.2752 156.28C90.9915 154.791 91.8428 153.443 93.1908 153.372L102.13 152.664C103.619 152.664 104.896 153.727 105.18 155.146L107.167 165.004C107.379 166.493 106.528 167.841 105.18 167.912Z" fill="white"/>
<path d="M96.1 169.047C94.5392 168.976 93.1913 167.77 92.9075 166.211L90.921 156.352C90.7082 155.501 90.921 154.649 91.4176 153.94C91.8433 153.372 92.4819 153.018 93.1203 152.948L102.059 152.238C103.691 152.238 105.181 153.372 105.465 155.075L107.451 164.934C107.664 165.785 107.451 166.636 106.954 167.345C106.529 167.912 105.89 168.267 105.252 168.338L96.3128 169.047H96.1ZM102.272 152.948H102.13L93.1913 153.656C92.6947 153.727 92.2689 153.94 91.9852 154.365C91.6305 154.862 91.4886 155.572 91.6305 156.21L93.6169 166.069C93.8297 167.345 94.9648 168.267 96.2419 168.267L105.181 167.558C105.677 167.487 106.103 167.274 106.387 166.849C106.741 166.352 106.883 165.643 106.741 165.004L104.755 155.146C104.542 153.94 103.549 153.018 102.272 152.948Z" fill="white"/>
<path d="M125.115 166.281L116.177 166.991C114.687 166.991 113.41 165.927 113.197 164.508L111.211 154.649C110.927 153.16 111.778 151.812 113.126 151.741L122.065 151.032C123.555 151.032 124.832 152.096 125.045 153.514L127.031 163.443C127.315 164.862 126.463 166.21 125.115 166.281Z" fill="white"/>
<path d="M116.035 167.415C114.474 167.344 113.126 166.138 112.843 164.579L110.856 154.72C110.643 153.869 110.856 153.017 111.352 152.308C111.778 151.741 112.416 151.386 113.055 151.316L121.994 150.606C123.626 150.606 125.044 151.741 125.399 153.372L127.385 163.302C127.598 164.153 127.385 165.004 126.889 165.714C126.463 166.28 125.825 166.635 125.115 166.706L116.177 167.415H116.035ZM122.136 151.316H121.994L113.055 152.025C112.558 152.096 112.133 152.308 111.849 152.733C111.494 153.23 111.352 153.94 111.494 154.578L113.481 164.437C113.694 165.714 114.829 166.635 116.106 166.635L125.044 165.927C125.541 165.856 125.967 165.643 126.25 165.217C126.605 164.72 126.747 164.011 126.605 163.372L124.619 153.514C124.406 152.309 123.413 151.386 122.136 151.316Z" fill="white"/>
<path d="M69.9926 194.013L61.0537 194.722C59.564 194.722 58.2869 193.658 58.0741 192.24L56.0877 182.381C55.804 180.891 56.6553 179.543 58.0031 179.474L66.9421 178.764C68.4319 178.764 69.7089 179.827 69.9217 181.246L71.9082 191.105C72.1919 192.595 71.3405 193.871 69.9926 194.013Z" fill="#2E3038"/>
<path d="M89.9272 192.311L80.9884 193.02C79.4985 193.02 78.2216 191.956 78.0088 190.538L76.0223 180.68C75.7385 179.19 76.5898 177.842 77.9378 177.771L86.8766 177.062C88.3665 177.062 89.6435 178.126 89.8563 179.544L91.8427 189.403C92.1265 190.893 91.2752 192.24 89.9272 192.311Z" fill="#2E3038"/>
<path d="M109.792 190.679L100.853 191.389C99.3628 191.389 98.0858 190.324 97.873 188.906L95.8866 179.048C95.6028 177.558 96.4541 176.21 97.8021 176.139L106.741 175.431C108.231 175.431 109.508 176.494 109.721 177.913L111.707 187.771C111.991 189.261 111.139 190.537 109.792 190.679Z" fill="#2E3038"/>
<path d="M129.727 189.048L120.788 189.758C119.298 189.758 118.021 188.694 117.808 187.275L115.822 177.416C115.538 175.927 116.39 174.579 117.738 174.508L126.676 173.799C128.166 173.799 129.443 174.863 129.656 176.282L131.643 186.141C131.927 187.629 131.074 188.906 129.727 189.048Z" fill="#2E3038"/>
<path d="M79.0736 108.831C76.4487 108.831 73.8238 106.561 73.2562 103.653L69.1414 83.5813C68.7867 82.092 69.1414 80.4606 69.9928 79.2549C70.7022 78.262 71.8373 77.6236 73.0434 77.5527L91.134 76.0632C93.9008 75.8505 96.7386 78.191 97.3061 81.2408L101.421 101.313C101.776 102.802 101.492 104.363 100.569 105.639C99.8601 106.632 98.725 107.271 97.448 107.341L79.3574 108.831H79.0736ZM91.5597 76.2051H91.2049L73.1144 77.6946C71.9082 77.7654 70.8441 78.4037 70.1347 79.3258C69.2833 80.5315 68.9995 82.092 69.2833 83.5104L73.3981 103.582C74.0366 106.561 76.7325 108.831 79.4283 108.618L97.5189 107.129C98.725 107.058 99.7891 106.419 100.499 105.497C101.35 104.292 101.634 102.731 101.35 101.313L97.2351 81.2408C96.5967 78.4037 94.1846 76.2051 91.5597 76.2051Z" fill="#2E3038"/>
<path d="M79.9947 106.561C77.6537 106.561 75.4544 104.575 74.9578 102.022L71.4816 84.8581C71.1978 83.5815 71.4816 82.163 72.2619 81.0991C72.9004 80.2479 73.8936 79.6805 74.9578 79.6096L90.4235 78.333C92.8355 78.1202 95.2477 80.1771 95.8152 82.8722L99.2914 100.036C99.5753 101.313 99.2914 102.731 98.5111 103.795C97.8726 104.646 96.8794 105.214 95.8152 105.285L80.3496 106.561C80.2077 106.561 80.0657 106.561 79.9947 106.561ZM90.6364 78.6876C90.5654 78.6876 90.4235 78.6876 90.3526 78.6876L74.8869 79.9642C73.8937 80.0352 73.0423 80.5317 72.4747 81.3118C71.7653 82.3048 71.4816 83.5815 71.7653 84.7872L75.2416 101.951C75.7381 104.505 78.0084 106.349 80.2786 106.136L95.7442 104.859C96.7375 104.788 97.5888 104.292 98.1564 103.512C98.8658 102.519 99.1495 101.242 98.8658 100.036L95.3895 82.8722C94.8929 80.5317 92.8355 78.6876 90.6364 78.6876Z" fill="#2E3038"/>
<path d="M81.2014 103.441C79.215 103.299 77.5124 101.81 77.1577 99.8236L74.4618 86.6315C74.249 85.5676 74.4618 84.5038 75.0293 83.5817C75.5259 82.8724 76.3772 82.4469 77.2286 82.376L89.1471 81.383C91.0626 81.2411 93.0491 82.8016 93.4747 85.0002L96.1706 98.2633C96.3834 99.3272 96.1706 100.391 95.532 101.313C95.0354 102.022 94.2551 102.448 93.3328 102.519L81.4143 103.512L81.2014 103.441ZM89.431 81.9504H89.2181L77.2996 82.9433C76.59 83.0143 75.9516 83.3689 75.5259 83.9363C74.9584 84.7165 74.8165 85.6385 75.0293 86.5605L77.7252 99.8236C78.0799 101.668 79.7826 103.086 81.4852 102.944L93.4038 101.951C94.1132 101.881 94.7517 101.526 95.1773 100.959C95.745 100.178 95.8868 99.2563 95.674 98.3342L92.9781 85.0711C92.6234 83.3689 91.2045 82.0213 89.431 81.9504Z" fill="#2E3038"/>
<path d="M91.3463 99.7525L82.4073 100.462C80.9176 100.462 79.6405 99.3979 79.4277 97.9084L77.4412 88.0499C77.1575 86.5604 78.0089 85.2128 79.3568 85.1418L88.2957 84.4326C89.7855 84.4326 91.0625 85.4965 91.2753 86.986L93.2617 96.8446C93.5456 98.334 92.6942 99.6107 91.3463 99.7525Z" fill="#2E3038"/>
<path d="M141.077 101.313C141.077 101.313 108.515 93.7241 106.67 93.3694C104.826 93.0148 97.3056 90.7452 95.5319 90.8161C93.7584 90.8871 87.4444 91.7382 86.2383 92.3765C85.0323 93.0148 85.458 93.5823 86.0964 93.5113L92.7652 92.5893L96.2415 94.5752C96.2415 94.5752 94.1131 96.703 93.9712 98.1214C93.6875 101.668 93.7584 102.519 94.5388 102.377C95.3191 102.235 95.461 98.2633 95.461 98.2633L96.0286 97.8378L96.5962 100.817C96.5962 100.817 97.3765 101.881 97.8022 100.675C98.0859 99.8946 97.5184 97.9796 97.5184 97.9796L98.6535 96.9867C98.6535 96.9867 98.9373 99.469 99.5049 99.7528C100.072 100.036 100.356 99.7528 100.285 99.2563C100.214 98.7599 99.9305 96.9158 99.9305 96.9158L101.988 95.6391C101.988 95.6391 135.118 109.54 138.524 110.108C140.865 110.392 143.277 110.25 145.548 109.682L141.077 101.313Z" fill="white"/>
<path d="M140.723 110.675C140.014 110.675 139.234 110.604 138.524 110.533C135.119 110.037 104.897 97.3412 102.059 96.1355L100.356 97.1994C100.427 97.6958 100.64 98.9016 100.64 99.2561C100.711 99.6108 100.569 99.8946 100.285 100.107C100.001 100.32 99.5757 100.32 99.292 100.107C98.7954 99.8236 98.5116 98.6178 98.3697 97.6958L97.8731 98.1214C98.015 98.6888 98.3697 100.107 98.086 100.817C97.9441 101.313 97.6603 101.526 97.3056 101.597C96.738 101.668 96.3123 101.1 96.2414 101.029C96.2414 100.958 96.1704 100.958 96.1704 100.887L95.7448 98.476C95.6739 100.391 95.3901 102.661 94.5388 102.732C94.255 102.803 94.0422 102.732 93.8294 102.519C93.3327 102.093 93.3327 101.029 93.6166 98.0504C93.6875 96.8448 95.0354 95.2843 95.6739 94.646L92.6942 92.9438L86.1674 93.795C85.7418 93.8658 85.3871 93.6531 85.1742 93.2984C85.1033 93.0147 85.1033 92.5182 86.0965 91.9508C87.4445 91.2416 93.9003 90.3905 95.532 90.3196C96.809 90.2486 101.066 91.3835 104.116 92.1636C105.251 92.4474 106.245 92.7311 106.741 92.8728C108.586 93.2984 140.794 100.746 141.149 100.817C141.22 100.817 141.362 100.887 141.362 100.958L145.902 109.399C145.973 109.469 145.973 109.611 145.902 109.682C145.831 109.753 145.76 109.824 145.689 109.895C144.058 110.462 142.426 110.675 140.723 110.675ZM101.988 95.3553C102.059 95.3553 102.059 95.3553 102.13 95.3553C102.484 95.4972 135.261 109.257 138.595 109.753C140.723 110.037 142.923 109.895 145.051 109.399L140.865 101.526C138.382 100.958 108.373 94.0077 106.599 93.5821C106.103 93.4403 105.109 93.2275 103.903 92.8728C101.066 92.0927 96.738 90.9579 95.532 91.0288C93.7585 91.0998 87.5154 91.9508 86.3802 92.5182C85.8836 92.8019 85.8127 92.9438 85.8127 93.0147C85.8127 93.0857 85.8836 93.0147 85.9546 93.0147H86.0255L92.6942 92.1636C92.7652 92.1636 92.8361 92.1636 92.907 92.2345L96.3833 94.2204C96.4542 94.2914 96.5252 94.3623 96.5252 94.5041C96.5252 94.646 96.5252 94.717 96.4542 94.7879C95.8867 95.3553 94.3969 97.0575 94.255 98.0504C94.1841 99.398 93.9713 101.668 94.255 101.951C94.326 101.951 94.326 101.951 94.3969 101.951C94.6807 101.739 94.9644 99.9654 94.9644 98.1214C94.9644 97.9795 95.0354 97.9087 95.1063 97.8377L95.6739 97.4121C95.7448 97.3412 95.8867 97.3412 96.0286 97.3412C96.1704 97.4121 96.2414 97.4831 96.2414 97.6249L96.809 100.533C96.9509 100.675 97.0928 100.746 97.1637 100.746C97.2347 100.746 97.3056 100.675 97.3766 100.462C97.4475 99.6108 97.3766 98.7597 97.0928 97.9795C97.0219 97.8377 97.0928 97.6958 97.2347 97.6249L98.3697 96.6319C98.4407 96.561 98.5826 96.561 98.7244 96.561C98.8663 96.6319 98.9373 96.7029 98.9373 96.8448C99.0791 98.0504 99.3629 99.1853 99.6467 99.398C99.7176 99.469 99.7886 99.469 99.9304 99.398C99.9304 99.398 100.001 99.3271 99.9304 99.2561C99.8595 98.7597 99.5757 96.9865 99.5757 96.9865C99.5757 96.8448 99.6467 96.7029 99.7177 96.6319L101.775 95.3553C101.917 95.2843 101.917 95.3553 101.988 95.3553Z" fill="#2E3038"/>
<path d="M236.356 120.179C236.356 120.179 234.157 123.725 234.724 124.009C235.292 124.293 237.633 121.456 237.633 121.456L236.498 125.001C236.498 125.001 236.427 125.711 237.704 124.861C238.981 124.009 238.697 121.669 238.697 121.669L238.839 125.427C238.839 125.427 237.988 126.775 239.194 126.633C240.4 126.491 240.613 123.584 240.471 122.732C240.187 121.669 239.69 120.747 239.052 119.895C238.342 119.044 236.569 119.257 236.356 120.179Z" fill="white"/>
<path d="M238.98 126.988C238.696 126.988 238.413 126.917 238.271 126.633C237.987 126.208 238.271 125.569 238.483 125.285V124.577C238.342 124.79 238.129 125.001 237.916 125.143C237.207 125.64 236.71 125.782 236.426 125.569C236.213 125.427 236.142 125.214 236.142 125.001L236.781 123.016C235.22 124.648 234.795 124.435 234.582 124.364C234.44 124.293 234.369 124.151 234.298 124.009C234.085 123.3 235.433 121.03 236.071 120.108C236.284 119.541 236.781 119.186 237.348 119.115C238.058 118.902 238.838 119.115 239.335 119.682C240.044 120.534 240.612 121.597 240.825 122.732C240.895 123.513 240.825 124.293 240.683 125.072C240.328 126.562 239.689 126.988 239.264 127.059C239.193 126.988 239.051 126.988 238.98 126.988ZM238.909 126.279C238.98 126.279 239.051 126.279 239.122 126.279C239.477 126.208 239.76 125.711 239.973 124.861C240.115 124.151 240.186 123.442 240.115 122.732C239.831 121.739 239.406 120.818 238.767 120.037C238.413 119.682 237.916 119.612 237.49 119.753C237.207 119.824 236.923 120.037 236.781 120.321C236.781 120.392 236.781 120.392 236.71 120.392C236.071 121.385 235.504 122.519 235.078 123.654C235.93 122.945 236.71 122.165 237.419 121.243C237.561 121.101 237.703 121.101 237.845 121.172C237.987 121.243 238.058 121.455 237.987 121.597L236.923 124.932C237.136 124.861 237.348 124.719 237.561 124.577C238.2 124.009 238.483 123.229 238.413 122.448V121.668C238.413 121.455 238.554 121.314 238.767 121.314C238.98 121.314 239.122 121.455 239.122 121.597C239.122 121.881 239.193 122.165 239.122 122.377L239.193 125.356C239.193 125.427 239.193 125.498 239.122 125.569C239.051 125.782 238.98 125.995 238.909 126.279Z" fill="#2E3038"/>
<path d="M211.809 90.6743C211.809 90.6743 215.853 91.4545 217.981 92.5892C220.109 93.7241 236.355 110.888 236.78 112.803C237.277 114.789 238.128 116.704 239.334 118.336C240.186 119.47 242.953 122.874 243.166 124.293C243.379 125.712 242.811 126.846 242.102 125.854C241.392 124.861 239.903 122.59 238.696 121.669C237.49 120.747 233.801 119.966 233.801 119.966C233.801 121.101 233.73 122.237 233.517 123.371C233.162 125.003 231.956 126.42 231.814 125.57C231.601 124.08 231.46 122.52 231.531 120.96C231.672 119.329 231.672 116.491 231.672 116.491L232.169 113.37C232.169 113.37 221.386 106.562 217.342 104.434C213.299 102.306 209.61 99.8946 209.61 99.8946L207.055 99.6819C207.055 99.6819 207.197 95.2136 208.757 93.3695C209.681 92.4475 210.674 91.4545 211.809 90.6743Z" fill="white"/>
<path d="M242.598 126.562C242.243 126.562 241.96 126.35 241.818 126.066C241.179 125.074 239.619 122.803 238.484 121.953C237.631 121.314 235.148 120.676 234.155 120.463C234.155 121.456 234.084 122.519 233.871 123.513C233.658 124.79 232.807 126.279 232.027 126.279C231.743 126.279 231.459 125.995 231.459 125.712C231.246 124.151 231.105 122.59 231.176 121.031C231.317 119.47 231.317 116.633 231.317 116.562L231.743 113.654C230.253 112.732 220.818 106.845 217.2 104.859C213.582 102.874 210.035 100.746 209.468 100.391L206.985 100.178C206.772 100.178 206.63 100.036 206.63 99.8237C206.63 99.6109 206.772 95.2135 208.403 93.2986C209.326 92.2347 210.39 91.2417 211.525 90.4615C211.596 90.3906 211.667 90.3906 211.809 90.3906C211.95 90.3906 215.923 91.1708 218.051 92.3056C220.18 93.4404 236.567 110.604 237.064 112.732C237.56 114.647 238.412 116.491 239.548 118.123L239.973 118.69C241.605 120.747 243.308 123.016 243.449 124.293C243.591 125.215 243.449 126.35 242.74 126.562C242.74 126.562 242.669 126.562 242.598 126.562ZM233.8 119.612H233.871C234.013 119.683 237.631 120.392 238.908 121.385C240.186 122.379 241.747 124.648 242.385 125.641C242.527 125.853 242.598 125.853 242.598 125.853C242.811 125.357 242.882 124.861 242.811 124.293C242.669 123.158 240.541 120.392 239.477 119.044L239.051 118.478C237.844 116.775 236.993 114.86 236.425 112.803C236.07 111.243 220.038 94.0787 217.768 92.8021C215.852 91.951 213.866 91.3127 211.88 90.9581C210.815 91.7382 209.893 92.5893 209.042 93.5823C207.836 95.0008 207.552 98.2633 207.481 99.3272L209.68 99.469C209.751 99.469 209.822 99.469 209.822 99.54C209.822 99.54 213.582 101.952 217.555 104.008C221.528 106.065 232.24 112.874 232.382 112.945C232.523 113.016 232.594 113.158 232.523 113.299L232.027 116.42C232.027 116.491 232.027 119.257 231.885 120.889C231.814 122.379 231.885 123.797 232.098 125.286C232.594 124.719 232.949 124.009 233.091 123.229C233.304 122.095 233.375 121.031 233.375 119.895C233.375 119.754 233.446 119.683 233.517 119.612C233.658 119.683 233.729 119.612 233.8 119.612Z" fill="#2E3038"/>
<path d="M186.127 136.563L186.836 145.57C186.836 145.57 183.502 175.36 190.171 183.941C196.839 192.524 218.477 215.007 218.477 215.007L221.883 210.964C221.883 210.964 209.823 187.558 207.552 184.225C205.282 180.891 201.663 172.168 201.663 172.168C201.663 172.168 209.113 141.102 209.681 138.335C210.248 135.57 209.964 128.123 209.823 127.414C209.681 126.704 201.308 130.889 196.414 132.591C191.519 134.294 186.127 136.563 186.127 136.563Z" fill="#2E3038"/>
<path d="M218.406 215.432C218.335 215.432 218.193 215.361 218.122 215.29C217.91 215.078 196.413 192.665 189.745 184.154C183.076 175.643 186.198 146.705 186.34 145.5L185.63 136.563C185.63 136.421 185.701 136.279 185.843 136.208C185.914 136.208 191.164 134.081 196.059 132.308C198.117 131.599 200.884 130.392 203.296 129.328C208.049 127.272 209.326 126.775 209.751 127.059C209.893 127.13 209.964 127.272 209.964 127.343C210.035 128.052 210.319 135.571 209.822 138.407C209.326 141.102 202.374 169.757 201.806 172.097C202.232 173.09 205.566 180.962 207.623 184.012C209.822 187.275 221.457 209.83 221.953 210.752C222.024 210.894 222.024 211.035 221.882 211.106L218.477 215.149C218.619 215.361 218.477 215.432 218.406 215.432ZM186.482 136.776L187.12 145.571C187.12 145.926 183.857 175.36 190.383 183.728C196.555 191.672 215.852 211.886 218.406 214.51L221.386 210.965C220.18 208.623 209.326 187.558 207.198 184.509C204.998 181.246 201.38 172.736 201.238 172.381C201.238 172.31 201.238 172.239 201.238 172.168C201.309 171.884 208.687 141.102 209.255 138.407C209.751 135.924 209.539 129.328 209.397 127.839C207.481 128.478 205.566 129.257 203.65 130.109C201.238 131.173 198.472 132.308 196.342 133.087C192.157 134.506 187.546 136.35 186.482 136.776Z" fill="#2E3038"/>
<path d="M198.898 138.762C198.898 138.762 196.555 141.386 197.194 142.025L197.834 142.662C197.834 142.662 184.708 159.826 183.006 164.295C181.303 168.763 177.898 179.615 177.969 180.182C178.04 180.749 180.239 182.594 181.658 182.523C183.077 182.452 227.345 185.573 227.345 185.573L228.338 181.175L196.201 170.962C196.201 170.962 215.498 142.804 216.42 140.18C217.342 137.556 216.136 128.973 215.994 127.697C215.853 126.42 214.15 124.719 212.731 124.931C211.312 125.144 199.252 133.726 199.252 133.726" fill="#2E3038"/>
<path d="M227.345 185.998C226.919 185.998 183.289 182.948 181.728 182.948C180.239 182.948 177.756 181.104 177.685 180.253C177.614 179.401 181.232 168.267 182.721 164.224C184.353 159.968 195.704 144.932 197.406 142.733L196.981 142.307C196.271 141.528 197.69 139.612 198.684 138.548C198.826 138.407 199.039 138.407 199.181 138.548C199.323 138.69 199.323 138.903 199.181 139.045C198.188 140.18 197.335 141.528 197.477 141.812L198.116 142.449C198.259 142.591 198.259 142.804 198.116 142.946C197.974 143.088 184.992 160.11 183.36 164.508C181.586 169.118 178.394 179.472 178.323 180.253C178.465 180.607 180.451 182.31 181.657 182.31C183.218 182.31 222.875 185.005 227.061 185.289L227.912 181.459L196.058 171.387C195.917 171.316 195.846 171.246 195.846 171.175C195.775 171.104 195.846 170.962 195.917 170.891C202.586 161.174 215.426 142.236 216.065 140.18C216.845 137.84 215.923 130.179 215.639 127.839C215.497 127.201 215.143 126.562 214.575 126.137C214.15 125.64 213.44 125.356 212.802 125.356C211.808 125.498 204.147 130.747 199.465 134.081C199.323 134.222 199.11 134.151 198.968 134.01C198.826 133.868 198.897 133.655 199.039 133.513C200.316 132.662 211.241 124.859 212.66 124.648C213.582 124.577 214.433 124.93 215.001 125.569C215.639 126.137 216.065 126.846 216.278 127.697C216.703 130.676 217.555 137.911 216.703 140.322C215.852 142.733 199.181 167.273 196.697 170.82L228.409 180.891C228.622 180.962 228.692 181.104 228.622 181.317L227.628 185.715C227.628 185.856 227.557 185.998 227.345 185.998Z" fill="#2E3038"/>
<path d="M162.361 95.5682C152.784 98.618 153.281 98.547 153.281 98.547L139.375 100.604L145.548 112.803L161.723 114.647C161.723 114.647 177.544 129.612 180.523 130.18C183.503 130.747 185.276 134.223 185.276 134.223C185.276 134.223 184.141 136.28 185.702 137.201C187.263 138.124 189.533 138.265 194.357 136.988C199.181 135.712 206.063 131.74 209.255 129.187C212.448 126.633 217.059 123.654 215.569 122.378C214.221 121.456 212.802 120.676 211.242 120.179L196.485 104.859L208.688 105.781C208.688 105.781 208.546 98.6889 208.759 96.4192C208.972 94.1496 211.88 90.6743 211.88 90.6743C211.88 90.6743 196.272 89.5394 191.803 88.8302C187.333 88.121 183.006 88.4047 181.233 89.2557C179.459 90.1069 171.158 92.3765 170.732 92.4474C170.306 92.5184 162.361 95.5682 162.361 95.5682Z" fill="white"/>
<path d="M188.823 138.266C187.688 138.337 186.552 138.053 185.559 137.485C184.14 136.705 184.495 135.074 184.921 134.152C184.566 133.513 182.935 130.889 180.523 130.464C177.543 129.896 162.999 116.207 161.58 114.931L145.335 113.087L138.879 100.249L153.28 98.1926C153.989 97.8379 156.118 97.1996 162.289 95.2137C163.637 94.7172 170.165 92.2349 170.662 92.1639C171.158 92.093 179.387 89.8942 181.09 89.0432C183.076 88.0502 187.475 87.9083 191.873 88.5466C196.271 89.2559 211.738 90.3908 211.88 90.3908L212.589 90.4617L212.163 91.0291C212.163 91.0291 209.326 94.4335 209.113 96.5613C208.9 98.689 209.113 105.782 209.113 105.853V106.278L197.407 105.356L211.525 120.037C213.086 120.534 214.575 121.243 215.852 122.237C216.136 122.45 216.278 122.803 216.278 123.087C216.207 124.435 213.795 126.35 211.17 128.336C210.603 128.762 210.035 129.187 209.539 129.612C206.417 132.024 199.535 136.137 194.498 137.485C192.582 137.911 190.667 138.195 188.823 138.266ZM145.76 112.449L161.864 114.293L161.935 114.364C166.333 118.478 178.252 129.328 180.593 129.825C183.715 130.393 185.488 133.939 185.559 134.081L185.63 134.223L185.559 134.365C185.559 134.436 184.566 136.137 185.843 136.918C187.12 137.698 188.965 138.124 194.285 136.705C199.18 135.429 205.992 131.386 209.042 128.975C209.539 128.549 210.106 128.123 210.674 127.698C212.802 126.067 215.498 124.08 215.498 123.016C215.498 122.874 215.427 122.732 215.356 122.661C214.079 121.74 212.66 121.031 211.17 120.534H211.099L211.028 120.463L195.633 104.363L208.404 105.356C208.404 103.867 208.333 98.3345 208.474 96.3485C208.616 94.5045 210.39 92.022 211.241 90.9581C208.191 90.7454 195.704 89.7524 191.802 89.185C187.617 88.5466 183.289 88.6885 181.445 89.6105C179.6 90.5325 171.371 92.7313 170.804 92.8022C170.378 92.8732 165.553 94.7172 162.573 95.852C154.415 98.4763 153.635 98.7599 153.493 98.8309L153.351 98.5472L153.422 98.9018L140.014 100.817L145.76 112.449Z" fill="#2E3038"/>
<path d="M172.223 106.774L178.111 115.073L179.671 113.654L175.344 108.335" fill="white"/>
<path d="M205.85 120.108C206.346 120.037 206.914 120.037 207.41 119.966L205.85 120.108Z" fill="white"/>
<path d="M163.141 97.4118C163.992 100.036 164.63 102.66 165.198 105.355C165.482 107.767 164.347 109.966 165.765 109.611C167.185 109.256 167.114 105.284 167.114 105.284L172.222 106.348L174.492 101.667C174.492 101.667 178.678 105.426 178.607 103.511C178.536 101.596 174.209 93.369 173.925 91.4541C173.641 89.539 171.371 89.0426 169.739 90.3902C168.108 91.7378 163.141 97.4118 163.141 97.4118Z" fill="white"/>
<path d="M165.483 109.966C165.27 109.966 165.128 109.895 164.986 109.824C164.632 109.469 164.632 108.831 164.774 107.909C164.915 107.058 164.915 106.207 164.845 105.356C164.276 102.66 163.637 100.036 162.857 97.4828L162.786 97.27L162.928 97.1281C163.141 96.9154 168.037 91.4541 169.598 90.1065C170.449 89.3263 171.726 89.0426 172.861 89.4682C173.712 89.7519 174.28 90.5321 174.351 91.3832C174.493 92.2343 175.486 94.5749 176.479 96.8444C177.756 99.7525 178.962 102.448 178.962 103.511C179.033 103.866 178.891 104.221 178.536 104.363C177.685 104.788 175.699 103.228 174.563 102.235L172.364 106.703L167.398 105.639C167.398 106.845 167.186 109.611 165.767 109.895C165.696 109.966 165.554 109.966 165.483 109.966ZM165.412 109.256C165.483 109.256 165.554 109.256 165.625 109.256C166.405 109.044 166.689 106.774 166.689 105.214V104.788L172.01 105.923L174.351 101.1L174.705 101.384C176.195 102.731 177.827 103.795 178.252 103.724C178.252 103.724 178.252 103.653 178.252 103.582C178.181 102.66 176.905 99.7525 175.769 97.1991C174.705 94.7876 173.641 92.518 173.57 91.5251C173.499 90.8867 173.074 90.3902 172.506 90.1775C171.655 89.8938 170.662 90.1065 169.952 90.7449C168.533 91.9506 164.277 96.7027 163.496 97.5537C164.277 100.107 164.986 102.731 165.483 105.356C165.554 106.278 165.554 107.129 165.412 108.051C165.341 108.405 165.341 108.831 165.412 109.256Z" fill="#2E3038"/>
<path d="M156.544 95.3554C158.176 96.1356 159.807 96.8449 161.51 97.4123C163.354 97.9797 172.507 108.69 172.223 106.278C171.939 103.867 171.3 94.6462 170.732 92.4475C170.023 90.3907 169.242 88.3338 168.32 86.3479C168.32 86.3479 169.81 85.355 167.398 84.362C164.986 83.3691 163.141 85.2131 163.283 86.206C163.425 87.199 163.709 89.185 163.071 89.4687C162.432 89.7524 156.544 95.3554 156.544 95.3554Z" fill="white"/>
<path d="M172.009 106.987C171.3 106.987 170.023 105.782 166.475 102.306C164.418 100.249 162.077 97.9798 161.367 97.767C159.665 97.1287 158.033 96.4195 156.401 95.6393L155.976 95.4265L156.33 95.0719C157.749 93.7243 162.289 89.3979 162.928 89.1141C162.999 89.0432 163.212 88.6176 162.928 86.2771C162.928 85.5678 163.283 84.8586 163.921 84.5039C164.985 83.7237 166.333 83.511 167.539 84.0784C168.533 84.5039 169.03 84.9295 169.101 85.5678C169.101 85.9225 168.959 86.2771 168.746 86.4898C169.668 88.4048 170.449 90.3908 171.087 92.4477C171.513 93.937 171.868 98.4763 172.222 102.094C172.364 103.938 172.506 105.498 172.648 106.278C172.719 106.704 172.506 106.916 172.364 106.987C172.222 106.987 172.151 106.987 172.009 106.987ZM157.182 95.2846C158.6 95.9939 160.09 96.6322 161.58 97.1287C162.431 97.4124 164.205 99.1146 166.971 101.881C168.675 103.583 170.945 105.853 171.797 106.278C171.726 105.427 171.584 103.938 171.371 102.164C171.087 98.5473 170.662 94.0789 170.307 92.6604C169.597 90.6035 168.817 88.5467 167.895 86.5608L167.752 86.2771L168.037 86.1352C168.108 86.0643 168.391 85.8515 168.32 85.6388C168.25 85.426 168.179 85.1423 167.184 84.7876C166.262 84.3621 165.127 84.5039 164.276 85.1423C163.85 85.426 163.637 85.7806 163.566 86.2771C163.85 88.334 163.85 89.6106 163.141 89.8943C162.786 90.0362 159.877 92.7313 157.182 95.2846Z" fill="#2E3038"/>
<path d="M151.222 75.7795C149.449 75.425 147.675 74.7866 146.115 73.8645C144.127 72.517 144.908 69.6799 146.966 68.4033C149.023 67.1266 151.577 65.3535 154.273 65.3535C156.969 65.3535 157.891 68.2615 159.806 68.3323C161.722 68.4033 166.9 66.0627 169.809 68.4742C172.718 70.8857 172.363 79.1131 171.299 80.8153C170.235 82.5175 168.177 86.4184 168.177 86.4184C168.177 86.4184 166.475 85.9928 165.198 85.7091C163.921 85.4254 164.772 84.6452 163.353 84.9999C161.935 85.3545 160.516 85.7091 159.31 84.7162C158.104 83.7232 157.749 82.6593 156.969 81.8083C156.188 80.9571 154.84 79.0421 155.053 78.3329C155.195 77.5527 155.337 76.7016 155.337 75.8504L151.222 75.7795Z" fill="#2E3038"/>
<path d="M168.462 86.773L168.178 86.7021C168.178 86.7021 166.547 86.2765 165.199 85.9928C164.773 85.9219 164.347 85.6382 164.135 85.2835L164.064 85.2127C163.851 85.2127 163.709 85.2126 163.496 85.2835C162.006 85.6382 160.517 85.9928 159.169 84.9289C158.459 84.3615 157.892 83.7232 157.466 82.943C157.253 82.5884 157.041 82.3047 156.757 81.9501C156.757 81.9501 154.416 79.2549 154.77 78.12C154.912 77.4817 155.054 76.7725 155.054 76.1341L151.152 76.0632C149.308 75.7086 147.534 75.0702 145.903 74.0773C145.051 73.5099 144.555 72.517 144.626 71.524C144.768 70.1055 145.548 68.7579 146.825 68.0486L147.676 67.5521C149.663 66.3464 151.862 64.9988 154.345 64.9279C155.976 64.8569 157.041 65.8499 157.892 66.7011C158.601 67.3394 159.169 67.9067 159.878 67.9067C160.659 67.8359 161.368 67.765 162.148 67.5521C164.56 67.0557 167.895 66.2755 170.094 68.1196C173.074 70.5311 172.862 78.9712 171.656 80.9571C170.59 82.6593 168.533 86.4893 168.533 86.4893L168.462 86.773ZM163.922 84.5034C164.206 84.5034 164.489 84.6452 164.631 84.9289C164.702 85.0708 164.844 85.2127 165.27 85.3545C166.263 85.5672 167.469 85.851 168.036 85.9928C168.533 85.1417 170.165 82.1628 171.017 80.6734C172.081 78.9712 172.223 70.8857 169.597 68.7579C167.682 67.1975 164.489 67.8359 162.219 68.3323C161.439 68.5452 160.588 68.687 159.807 68.687C158.814 68.687 158.034 67.9777 157.324 67.2684C156.473 66.4883 155.622 65.7081 154.345 65.7081H154.274C152.004 65.7081 149.875 67.0557 147.96 68.1904L147.109 68.687C146.045 69.2543 145.335 70.3892 145.264 71.595C145.193 72.3751 145.619 73.0843 146.257 73.5099C147.747 74.4319 149.45 74.9994 151.152 75.3539L155.693 75.4249V75.7795C155.693 76.6307 155.551 77.4817 155.338 78.3329C155.196 78.6875 156.118 80.2478 157.182 81.4535C157.466 81.8083 157.679 82.1628 157.963 82.5174C158.317 83.2267 158.885 83.7942 159.453 84.2906C160.588 85.1417 161.865 84.8581 163.212 84.5034C163.496 84.5034 163.709 84.5034 163.922 84.5034Z" fill="#2E3038"/>
<path d="M149.946 74.7867C149.946 74.7867 148.527 79.8224 148.811 80.6026C149.095 81.3828 149.307 82.2339 149.449 83.085L147.463 86.4185C147.463 86.4185 147.818 87.6951 148.456 87.7661C149.236 87.9788 150.017 88.3335 150.655 88.759C150.655 88.759 152.571 95.7806 153.209 95.9935C153.848 96.2062 155.408 96.9864 156.047 96.5609C156.685 96.1353 163.85 91.0286 164.702 90.2484C165.553 89.4683 165.198 85.6383 165.198 85.6383C165.198 85.6383 167.397 82.9431 166.546 81.099C165.695 79.255 163.637 79.8933 162.999 81.2409C162.361 82.5885 162.148 83.2978 162.148 83.2978C162.148 83.2978 160.587 83.7943 160.303 82.8722L160.019 81.9502C160.019 81.9502 157.324 79.8933 157.253 79.3968C157.182 78.9004 158.104 73.9355 158.104 73.9355L149.946 74.7867Z" fill="white"/>
<path d="M155.621 96.9868C154.912 96.9158 154.203 96.7031 153.564 96.4194L153.138 96.2775C152.571 96.0648 151.649 93.6533 150.372 88.9722C149.733 88.6176 149.095 88.3338 148.385 88.121C147.534 88.0501 147.108 86.7025 147.108 86.5607V86.4188L149.095 83.0853C148.953 82.3051 148.74 81.5249 148.456 80.8158C148.173 80.0355 149.237 75.9928 149.591 74.787L149.662 74.5743L158.672 73.7231L158.601 74.1487C158.246 76.1346 157.679 79.1135 157.75 79.4682C158.53 80.3192 159.452 81.0994 160.374 81.7378L160.445 81.8087L160.8 82.8726C160.8 82.9434 160.871 83.0144 160.942 83.0853C161.297 83.2271 161.651 83.2271 162.006 83.0853C162.077 82.8017 162.361 82.1633 162.786 81.1704C163.141 80.3192 163.992 79.6809 164.986 79.6809C165.837 79.6809 166.617 80.2483 166.972 81.0285C167.823 82.8017 166.121 85.284 165.695 85.8515C165.766 86.7735 165.979 89.8233 165.057 90.6035C164.134 91.3837 156.969 96.5612 156.402 96.9158C156.047 96.9868 155.834 97.0577 155.621 96.9868ZM147.889 86.4898C148.031 86.9154 148.314 87.4118 148.527 87.4118C149.379 87.6246 150.159 87.9793 150.868 88.4757L151.01 88.5466L151.081 88.6884C151.932 91.8801 153.067 95.3555 153.493 95.7101C153.635 95.7811 153.777 95.7811 153.919 95.8519C154.486 96.0648 155.621 96.4902 155.976 96.2775C156.544 95.8519 163.78 90.7453 164.56 89.9652C165.057 89.5396 165.127 87.199 164.986 85.7096V85.5678L165.057 85.4259C165.057 85.4259 167.114 82.8726 166.333 81.2412C166.121 80.6739 165.624 80.3192 164.986 80.3192C164.276 80.3902 163.709 80.7448 163.425 81.3831C162.786 82.7307 162.574 83.369 162.574 83.369L162.503 83.5109L162.361 83.5819C161.793 83.7946 161.155 83.7946 160.587 83.5819C160.303 83.44 160.162 83.2271 160.02 82.9434L159.736 82.1633C157.962 80.7448 156.969 79.8936 156.898 79.4682C157.111 77.766 157.324 76.0636 157.679 74.3615L150.088 75.0707C149.449 77.3404 148.811 79.9646 149.024 80.3902C149.308 81.2412 149.591 82.0924 149.733 82.9434V83.0853L147.889 86.4898Z" fill="#2E3038"/>
<path d="M97.4471 92.9438C97.4471 92.9438 94.4674 94.646 93.2613 95.2844C92.0553 95.9227 90.2817 95.9936 90.8493 96.7029C91.4169 97.4121 94.6803 96.2064 94.6803 96.2064C94.6803 96.2064 98.3693 96.2064 99.7881 95.9937C100.64 95.8518 101.349 95.2844 101.704 94.4333" fill="white"/>
<path d="M91.6303 97.2704C91.2756 97.3413 90.85 97.1994 90.5662 96.9157C90.4243 96.703 90.3534 96.4902 90.4243 96.2774C90.5662 95.8518 91.1337 95.6391 91.8431 95.4263C92.2688 95.2845 92.6944 95.1426 93.1201 94.9298C94.3262 94.2915 97.3058 92.5893 97.3058 92.5893C97.4477 92.5184 97.7315 92.5184 97.8024 92.7311C97.8734 92.873 97.8024 93.0857 97.6605 93.2276C97.5896 93.2276 94.6809 94.9298 93.4749 95.5682C93.0491 95.7809 92.5525 95.9937 92.056 96.1355C91.7722 96.2065 91.4175 96.3484 91.1337 96.4902C91.3465 96.7738 92.9782 96.4902 94.539 95.8518C94.61 95.8518 94.61 95.8518 94.6809 95.8518C94.7518 95.8518 98.37 95.8518 99.7889 95.6391C100.498 95.4972 101.137 95.0008 101.35 94.3624C101.421 94.1496 101.633 94.0787 101.775 94.1496C101.917 94.2206 102.059 94.4333 101.988 94.5752C101.633 95.4972 100.782 96.2065 99.7889 96.3484C98.4409 96.4902 95.1775 96.5611 94.6809 96.5611C93.7587 96.9867 92.6944 97.1994 91.6303 97.2704Z" fill="#2E3038"/>
<path d="M218.407 215.077L218.052 221.886L213.724 230.894C213.441 231.461 213.937 232.667 215.285 232.1C216.633 231.532 219.542 228.837 221.102 227.561C222.663 226.284 225.146 223.092 226.636 221.957C228.125 220.823 229.757 218.482 229.686 217.985C229.615 217.49 221.812 210.963 221.812 210.963L218.407 215.077Z" fill="#184AFB"/>
<path d="M214.718 232.596C214.009 232.596 213.37 232.029 213.37 231.319C213.37 231.107 213.37 230.965 213.512 230.752C213.796 230.184 217.414 222.596 217.839 221.816L218.194 215.078C218.194 215.007 218.194 214.936 218.265 214.865L221.67 210.822C221.812 210.68 222.025 210.68 222.167 210.751C230.112 217.276 230.183 217.773 230.183 217.985C230.254 218.695 228.41 221.248 226.991 222.312C225.998 223.164 225.146 224.085 224.295 225.007C223.444 226 222.451 226.993 221.457 227.844C221.032 228.199 220.464 228.695 219.826 229.192C218.265 230.539 216.562 232.029 215.498 232.454C215.215 232.525 214.931 232.596 214.718 232.596ZM218.762 215.219L218.407 221.957C218.407 222.028 218.407 222.028 218.407 222.099L214.08 231.107C214.009 231.319 214.08 231.603 214.221 231.745C214.434 231.958 214.789 232.029 215.215 231.816C216.137 231.461 217.91 229.901 219.329 228.695C219.968 228.199 220.464 227.702 220.961 227.347C221.954 226.497 222.876 225.575 223.657 224.581C224.508 223.588 225.43 222.596 226.494 221.745C227.7 220.751 228.693 219.546 229.403 218.127C228.906 217.489 224.721 213.871 221.883 211.531L218.762 215.219Z" fill="#2E3038"/>
<path d="M226.707 222.028C228.196 220.964 229.828 218.553 229.757 218.056C229.473 217.702 229.19 217.347 228.835 217.063C227.771 218.198 225.643 220.609 223.727 222.596C221.599 224.936 216.065 230.114 214.079 232.029C214.434 232.313 214.93 232.313 215.356 232.1C216.704 231.532 219.612 228.837 221.173 227.56C222.734 226.284 225.217 223.163 226.707 222.028Z" fill="#2E3038"/>
<path d="M214.718 232.596C214.363 232.596 214.079 232.525 213.866 232.313C213.796 232.242 213.725 232.171 213.725 232.029C213.725 231.958 213.796 231.816 213.866 231.745C216.066 229.689 221.386 224.581 223.514 222.312C225.43 220.256 227.487 217.985 228.622 216.78C228.693 216.709 228.764 216.638 228.906 216.638C228.977 216.638 229.119 216.638 229.19 216.709C230.112 217.56 230.183 217.772 230.254 217.914C230.325 218.624 228.48 221.177 227.062 222.241C226.068 223.092 225.217 224.015 224.366 224.936C223.514 225.929 222.521 226.923 221.528 227.773C221.102 228.128 220.535 228.624 219.896 229.121C218.336 230.469 216.633 231.958 215.569 232.383C215.214 232.525 214.931 232.596 214.718 232.596ZM214.718 231.887C214.86 231.887 215.072 231.887 215.214 231.745C216.137 231.39 217.91 229.83 219.329 228.624C219.967 228.128 220.464 227.631 220.961 227.277C221.954 226.426 222.876 225.504 223.656 224.51C224.508 223.518 225.43 222.525 226.494 221.674C227.7 220.68 228.693 219.475 229.403 218.056C229.261 217.843 229.048 217.631 228.835 217.49C227.7 218.766 225.714 220.893 224.011 222.809C222.025 225.007 217.13 229.618 214.718 231.887Z" fill="#2E3038"/>
<path d="M227.345 185.644L231.106 189.829L237.065 201.956C237.065 201.956 238.555 202.311 239.193 201.886C239.832 201.46 238.767 186.352 238.413 184.083C238.058 181.814 238.484 180.82 237.561 180.466C236.639 180.111 228.339 181.317 228.339 181.317L227.345 185.644Z" fill="#184AFB"/>
<path d="M238.129 202.311C237.703 202.311 237.349 202.24 236.994 202.169C236.923 202.169 236.781 202.098 236.781 201.956L230.892 189.9L227.203 185.786C227.132 185.715 227.061 185.573 227.132 185.431L228.125 181.033C228.125 180.891 228.267 180.749 228.409 180.749C229.828 180.537 236.781 179.473 237.774 179.898C238.626 180.253 238.626 180.962 238.696 182.026C238.696 182.523 238.767 183.091 238.838 183.799C238.838 183.941 240.47 201.247 239.477 201.956C239.051 202.24 238.626 202.382 238.129 202.311ZM237.278 201.531C237.845 201.673 238.413 201.673 238.909 201.46C239.335 200.184 238.413 186.707 238.058 184.012C237.987 183.373 237.916 182.807 237.916 182.168C237.845 181.104 237.845 180.82 237.42 180.679C236.923 180.466 232.594 180.962 228.622 181.53L227.699 185.573L231.317 189.545L231.388 189.616L237.278 201.531Z" fill="#2E3038"/>
<path d="M237.561 180.324C237.206 180.254 236.78 180.183 236.426 180.254C236.922 184.438 238.059 195.006 238.413 197.205C238.555 198.765 238.626 200.397 238.484 201.956C238.768 201.956 238.981 201.885 239.194 201.744C239.832 201.318 238.768 186.211 238.413 183.941C238.059 181.672 238.555 180.749 237.561 180.324Z" fill="#2E3038"/>
<path d="M238.484 202.311C238.413 202.311 238.271 202.24 238.2 202.24C238.129 202.169 238.058 202.098 238.129 201.956C238.2 200.397 238.2 198.836 238.058 197.275C237.774 195.006 236.568 184.651 236.142 180.324C236.142 180.253 236.142 180.111 236.214 180.041C236.285 179.97 236.356 179.899 236.497 179.899C236.923 179.828 237.349 179.899 237.774 179.97C238.626 180.324 238.626 181.033 238.697 182.097C238.697 182.594 238.768 183.162 238.838 183.87C238.838 184.012 240.47 201.318 239.477 202.027C239.122 202.169 238.838 202.311 238.484 202.311ZM236.852 180.608C237.349 185.147 238.484 195.006 238.768 197.204C238.909 198.623 238.98 200.113 238.909 201.531H238.98C239.406 200.255 238.484 186.779 238.129 184.083C238.058 183.444 237.987 182.878 237.987 182.239C237.916 181.175 237.916 180.891 237.491 180.749C237.278 180.608 237.065 180.608 236.852 180.608Z" fill="#2E3038"/>
</g>
</g>
<defs>
<clipPath id="clip0_1_5706">
<rect width="268" height="240" fill="white"/>
</clipPath>
</defs>
</svg>
