<svg width="244" height="240" viewBox="0 0 244 240" fill="none" xmlns="http://www.w3.org/2000/svg">
<path opacity="0.1" d="M4.80178 147.587C4.80178 147.587 12.4642 188.544 51.3281 210.738C90.1856 232.933 138.492 227.638 177.756 224.369C217.021 221.1 243.514 194.763 242.942 161.101C242.371 127.437 211.19 122.247 189.306 87.132C167.421 52.0233 166.962 39.4608 129.318 21.5255C91.6826 3.59668 40.5338 25.8432 18.6559 69.633C-3.22183 113.416 4.80178 147.587 4.80178 147.587Z" fill="#1F69F8"/>
<path d="M105.353 143.354C105.353 141.562 103.895 138.717 102.076 138.717C100.257 138.717 98.7998 141.562 98.7998 143.354C98.7998 145.145 101.584 148.727 102.076 148.727C102.569 148.727 105.353 145.145 105.353 143.354Z" fill="#184AFB"/>
<path d="M173.356 143.354C173.356 141.562 171.898 138.717 170.08 138.717C168.268 138.717 166.804 141.562 166.804 143.354C166.804 145.145 169.588 148.727 170.08 148.727C170.572 148.727 173.356 145.145 173.356 143.354Z" fill="#184AFB"/>
<path d="M102.457 121.979L125.55 101.817V118.919L103.993 128.967L102.457 121.979Z" fill="#2E3038" stroke="#2E3038" stroke-width="1.2223" stroke-miterlimit="10"/>
<path d="M107.112 138.574H97.0858L94.965 99.5382C94.9387 99.2581 94.9387 98.9781 94.965 98.6981C95.313 95.4744 98.3399 84.9111 102.089 84.9111C105.812 84.9111 108.839 95.4744 109.219 98.6981C109.246 98.9781 109.246 99.2581 109.219 99.5382L107.112 138.574Z" fill="white" stroke="#2E3038" stroke-width="1.2223" stroke-miterlimit="10"/>
<path d="M96.3633 93.039H107.841C106.541 89.1186 104.466 84.8984 102.102 84.8984C99.7382 84.8984 97.6633 89.1186 96.3633 93.039Z" fill="#2E3038" stroke="#2E3038" stroke-width="1.2223" stroke-miterlimit="10"/>
<path d="M96.6328 130.335L97.0858 138.574H107.112L107.559 130.335H96.6328Z" fill="#2E3038" stroke="#2E3038" stroke-width="1.2223" stroke-miterlimit="10"/>
<path d="M170.133 121.979L147.014 101.817V118.919L168.57 128.967L170.133 121.979Z" fill="#2E3038" stroke="#2E3038" stroke-width="1.2223" stroke-miterlimit="10"/>
<path d="M165.476 138.574H175.502L177.623 99.5382C177.65 99.2581 177.65 98.9781 177.623 98.6981C177.275 95.4744 174.248 84.9111 170.499 84.9111C166.776 84.9111 163.749 95.4744 163.368 98.6981C163.342 98.9781 163.342 99.2581 163.368 99.5382L165.476 138.574Z" fill="white" stroke="#2E3038" stroke-width="1.2223" stroke-miterlimit="10"/>
<path d="M175.957 130.335L175.504 138.574H165.478L165.031 130.335H175.957Z" fill="#2E3038" stroke="#2E3038" stroke-width="1.2223" stroke-miterlimit="10"/>
<path d="M164.734 93.039H176.212C174.906 89.1186 172.837 84.8984 170.474 84.8984C168.109 84.905 166.054 89.1186 164.734 93.039Z" fill="#2E3038" stroke="#2E3038" stroke-width="1.2223" stroke-miterlimit="10"/>
<path d="M141.589 144.337C141.471 141.498 139.061 139.296 136.198 139.408C133.5 139.518 131.34 141.661 131.228 144.337C131.228 147.177 135.627 152.836 136.402 152.836C137.013 152.829 141.589 147.157 141.589 144.337Z" fill="#184AFB"/>
<path d="M149.541 124.826H123.316L117.761 40.3336C117.689 39.5977 117.689 38.8553 117.761 38.1129C118.687 29.6597 126.697 1.98828 136.435 1.98828C146.178 1.98828 154.163 29.6597 155.108 38.1129C155.187 38.8488 155.187 39.5912 155.108 40.3336L149.541 124.826Z" fill="white" stroke="#2E3038" stroke-width="1.2223" stroke-miterlimit="10"/>
<path d="M136.481 103.973C130.146 103.973 125.004 98.8801 125.004 92.5955V45.1653C125.011 38.8808 130.146 33.7881 136.481 33.7881C142.818 33.7946 147.946 38.8808 147.953 45.1653V92.5955C147.953 98.8801 142.818 103.966 136.481 103.973Z" fill="#184AFB" stroke="#2E3038" stroke-width="1.2223" stroke-miterlimit="10"/>
<path d="M145.654 136.959H127.197L123.316 124.286H149.574L145.654 136.959Z" fill="#2E3038" stroke="#2E3038" stroke-width="1.2223" stroke-miterlimit="10"/>
<path d="M114.074 44.9131C116.836 44.9131 119.075 42.6745 119.075 39.913C119.075 37.1516 116.836 34.9131 114.074 34.9131C111.312 34.9131 109.073 37.1516 109.073 39.913C109.073 42.6745 111.312 44.9131 114.074 44.9131Z" fill="white" stroke="#2E3038" stroke-width="1.2223" stroke-miterlimit="10"/>
<path d="M114.074 62.9131C116.836 62.9131 119.075 60.6745 119.075 57.913C119.075 55.1516 116.836 52.9131 114.074 52.9131C111.312 52.9131 109.073 55.1516 109.073 57.913C109.073 60.6745 111.312 62.9131 114.074 62.9131Z" fill="white" stroke="#2E3038" stroke-width="1.2223" stroke-miterlimit="10"/>
<path d="M114.074 80.9131C116.836 80.9131 119.075 78.6745 119.075 75.913C119.075 73.1516 116.836 70.9131 114.074 70.9131C111.312 70.9131 109.073 73.1516 109.073 75.913C109.073 78.6745 111.312 80.9131 114.074 80.9131Z" fill="white" stroke="#2E3038" stroke-width="1.2223" stroke-miterlimit="10"/>
<path d="M123.159 18.5101H149.732C146.357 9.65964 141.668 1.44092 136.449 1.44092C131.229 1.48651 126.514 9.66615 123.159 18.5101Z" fill="#2E3038" stroke="#2E3038" stroke-width="1.2223" stroke-miterlimit="10"/>
<path d="M43.9477 138.938C43.9477 138.938 39.4762 152.569 38.4783 159.465C37.4802 166.363 35.4973 185.58 35.4973 185.58C31.9845 189.924 29.6732 195.102 28.7935 200.604C27.5524 209.397 27.9661 221.236 27.9661 221.236C27.9661 221.236 26.9746 222.715 26.9746 223.457C26.9746 224.2 27.1388 225.841 27.1388 225.841C25.3135 227.248 23.5734 228.751 21.9189 230.354C20.1001 232.243 20.4284 235.531 20.4284 236.43C20.4284 237.329 21.5052 238.651 22.0896 238.651C22.674 238.651 26.6397 237.908 28.6556 236.267C30.6713 234.626 30.7238 231.259 31.2228 229.755C31.7219 228.25 35.0836 223.842 35.0836 223.842C36.121 223.731 36.9418 222.916 37.0534 221.887C37.2176 220.084 37.6312 216.88 37.7954 216.222C37.9596 215.564 44.9194 204.395 46.4887 197.661C48.058 190.927 52.9496 180.833 54.6895 176.398C56.4295 171.963 60.1524 162.931 60.1524 162.931L60.901 162.682C60.901 162.682 59.4893 182.22 59.0757 188.387C58.662 194.554 58.5766 196.105 58.5766 204.233C58.5766 212.36 61.8071 225.723 61.8071 225.723V229.91C61.8071 230.159 62.4637 230.406 63.7112 230.484C64.9588 230.562 68.6094 230.581 69.5221 231.136C70.4348 231.689 74.1577 232.119 77.9659 231.956C81.7742 231.793 83.7636 231.136 83.35 230.393C82.9363 229.651 76.3966 227.137 75.3198 226.452C74.243 225.769 71.7414 224.135 71.7414 224.135C71.7414 224.135 71.912 222.005 71.3277 221.015C70.7434 220.025 70.5004 220.116 70.5004 219.061C70.5004 218.007 72.9035 204.03 73.5667 197.381C74.2298 190.732 77.7887 181.282 78.0381 174.223C78.2876 167.163 77.6245 161.739 77.0402 153.69C76.6987 148.876 75.8386 144.116 74.4794 139.486L43.9477 138.938Z" fill="#2E3038" stroke="#2E3038" stroke-width="0.9508" stroke-linecap="round" stroke-linejoin="round"/>
<path d="M85.4237 150.107C85.4237 150.107 86.9142 156.424 86.5005 160.286C86.343 161.758 84.3469 166.036 83.9333 166.283C83.5328 166.414 83.0928 166.414 82.6922 166.283C82.9943 165.477 83.2439 164.656 83.4342 163.816C83.5196 163.164 83.6049 161.354 83.6049 161.354C83.1257 162.409 82.5741 163.425 81.9437 164.396C81.3857 164.955 80.7423 165.425 80.0397 165.789C79.7442 165.769 79.4684 165.62 79.2977 165.379C79.1335 165.131 79.9543 164.559 80.3745 163.653C80.7947 162.748 81.4513 161.048 81.4513 161.048C80.8538 161.81 80.1972 162.52 79.4815 163.177C78.8315 163.653 78.1027 164.011 77.3279 164.246C77.0784 164.246 76.5859 163.347 76.8354 163.263C77.085 163.177 79.1532 162.031 79.3961 161.621C79.626 161.276 79.8755 160.95 80.1447 160.637C79.173 161.028 78.1749 161.354 77.1638 161.621C76.7501 161.621 76.5859 160.97 76.5859 160.97L79.3174 159.576L79.974 157.928C79.6391 156.665 79.6391 155.336 79.974 154.073C80.5518 152.184 80.8013 150.869 80.8013 150.869L85.4237 150.107Z" fill="white" stroke="#2E3038" stroke-width="0.9508" stroke-linecap="round" stroke-linejoin="round"/>
<path d="M82.5283 152.816C82.5283 152.816 82.6071 155.526 83.1061 156.073C83.6052 156.62 84.5112 157.303 84.5112 157.877C84.5112 158.45 83.6052 161.739 83.8546 161.986C84.0713 162.272 84.485 162.325 84.774 162.11C84.8987 162.019 84.984 161.888 85.0168 161.739C85.5421 159.941 85.9033 158.098 86.0937 156.236" fill="white"/>
<path d="M82.5283 152.816C82.5283 152.816 82.6071 155.526 83.1061 156.073C83.6052 156.62 84.5112 157.303 84.5112 157.877C84.5112 158.45 83.6052 161.739 83.8546 161.986C84.0713 162.272 84.485 162.325 84.774 162.11C84.8987 162.019 84.984 161.888 85.0168 161.739C85.5421 159.941 85.9033 158.098 86.0937 156.236" stroke="#2E3038" stroke-width="0.9508" stroke-linecap="round" stroke-linejoin="round"/>
<path d="M78.3856 105.1C78.3856 105.1 80.6246 118.489 80.8675 122.514C81.1105 126.539 81.117 129.574 81.117 129.574L85.4242 150.108L80.7888 150.843C80.7888 150.843 75.3259 139.772 74.2228 138.47C73.1197 137.167 72.5616 134.692 72.9818 131.162C73.402 127.633 73.0606 108.33 73.8879 106.031C74.3541 104.651 75.8577 103.902 77.2497 104.364C77.683 104.508 78.077 104.761 78.3856 105.1Z" fill="white" stroke="#2E3038" stroke-width="0.9508" stroke-linecap="round" stroke-linejoin="round"/>
<path d="M80.2109 149.527L84.8465 148.297" stroke="#2E3038" stroke-width="0.9508" stroke-linecap="round" stroke-linejoin="round"/>
<path d="M51.8918 91.6387C51.8918 91.6387 33.7566 99.1019 32.9293 99.4536C32.102 99.8054 31.5241 99.4536 31.1105 101.095C30.6969 102.736 23.8224 132.016 24.1375 134.334C24.4527 136.653 29.5347 156.763 29.5347 156.763L35.2537 155.78L35.9102 131.553L38.9766 123.83C38.9766 123.83 43.0343 133.931 42.9489 134.758C42.8636 135.584 41.8722 137.467 42.4565 138.534C42.7454 139.115 43.1722 139.623 43.6975 140.013H75.2141C75.2141 140.013 77.1839 139.362 77.2823 138.45C77.2167 137.128 77.0525 135.806 76.7899 134.51C76.7899 134.51 79.6001 123.504 79.6001 115.865C79.6001 108.225 78.6941 101.909 77.4465 100.098C76.199 98.2879 71.7342 96.484 67.6829 95.0903C63.6317 93.6966 60.2305 92.3811 56.5865 92.0554C52.9424 91.7299 51.8918 91.6387 51.8918 91.6387Z" fill="white" stroke="#2E3038" stroke-width="0.9508" stroke-linecap="round" stroke-linejoin="round"/>
<path d="M65.6348 97.7925C65.6348 97.7925 68.4451 110.309 68.4451 117.33C68.4451 124.35 68.6354 132.751 69.0163 134.086C69.3971 135.422 69.9814 137.701 68.6354 139.225" stroke="#2E3038" stroke-width="0.9508" stroke-linecap="round" stroke-linejoin="round"/>
<path d="M38.9766 123.822L44.0258 111.671" stroke="#2E3038" stroke-width="0.9508" stroke-linecap="round" stroke-linejoin="round"/>
<path d="M41.5439 118.242L46.2648 112.328" stroke="#2E3038" stroke-width="0.9508" stroke-linecap="round" stroke-linejoin="round"/>
<path d="M28.957 154.21L35.2538 153.552" stroke="#2E3038" stroke-width="0.9508" stroke-linecap="round" stroke-linejoin="round"/>
<path d="M69.115 93.9375L71.0191 97.9557L66.7119 95.5787L69.115 93.9375Z" fill="white" stroke="#2E3038" stroke-width="0.9508" stroke-linecap="round" stroke-linejoin="round"/>
<path d="M65.6348 97.7927L69.1148 93.9372L65.7202 92.2896L65.6348 97.7927Z" fill="white" stroke="#2E3038" stroke-width="0.9508" stroke-linecap="round" stroke-linejoin="round"/>
<path d="M66.2189 66.5913C66.2189 66.5913 68.4513 69.053 68.4513 69.7889C68.4317 70.3946 68.3791 71.0002 68.2872 71.5994C68.2872 71.5994 72.01 73.4034 71.5701 74.1457C71.1303 74.8881 70.5787 76.2753 70.5787 76.2753C70.5787 76.2753 73.6384 82.9311 73.2051 83.5888C72.7717 84.2466 68.5695 88.2648 67.8275 90.238C67.0856 92.2113 65.5885 97.7925 65.5885 97.7925L51.347 89.9776C51.347 89.9776 53.087 87.1902 53.1723 85.3015C53.2577 83.4129 53.5006 81.9346 53.1723 80.7819C52.8441 79.6292 51.1041 76.6726 50.9334 73.8006C50.7626 70.9286 53.9143 67.5617 58.0574 65.5883C62.2005 63.6151 66.2189 66.5913 66.2189 66.5913Z" fill="white" stroke="#2E3038" stroke-width="0.9508" stroke-linecap="round" stroke-linejoin="round"/>
<path d="M64.2295 78.1641C65.221 79.2842 66.8362 79.6164 68.2019 78.9911" stroke="#2E3038" stroke-width="0.9508" stroke-linecap="round" stroke-linejoin="round"/>
<path d="M66.0742 72.9411C66.2974 73.4165 66.2186 73.918 65.91 74.0548C65.6014 74.1915 65.168 73.931 64.9449 73.4556C64.7216 72.9802 64.807 72.4787 65.1155 72.342C65.4241 72.2052 65.8574 72.4656 66.0742 72.9411Z" fill="#2E3038"/>
<path d="M62.6543 72.5831C63.1402 71.3588 64.4008 70.6163 65.7206 70.7791" stroke="#2E3038" stroke-width="1.9016" stroke-linecap="round" stroke-linejoin="round"/>
<path d="M56.3638 80.222C56.3638 80.222 58.5174 80.222 58.5174 79.0694C58.5174 77.9166 56.8627 75.6242 57.2765 74.4716C57.6901 73.3189 59.673 72.5178 58.931 71.2674C58.189 70.017 56.692 70.0366 57.5259 69.216C58.3598 68.3954 64.4793 69.4634 66.5475 67.2623C68.6158 65.0611 69.4431 61.6811 67.9527 61.0298C66.4622 60.3786 64.5581 62.0132 64.5581 62.0132C64.5581 62.0132 63.5666 59.7143 60.5857 60.5349C57.6047 61.3555 53.4682 64.5596 51.1504 67.7637C48.8326 70.9678 47.9987 72.1141 48.9114 74.2762C49.824 76.4384 52.8049 80.437 53.9606 81.0948C55.1162 81.7525 56.3638 80.222 56.3638 80.222Z" fill="#2E3038" stroke="#2E3038" stroke-width="0.9508" stroke-linecap="round" stroke-linejoin="round"/>
<path d="M57.6896 81.2899C57.6896 81.2899 55.3719 78.0011 53.3823 78.4114C51.3929 78.8217 51.8919 81.7002 53.2182 83.0092C54.5446 84.3182 56.8624 83.4195 57.3548 83.0938C57.3548 83.0938 59.1801 87.4442 60.9989 87.6135C62.8176 87.7828 67.9523 85.5556 67.9523 85.5556" fill="white"/>
<path d="M57.6896 81.2899C57.6896 81.2899 55.3719 78.0011 53.3823 78.4114C51.3929 78.8217 51.8919 81.7002 53.2182 83.0092C54.5446 84.3182 56.8624 83.4195 57.3548 83.0938C57.3548 83.0938 59.1801 87.4442 60.9989 87.6135C62.8176 87.7828 67.9523 85.5556 67.9523 85.5556" stroke="#2E3038" stroke-width="0.9508" stroke-linecap="round" stroke-linejoin="round"/>
<path d="M63.0675 93.3579L65.6348 97.7929L60.6709 95.3311L63.0675 93.3579Z" fill="white" stroke="#2E3038" stroke-width="0.9508" stroke-linecap="round" stroke-linejoin="round"/>
<path d="M51.6431 87.9395L63.0678 93.3578L60.4217 99.766L49.8242 91.8795L51.6431 87.9395Z" fill="white" stroke="#2E3038" stroke-width="0.9508" stroke-linecap="round" stroke-linejoin="round"/>
<path d="M37.7814 166.108H25.9037C25.3981 166.108 24.9844 166.518 24.9844 167.02V171.827C24.9844 172.328 25.3981 172.738 25.9037 172.738H27.2956C26.7901 172.738 26.3764 172.328 26.3764 171.827V168.687C26.3764 168.186 26.7901 167.776 27.2956 167.776H36.3895C36.895 167.776 37.3087 168.186 37.3087 168.687V171.827C37.3087 172.328 36.895 172.738 36.3895 172.738H37.7814C38.2871 172.738 38.7007 172.328 38.7007 171.827V167.02C38.7007 166.512 38.2871 166.108 37.7814 166.108Z" fill="#2E3038" stroke="#2E3038" stroke-width="0.9508" stroke-linecap="round" stroke-linejoin="round"/>
<path d="M29.5349 156.763C29.5349 156.763 27.7949 163.497 28.1233 164.643C28.4515 165.789 29.3708 166.454 29.4365 166.701C29.5612 167.066 29.4233 167.469 29.1016 167.684L28.6879 167.932C28.6879 167.932 28.3596 167.932 28.6092 168.421C28.7076 168.688 28.8915 168.915 29.1344 169.072C29.6794 169.345 30.0143 168.791 30.5067 168.72C30.9991 168.648 31.3078 169.183 31.7739 169.15C32.2401 169.117 32.4896 168.655 32.9427 168.694C33.3958 168.733 33.6912 169.547 34.3478 169.261C34.6301 169.13 34.8337 168.851 35.116 168.707C35.5362 168.492 36.1337 168.551 36.508 168.232C36.81 167.919 36.9938 167.515 37.0333 167.085C37.1843 166.245 35.2342 155.76 35.2342 155.76L29.5349 156.763Z" fill="white" stroke="#2E3038" stroke-width="0.9508" stroke-linecap="round" stroke-linejoin="round"/>
<path d="M13.442 170.647H48.6618C50.1064 170.647 51.2817 171.813 51.2817 173.246V195.44C51.2817 196.873 50.1064 198.039 48.6618 198.039H13.442C11.9976 198.039 10.8223 196.873 10.8223 195.44V173.246C10.8223 171.807 11.9909 170.647 13.442 170.647Z" fill="#184AFB" stroke="#2E3038" stroke-width="1.2223" stroke-miterlimit="10"/>
<path d="M10.9141 173.175L30.0472 186.577C31.111 187.333 32.5357 187.333 33.5994 186.577L51.1765 173.892" stroke="#2E3038" stroke-width="0.9508" stroke-linecap="round" stroke-linejoin="round"/>
<path d="M33.4285 184.773H30.1719V189.312H33.4285V184.773Z" fill="white" stroke="#2E3038" stroke-width="0.9508" stroke-linecap="round" stroke-linejoin="round"/>
</svg>
