<svg width="240" height="240" viewBox="0 0 240 240" fill="none" xmlns="http://www.w3.org/2000/svg">
<g clip-path="url(#clip0_1_5635)">
<path opacity="0.1" d="M1.43961 134.091C1.43961 134.091 9.11536 175.609 48.0465 198.107C86.9711 220.604 135.36 215.238 174.693 211.923C214.025 208.61 240.565 181.913 239.993 147.789C239.421 113.666 208.185 108.404 186.263 72.8087C164.34 37.2196 163.88 24.4852 126.172 6.30451C88.4642 -11.8696 37.2269 10.6813 15.3112 55.0702C-6.60445 99.4593 1.43961 134.091 1.43961 134.091Z" fill="#1F69F8"/>
<path d="M237.501 116.973H137.743C137.559 116.973 137.414 116.828 137.414 116.643V47.624C137.414 47.4392 137.559 47.2939 137.743 47.2939H237.501C237.685 47.2939 237.83 47.4392 237.83 47.624V116.643C237.83 116.828 237.685 116.973 237.501 116.973ZM138.072 116.313H237.172V47.954H138.072V116.313Z" fill="#2E3038"/>
<path d="M227.779 57.572C226.371 57.572 225.227 56.4233 225.227 55.0106C225.227 53.5979 226.371 52.4492 227.779 52.4492C229.186 52.4492 230.331 53.5979 230.331 55.0106C230.331 56.4233 229.193 57.572 227.779 57.572ZM227.779 53.1093C226.733 53.1093 225.884 53.9609 225.884 55.0106C225.884 56.0603 226.733 56.9119 227.779 56.9119C228.824 56.9119 229.673 56.0603 229.673 55.0106C229.673 53.9609 228.824 53.1093 227.779 53.1093Z" fill="#2E3038"/>
<path d="M222.03 55.0106C222.03 56.2451 221.037 57.242 219.807 57.242C218.577 57.242 217.584 56.2451 217.584 55.0106C217.584 53.7761 218.577 52.7793 219.807 52.7793C221.037 52.7793 222.03 53.7827 222.03 55.0106Z" fill="#2E3038"/>
<path d="M214.059 55.0111C214.059 56.2456 213.066 57.2424 211.836 57.2424C210.606 57.2424 209.613 56.2456 209.613 55.0111C209.613 53.7766 210.606 52.7798 211.836 52.7798C213.066 52.7798 214.059 53.7832 214.059 55.0111Z" fill="#2E3038"/>
<path d="M231.015 64.8467C231.015 63.7421 230.12 62.8467 229.015 62.8467H146.734C145.63 62.8467 144.734 63.7421 144.734 64.8467V108.847C144.734 109.951 145.63 110.847 146.734 110.847H229.015C230.12 110.847 231.015 109.951 231.015 108.847V64.8467Z" fill="#184AFB"/>
<path d="M192.426 102.179H192.328C182.692 101.968 175.049 93.9535 175.26 84.2822C175.464 74.8684 183.04 67.303 192.42 67.1445H192.526C202.168 67.1709 209.962 75.04 209.929 84.7179C209.903 94.3958 202.063 102.219 192.426 102.186V102.179ZM192.426 67.7981C183.152 67.9565 175.76 75.6275 175.911 84.9424C176.062 93.9931 183.31 101.314 192.334 101.512H192.434C201.714 101.539 209.251 94.0129 209.278 84.698C209.304 75.3833 201.806 67.8179 192.526 67.7915L192.426 67.7981Z" fill="white"/>
<path d="M188.486 78L188.398 91.2L200.398 84.6054L188.486 78Z" fill="white"/>
<path d="M29.4935 114.439C29.4278 116.491 28.1057 118.34 28.0596 120.38C28.0202 122.295 29.0989 124.037 29.4672 125.912C29.8618 127.931 29.4672 130.005 29.7237 132.031C29.9013 133.339 30.2631 134.612 30.7826 135.828C31.1641 136.785 31.789 137.616 32.598 138.25C33.9135 139.227 35.788 139.188 37.3731 139.188C39.0109 139.28 40.6354 138.818 41.9773 137.868C42.9836 136.956 43.7992 135.854 44.3714 134.619C44.9963 133.669 45.3843 132.579 45.4962 131.444C45.4895 130.803 45.3514 130.17 45.1015 129.575C43.7861 126.334 40.4973 124.024 39.9449 120.577C39.7081 119.105 40.0106 117.607 40.1422 116.128C40.2738 114.65 40.1882 113.032 39.2937 111.837C37.8138 109.857 34.3475 109.441 32.0586 109.447C28.7174 109.455 29.579 111.989 29.4935 114.439Z" fill="white"/>
<path d="M36.9848 139.524C35.4457 139.524 33.7422 139.478 32.4399 138.528C31.5783 137.86 30.9139 136.976 30.5127 135.966C29.98 134.725 29.6182 133.424 29.4341 132.084C29.3288 131.133 29.2959 130.176 29.3419 129.226C29.4012 128.143 29.3419 127.054 29.1775 125.985C29.013 125.265 28.7895 124.559 28.5198 123.872C27.4937 121.793 27.4806 119.357 28.4803 117.27C28.8618 116.366 29.092 115.402 29.1775 114.425C29.1775 113.976 29.1775 113.521 29.1775 113.105C29.1315 111.837 29.0855 110.642 29.8353 109.877C30.4536 109.328 31.2757 109.058 32.0979 109.131C34.2158 109.131 37.9582 109.441 39.6092 111.653C40.4116 112.721 40.7009 114.154 40.5234 116.168C40.4905 116.538 40.451 116.907 40.405 117.27C40.2275 118.353 40.2011 119.449 40.3195 120.538C40.622 122.42 41.7797 123.945 43.0096 125.555C43.9962 126.744 44.8184 128.058 45.4564 129.463C45.7195 130.09 45.8641 130.764 45.8774 131.443C45.7589 132.626 45.3643 133.755 44.7132 134.745C44.108 136.012 43.2662 137.154 42.2335 138.098C40.8392 139.102 39.1422 139.597 37.4255 139.498H36.9848V139.524ZM29.855 114.439C29.7695 115.481 29.5262 116.511 29.1249 117.482C28.1712 119.423 28.1843 121.707 29.1644 123.634C29.4406 124.354 29.6576 125.093 29.8221 125.846C29.9996 126.961 30.0589 128.097 29.9996 129.226C29.9536 130.143 29.9865 131.068 30.0852 131.986C30.2628 133.259 30.6114 134.507 31.1178 135.689C31.473 136.593 32.065 137.386 32.8279 137.979C34.025 138.85 35.722 138.85 37.215 138.85H37.4057C38.9712 138.95 40.5234 138.501 41.806 137.59C42.7728 136.699 43.5556 135.629 44.1146 134.434C44.7132 133.53 45.0815 132.493 45.1999 131.418C45.1868 130.817 45.0618 130.223 44.825 129.674C44.2133 128.321 43.4174 127.06 42.4637 125.924C41.2469 124.314 39.984 122.625 39.6487 120.643C39.5171 119.495 39.55 118.34 39.7341 117.198C39.7736 116.835 39.8197 116.471 39.8459 116.108C40.0103 114.267 39.7604 112.979 39.0633 112.049C37.5308 109.996 33.6633 109.81 32.0781 109.791C31.4335 109.724 30.7889 109.923 30.2891 110.332C29.7563 110.893 29.7892 111.903 29.8353 113.078C29.8353 113.533 29.8747 114.002 29.8353 114.472L29.855 114.439Z" fill="#2E3038"/>
<path d="M33.7617 138.824L35.9585 156.325C35.9585 156.325 48.3766 153.261 52.0402 148.343L44.9959 132.79" fill="white"/>
<path d="M35.9587 156.655C35.8929 156.655 35.8272 156.635 35.768 156.596C35.6891 156.543 35.643 156.457 35.6299 156.365L33.433 138.864C33.4068 138.686 33.5383 138.521 33.7159 138.495C33.8935 138.468 34.0579 138.587 34.0842 138.765C34.0842 138.772 34.0842 138.778 34.0842 138.785L36.235 155.909C38.2674 155.368 48.3241 152.516 51.6589 148.297L44.6935 132.929C44.6211 132.765 44.6935 132.566 44.8579 132.487C45.0223 132.414 45.2196 132.487 45.2919 132.652L52.3429 148.205C52.3889 148.318 52.3758 148.443 52.3034 148.542C48.6136 153.494 36.5179 156.516 36.0311 156.643L35.9587 156.655Z" fill="#2E3038"/>
<path d="M56.4062 149.552L60.3526 158.398L100.961 134.434L108.677 124.103L113.991 137.075L103.138 162.583C94.6665 168.532 85.7608 173.832 76.4934 178.427C72.0734 180.685 67.5416 182.711 62.9112 184.487C58.4846 186.151 53.8739 187.287 49.3093 188.507C49.0002 188.62 48.6582 188.62 48.349 188.507C48.1451 188.402 48.0596 188.151 47.8754 187.999C44.5341 185.299 36.1546 161.23 35.293 153.566L56.4062 149.552Z" fill="#2E3038"/>
<path d="M165.643 114.517L184.428 141.327C189.051 147.922 189.466 156.602 185.499 163.614C178.264 176.421 166.695 195.961 160.664 201.612C160.664 201.612 163.478 207.395 163.051 209.533C162.624 211.673 158.651 212.108 158.651 212.108L164.761 222.631C164.761 222.631 131.618 252.041 84.998 213.838L94.6996 179.708L89.5628 176.024L110.169 106.938L131.348 104.654L137.788 121.766L144.74 113.514L151.718 121.766L165.643 114.517Z" fill="#2E3038"/>
<path d="M75.8183 144.119C95.7501 144.119 111.908 127.901 111.908 107.897C111.908 87.8908 95.7501 71.6733 75.8183 71.6733C55.8864 71.6733 39.7285 87.8908 39.7285 107.897C39.7285 127.901 55.8864 144.119 75.8183 144.119Z" fill="#184AFB"/>
<path d="M102.238 156.662C102.238 156.662 95.2984 171.126 90.076 172.704L82.2622 162.689L75.6849 154.253L74.0076 152.172L73.9682 152.107L66.9371 139.373L66.1477 137.94L65.911 136.897L65.3519 134.441L65.3125 134.262L65.4111 133.966L66.7265 130.289L69.0747 127.582V127.482L69.9232 123.139L70.0153 122.67L72.2515 121.284C72.2515 121.284 72.2515 121.284 72.2515 121.251C72.0936 120.829 70.4428 116.108 71.7319 113.362C72.0016 112.748 72.462 112.24 73.0474 111.909C73.3039 111.765 73.5802 111.646 73.8695 111.567C73.9222 111.454 73.9945 111.355 74.0801 111.263C74.2839 111.032 74.6391 110.853 75.0535 111.441C75.2443 111.731 75.3955 112.049 75.5007 112.385C75.5731 112.563 75.6454 112.774 75.7177 113.006C75.7177 113.111 75.777 113.217 75.8099 113.33C75.8428 113.441 75.8822 113.567 75.9216 113.692C76.0006 113.957 76.0861 114.22 76.1717 114.484C77.3818 118.261 79.6444 124.677 79.8154 125.139L85.2812 126.949L85.9389 127.16L86.2612 128.044L88.1687 133.286L88.2936 133.629L88.3528 134.051L89.5631 144.099L89.6091 144.145L99.9289 154.371L102.238 156.662Z" fill="white"/>
<path d="M102.85 157.467C102.765 157.467 102.686 157.434 102.626 157.375C93.3787 148.701 89.3468 144.377 89.3073 144.337C89.2613 144.283 89.2284 144.218 89.2219 144.145L88.6036 137.788C88.3471 135.457 87.8735 133.161 87.1829 130.922C86.8541 129.575 86.1699 128.348 85.2097 127.351C84.1376 126.341 82.7826 126.09 81.3422 125.819C80.8095 125.721 80.2569 125.621 79.7177 125.477C79.5466 125.43 79.4414 125.258 79.4874 125.08V125.073C79.5334 124.895 79.711 124.79 79.8887 124.836C80.4017 124.975 80.9411 125.073 81.4672 125.172C82.934 125.443 84.4467 125.727 85.6636 126.875C86.7027 127.952 87.4394 129.278 87.8011 130.731C88.505 133.015 88.9916 135.359 89.2548 137.735L89.8665 143.98C90.4584 144.607 94.5363 148.892 103.074 156.906C103.205 157.031 103.218 157.236 103.093 157.375C103.028 157.447 102.942 157.48 102.85 157.48V157.467Z" fill="#2E3038"/>
<path d="M69.8713 132.21C69.7266 132.21 69.6016 132.111 69.5556 131.972C69.1149 130.514 68.8452 129.008 68.7531 127.484C68.6217 125.952 68.9176 124.413 69.6016 123.041L69.6543 122.941C70.187 122.162 70.996 121.608 71.9169 121.397C72.101 121.35 72.2852 121.456 72.3378 121.635C72.3839 121.819 72.2787 122.004 72.0944 122.057C71.3315 122.222 70.6606 122.677 70.2133 123.324L70.1673 123.404C69.5491 124.665 69.2859 126.077 69.4109 127.476C69.5029 128.948 69.7661 130.401 70.1937 131.814C70.2397 131.992 70.141 132.17 69.9634 132.224L69.8713 132.21Z" fill="#2E3038"/>
<path d="M89.5639 171.853C89.4652 171.853 89.3731 171.806 89.3073 171.734L73.7519 152.377L73.7125 152.318C71.1079 148.186 68.7466 143.908 66.6353 139.498C66.2012 138.554 65.8592 137.735 65.5961 136.996C65.3528 136.349 65.1489 135.689 64.9844 135.016C64.9844 134.983 64.9844 134.956 64.9844 134.923C64.9844 134.745 64.9844 134.567 65.0239 134.382C65.0633 134.196 65.0239 134.058 65.0897 133.893C65.2936 132.56 65.7408 131.279 66.4051 130.11C66.9971 128.995 67.8389 128.031 68.865 127.291C69.0163 127.193 69.2202 127.238 69.3189 127.391C69.4175 127.535 69.378 127.74 69.2334 127.84C69.2268 127.84 69.2268 127.846 69.2202 127.846C68.2862 128.533 67.5232 129.417 66.9773 130.44C66.346 131.543 65.9184 132.751 65.721 134.005C65.6948 134.157 65.675 134.309 65.6619 134.461C65.6421 134.612 65.629 134.758 65.6224 134.91C65.7737 135.543 65.971 136.164 66.2012 136.771C66.4577 137.491 66.7932 138.296 67.2207 139.221C69.3122 143.584 71.6538 147.823 74.2255 151.915C74.2453 151.936 74.2584 151.962 74.2715 151.988L89.8072 171.318C89.919 171.456 89.8993 171.667 89.7612 171.779C89.7085 171.826 89.6362 171.853 89.5639 171.853Z" fill="#2E3038"/>
<path d="M105.388 155.223C104.539 157.605 103.415 159.877 102.033 161.996C97.0609 169.871 89.6877 178.236 89.6877 178.236C84.9849 173.924 78.4668 163.936 78.4668 163.936C81.6962 161.956 86.8661 156.193 89.7732 152.502C92.562 148.958 94.5812 145.94 94.5812 145.94L105.388 155.223Z" fill="white"/>
<path d="M89.675 178.566C89.5894 178.566 89.5105 178.533 89.4513 178.48C84.7748 174.189 78.2698 164.221 78.1777 164.114C78.1252 164.042 78.1121 163.95 78.1317 163.864C78.1515 163.778 78.2041 163.699 78.2764 163.653C81.5651 161.633 86.7809 155.731 89.504 152.299C92.227 148.865 94.2725 145.789 94.2922 145.763C94.3448 145.683 94.4304 145.63 94.5225 145.617C94.6145 145.604 94.7066 145.63 94.7789 145.69L105.592 154.972C105.691 155.064 105.73 155.202 105.691 155.335C104.829 157.738 103.691 160.028 102.297 162.161C97.3704 169.971 89.9907 178.361 89.9183 178.44C89.8591 178.506 89.7736 178.545 89.6881 178.553L89.675 178.566ZM78.9079 164.042C79.9799 165.653 85.4852 173.839 89.6486 177.766C90.918 176.308 97.3244 168.829 101.744 161.824C103.066 159.791 104.158 157.613 104.993 155.335L94.6343 146.442C94.0423 147.301 92.2796 149.849 90.0301 152.714C87.3466 156.1 82.2623 161.818 78.9079 164.036V164.042Z" fill="#2E3038"/>
<path d="M29.4541 112.293C29.3818 111.302 29.362 110.128 29.6909 109.725C30.046 109.342 30.4736 109.039 30.9471 108.827C35.4526 106.47 39.9646 104.114 44.6214 102.054C45.0291 101.876 45.5422 101.704 45.904 101.975C46.1802 102.252 46.292 102.655 46.1934 103.038C45.9698 104.233 45.3909 105.335 44.5425 106.207C43.3915 107.513 42.0168 108.61 40.4909 109.448C39.9712 109.705 39.4648 109.996 38.978 110.32C38.3598 110.814 37.7876 111.362 37.2679 111.956C36.8536 112.379 36.4129 112.768 35.9525 113.139" fill="white"/>
<path d="M35.9569 113.468C35.8582 113.468 35.7595 113.422 35.7004 113.342C35.5885 113.203 35.6083 113 35.7464 112.887L35.753 112.881C36.2002 112.524 36.6278 112.135 37.0289 111.725C37.167 111.586 37.2986 111.448 37.4236 111.309C37.838 110.847 38.2918 110.425 38.7851 110.048C39.16 109.791 39.5546 109.56 39.9624 109.355L40.3308 109.156C41.8239 108.338 43.1591 107.262 44.2771 105.982C45.0927 105.17 45.6386 104.127 45.8558 102.998C45.8558 102.826 45.9018 102.404 45.6848 102.239C45.4676 102.073 45.0269 102.239 44.7376 102.357C40.094 104.41 35.5294 106.807 31.083 109.124C30.649 109.309 30.2543 109.586 29.9321 109.929C29.8202 110.068 29.6492 110.589 29.7676 112.273C29.7807 112.457 29.6426 112.616 29.465 112.629C29.2875 112.643 29.123 112.504 29.1099 112.326C29.0047 110.788 29.1099 109.923 29.419 109.52C29.8005 109.104 30.2675 108.774 30.7805 108.543C35.2201 106.22 39.8046 103.823 44.4679 101.763C44.9612 101.453 45.5795 101.433 46.0859 101.717C46.4608 102.06 46.6253 102.588 46.5069 103.084C46.2832 104.351 45.6715 105.519 44.7705 106.431C43.5931 107.764 42.1921 108.879 40.6333 109.732L40.2584 109.929C39.3442 110.359 38.5418 110.985 37.8906 111.758C37.7591 111.903 37.6209 112.042 37.4894 112.18C37.075 112.61 36.6343 113.012 36.1739 113.389C36.1147 113.435 36.0358 113.468 35.9569 113.468Z" fill="#2E3038"/>
<path d="M33.3672 112.339C33.6894 112.18 34.0249 112.042 34.3669 111.936C37.6555 110.94 41.2402 111.177 44.5617 110.24C46.2389 109.765 47.8504 108.986 49.6263 108.998C50.1525 108.998 50.8694 109.216 50.8102 109.876C50.7511 110.536 50.2972 110.801 49.9486 111.196C49.5671 111.666 49.1527 112.102 48.7121 112.518C47.7912 113.33 46.7454 113.976 45.6141 114.431C43.95 115.006 42.2334 115.415 40.4838 115.653C38.8 115.977 37.1952 116.498 35.5443 116.973C35.1365 117.092 34.7221 117.198 34.3011 117.283" fill="white"/>
<path d="M34.3007 117.627C34.1428 117.627 34.0113 117.514 33.9784 117.363C33.9389 117.184 34.0574 117.012 34.2349 116.973C34.6033 116.9 34.9913 116.801 35.4517 116.67L36.4515 116.379C37.7473 115.969 39.0627 115.62 40.3979 115.343L41.5226 115.138C42.871 114.953 44.193 114.616 45.469 114.14C46.5674 113.699 47.5803 113.072 48.4748 112.286C48.7906 111.995 49.0865 111.678 49.3562 111.348L49.6851 110.972C49.7508 110.893 49.8297 110.814 49.9021 110.741C50.185 110.51 50.3822 110.2 50.4612 109.843C50.4743 109.744 50.4414 109.652 50.3822 109.572C50.1586 109.394 49.8824 109.308 49.5995 109.328C48.3762 109.388 47.1791 109.652 46.0412 110.107C45.5743 110.266 45.1007 110.425 44.6271 110.556C42.9762 110.972 41.299 111.249 39.602 111.382C37.859 111.507 36.1357 111.804 34.4454 112.253C34.1165 112.352 33.8008 112.477 33.4917 112.636C33.3272 112.715 33.13 112.656 33.051 112.49C32.9721 112.326 33.0379 112.127 33.1957 112.042C33.5377 111.877 33.8929 111.731 34.2546 111.619C35.9779 111.157 37.7406 110.854 39.5165 110.722C41.174 110.596 42.8249 110.325 44.4363 109.923C44.9033 109.79 45.3572 109.638 45.8176 109.48C47.0212 109.005 48.2972 108.728 49.593 108.668C50.06 108.648 50.5138 108.814 50.8558 109.13C51.0466 109.342 51.132 109.619 51.0992 109.903C51.0203 110.417 50.7571 110.886 50.3625 111.223L50.1586 111.434L49.843 111.804C49.5535 112.16 49.2378 112.49 48.9024 112.807C47.9552 113.639 46.8766 114.312 45.7057 114.788C44.3838 115.276 43.0157 115.62 41.6213 115.817L40.5096 116.022C39.1942 116.28 37.8787 116.682 36.6027 117.045L35.603 117.336C35.1294 117.475 34.7151 117.574 34.3336 117.653L34.3007 117.627Z" fill="#2E3038"/>
<path d="M32.7344 116.981C33.4053 116.439 34.188 116.05 35.0234 115.851C36.6085 115.626 38.2199 115.626 39.8051 115.851C42.5872 116.075 45.3892 116.05 48.1714 115.779C48.6187 115.693 49.0791 115.693 49.5263 115.779C52.1112 116.512 48.6253 119.033 47.6518 119.456C43.8172 121.126 39.2788 121.205 35.1549 121.106" fill="white"/>
<path d="M37.2151 121.515C36.5573 121.515 35.8404 121.515 35.1629 121.515C34.9788 121.508 34.834 121.363 34.8407 121.178C34.8472 121 34.9985 120.855 35.176 120.855C39.4053 120.961 43.8319 120.855 47.5218 119.231C48.3045 118.894 50.1527 117.468 50.1527 116.703C50.1527 116.478 49.9092 116.3 49.462 116.174C49.0608 116.102 48.653 116.102 48.2518 116.174C45.4433 116.452 42.615 116.478 39.8 116.254L39.1422 116.201C37.7939 116.01 36.4258 116.01 35.0775 116.201C34.2948 116.393 33.5581 116.756 32.9267 117.264C32.7819 117.375 32.578 117.35 32.4662 117.205C32.3544 117.059 32.3808 116.854 32.5189 116.742C33.2292 116.168 34.058 115.765 34.9459 115.554C36.3534 115.343 37.7873 115.329 39.2014 115.514L39.8196 115.567C42.5887 115.785 45.3643 115.765 48.1268 115.495C48.6202 115.415 49.12 115.428 49.6068 115.54C50.5342 115.805 50.7577 116.293 50.7775 116.656C50.8696 117.976 48.3176 119.601 47.7651 119.838C44.575 121.231 40.8786 121.515 37.2151 121.515Z" fill="#2E3038"/>
<path d="M37.543 121.37C37.543 121.37 43.0153 128.632 39.0295 135.557L37.543 121.37Z" fill="white"/>
<path d="M39.0293 135.887C38.9701 135.887 38.9174 135.873 38.8649 135.847C38.707 135.755 38.6544 135.55 38.7399 135.392C42.5744 128.718 37.3323 121.641 37.2797 121.575C37.1679 121.43 37.1942 121.218 37.3455 121.106C37.4968 120.993 37.7007 121.02 37.8125 121.172C37.8652 121.245 43.3704 128.658 39.3187 135.695C39.2595 135.808 39.1542 135.88 39.0293 135.887Z" fill="#2E3038"/>
<path d="M58.1762 152.16C58.1762 152.16 56.0123 155.692 49.1521 158.438C44.9229 160.049 40.4766 161.032 35.958 161.342L33.9453 147.149C33.9453 147.149 38.3521 147.947 44.7651 145.214C47.1723 144.178 49.4481 142.865 51.5528 141.3L58.1762 152.16Z" fill="white"/>
<path d="M35.9591 161.672C35.7948 161.672 35.6567 161.554 35.6369 161.389L33.6242 147.195C33.6045 147.09 33.644 146.984 33.7163 146.911C33.7952 146.839 33.9005 146.813 34.0057 146.825C34.0451 146.825 38.3994 147.565 44.6412 144.911C47.0222 143.881 49.2717 142.581 51.3567 141.036C51.4356 140.983 51.5277 140.957 51.6198 140.976C51.7118 140.996 51.7842 141.05 51.8368 141.128L58.4537 151.988C58.5193 152.094 58.5193 152.232 58.4537 152.338C58.3616 152.483 56.1581 155.989 49.2782 158.741C45.0161 160.365 40.537 161.349 35.9855 161.672H35.9591ZM34.3544 147.532L36.2617 160.986C40.6422 160.656 44.9503 159.692 49.0547 158.134C54.8821 155.797 57.2828 152.853 57.8025 152.153L51.4554 141.782C49.4098 143.268 47.1998 144.521 44.878 145.519C39.5503 147.795 35.6171 147.637 34.3544 147.532Z" fill="#2E3038"/>
<path d="M159.047 78.2155C159.047 78.2155 160.651 79.0209 162.249 76.2879C163.848 73.5548 165.242 66.0686 161.724 65.4283C156.968 63.1045 155.363 66.478 155.363 66.478L152.476 56.0276C152.476 56.0276 151.68 46.3761 145.589 47.1815C139.499 47.9869 135.973 54.7403 135.973 54.7403L119.47 55.4005L118.99 64.7285C118.99 64.7285 116.268 62.8009 115.465 65.2104C114.662 67.62 114.662 75.6673 121.384 78.2353C121.384 78.2353 124.016 90.2172 132.08 96.7725L136.025 97.0036L135.151 106.384C137.006 110.273 140.367 113.236 144.445 114.583C151.18 116.676 157.402 103.52 157.402 103.52C157.402 103.52 157.56 87.2134 159.047 78.2155Z" fill="white"/>
<path d="M120.872 77.8522H120.792C117.721 77.1326 115.603 74.8088 114.873 71.2967C114.176 68.0818 114.801 64.5763 115.774 63.8172C116.109 63.5465 116.544 63.4409 116.965 63.5267C118.432 63.7776 119.872 65.9891 119.931 66.0815C120.03 66.2334 119.991 66.438 119.839 66.5436C119.688 66.6427 119.484 66.6031 119.378 66.4446C119.01 65.8703 117.833 64.3453 116.853 64.1737C116.622 64.1341 116.379 64.1935 116.195 64.3387C115.537 64.8404 114.84 67.9894 115.537 71.1581C116.037 73.4555 117.386 76.3667 120.996 77.2118C121.174 77.2514 121.28 77.4297 121.24 77.6079C121.201 77.7729 121.043 77.8852 120.872 77.8522Z" fill="#2E3038"/>
<path d="M165.387 116.34C165.387 116.36 165.387 116.379 165.387 116.399C163.946 118.314 162.347 120.108 160.618 121.766C160.355 122.023 160.079 122.275 159.809 122.519C156.185 125.873 152.133 128.737 147.766 131.035L147.667 131.094L144.754 113.507C148.93 111.091 152.64 107.949 155.718 104.226L155.928 104.002C156.383 103.5 157.158 102.786 157.395 102.417C158.198 101.169 158.053 101.704 158.053 101.704L157.527 99.2018L157.25 97.9277L157.546 98.0664C165.406 103.79 165.565 115.323 165.387 116.34Z" fill="white"/>
<path d="M147.654 131.437C147.601 131.437 147.555 131.424 147.509 131.398C147.417 131.352 147.345 131.266 147.331 131.16L144.411 113.574C144.398 113.467 144.431 113.369 144.503 113.29C144.55 113.25 144.609 113.217 144.668 113.19C148.423 110.636 151.916 107.698 155.086 104.437L155.823 103.645C156.796 102.648 157.71 101.598 158.559 100.489C158.664 100.337 158.868 100.304 159.019 100.41C159.171 100.516 159.203 100.72 159.099 100.872C158.23 102.001 157.297 103.077 156.303 104.094L155.566 104.886C152.377 108.167 148.877 111.118 145.102 113.692L147.897 130.573C151.975 128.077 155.883 125.311 159.585 122.281C159.861 122.057 160.131 121.819 160.394 121.588C162.756 119.515 164.34 117.726 165.077 116.253C165.347 115.171 164.301 104.192 157.618 98.4296C157.481 98.3107 157.467 98.0995 157.585 97.9675C157.704 97.8288 157.914 97.8156 158.046 97.9278C165.071 103.962 166.005 115.218 165.708 116.413C165.708 116.413 165.708 116.491 165.708 116.498C164.899 118.09 163.275 119.951 160.854 122.076C160.591 122.314 160.309 122.551 160.032 122.783C156.204 125.905 152.173 128.763 147.95 131.325C147.911 131.352 147.87 131.371 147.831 131.391C147.778 131.424 147.719 131.444 147.654 131.437Z" fill="#2E3038"/>
<path d="M144.741 113.521L137 131.133C137 131.133 128.844 120.175 128.607 111.058C129.791 106.14 131.067 103.4 136.125 100.423L135.553 103.968C135.553 103.968 136.487 112.346 144.741 113.521Z" fill="white"/>
<path d="M136.999 131.437C136.894 131.437 136.788 131.384 136.729 131.292C136.657 131.187 129.185 120.142 128.284 111.065C128.278 111.032 128.278 111.005 128.284 110.972C129.955 101.915 135.565 100.41 135.802 100.357C135.979 100.317 136.157 100.423 136.203 100.601C136.249 100.773 136.144 100.951 135.973 100.997H135.966C135.907 100.997 130.54 102.476 128.942 111.045C129.737 118.861 135.519 128.209 136.947 130.42L144.333 113.64C140.504 110.722 137.249 107.13 134.716 103.031C134.618 102.879 134.664 102.674 134.822 102.575C134.98 102.483 135.177 102.529 135.276 102.681C137.795 106.78 141.07 110.365 144.925 113.244C145.056 113.336 145.109 113.507 145.043 113.652L137.302 131.232C137.255 131.345 137.151 131.417 137.032 131.431L136.999 131.437Z" fill="#2E3038"/>
<path d="M135.644 104.12H135.552C135.38 104.074 135.276 103.889 135.321 103.717C135.848 101.532 135.985 99.268 135.723 97.0366C135.697 96.8583 135.828 96.6933 136.005 96.667C136.183 96.6405 136.347 96.7726 136.373 96.9508C136.657 99.268 136.512 101.618 135.959 103.889C135.92 104.028 135.789 104.12 135.644 104.12Z" fill="#2E3038"/>
<path d="M157.705 102.41C157.534 102.41 157.389 102.272 157.376 102.1C156.645 86.87 159.021 78.09 159.046 78.0041C159.099 77.8325 159.276 77.7269 159.454 77.7731C159.632 77.8259 159.73 78.0041 159.677 78.1823C159.677 78.2682 157.31 86.9559 158.026 102.067C158.04 102.245 157.902 102.397 157.724 102.41H157.718H157.705Z" fill="#2E3038"/>
<path d="M132.902 80.0504C132.507 80.0438 132.112 79.9844 131.724 79.8854C130.639 79.6279 129.337 79.1856 128.89 78.0106C128.614 77.0467 128.837 76.0103 129.475 75.2445C129.705 74.921 129.962 74.6239 130.212 74.3335C130.534 73.9902 130.831 73.6139 131.087 73.2178C132.132 71.5145 131.836 69.3493 131.409 67.0981C131.376 66.9199 131.495 66.7482 131.672 66.7086C131.849 66.6756 132.02 66.7945 132.053 66.9727C132.488 69.2634 132.817 71.6598 131.646 73.5743C131.369 74.0034 131.054 74.406 130.712 74.7824C130.461 75.053 130.225 75.3435 130.008 75.6406C129.521 76.2413 129.337 77.0335 129.508 77.7861C129.844 78.6707 130.948 79.0338 131.875 79.2516C132.461 79.4695 133.105 79.4563 133.678 79.212C133.829 79.113 134.033 79.1658 134.132 79.3176C134.231 79.4695 134.178 79.6741 134.027 79.7731C133.685 79.9712 133.297 80.0636 132.902 80.0504Z" fill="#2E3038"/>
<path d="M128.639 68.2537C128.699 69.4883 128.206 70.5115 127.542 70.5379C126.876 70.5643 126.298 69.5939 126.226 68.3593C126.153 67.1249 126.66 66.1017 127.324 66.0687C127.988 66.0357 128.587 67.0193 128.639 68.2537Z" fill="#2E3038"/>
<path d="M142.164 67.9301C142.223 69.1645 141.729 70.1878 141.065 70.2142C140.401 70.2406 139.821 69.2702 139.749 68.0357C139.677 66.8013 140.184 65.7779 140.848 65.7449C141.512 65.7119 142.111 66.6956 142.164 67.9301Z" fill="#2E3038"/>
<path d="M135.994 84.9229C134.778 84.9492 133.573 84.6984 132.469 84.1967C132.318 84.0977 132.278 83.8864 132.383 83.7412C132.383 83.7412 132.383 83.7412 132.383 83.7346C132.482 83.5828 132.679 83.5432 132.831 83.6422C132.831 83.6422 132.837 83.6422 132.837 83.6488C134.349 84.2628 136.008 84.4211 137.606 84.1043C139.473 83.7148 141.091 82.5661 142.084 80.9356C142.19 80.7837 142.387 80.7441 142.546 80.8366C142.697 80.9422 142.736 81.1468 142.638 81.2987C141.545 83.0876 139.763 84.3419 137.718 84.7512C137.152 84.8701 136.572 84.9295 135.994 84.9229Z" fill="#2E3038"/>
<path d="M136.231 61.3287C136.125 61.3287 136.033 61.2759 135.967 61.1967C135.855 61.0515 135.888 60.8468 136.033 60.7346C138.907 58.6155 140.874 58.5362 143.834 60.4111C143.985 60.5101 144.031 60.7082 143.939 60.8666C143.841 61.0185 143.637 61.0647 143.486 60.9656C140.742 59.2294 139.091 59.3021 136.427 61.2627C136.376 61.3089 136.303 61.3287 136.231 61.3287Z" fill="#2E3038"/>
<path d="M124.127 62.5102C124.047 62.5102 123.969 62.4839 123.91 62.431C123.771 62.3189 123.752 62.1141 123.863 61.9755L123.87 61.9689C125.416 60.2327 127.994 59.8895 129.935 61.1635C130.079 61.2692 130.119 61.4738 130.013 61.6256C129.909 61.7709 129.704 61.8039 129.56 61.7049C127.909 60.6091 125.706 60.8929 124.376 62.365C124.325 62.4509 124.232 62.5036 124.127 62.5102Z" fill="#2E3038"/>
<path d="M134.052 97.1949C133.382 97.2015 132.704 97.1619 132.039 97.076C131.987 97.0694 131.935 97.0496 131.888 97.0166C131.711 96.8714 127.449 93.5309 124.042 86.5928C118.24 74.7957 119.352 57.7438 119.365 57.5458C119.378 57.361 119.536 57.229 119.721 57.2421C119.905 57.2554 120.036 57.4138 120.023 57.5986C120.023 57.7703 118.912 74.6439 124.627 86.2824C126.449 90.1377 129.034 93.5904 132.223 96.4159C134.526 96.6337 136.841 96.462 139.084 95.9009C143.34 94.8645 147.371 91.5175 150.015 88.8967C150.141 88.7713 150.344 88.7647 150.469 88.89C150.469 88.89 150.469 88.89 150.476 88.8967C150.601 89.0155 150.607 89.2201 150.489 89.3455C150.483 89.3521 150.483 89.3522 150.476 89.3588C147.779 92.039 143.642 95.4586 139.242 96.5413C137.545 96.9572 135.802 97.1816 134.052 97.1949Z" fill="#2E3038"/>
<path d="M150.245 89.4843C150.186 89.4843 150.133 89.471 150.08 89.4446C149.922 89.3523 149.869 89.1541 149.955 88.9957C153.211 83.1401 153.902 79.397 153.935 79.364C153.967 79.1791 154.138 79.0604 154.323 79.0934C154.507 79.1264 154.625 79.298 154.592 79.4829C154.559 79.6347 153.849 83.3579 150.534 89.3126C150.482 89.4183 150.37 89.4843 150.245 89.4843Z" fill="#2E3038"/>
<path d="M158.993 78.4398C157.125 78.4398 156.488 77.311 156.455 77.2515C156.369 77.0931 156.428 76.8885 156.586 76.8027C156.745 76.7168 156.948 76.7763 157.033 76.9347C157.033 76.9875 157.803 78.222 160.263 77.5949C161.789 77.212 163.585 73.02 163.637 69.7192C163.637 68.4517 163.42 66.2402 161.663 65.7582C157.586 64.603 155.442 70.6236 155.422 70.683C155.362 70.8547 155.172 70.9471 155.001 70.8877C154.83 70.8282 154.745 70.6368 154.804 70.4651C154.804 70.3991 157.172 63.8042 161.841 65.1179C163.473 65.58 164.354 67.2238 164.321 69.739C164.268 73.1388 162.473 77.7335 160.447 78.2418C159.973 78.3738 159.487 78.4398 158.993 78.4398Z" fill="#2E3038"/>
<path d="M156.034 69.2309C155.534 70.2937 153.588 69.3563 152.871 68.4254C152.14 67.4485 152.14 66.1017 152.871 65.1247C151.351 64.6824 149.641 63.9958 148.983 62.5501C148.707 61.8173 148.609 61.025 148.701 60.2461C148.838 58.127 149.358 56.0145 149.141 53.902C148.924 51.7895 147.622 49.578 145.536 49.1885C145.536 49.1885 138.301 62.187 124.653 56.9387C124.653 56.9387 118.569 59.8566 115.8 54.8592C113.032 49.8618 116.767 44.5806 124.515 41.2468C124.515 41.2468 119.674 41.1081 119.813 38.6061C119.95 36.1041 131.698 35.411 140.005 37.2396C140.005 37.2396 139.025 32.8628 149.265 34.1105C159.507 35.3582 162.821 38.2563 164.078 45.4322C171.582 49.5384 163.15 66.4648 163.15 66.4648C163.15 66.4648 159.184 62.4775 156.034 69.2309Z" fill="#2E3038"/>
<path d="M118.654 55.0967C117.102 57.8297 116.819 61.104 117.885 64.0616L119.996 67.3623L119.667 56.1396L118.654 55.0967Z" fill="#2E3038"/>
<path d="M163.426 46.7655C163.394 46.7722 163.361 46.7722 163.328 46.7655C163.157 46.7062 163.058 46.5213 163.118 46.3497C165.906 37.7676 159.953 33.8067 159.697 33.6152C159.546 33.5096 159.506 33.305 159.605 33.1531C159.704 33.0012 159.908 32.9616 160.059 33.0607C160.125 33.1002 166.689 37.5101 163.743 46.5543C163.696 46.6863 163.565 46.7722 163.426 46.7655Z" fill="#2E3038"/>
<path d="M69.7293 98.3999L69.6016 117.6L87.0561 108.008L69.7293 98.3999Z" fill="white"/>
<path d="M81.9737 131.008C81.8422 131.008 81.7238 130.922 81.6712 130.803C80.974 129.094 80.2636 127.284 79.5072 125.271C79.2375 124.578 78.9745 123.872 78.7179 123.171C77.6459 120.274 76.7448 117.349 75.8569 114.589C75.7713 114.332 75.6859 114.062 75.6069 113.798V113.705C75.574 113.613 75.5476 113.521 75.5214 113.421L75.1794 112.365C75.1794 112.312 75.1465 112.266 75.1333 112.213C75.0742 112.022 74.9755 111.844 74.8505 111.684L74.8176 111.645C74.6531 111.493 74.4098 111.467 74.2124 111.573C74.081 111.619 73.9494 111.678 73.831 111.758C73.6403 111.87 73.4626 112.002 73.2983 112.154C72.8707 112.543 72.5221 113.019 72.2919 113.547L72.2261 113.691C71.5092 115.448 71.9039 117.587 72.2261 119.151C72.3511 119.811 72.4827 120.471 72.6273 121.184C72.6273 121.198 72.6273 121.205 72.6273 121.217C73.2851 124.274 74.1204 127.232 74.857 129.721C74.8899 129.899 74.7716 130.07 74.594 130.103C74.4427 130.129 74.298 130.051 74.2322 129.912C73.489 127.41 72.6405 124.44 71.9828 121.33C71.8315 120.67 71.6934 119.963 71.5684 119.277C71.2658 117.633 70.8449 115.382 71.6342 113.447L71.7065 113.283C71.9828 112.668 72.384 112.121 72.8773 111.665C73.0812 111.487 73.2983 111.329 73.5351 111.196C73.6994 111.097 73.8771 111.012 74.0612 110.952C74.2124 110.899 74.3703 110.866 74.5282 110.866C74.8439 110.866 75.1465 110.991 75.3635 111.216L75.403 111.269C75.5872 111.493 75.7253 111.751 75.8108 112.028L76.1989 113.242C76.1989 113.342 76.2515 113.428 76.2778 113.513V113.606C76.3567 113.87 76.4422 114.134 76.5277 114.392C77.3893 117.138 78.3101 120.056 79.3823 122.934C79.6388 123.64 79.9019 124.34 80.165 125.033C80.9279 127.013 81.6317 128.842 82.3289 130.545C82.3947 130.717 82.3157 130.908 82.1447 130.974C82.0921 131.008 82.0329 131.015 81.9737 131.008Z" fill="#2E3038"/>
</g>
<defs>
<clipPath id="clip0_1_5635">
<rect width="240" height="240" fill="white"/>
</clipPath>
</defs>
</svg>
