<svg width="200" height="200" viewBox="0 0 200 200" fill="none" xmlns="http://www.w3.org/2000/svg">
<g clip-path="url(#clip0_1_4191)">
<path d="M1.2013 111.742C1.2013 111.742 7.59776 146.34 40.0404 165.089C72.4776 183.837 112.802 179.365 145.579 176.602C178.356 173.841 200.472 151.594 199.996 123.158C199.519 94.7214 173.489 90.337 155.221 60.6739C136.952 31.0163 136.568 20.4043 105.145 5.25368C73.7218 -9.89141 31.024 8.90101 12.7609 45.8918C-5.50208 82.8826 1.2013 111.742 1.2013 111.742Z" fill="white"/>
<path d="M197.918 97.4777H114.786C114.632 97.4777 114.512 97.3571 114.512 97.2027V39.6867C114.512 39.5327 114.632 39.4116 114.786 39.4116H197.918C198.071 39.4116 198.192 39.5327 198.192 39.6867V97.2027C198.192 97.3571 198.071 97.4777 197.918 97.4777ZM115.06 96.9277H197.644V39.9617H115.06V96.9277Z" fill="#2E3038"/>
<path d="M189.816 47.977C188.643 47.977 187.689 47.0197 187.689 45.8425C187.689 44.6653 188.643 43.708 189.816 43.708C190.989 43.708 191.943 44.6653 191.943 45.8425C191.943 47.0197 190.995 47.977 189.816 47.977ZM189.816 44.2581C188.945 44.2581 188.238 44.9678 188.238 45.8425C188.238 46.7172 188.945 47.4269 189.816 47.4269C190.688 47.4269 191.395 46.7172 191.395 45.8425C191.395 44.9678 190.688 44.2581 189.816 44.2581Z" fill="#2E3038"/>
<path d="M185.025 45.8423C185.025 46.8711 184.198 47.7018 183.173 47.7018C182.148 47.7018 181.32 46.8711 181.32 45.8423C181.32 44.8136 182.148 43.9829 183.173 43.9829C184.198 43.9829 185.025 44.8191 185.025 45.8423Z" fill="#2E3038"/>
<path d="M178.383 45.8423C178.383 46.8711 177.555 47.7018 176.53 47.7018C175.505 47.7018 174.678 46.8711 174.678 45.8423C174.678 44.8136 175.505 43.9829 176.53 43.9829C177.555 43.9829 178.383 44.8191 178.383 45.8423Z" fill="#2E3038"/>
<path d="M192.512 54.3726C192.512 53.268 191.617 52.3726 190.512 52.3726H122.611C121.507 52.3726 120.611 53.268 120.611 54.3726V90.3726C120.611 91.4771 121.507 92.3726 122.611 92.3726H190.512C191.617 92.3726 192.512 91.4771 192.512 90.3726V54.3726Z" fill="#184AFB"/>
<path d="M160.356 85.1495H160.274C152.244 84.9735 145.875 78.2949 146.05 70.2355C146.22 62.3907 152.534 56.0862 160.35 55.9541H160.438C168.474 55.9761 174.969 62.5337 174.941 70.5986C174.919 78.6635 168.386 85.1826 160.356 85.1551V85.1495ZM160.356 56.4988C152.627 56.6307 146.467 63.0232 146.593 70.7857C146.719 78.3279 152.759 84.4288 160.279 84.5939H160.362C168.095 84.6159 174.376 78.3444 174.399 70.582C174.42 62.8197 168.172 56.5152 160.438 56.4932L160.356 56.4988Z" fill="white"/>
<path d="M157.073 65L157 76L167 70.5045L157.073 65Z" fill="white"/>
<path d="M24.5767 95.3656C24.5218 97.0759 23.4201 98.6165 23.3817 100.316C23.3489 101.912 24.2478 103.364 24.5547 104.927C24.8835 106.61 24.5547 108.337 24.7685 110.026C24.9165 111.116 25.2179 112.177 25.6509 113.19C25.9688 113.987 26.4895 114.68 27.1637 115.209C28.2599 116.022 29.822 115.99 31.1429 115.99C32.5078 116.066 33.8616 115.682 34.9798 114.89C35.8184 114.13 36.498 113.211 36.9748 112.183C37.4956 111.391 37.819 110.483 37.9122 109.536C37.9067 109.003 37.7916 108.475 37.5833 107.979C36.4871 105.279 33.7465 103.354 33.2861 100.481C33.0888 99.2544 33.3409 98.0061 33.4505 96.7734C33.5602 95.5415 33.4889 94.1932 32.7435 93.1975C31.5102 91.5475 28.6217 91.2009 26.7142 91.2061C23.9298 91.2121 24.6479 93.3242 24.5767 95.3656Z" fill="white"/>
<path d="M30.821 116.27C29.5384 116.27 28.1188 116.232 27.0336 115.44C26.3155 114.884 25.7619 114.147 25.4276 113.305C24.9836 112.271 24.6822 111.187 24.5287 110.07C24.441 109.278 24.4136 108.48 24.4519 107.688C24.5013 106.786 24.4519 105.878 24.3149 104.987C24.1779 104.387 23.9916 103.799 23.7668 103.227C22.9117 101.494 22.9008 99.4638 23.7339 97.725C24.0518 96.9716 24.2436 96.1681 24.3149 95.3543C24.3149 94.9802 24.3149 94.6009 24.3149 94.2543C24.2766 93.1974 24.2382 92.2017 24.863 91.5638C25.3783 91.1069 26.0634 90.8819 26.7486 90.9423C28.5135 90.9423 31.6322 91.2009 33.0079 93.044C33.6767 93.9345 33.9178 95.1285 33.7698 96.8069C33.7424 97.1147 33.7095 97.4224 33.6711 97.725C33.5232 98.6276 33.5012 99.5405 33.5999 100.448C33.852 102.016 34.8167 103.287 35.8417 104.629C36.6638 105.62 37.349 106.715 37.8806 107.886C38.0999 108.409 38.2204 108.97 38.2315 109.536C38.1328 110.522 37.8039 111.462 37.2613 112.287C36.757 113.343 36.0554 114.295 35.1949 115.082C34.0329 115.918 32.6188 116.331 31.1882 116.248H30.821V116.27ZM24.8795 95.3655C24.8082 96.2345 24.6055 97.0923 24.2711 97.9017C23.4763 99.519 23.4873 101.422 24.304 103.028C24.5342 103.628 24.715 104.244 24.8521 104.872C25 105.801 25.0494 106.747 25 107.688C24.9617 108.453 24.9891 109.223 25.0713 109.988C25.2193 111.049 25.5098 112.089 25.9318 113.074C26.2279 113.828 26.7211 114.488 27.3569 114.983C28.3545 115.709 29.7686 115.709 31.0129 115.709H31.1717C32.4763 115.791 33.7698 115.417 34.8386 114.659C35.6443 113.916 36.2967 113.024 36.7625 112.028C37.2613 111.275 37.5682 110.411 37.6669 109.515C37.656 109.014 37.5518 108.519 37.3545 108.062C36.8448 106.934 36.1815 105.884 35.3867 104.937C34.3728 103.595 33.3204 102.187 33.0409 100.536C32.9312 99.5793 32.9586 98.6164 33.1121 97.6647C33.145 97.3621 33.1834 97.0595 33.2053 96.7569C33.3423 95.2224 33.134 94.1492 32.553 93.3742C31.276 91.6629 28.053 91.5086 26.7321 91.4923C26.1949 91.4371 25.6578 91.6026 25.2412 91.9431C24.7973 92.4112 24.8247 93.2526 24.863 94.2319C24.863 94.6112 24.8959 95.0017 24.863 95.3931L24.8795 95.3655Z" fill="#2E3038"/>
<path d="M28.1348 115.687L29.9655 130.271C29.9655 130.271 40.3138 127.718 43.3668 123.62L37.4966 110.659" fill="white"/>
<path d="M29.965 130.546C29.9101 130.546 29.8554 130.529 29.806 130.497C29.7403 130.453 29.7018 130.381 29.6909 130.304L27.8602 115.72C27.8383 115.572 27.948 115.434 28.0959 115.412C28.2439 115.39 28.3809 115.489 28.4029 115.637C28.4029 115.643 28.4029 115.648 28.4029 115.654L30.1952 129.924C31.8888 129.473 40.2694 127.097 43.0484 123.581L37.2439 110.774C37.1836 110.637 37.2439 110.472 37.3809 110.406C37.518 110.345 37.6824 110.406 37.7426 110.543L43.6184 123.504C43.6568 123.598 43.6458 123.703 43.5856 123.785C40.5106 127.911 30.4309 130.43 30.0253 130.535L29.965 130.546Z" fill="#2E3038"/>
<path d="M47.0065 124.627L50.2951 131.998L84.1355 112.028L90.5652 103.419L94.9937 114.229L85.9497 135.486C78.89 140.443 71.4687 144.86 63.7458 148.69C60.0625 150.571 56.286 152.259 52.4273 153.74C48.7385 155.126 44.8962 156.072 41.0924 157.09C40.8348 157.184 40.5498 157.184 40.2921 157.09C40.1222 157.002 40.051 156.793 39.8975 156.666C37.1131 154.416 30.1301 134.359 29.4121 127.972L47.0065 124.627Z" fill="#2E3038"/>
<path d="M138.036 95.4309L153.69 117.772C157.543 123.268 157.888 130.502 154.583 136.345C148.554 147.017 138.913 163.301 133.887 168.01C133.887 168.01 136.232 172.829 135.876 174.611C135.52 176.394 132.209 176.757 132.209 176.757L137.301 185.526C137.301 185.526 109.682 210.034 70.832 178.198L78.9167 149.757L74.636 146.687L91.8082 89.1154L109.457 87.2119L114.824 101.471L120.617 94.5947L126.432 101.471L138.036 95.4309Z" fill="#2E3038"/>
<path d="M63.1803 120.099C79.7901 120.099 93.2554 106.584 93.2554 89.9136C93.2554 73.2421 79.7901 59.7275 63.1803 59.7275C46.5704 59.7275 33.1055 73.2421 33.1055 89.9136C33.1055 106.584 46.5704 120.099 63.1803 120.099Z" fill="#184AFB"/>
<path d="M85.1986 130.552C85.1986 130.552 79.416 142.605 75.064 143.92L68.5525 135.574L63.0714 128.544L61.6737 126.811L61.6408 126.756L55.7815 116.144L55.1238 114.95L54.9264 114.081L54.4606 112.035L54.4277 111.886L54.5099 111.638L55.6061 108.574L57.5629 106.318V106.236L58.27 102.616L58.3467 102.225L60.2102 101.07C60.2102 101.07 60.2102 101.07 60.2102 101.042C60.0787 100.691 58.703 96.7571 59.7772 94.4683C60.002 93.9571 60.3857 93.5338 60.8735 93.258C61.0872 93.1373 61.3175 93.0381 61.5586 92.9726C61.6025 92.8787 61.6627 92.7959 61.734 92.7192C61.9039 92.5269 62.1999 92.3778 62.5452 92.8674C62.7042 93.1097 62.8302 93.3743 62.9179 93.6545C62.9783 93.8028 63.0385 93.9787 63.0988 94.1718C63.0988 94.2597 63.1482 94.3476 63.1756 94.4416C63.203 94.5347 63.2358 94.639 63.2687 94.7433C63.3345 94.964 63.4058 95.1838 63.477 95.4037C64.4855 98.5511 66.371 103.898 66.5135 104.283L71.0683 105.791L71.6164 105.967L71.885 106.704L73.4745 111.072L73.5787 111.358L73.628 111.71L74.6365 120.083L74.6749 120.121L83.2747 128.642L85.1986 130.552Z" fill="white"/>
<path d="M85.7084 131.222C85.6372 131.222 85.5714 131.195 85.522 131.146C77.8156 123.917 74.4557 120.314 74.4228 120.281C74.3844 120.236 74.357 120.182 74.3516 120.121L73.8363 114.823C73.6226 112.881 73.2279 110.967 72.6524 109.102C72.3784 107.979 71.8083 106.957 71.0081 106.126C70.1147 105.284 68.9855 105.075 67.7852 104.849C67.3412 104.767 66.8808 104.684 66.4314 104.564C66.2888 104.525 66.2011 104.382 66.2395 104.234V104.228C66.2779 104.079 66.4259 103.991 66.5739 104.03C67.0014 104.146 67.4509 104.228 67.8893 104.31C69.1117 104.536 70.3723 104.772 71.3863 105.729C72.2523 106.627 72.8661 107.732 73.1676 108.942C73.7541 110.846 74.1597 112.799 74.379 114.779L74.8887 119.984C75.382 120.506 78.7803 124.077 85.8948 130.755C86.0044 130.859 86.0154 131.03 85.9112 131.146C85.8564 131.206 85.7851 131.234 85.7084 131.234V131.222Z" fill="#2E3038"/>
<path d="M58.2267 110.175C58.1061 110.175 58.002 110.092 57.9636 109.977C57.5964 108.761 57.3717 107.507 57.2949 106.236C57.1854 104.96 57.432 103.678 58.002 102.534L58.0459 102.451C58.4898 101.802 59.164 101.34 59.9314 101.164C60.0848 101.125 60.2383 101.213 60.2822 101.362C60.3205 101.516 60.2329 101.67 60.0793 101.714C59.4436 101.852 58.8845 102.231 58.5117 102.77L58.4734 102.836C57.9582 103.887 57.7389 105.064 57.843 106.23C57.9198 107.457 58.1391 108.667 58.4954 109.845C58.5337 109.993 58.4515 110.142 58.3035 110.186L58.2267 110.175Z" fill="#2E3038"/>
<path d="M74.6372 143.211C74.555 143.211 74.4783 143.172 74.4234 143.111L61.4606 126.981L61.4277 126.932C59.2572 123.488 57.2895 119.923 55.5301 116.248C55.1683 115.461 54.8833 114.779 54.664 114.163C54.4613 113.624 54.2914 113.074 54.1543 112.513C54.1543 112.486 54.1543 112.463 54.1543 112.436C54.1543 112.287 54.1543 112.139 54.1872 111.985C54.2201 111.83 54.1872 111.715 54.2421 111.578C54.412 110.467 54.7846 109.399 55.3383 108.425C55.8315 107.496 56.5331 106.692 57.3882 106.076C57.5142 105.994 57.6841 106.032 57.7664 106.159C57.8486 106.279 57.8157 106.45 57.6952 106.533C57.6896 106.533 57.6896 106.538 57.6841 106.538C56.9058 107.111 56.27 107.848 55.8151 108.7C55.289 109.619 54.9327 110.626 54.7682 111.671C54.7463 111.798 54.7298 111.924 54.7189 112.051C54.7024 112.177 54.6915 112.298 54.686 112.425C54.8121 112.953 54.9765 113.47 55.1683 113.976C55.3821 114.576 55.6616 115.247 56.0179 116.017C57.7608 119.654 59.7121 123.186 61.8552 126.596C61.8717 126.613 61.8827 126.635 61.8936 126.657L74.84 142.765C74.9332 142.88 74.9167 143.056 74.8016 143.149C74.7577 143.188 74.6975 143.211 74.6372 143.211Z" fill="#2E3038"/>
<path d="M87.8251 129.353C87.1174 131.338 86.1805 133.231 85.0294 134.996C80.8857 141.559 74.7414 148.53 74.7414 148.53C70.8223 144.937 65.3906 136.614 65.3906 136.614C68.0818 134.964 72.39 130.161 74.8126 127.085C77.1367 124.132 78.8193 121.617 78.8193 121.617L87.8251 129.353Z" fill="white"/>
<path d="M74.7301 148.805C74.6588 148.805 74.5931 148.777 74.5438 148.733C70.6467 145.158 65.2258 136.851 65.1491 136.762C65.1053 136.702 65.0944 136.625 65.1107 136.553C65.1272 136.482 65.1711 136.415 65.2313 136.377C67.9719 134.694 72.3184 129.776 74.5876 126.915C76.8568 124.054 78.5614 121.49 78.5778 121.469C78.6217 121.402 78.693 121.358 78.7697 121.347C78.8464 121.337 78.9232 121.358 78.9834 121.408L87.9945 129.143C88.0764 129.22 88.1092 129.335 88.0764 129.446C87.3583 131.448 86.41 133.357 85.2483 135.134C81.143 141.642 74.9932 148.634 74.9329 148.7C74.8836 148.755 74.8123 148.788 74.7411 148.794L74.7301 148.805ZM65.7575 136.702C66.6509 138.044 71.2387 144.865 74.7081 148.139C75.766 146.923 81.1046 140.69 84.7879 134.853C85.8896 133.159 86.7997 131.344 87.4954 129.446L78.8629 122.035C78.3695 122.751 76.9007 124.874 75.0261 127.262C72.7898 130.083 68.5529 134.848 65.7575 136.696V136.702Z" fill="#2E3038"/>
<path d="M24.5444 93.5775C24.4842 92.7517 24.4677 91.7732 24.7417 91.437C25.0377 91.1181 25.394 90.8655 25.7886 90.6887C29.5432 88.7249 33.3032 86.7612 37.1838 85.0448C37.5236 84.8962 37.9512 84.7531 38.2527 84.9787C38.4829 85.2098 38.5761 85.5454 38.4938 85.8644C38.3075 86.8603 37.8251 87.7793 37.1181 88.5051C36.1589 89.5939 35.0134 90.5077 33.7417 91.206C33.3087 91.4206 32.8867 91.6629 32.4811 91.9327C31.9659 92.3448 31.489 92.8017 31.056 93.2965C30.7107 93.6491 30.3435 93.9732 29.9598 94.2818" fill="white"/>
<path d="M29.9654 94.5568C29.8831 94.5568 29.8009 94.518 29.7516 94.4516C29.6584 94.3361 29.6749 94.1663 29.79 94.0723L29.7955 94.0671C30.1681 93.7697 30.5244 93.4456 30.8587 93.1042C30.9738 92.9887 31.0835 92.8732 31.1876 92.7577C31.533 92.3723 31.9112 92.0206 32.3222 91.7068C32.6346 91.4921 32.9635 91.2999 33.3033 91.1292L33.6103 90.9637C34.8545 90.2818 35.9672 89.3853 36.8989 88.318C37.5786 87.6413 38.0335 86.7723 38.2144 85.8314C38.2144 85.6884 38.2528 85.3363 38.0719 85.1988C37.891 85.0612 37.5237 85.1988 37.2826 85.2978C33.413 87.0085 29.6091 89.0059 25.9038 90.937C25.5421 91.0904 25.2132 91.3215 24.9447 91.6077C24.8515 91.7232 24.709 92.1577 24.8076 93.5611C24.8186 93.7146 24.7035 93.8465 24.5555 93.8577C24.4075 93.8689 24.2705 93.7534 24.2595 93.6051C24.1719 92.3232 24.2595 91.6025 24.5171 91.2663C24.835 90.9197 25.2242 90.6447 25.6517 90.4525C29.3514 88.5163 33.1718 86.5189 37.0579 84.8027C37.469 84.5441 37.9842 84.5276 38.4062 84.7641C38.7187 85.0503 38.8557 85.4903 38.757 85.9029C38.5706 86.9594 38.0609 87.9327 37.31 88.6922C36.3289 89.8034 35.1614 90.7327 33.8624 91.443L33.55 91.6077C32.7881 91.9654 32.1194 92.4878 31.5768 93.1318C31.4672 93.2525 31.352 93.368 31.2425 93.4835C30.8971 93.8413 30.5299 94.1766 30.1462 94.4904C30.0969 94.5292 30.0312 94.5568 29.9654 94.5568Z" fill="#2E3038"/>
<path d="M27.8066 93.6153C28.0752 93.4834 28.3547 93.3679 28.6397 93.2799C31.3803 92.4498 34.3675 92.6472 37.1354 91.8662C38.5331 91.4705 39.876 90.8213 41.3559 90.8317C41.7944 90.8317 42.3918 91.0136 42.3425 91.5636C42.2932 92.1136 41.915 92.3343 41.6245 92.6636C41.3066 93.0549 40.9612 93.4179 40.5941 93.7644C39.8266 94.4411 38.9552 94.9799 38.0124 95.3593C36.6257 95.8386 35.1952 96.1791 33.7372 96.3774C32.334 96.6472 30.9966 97.0817 29.6209 97.4774C29.281 97.5765 28.9357 97.6644 28.5849 97.736" fill="white"/>
<path d="M28.5849 98.0225C28.4533 98.0225 28.3438 97.9285 28.3163 97.8027C28.2834 97.6535 28.3821 97.5104 28.53 97.4777C28.837 97.4173 29.1604 97.3346 29.5441 97.2251L30.3772 96.9828C31.457 96.6415 32.5532 96.3501 33.6659 96.119L34.6031 95.9484C35.7268 95.794 36.8285 95.5139 37.8918 95.1173C38.8071 94.7492 39.6513 94.2268 40.3967 93.5716C40.6598 93.3294 40.9064 93.0656 41.1312 92.7906L41.4052 92.4768C41.46 92.4113 41.5257 92.3449 41.5861 92.2846C41.8218 92.0923 41.9862 91.8337 42.0519 91.5363C42.0629 91.4535 42.0355 91.3768 41.9862 91.3104C41.7998 91.1621 41.5696 91.0906 41.3339 91.107C40.3144 91.157 39.3169 91.3768 38.3687 91.7561C37.9795 91.8889 37.5849 92.0208 37.1902 92.1303C35.8144 92.4768 34.4168 92.7078 33.0026 92.8182C31.5501 92.9225 30.1141 93.1699 28.7055 93.544C28.4314 93.6268 28.1683 93.7311 27.9107 93.8639C27.7737 93.9294 27.6093 93.8802 27.5435 93.7423C27.4777 93.6052 27.5325 93.4397 27.6641 93.3682C27.9491 93.2311 28.245 93.1096 28.5465 93.0165C29.9825 92.6311 31.4515 92.3785 32.9314 92.2682C34.3126 92.1639 35.6884 91.938 37.0313 91.6027C37.4204 91.4923 37.7987 91.3656 38.1823 91.2337C39.1853 90.838 40.2487 90.607 41.3285 90.557C41.7176 90.5406 42.0958 90.6785 42.3808 90.9423C42.5398 91.1182 42.611 91.3492 42.5837 91.5863C42.5179 92.0147 42.2986 92.4052 41.9697 92.6863L41.7998 92.8621L41.5368 93.1699C41.2956 93.4673 41.0325 93.7423 40.753 94.0061C39.9637 94.6992 39.0648 95.2604 38.0891 95.657C36.9875 96.0639 35.8474 96.3501 34.6854 96.5147L33.759 96.6854C32.6628 96.9001 31.5666 97.2354 30.5032 97.538L29.6701 97.7803C29.2755 97.8958 28.9302 97.9785 28.6123 98.044L28.5849 98.0225Z" fill="#2E3038"/>
<path d="M27.2793 97.4835C27.8384 97.0318 28.4907 96.7077 29.1868 96.5422C30.5077 96.3551 31.8506 96.3551 33.1715 96.5422C35.49 96.7292 37.825 96.7077 40.1435 96.4818C40.5162 96.4103 40.8999 96.4103 41.2726 96.4818C43.4266 97.093 40.5217 99.1939 39.7105 99.5465C36.515 100.938 32.733 101.004 29.2964 100.921" fill="white"/>
<path d="M31.0116 101.263C30.4634 101.263 29.866 101.263 29.3014 101.263C29.148 101.257 29.0274 101.136 29.0329 100.982C29.0383 100.834 29.1645 100.713 29.3124 100.713C32.8368 100.801 36.5256 100.713 39.6005 99.3597C40.2527 99.0787 41.7929 97.8907 41.7929 97.2528C41.7929 97.0657 41.5901 96.9166 41.2174 96.8123C40.883 96.7519 40.5432 96.7519 40.2089 96.8123C37.8684 97.0433 35.5115 97.0657 33.1657 96.8787L32.6176 96.8347C31.4939 96.6752 30.3539 96.6752 29.2302 96.8347C28.578 96.9942 27.9641 97.2968 27.4379 97.72C27.3173 97.8131 27.1474 97.7916 27.0542 97.6709C26.961 97.5493 26.983 97.3787 27.0981 97.2856C27.6901 96.8071 28.3807 96.4709 29.1206 96.295C30.2935 96.1192 31.4884 96.108 32.6669 96.2623L33.182 96.3062C35.4896 96.4881 37.8026 96.4709 40.1047 96.2459C40.5158 96.1795 40.9324 96.1907 41.338 96.2838C42.1108 96.5045 42.2971 96.9114 42.3136 97.214C42.3903 98.314 40.2637 99.6675 39.8033 99.8657C37.1449 101.026 34.0645 101.263 31.0116 101.263Z" fill="#2E3038"/>
<path d="M31.2852 101.142C31.2852 101.142 35.8454 107.193 32.5239 112.964L31.2852 101.142Z" fill="white"/>
<path d="M32.525 113.239C32.4757 113.239 32.4318 113.228 32.3881 113.206C32.2565 113.129 32.2126 112.959 32.2839 112.827C35.4793 107.265 31.1109 101.367 31.0671 101.312C30.9739 101.191 30.9958 101.015 31.1219 100.921C31.248 100.828 31.4179 100.85 31.5111 100.977C31.5549 101.037 36.1426 107.215 32.7662 113.079C32.7169 113.173 32.6292 113.234 32.525 113.239Z" fill="#2E3038"/>
<path d="M48.4815 126.8C48.4815 126.8 46.6782 129.743 40.9614 132.032C37.4371 133.374 33.7318 134.193 29.9663 134.452L28.2891 122.624C28.2891 122.624 31.9614 123.29 37.3055 121.012C39.3116 120.148 41.208 119.054 42.962 117.75L48.4815 126.8Z" fill="white"/>
<path d="M29.9656 134.727C29.8286 134.727 29.7136 134.628 29.6971 134.49L28.0198 122.663C28.0034 122.575 28.0363 122.487 28.0966 122.426C28.1624 122.365 28.2501 122.344 28.3378 122.354C28.3706 122.354 31.9992 122.97 37.2007 120.759C39.1849 119.901 41.0594 118.817 42.7969 117.53C42.8627 117.486 42.9394 117.464 43.0161 117.48C43.0929 117.496 43.1532 117.541 43.197 117.607L48.7111 126.657C48.7658 126.745 48.7658 126.86 48.7111 126.948C48.6343 127.069 46.7981 129.99 41.0649 132.284C37.5131 133.638 33.7805 134.458 29.9876 134.727H29.9656ZM28.6283 122.943L30.2178 134.155C33.8682 133.88 37.4583 133.077 40.8786 131.778C45.7348 129.831 47.7354 127.377 48.1684 126.794L42.8792 118.152C41.1745 119.389 39.3329 120.434 37.398 121.265C32.9583 123.163 29.6806 123.031 28.6283 122.943Z" fill="#2E3038"/>
<path d="M132.539 65.1797C132.539 65.1797 133.877 65.8509 135.208 63.5734C136.54 61.2958 137.702 55.0573 134.77 54.5237C130.808 52.5872 129.47 55.3985 129.47 55.3985L127.064 46.6898C127.064 46.6898 126.401 38.6469 121.325 39.3181C116.25 39.9892 113.312 45.6171 113.312 45.6171L99.5593 46.1673L99.1593 53.9406C99.1593 53.9406 96.8903 52.3342 96.2214 54.3422C95.5524 56.3502 95.5524 63.0562 101.154 65.1962C101.154 65.1962 103.347 75.1811 110.067 80.6439L113.355 80.8365L112.627 88.6535C114.172 91.8941 116.973 94.3639 120.371 95.4863C125.984 97.2303 131.169 86.2665 131.169 86.2665C131.169 86.2665 131.301 72.678 132.539 65.1797Z" fill="white"/>
<path d="M100.727 64.8767H100.661C98.1012 64.2771 96.3365 62.3406 95.7279 59.4139C95.1468 56.7347 95.6675 53.8135 96.4787 53.1809C96.7581 52.9553 97.1201 52.8673 97.471 52.9389C98.6934 53.1479 99.8934 54.9908 99.9425 55.0678C100.025 55.1944 99.9925 55.3649 99.8658 55.4529C99.74 55.5355 99.5701 55.5025 99.4822 55.3704C99.1753 54.8918 98.1943 53.621 97.3779 53.478C97.1856 53.445 96.9831 53.4945 96.8296 53.6155C96.2813 54.0336 95.7003 56.6577 96.2813 59.2983C96.6977 61.2128 97.8218 63.6389 100.83 64.3431C100.979 64.3761 101.067 64.5246 101.034 64.6732C101.001 64.8107 100.869 64.9042 100.727 64.8767Z" fill="#2E3038"/>
<path d="M137.823 96.9499C137.823 96.9663 137.823 96.9827 137.823 96.999C136.622 98.5947 135.29 100.09 133.849 101.471C133.63 101.686 133.4 101.896 133.175 102.099C130.155 104.894 126.778 107.281 123.139 109.196L123.056 109.245L120.629 94.5896C124.109 92.5758 127.2 89.9577 129.766 86.8551L129.941 86.668C130.319 86.2499 130.966 85.6554 131.163 85.3473C131.832 84.3076 131.712 84.7532 131.712 84.7532L131.273 82.6682L131.043 81.6064L131.289 81.722C137.839 86.4913 137.971 96.1025 137.823 96.9499Z" fill="white"/>
<path d="M123.045 109.531C123.001 109.531 122.962 109.52 122.924 109.498C122.847 109.459 122.787 109.388 122.776 109.3L120.342 94.6447C120.331 94.5559 120.359 94.474 120.419 94.4076C120.458 94.3748 120.507 94.3472 120.556 94.3248C123.685 92.1964 126.597 89.7481 129.238 87.0309L129.852 86.3705C130.663 85.5397 131.425 84.6649 132.132 83.7407C132.22 83.6141 132.39 83.5866 132.516 83.6747C132.642 83.7627 132.669 83.9333 132.582 84.0597C131.858 85.0005 131.08 85.8972 130.252 86.7447L129.638 87.405C126.98 90.1386 124.064 92.5981 120.918 94.7429L123.247 108.81C126.646 106.731 129.902 104.426 132.987 101.901C133.217 101.714 133.442 101.515 133.661 101.323C135.629 99.5955 136.95 98.105 137.564 96.8774C137.789 95.9757 136.917 86.8266 131.348 82.0243C131.234 81.9253 131.222 81.7492 131.321 81.6392C131.42 81.5237 131.595 81.5127 131.704 81.6062C137.559 86.6343 138.337 96.0145 138.09 97.0102C138.09 97.0102 138.09 97.0757 138.09 97.0817C137.416 98.4076 136.062 99.9585 134.045 101.73C133.826 101.928 133.591 102.126 133.36 102.319C130.17 104.921 126.81 107.302 123.291 109.437C123.259 109.459 123.225 109.476 123.192 109.492C123.148 109.52 123.099 109.536 123.045 109.531Z" fill="#2E3038"/>
<path d="M120.617 94.601L114.166 109.278C114.166 109.278 107.369 100.146 107.172 92.5484C108.158 88.4501 109.222 86.1671 113.437 83.686L112.96 86.6406C112.96 86.6406 113.738 93.6216 120.617 94.601Z" fill="white"/>
<path d="M114.167 109.531C114.079 109.531 113.991 109.487 113.942 109.41C113.882 109.322 107.655 100.118 106.904 92.5543C106.899 92.5267 106.899 92.5043 106.904 92.4767C108.297 84.9293 112.972 83.675 113.169 83.6309C113.317 83.5979 113.465 83.6859 113.503 83.8345C113.542 83.9776 113.454 84.1261 113.312 84.1646H113.306C113.257 84.1646 108.784 85.3969 107.453 92.5379C108.115 99.0509 112.934 106.841 114.123 108.684L120.278 94.7C117.088 92.2681 114.375 89.275 112.265 85.859C112.183 85.7325 112.221 85.5619 112.353 85.4794C112.484 85.4024 112.648 85.4409 112.731 85.5674C114.83 88.9836 117.559 91.9707 120.772 94.3698C120.881 94.4465 120.925 94.5896 120.87 94.7103L114.419 109.36C114.38 109.454 114.293 109.515 114.194 109.526L114.167 109.531Z" fill="#2E3038"/>
<path d="M113.038 86.7662H112.961C112.818 86.7282 112.731 86.5739 112.769 86.4308C113.207 84.61 113.322 82.7231 113.103 80.8636C113.082 80.715 113.191 80.5775 113.338 80.5556C113.487 80.5335 113.624 80.6436 113.645 80.7921C113.882 82.7231 113.761 84.6815 113.301 86.5739C113.268 86.6894 113.158 86.7662 113.038 86.7662Z" fill="#2E3038"/>
<path d="M131.422 85.3417C131.279 85.3417 131.159 85.2262 131.147 85.0831C130.539 72.3916 132.518 65.0749 132.54 65.0033C132.584 64.8603 132.731 64.7723 132.879 64.8108C133.028 64.8548 133.11 65.0033 133.066 65.1519C133.066 65.2234 131.092 72.4632 131.69 85.0556C131.701 85.2041 131.586 85.3307 131.438 85.3417H131.433H131.422Z" fill="#2E3038"/>
<path d="M110.751 66.7091C110.422 66.7037 110.093 66.6541 109.77 66.5716C108.865 66.357 107.78 65.9885 107.408 65.0093C107.177 64.2061 107.364 63.3424 107.895 62.7042C108.087 62.4346 108.301 62.187 108.509 61.9451C108.777 61.6589 109.025 61.3454 109.239 61.0153C110.109 59.5959 109.863 57.7915 109.507 55.9156C109.479 55.767 109.578 55.624 109.726 55.591C109.874 55.5635 110.016 55.6626 110.044 55.8111C110.406 57.72 110.68 59.717 109.704 61.3124C109.474 61.67 109.211 62.0055 108.926 62.3191C108.717 62.5446 108.52 62.7867 108.339 63.0343C107.933 63.5349 107.78 64.1951 107.923 64.8222C108.202 65.5594 109.123 65.862 109.895 66.0435C110.383 66.2251 110.92 66.214 111.398 66.0105C111.524 65.928 111.694 65.972 111.776 66.0985C111.858 66.2251 111.814 66.3956 111.689 66.4781C111.403 66.6432 111.08 66.7202 110.751 66.7091Z" fill="#2E3038"/>
<path d="M107.199 56.8782C107.249 57.907 106.837 58.7596 106.284 58.7816C105.73 58.8037 105.248 57.995 105.187 56.9662C105.127 55.9375 105.549 55.0848 106.103 55.0573C106.656 55.0298 107.155 55.8495 107.199 56.8782Z" fill="#2E3038"/>
<path d="M118.469 56.6082C118.518 57.6369 118.107 58.4897 117.553 58.5117C117 58.5337 116.517 57.725 116.457 56.6963C116.397 55.6675 116.819 54.8148 117.372 54.7873C117.926 54.7598 118.425 55.5795 118.469 56.6082Z" fill="#2E3038"/>
<path d="M113.328 70.7687C112.314 70.7907 111.311 70.5817 110.39 70.1636C110.264 70.0811 110.231 69.905 110.318 69.784C110.318 69.784 110.318 69.784 110.318 69.7785C110.401 69.652 110.565 69.619 110.692 69.7015C110.692 69.7015 110.697 69.7015 110.697 69.707C111.957 70.2186 113.339 70.3506 114.671 70.0866C116.227 69.762 117.575 68.8048 118.403 67.446C118.491 67.3194 118.655 67.2864 118.787 67.3635C118.913 67.4515 118.946 67.622 118.864 67.7486C117.954 69.2393 116.468 70.2846 114.764 70.6257C114.292 70.7248 113.81 70.7742 113.328 70.7687Z" fill="#2E3038"/>
<path d="M113.525 51.1073C113.437 51.1073 113.361 51.0633 113.306 50.9973C113.212 50.8762 113.24 50.7057 113.361 50.6122C115.756 48.8462 117.394 48.7802 119.862 50.3426C119.987 50.4251 120.025 50.5902 119.949 50.7222C119.867 50.8487 119.697 50.8873 119.571 50.8047C117.285 49.3579 115.909 49.4184 113.689 51.0523C113.646 51.0908 113.586 51.1073 113.525 51.1073Z" fill="#2E3038"/>
<path d="M103.44 52.092C103.374 52.092 103.308 52.07 103.259 52.026C103.144 51.9325 103.127 51.7619 103.22 51.6464L103.226 51.6409C104.514 50.1941 106.663 49.9081 108.28 50.9698C108.401 51.0578 108.433 51.2283 108.345 51.3549C108.258 51.4759 108.088 51.5034 107.968 51.4209C106.592 50.5077 104.756 50.7443 103.648 51.971C103.605 52.0425 103.527 52.0865 103.44 52.092Z" fill="#2E3038"/>
<path d="M111.71 80.9959C111.151 81.0014 110.587 80.9684 110.032 80.8968C109.989 80.8913 109.945 80.8749 109.906 80.8474C109.759 80.7263 106.207 77.9426 103.368 72.1608C98.5331 62.3299 99.4599 48.12 99.4702 47.955C99.4814 47.801 99.6133 47.691 99.7668 47.7019C99.9202 47.713 100.03 47.845 100.018 47.999C100.018 48.1421 99.0926 62.2034 103.856 71.9022C105.374 75.1149 107.528 77.9922 110.186 80.3468C112.105 80.5282 114.034 80.3852 115.903 79.9176C119.45 79.0539 122.809 76.2648 125.012 74.0807C125.117 73.9762 125.287 73.9707 125.391 74.0752C125.391 74.0752 125.391 74.0752 125.396 74.0807C125.5 74.1798 125.506 74.3503 125.407 74.4548C125.402 74.4603 125.402 74.4603 125.396 74.4658C123.149 76.6993 119.701 79.549 116.035 80.4512C114.62 80.7978 113.168 80.9849 111.71 80.9959Z" fill="#2E3038"/>
<path d="M125.205 74.5704C125.156 74.5704 125.112 74.5593 125.068 74.5374C124.936 74.4604 124.892 74.2953 124.964 74.1632C127.677 69.2836 128.253 66.1643 128.28 66.1368C128.307 65.9828 128.45 65.8838 128.603 65.9113C128.757 65.9388 128.855 66.0818 128.828 66.2359C128.801 66.3624 128.209 69.4651 125.447 74.4274C125.403 74.5154 125.309 74.5704 125.205 74.5704Z" fill="#2E3038"/>
<path d="M132.495 65.3665C130.938 65.3665 130.407 64.4258 130.38 64.3762C130.308 64.2442 130.357 64.0737 130.489 64.0021C130.621 63.9306 130.791 63.9802 130.862 64.1121C130.862 64.1562 131.503 65.1849 133.553 64.6623C134.825 64.3433 136.321 60.8499 136.365 58.0992C136.365 57.043 136.184 55.2001 134.72 54.7984C131.322 53.8358 129.536 58.8529 129.519 58.9024C129.469 59.0455 129.311 59.1225 129.168 59.073C129.025 59.0234 128.955 58.864 129.004 58.7208C129.004 58.6658 130.977 53.1701 134.868 54.2648C136.228 54.6499 136.962 56.0197 136.935 58.1158C136.891 60.9489 135.395 64.7778 133.706 65.2014C133.312 65.3114 132.906 65.3665 132.495 65.3665Z" fill="#2E3038"/>
<path d="M130.028 57.6922C129.612 58.5779 127.99 57.7967 127.392 57.021C126.784 56.2069 126.784 55.0846 127.392 54.2704C126.126 53.9018 124.701 53.3296 124.153 52.1249C123.922 51.5142 123.84 50.854 123.917 50.2049C124.032 48.439 124.465 46.6786 124.284 44.9182C124.103 43.1577 123.018 41.3148 121.28 40.9902C121.28 40.9902 115.251 51.8223 103.878 47.4488C103.878 47.4488 98.8077 49.8803 96.5 45.7158C94.1931 41.5514 97.306 37.1503 103.763 34.3721C103.763 34.3721 99.7284 34.2566 99.8439 32.1716C99.9586 30.0866 109.748 29.509 116.671 31.0328C116.671 31.0328 115.854 27.3855 124.388 28.4252C132.922 29.465 135.684 31.8801 136.732 37.86C142.985 41.2818 135.959 55.3871 135.959 55.3871C135.959 55.3871 132.653 52.0644 130.028 57.6922Z" fill="#2E3038"/>
<path d="M98.8789 45.9141C97.5849 48.1916 97.3496 50.9202 98.2375 53.3848L99.997 56.1354L99.7229 46.7832L98.8789 45.9141Z" fill="#2E3038"/>
<path d="M136.188 38.9714C136.162 38.9769 136.134 38.9769 136.106 38.9714C135.964 38.9219 135.881 38.7678 135.931 38.6248C138.255 31.4731 133.294 28.1723 133.081 28.0128C132.955 27.9247 132.922 27.7542 133.004 27.6277C133.087 27.5011 133.256 27.4681 133.382 27.5507C133.438 27.5836 138.907 31.2585 136.452 38.7953C136.413 38.9053 136.304 38.9769 136.188 38.9714Z" fill="#2E3038"/>
<path d="M58.1065 82L58 98L72.5455 90.0066L58.1065 82Z" fill="white"/>
<path d="M68.3118 109.173C68.2021 109.173 68.1035 109.102 68.0596 109.002C67.4787 107.578 66.8867 106.071 66.2564 104.393C66.0316 103.815 65.8124 103.227 65.5986 102.643C64.7052 100.228 63.9543 97.7913 63.2144 95.4913C63.1431 95.2766 63.0719 95.0516 63.0061 94.8318V94.7542C62.9787 94.6775 62.9567 94.6007 62.9348 94.518L62.6498 93.6378C62.6498 93.5938 62.6224 93.5551 62.6114 93.5111C62.5621 93.3516 62.4799 93.2033 62.3758 93.0706L62.3483 93.0378C62.2113 92.9111 62.0085 92.8895 61.844 92.9775C61.7345 93.0163 61.6248 93.0654 61.5262 93.1318C61.3672 93.2249 61.2192 93.3352 61.0822 93.462C60.7259 93.7861 60.4354 94.1826 60.2436 94.6223L60.1888 94.743C59.5914 96.2068 59.9202 97.9895 60.1888 99.293C60.2929 99.843 60.4026 100.393 60.5231 100.987C60.5231 100.998 60.5231 101.004 60.5231 101.015C61.0713 103.562 61.7673 106.027 62.3812 108.101C62.4086 108.249 62.31 108.392 62.162 108.42C62.0359 108.441 61.9153 108.376 61.8605 108.26C61.2412 106.175 60.5341 103.7 59.986 101.109C59.8599 100.559 59.7448 99.9697 59.6407 99.3973C59.3885 98.0275 59.0377 96.1516 59.6955 94.5395L59.7558 94.4025C59.986 93.8904 60.3203 93.4344 60.7314 93.0542C60.9014 92.9059 61.0822 92.774 61.2795 92.6637C61.4165 92.5809 61.5645 92.5102 61.718 92.4602C61.844 92.4163 61.9756 92.3887 62.1071 92.3887C62.3702 92.3887 62.6224 92.493 62.8032 92.6801L62.8362 92.724C62.9896 92.9111 63.1047 93.1257 63.176 93.3568L63.4994 94.3688C63.4994 94.4516 63.5433 94.5232 63.5651 94.5947V94.6714C63.6309 94.8921 63.7021 95.112 63.7734 95.3266C64.4914 97.6154 65.2588 100.046 66.1522 102.446C66.366 103.034 66.5852 103.617 66.8045 104.195C67.4402 105.845 68.0268 107.369 68.6077 108.788C68.6626 108.931 68.5968 109.09 68.4543 109.146C68.4104 109.173 68.3611 109.179 68.3118 109.173Z" fill="#2E3038"/>
</g>
<defs>
<clipPath id="clip0_1_4191">
<rect width="200" height="200" fill="white"/>
</clipPath>
</defs>
</svg>
