<svg width="224" height="200" viewBox="0 0 224 200" fill="none" xmlns="http://www.w3.org/2000/svg">
<g clip-path="url(#clip0_1_4253)">
<path d="M1.86962 124.502C1.86962 124.502 9.01667 162.979 45.2664 183.83C81.51 204.681 126.567 199.707 163.19 196.636C199.813 193.564 224.524 168.822 223.992 137.198C223.459 105.573 194.375 100.697 173.963 67.7076C153.544 34.7368 153.116 22.9349 118.005 6.0855C82.9002 -10.77 35.192 10.1296 14.7857 51.2681C-5.6204 92.4066 1.86962 124.502 1.86962 124.502Z" fill="white"/>
<mask id="mask0_1_4253" style="mask-type:luminance" maskUnits="userSpaceOnUse" x="6" y="22" width="198" height="172">
<path d="M203.54 22.0723H6.49805V193.831H203.54V22.0723Z" fill="white"/>
</mask>
<g mask="url(#mask0_1_4253)">
<path d="M114.713 184.256L42.4317 190.226C40.3563 190.402 38.281 188.689 37.8066 186.383L7.09117 35.6073C6.6168 33.3023 5.66807 28.9876 14.0881 28.5738L87.1411 22.9589C89.2165 22.7816 91.2919 24.4956 91.7662 26.8007L122.956 177.754C123.431 179.823 121.177 184.078 114.713 184.256Z" fill="#2E3038"/>
<path d="M42.1351 190.52C40.0005 190.52 37.9844 188.747 37.51 186.383L6.7946 35.6662C6.49812 34.3068 6.08304 32.2972 7.32826 30.7014C8.45489 29.2829 10.6488 28.4555 14.0288 28.3372L87.141 22.7223C89.3349 22.5449 91.5882 24.3772 92.0626 26.8005L123.253 177.754C123.49 178.818 123.075 180.178 122.126 181.36C121.177 182.542 119.102 184.433 114.713 184.551L42.4909 190.52C42.3723 190.52 42.2537 190.52 42.1351 190.52ZM87.4374 23.2542H87.2003L14.0881 28.8692C10.9453 29.0464 8.81067 29.7557 7.80263 31.056C6.7353 32.4745 7.09108 34.2477 7.32826 35.4889L38.103 186.265C38.5181 188.393 40.4749 190.048 42.3723 189.87L114.654 183.901C118.806 183.782 120.822 182.009 121.652 180.946C122.422 180.118 122.778 178.936 122.66 177.813L91.4696 26.8596C91.0546 24.791 89.2757 23.2542 87.4374 23.2542Z" fill="#2E3038"/>
<path d="M120.228 181.478L47.9458 187.447C45.8704 187.625 43.795 185.911 43.3207 183.606L12.6052 32.8296C12.1309 30.5245 13.4354 28.5149 15.5107 28.3377L87.7929 22.4272C89.8683 22.2499 91.9437 23.9639 92.418 26.2689L123.134 177.045C123.608 179.291 122.304 181.301 120.228 181.478Z" fill="white"/>
<path d="M47.7093 187.743C45.5746 187.743 43.5586 185.969 43.0842 183.665L12.3094 32.8886C12.013 31.7065 12.3094 30.4061 13.021 29.4605C13.6139 28.6921 14.5034 28.1602 15.5114 28.1011L87.7936 22.0724C89.9875 21.895 92.2407 23.7273 92.7151 26.1506L123.431 176.927C123.727 178.109 123.431 179.409 122.719 180.414C122.126 181.182 121.237 181.714 120.229 181.773L48.0057 187.743H47.7093ZM88.09 22.6634H87.8529L15.5707 28.633C14.7406 28.6921 13.9697 29.1058 13.4953 29.756C12.9024 30.6426 12.6652 31.7065 12.9024 32.7112L43.6772 183.547C44.0922 185.674 46.049 187.329 47.9464 187.151L120.229 181.182C121.059 181.123 121.83 180.709 122.304 180.059C122.897 179.173 123.134 178.109 122.897 177.045L92.1814 26.3279C91.7071 24.2593 89.9282 22.6634 88.09 22.6634Z" fill="#2E3038"/>
<path d="M59.0937 34.4252L49.1912 35.2526C48.5983 35.2526 48.0645 34.8389 47.9459 34.1888C47.8274 33.7159 48.0645 33.184 48.5983 33.0067C48.6576 33.0067 48.7169 33.0067 48.7169 33.0067L58.6786 32.1792C59.2716 32.1792 59.8052 32.5929 59.9238 33.243C60.1017 33.7751 59.8052 34.2478 59.2716 34.4252C59.2123 34.4252 59.153 34.4252 59.0937 34.4252Z" fill="#2E3038"/>
<path d="M116.077 167.351L46.3442 173.085L18.7715 37.9123L35.3151 36.553L37.5091 38.0897C38.2206 38.6216 39.1101 38.8581 39.9995 38.7989L69.1733 36.4348C70.0628 36.3756 70.8336 35.9619 71.3672 35.2526L72.7311 33.4795L88.5039 32.1792L116.077 167.351Z" fill="#184AFB"/>
<path d="M46.3457 173.44C46.2272 173.44 46.1086 173.321 46.0493 173.203L18.4766 37.9716C18.4766 37.9125 18.4766 37.7943 18.5359 37.7351C18.5952 37.6761 18.6544 37.6169 18.7137 37.6169L35.2574 36.2576C35.3167 36.2576 35.376 36.2576 35.4352 36.3166L37.6292 37.8533C38.2815 38.3262 39.1116 38.5626 39.9418 38.5035L69.1155 36.0802C69.8864 36.0211 70.5979 35.6073 71.0723 35.0163L72.4361 33.2432C72.4954 33.184 72.5547 33.125 72.6733 33.125L88.4461 31.8247C88.624 31.8247 88.7425 31.9429 88.7425 32.0611L116.316 167.293C116.316 167.351 116.316 167.47 116.256 167.529C116.197 167.588 116.138 167.647 116.019 167.647L46.3457 173.44ZM19.1288 38.1488L46.5829 172.79L115.723 167.057L88.2682 32.4748L72.8512 33.7161L71.606 35.371C71.013 36.1394 70.1828 36.6121 69.1748 36.6713L40.0011 39.0946C39.0523 39.1536 38.1036 38.8581 37.2735 38.3262L35.2574 36.8486L19.1288 38.1488Z" fill="#2E3038"/>
<path d="M84.2951 174.208C84.1172 173.262 83.2871 172.612 82.3383 172.612C81.5081 172.73 80.9745 173.44 81.0338 174.267C81.0338 174.326 81.0338 174.444 81.0931 174.503C81.271 175.449 82.1012 176.099 83.0499 176.099C83.88 175.98 84.4137 175.271 84.3544 174.444C84.3544 174.385 84.3544 174.326 84.2951 174.208Z" fill="#2E3038"/>
<path d="M39.1695 66.8736L31.6983 67.4647C30.453 67.4647 29.3857 66.5781 29.2079 65.3959L27.5475 57.1213C27.3103 55.8801 28.0219 54.7571 29.1486 54.698L36.6198 54.0479C37.8651 54.0479 38.9324 54.9344 39.1103 56.1756L40.7706 64.3911C41.0078 65.6915 40.2962 66.8144 39.1695 66.8736Z" fill="white"/>
<path d="M31.5809 67.8193C30.2764 67.7602 29.1498 66.7555 28.9126 65.5142L27.2523 57.2396C27.0744 56.5303 27.2523 55.8211 27.6673 55.23C28.0231 54.7572 28.5568 54.4617 29.1498 54.4025L36.6211 53.8115C37.9849 53.8115 39.1709 54.7572 39.4673 56.1166L41.1276 64.3322C41.3055 65.0414 41.1276 65.7507 40.7125 66.3417C40.3568 66.8145 39.8231 67.11 39.2895 67.1692L31.8181 67.7602L31.5809 67.8193ZM36.7397 54.4025H36.6211L29.1498 54.9936C28.7347 55.0527 28.3789 55.23 28.1417 55.5847C27.8452 56.0574 27.7266 56.5895 27.8452 57.1214L29.5055 65.396C29.6834 66.4599 30.6321 67.2282 31.6995 67.2282L39.1709 66.6372C39.5859 66.5781 39.9417 66.4008 40.1789 66.0462C40.4753 65.6325 40.5939 65.0414 40.4753 64.5095L38.8151 56.2939C38.6371 55.2891 37.807 54.4617 36.7397 54.4025Z" fill="white"/>
<path d="M55.8318 65.5142L48.3604 66.1052C47.1151 66.1052 46.0478 65.2186 45.87 63.9775L44.2096 55.7619C43.9725 54.5207 44.684 53.3977 45.8107 53.3386L53.282 52.7476C54.5272 52.7476 55.5945 53.6341 55.7724 54.8754L57.4327 63.0909C57.6699 64.3321 56.9583 65.4551 55.8318 65.5142Z" fill="white"/>
<path d="M48.243 66.4599C46.9385 66.4009 45.8119 65.3961 45.5747 64.0958L43.9144 55.8802C43.7365 55.171 43.9144 54.4617 44.3294 53.8706C44.6852 53.3979 45.219 53.1023 45.8119 53.0432L53.2832 52.4521C54.647 52.4521 55.833 53.4569 56.1294 54.7572L57.7897 62.9728C57.9677 63.6821 57.7897 64.3913 57.3746 64.9824C57.0189 65.4552 56.4852 65.7507 55.8923 65.8098L48.4209 66.4009L48.243 66.4599ZM53.4018 53.0432H53.2832L45.8119 53.6343C45.3968 53.6934 45.0411 53.8706 44.8039 54.2253C44.5073 54.6982 44.3887 55.2301 44.5073 55.762L46.1677 63.9776C46.3455 65.0414 47.2942 65.8098 48.3616 65.8098L55.833 65.2188C56.248 65.1597 56.6038 64.9824 56.841 64.6869C57.1374 64.214 57.256 63.6821 57.1374 63.1501L55.4772 54.9346C55.2993 53.9298 54.4098 53.1023 53.4018 53.0432Z" fill="white"/>
<path d="M72.4353 64.1548L64.9639 64.7458C63.7187 64.7458 62.6514 63.8593 62.4735 62.618L60.8131 54.4025C60.576 53.1613 61.2876 52.0383 62.4142 51.9792L69.8855 51.3882C71.1307 51.3882 72.1981 52.2748 72.376 53.4568L74.0362 61.7315C74.3328 62.9727 73.6211 64.0365 72.4353 64.1548Z" fill="white"/>
<path d="M64.8466 65.0415C63.5421 64.9824 62.4154 63.9776 62.1782 62.6774L60.5179 54.4618C60.34 53.7525 60.5179 53.0433 60.9331 52.4522C61.2888 51.9793 61.8225 51.6838 62.4154 51.6248L69.8867 51.0337C71.2505 51.0337 72.4958 51.9793 72.733 53.3388L74.3933 61.5543C74.5712 62.2635 74.3933 62.9728 73.9781 63.5638C73.6224 64.0367 73.0887 64.3323 72.4958 64.3913L65.0244 64.9824L64.8466 65.0415ZM70.0053 51.6838H69.8867L62.4154 52.2749C62.0003 52.2749 61.6446 52.5112 61.4074 52.8068C61.1109 53.2797 60.9924 53.8116 61.1109 54.3435L62.8305 62.5591C63.0083 63.623 63.9571 64.3913 65.0244 64.3913L72.4958 63.8003C72.9108 63.7412 73.2666 63.5638 73.5038 63.2093C73.8003 62.7955 73.9188 62.2045 73.8003 61.6726L72.14 53.3978C71.9028 52.5112 71.0726 51.7429 70.0053 51.6838Z" fill="white"/>
<path d="M89.0973 62.7955L81.626 63.3865C80.3808 63.3865 79.3134 62.4999 79.1355 61.2588L77.4753 53.0432C77.238 51.802 77.9496 50.679 79.0762 50.6199L86.5476 50.0288C87.7927 50.0288 88.8601 50.9154 89.038 52.1566L90.6983 60.3722C90.9355 61.6133 90.2239 62.6773 89.0973 62.7955Z" fill="white"/>
<path d="M81.5086 63.6822C80.2042 63.623 79.0775 62.6183 78.8403 61.318L77.1801 53.1024C77.0021 52.3932 77.1801 51.6839 77.5951 51.0928C77.9509 50.62 78.4845 50.3245 79.0775 50.2654L86.5488 49.6743C87.9127 49.6743 89.0985 50.62 89.395 51.9794L91.0553 60.195C91.2332 60.9043 91.0554 61.6135 90.6403 62.2045C90.2845 62.6774 89.7508 62.9729 89.1578 63.032L81.6865 63.623L81.5086 63.6822ZM86.6674 50.2654H86.5488L79.0775 50.8565C78.6624 50.9155 78.3066 51.0928 78.0695 51.4475C77.773 51.8613 77.6544 52.4522 77.8323 52.9251L79.4925 61.1998C79.6705 62.2636 80.6192 63.032 81.6865 63.032L89.1578 62.441C89.5729 62.3818 89.9287 62.2045 90.1659 61.8499C90.4624 61.377 90.581 60.8451 90.4624 60.3132L88.8021 52.0976C88.5649 51.152 87.7348 50.3836 86.6674 50.2654Z" fill="white"/>
<path d="M43.0844 85.8462L35.6131 86.4372C34.3678 86.4372 33.3005 85.5507 33.1226 84.3095L31.403 76.094C31.1658 74.8527 31.8773 73.7297 33.004 73.6707L40.4754 73.0796C41.7205 73.0796 42.7878 73.9662 42.9658 75.2074L44.6261 83.4229C44.9225 84.6641 44.211 85.728 43.0844 85.8462Z" fill="white"/>
<path d="M35.4345 86.792C34.1299 86.7329 33.0033 85.7281 32.7661 84.4278L31.1058 76.2123C30.9279 75.503 31.1058 74.7938 31.5209 74.2027C31.8766 73.7298 32.4104 73.4343 32.944 73.3753L40.4153 72.7842C41.8384 72.7842 43.0244 73.789 43.2616 75.1484L44.9218 83.3639C45.0997 84.0732 44.9218 84.7824 44.5067 85.3735C44.151 85.8463 43.6173 86.1418 43.0837 86.201L35.6123 86.792H35.4345ZM40.5932 73.3753H40.4746L33.0033 73.9662C32.5882 73.9662 32.2325 74.2027 31.9953 74.4982C31.6987 74.912 31.5801 75.503 31.6987 76.035L33.3591 84.3096C33.5369 85.3735 34.4857 86.1418 35.553 86.1418L43.0244 85.5508C43.4394 85.4917 43.7952 85.3144 44.0324 84.9598C44.3289 84.546 44.4474 83.955 44.3289 83.4231L42.6686 75.2075C42.4906 74.2027 41.6605 73.4343 40.5932 73.3753Z" fill="white"/>
<path d="M59.6872 84.4869L52.2159 85.078C50.9706 85.078 49.9033 84.1914 49.7254 82.9502L48.0651 74.7346C47.8279 73.4934 48.5395 72.3704 49.6661 72.3113L57.1375 71.7202C58.3827 71.7202 59.45 72.6068 59.6279 73.848L61.2882 82.0636C61.5253 83.3048 60.8138 84.3687 59.6872 84.4869Z" fill="white"/>
<path d="M52.0966 85.3735C50.7921 85.3144 49.6654 84.3096 49.4282 83.0093L47.7679 74.7937C47.59 74.0845 47.7679 73.3752 48.1831 72.7842C48.5388 72.3114 49.0725 72.0159 49.6061 71.9567L57.0775 71.3657C58.4413 71.3657 59.6865 72.3114 59.9237 73.6708L61.584 81.8863C61.7619 82.5956 61.584 83.3048 61.1688 83.8959C60.8131 84.3687 60.2794 84.6642 59.7458 84.7234L52.2744 85.3144L52.0966 85.3735ZM57.2553 72.0159H57.1367L49.6654 72.6068C49.2503 72.666 48.8946 72.8433 48.6574 73.1979C48.3609 73.6116 48.2424 74.2027 48.3609 74.7346L50.0212 82.9502C50.1991 84.0141 51.1479 84.7824 52.2152 84.7824L59.6865 84.1914C60.1015 84.1914 60.4573 83.955 60.6945 83.6594C60.991 83.2457 61.1096 82.6546 60.991 82.1227L59.3307 73.9071C59.1528 72.8433 58.2633 72.0749 57.2553 72.0159Z" fill="white"/>
<path d="M92.9527 81.709L85.4814 82.3591C84.2362 82.3591 83.1688 81.4725 82.991 80.2314L81.3307 72.0158C81.0936 70.7746 81.8051 69.6516 82.9317 69.5925L90.403 69.0015C91.6483 69.0015 92.7156 69.888 92.8935 71.0702L94.5541 79.2857C94.7912 80.5269 94.0794 81.6499 92.9527 81.709Z" fill="white"/>
<path d="M85.3621 82.6549C84.0576 82.5957 82.9309 81.5909 82.6938 80.2906L81.0335 72.075C80.8556 71.3658 81.0335 70.6566 81.4486 70.0656C81.8044 69.5927 82.338 69.2972 82.8716 69.2381L90.343 68.647C91.7069 68.647 92.8927 69.5927 93.1892 70.9521L94.8496 79.2268C95.0275 79.936 94.8496 80.6453 94.4346 81.2363C94.0787 81.7091 93.5451 82.0047 93.0113 82.0638L85.5401 82.6549H85.3621ZM90.5209 69.2381H90.4023L82.9309 69.8291C82.5159 69.8291 82.1601 70.0656 81.9229 70.3611C81.6265 70.7748 81.5079 71.3659 81.6265 71.8978L83.2868 80.1134C83.4647 81.1772 84.4134 81.9456 85.4807 81.9456L92.952 81.3545C93.3672 81.2954 93.7229 81.1182 93.9601 80.7635C94.2567 80.3498 94.3753 79.7587 94.2567 79.2268L92.5963 71.1294C92.4184 70.0656 91.5883 69.2972 90.5209 69.2381Z" fill="white"/>
<path d="M46.9392 104.819L39.4678 105.41C38.2226 105.41 37.1553 104.523 36.9774 103.282L35.3171 95.0669C35.0799 93.8254 35.7914 92.7024 36.9181 92.6433L44.3894 92.0522C45.6346 92.0522 46.702 92.9388 46.8799 94.1796L48.5401 102.396C48.7773 103.637 48.0658 104.701 46.9392 104.819Z" fill="white"/>
<path d="M39.288 105.706C37.9835 105.646 36.8568 104.642 36.6196 103.341L34.9593 95.1262C34.7814 94.4163 34.9593 93.7073 35.3745 93.1163C35.7302 92.6435 36.2639 92.3479 36.7975 92.2888L44.2689 91.6978C45.692 91.6978 46.8779 92.7025 47.1151 94.0624L48.7754 102.277C48.9533 102.986 48.7754 103.696 48.3603 104.287C48.0045 104.76 47.4708 105.056 46.9372 105.115L39.4658 105.706H39.288ZM44.4467 92.2888H44.3282L36.8568 92.8798C36.4418 92.939 36.086 93.1162 35.8488 93.4709C35.5523 93.8846 35.4338 94.4755 35.5523 95.0079L37.2126 103.223C37.3905 104.287 38.3393 105.056 39.4066 105.056L46.8779 104.464C47.293 104.405 47.6487 104.228 47.8859 103.874C48.1825 103.46 48.3011 102.869 48.1825 102.337L46.5221 94.1797C46.3442 93.1754 45.5141 92.4071 44.4467 92.2888Z" fill="white"/>
<path d="M63.5407 103.4L56.0694 103.992C54.8242 103.992 53.7568 103.105 53.5789 101.864L51.9186 93.6482C51.6814 92.4069 52.3931 91.2839 53.5196 91.2249L60.991 90.6338C62.2362 90.6338 63.3036 91.5204 63.4814 92.7616L65.1417 100.978C65.3789 102.218 64.6673 103.341 63.5407 103.4Z" fill="white"/>
<path d="M55.95 104.346C54.6455 104.287 53.5188 103.282 53.2817 101.982L51.6214 93.7665C51.4435 93.0572 51.6214 92.3479 52.0365 91.7569C52.3922 91.284 52.9259 90.9885 53.4595 90.9294L60.9309 90.3384C62.2947 90.3384 63.5399 91.284 63.7771 92.6435L65.4374 100.859C65.6153 101.568 65.4374 102.277 65.0224 102.869C64.6665 103.341 64.1329 103.637 63.5992 103.696L56.1279 104.287L55.95 104.346ZM61.1088 90.9294H60.9902L53.5188 91.5204C53.1038 91.5795 52.748 91.7569 52.5108 92.1115C52.2144 92.5252 52.0958 93.1162 52.2144 93.6482L53.8746 101.864C54.0526 102.928 55.0013 103.696 56.0686 103.696L63.5399 103.105C63.955 103.045 64.3107 102.869 64.5479 102.514C64.8445 102.1 64.9631 101.509 64.8445 100.977L63.1841 92.7617C63.0063 91.8159 62.1169 91.0476 61.1088 90.9294Z" fill="white"/>
<path d="M80.2028 102.041L72.7314 102.632C71.4863 102.632 70.4189 101.746 70.241 100.504L68.5808 92.2888C68.3435 91.0476 69.0551 89.9246 70.1817 89.8655L77.653 89.2744C78.8983 89.2744 79.9656 90.161 80.1435 91.4022L81.8038 99.618C82.041 100.859 81.3295 101.982 80.2028 102.041Z" fill="white"/>
<path d="M72.614 102.987C71.3096 102.928 70.1829 101.923 69.9457 100.623L68.2855 92.4071C68.1076 91.6979 68.2855 90.9886 68.7005 90.3975C69.0563 89.9247 69.5899 89.6291 70.1236 89.5701L77.5949 88.979C78.9588 88.979 80.204 89.9247 80.4412 91.2841L82.1015 99.4999C82.2794 100.209 82.1015 100.918 81.6864 101.509C81.3307 101.982 80.7969 102.277 80.2633 102.337L72.7919 102.928L72.614 102.987ZM77.7728 89.5701H77.6542L70.1829 90.1611C69.7678 90.2202 69.4121 90.3975 69.1749 90.7521C68.8784 91.1659 68.7598 91.7569 68.8784 92.2889L70.5387 100.505C70.7166 101.568 71.6653 102.337 72.7326 102.337L80.204 101.746C80.619 101.746 80.9748 101.509 81.2121 101.214C81.5085 100.8 81.6271 100.209 81.5085 99.6774L79.8482 91.4614C79.6703 90.3975 78.8402 89.6291 77.7728 89.5701Z" fill="white"/>
<path d="M96.865 100.682L89.3935 101.273C88.1483 101.273 87.081 100.386 86.9031 99.1449L85.2428 90.9293C85.0057 89.6881 85.7172 88.5652 86.8438 88.506L94.3154 87.915C95.5606 87.915 96.6279 88.8015 96.8058 90.0427L98.466 98.2585C98.7032 99.4998 97.9323 100.564 96.865 100.682Z" fill="white"/>
<path d="M89.2164 101.569C87.9118 101.509 86.7853 100.505 86.5481 99.2042L84.8285 90.9886C84.6506 90.2793 84.8285 89.57 85.2435 88.979C85.5993 88.5062 86.133 88.2107 86.6667 88.1515L94.1375 87.5605C95.5615 87.5605 96.7474 88.5653 96.9846 89.9247L98.6448 98.1404C98.8227 98.8493 98.6448 99.5591 98.2298 100.15C97.874 100.623 97.3404 100.918 96.8067 100.977L89.335 101.569H89.2164ZM94.3747 88.2107H94.2561L86.7853 88.8017C86.3702 88.8608 86.0143 89.0381 85.7772 89.3927C85.4807 89.8065 85.3621 90.3975 85.4807 90.9295L87.141 99.145C87.3189 100.209 88.2676 100.977 89.335 100.977L96.8067 100.386C97.2218 100.327 97.5775 100.15 97.8147 99.7948C98.1112 99.3817 98.2298 98.7901 98.1112 98.2587L96.4509 90.0429C96.2731 89.0381 95.443 88.2697 94.3747 88.2107Z" fill="white"/>
<path d="M50.7927 123.732L43.3213 124.323C42.0761 124.323 41.0088 123.437 40.8309 122.255L39.1706 113.979C38.9334 112.739 39.645 111.616 40.7716 111.557L48.2429 110.965C49.4881 110.965 50.5555 111.852 50.7334 113.034L52.3936 121.25C52.6308 122.55 51.9193 123.673 50.7927 123.732Z" fill="white"/>
<path d="M43.202 124.678C41.8976 124.619 40.7709 123.615 40.5337 122.314L38.8734 114.098C38.6955 113.389 38.8734 112.68 39.2885 112.089C39.6443 111.616 40.1779 111.321 40.7709 111.262L48.2422 110.671C49.6061 110.671 50.8513 111.616 51.0884 112.975L52.7488 121.191C52.9266 121.9 52.7488 122.61 52.3337 123.2C51.9779 123.674 51.4442 123.969 50.8513 124.028L43.3799 124.619L43.202 124.678ZM48.3608 111.262H48.2422L40.7709 111.852C40.3558 111.911 40.0001 112.089 39.7629 112.444C39.4664 112.916 39.3478 113.448 39.4664 113.981L41.1266 122.196C41.3045 123.26 42.2533 124.028 43.3206 124.028L50.792 123.437C51.207 123.378 51.5628 123.2 51.8001 122.846C52.0965 122.373 52.2151 121.841 52.0965 121.309L50.3769 113.153C50.199 112.089 49.3689 111.321 48.3608 111.262Z" fill="white"/>
<path d="M67.3961 122.373L59.9248 122.965C58.6796 122.965 57.6122 122.077 57.4343 120.896L55.7741 112.68C55.5369 111.439 56.2484 110.316 57.375 110.257L64.8464 109.666C66.0915 109.666 67.1589 110.552 67.3368 111.735L68.9971 119.95C69.2936 121.191 68.582 122.255 67.3961 122.373Z" fill="white"/>
<path d="M59.8055 123.319C58.501 123.259 57.3743 122.255 57.1371 120.954L55.4769 112.739C55.299 112.029 55.4769 111.32 55.8919 110.729C56.2477 110.257 56.7814 109.961 57.3743 109.902L64.8456 109.311C66.2095 109.311 67.4547 110.257 67.6919 111.675L69.3522 119.89C69.5301 120.6 69.3522 121.309 68.9371 121.9C68.5814 122.373 68.0477 122.669 67.4547 122.728L59.9833 123.319H59.8055ZM64.9642 109.902H64.8456L57.3743 110.493C56.9592 110.552 56.6035 110.729 56.3663 111.084C56.0698 111.557 55.9512 112.089 56.0698 112.621L57.7302 120.836C57.908 121.9 58.8567 122.669 59.924 122.669L67.3954 122.077C67.8104 122.018 68.1663 121.841 68.4035 121.487C68.6999 121.013 68.8185 120.482 68.6999 119.95L67.0396 111.735C66.8617 110.729 66.0316 109.961 64.9642 109.902Z" fill="white"/>
<path d="M84.0582 121.014L76.5869 121.605C75.3417 121.605 74.2743 120.718 74.0964 119.537L72.4362 111.321C72.199 110.079 72.9106 108.956 74.0371 108.897L81.5085 108.307C82.7538 108.307 83.821 109.193 83.9989 110.375L85.6593 118.649C85.8964 119.832 85.1849 120.895 84.0582 121.014Z" fill="white"/>
<path d="M76.4677 121.9C75.1631 121.841 74.0365 120.836 73.7993 119.537L72.139 111.321C71.9611 110.612 72.139 109.902 72.5541 109.311C72.9098 108.838 73.4435 108.542 74.0365 108.542L81.5078 107.952C82.8716 107.952 84.1168 108.897 84.354 110.316L86.0143 118.531C86.1922 119.241 86.0143 119.95 85.5992 120.541C85.2435 121.014 84.7098 121.309 84.1168 121.369L76.6455 121.959L76.4677 121.9ZM81.6263 108.542H81.5078L74.0365 109.134C73.6214 109.193 73.2656 109.37 73.0284 109.724C72.7319 110.198 72.6134 110.73 72.7319 111.262L74.3923 119.477C74.5702 120.541 75.5189 121.309 76.5862 121.309L84.0575 120.718C84.4725 120.66 84.8284 120.482 85.0656 120.127C85.3621 119.713 85.4806 119.123 85.3621 118.59L83.7017 110.316C83.4646 109.37 82.6344 108.601 81.6263 108.542Z" fill="white"/>
<path d="M100.719 119.654L93.2478 120.245C92.0026 120.245 90.9353 119.359 90.7574 118.177L89.0378 109.961C88.8006 108.72 89.5121 107.597 90.6388 107.537L98.1101 106.947C99.3553 106.947 100.423 107.833 100.6 109.015L102.261 117.231C102.557 118.473 101.846 119.536 100.719 119.654Z" fill="white"/>
<path d="M93.0712 120.541C91.7666 120.482 90.64 119.477 90.4028 118.177L88.7425 109.961C88.5646 109.252 88.7425 108.542 89.1576 107.951C89.5133 107.478 90.0471 107.183 90.5807 107.124L98.0524 106.533C99.4161 106.533 100.661 107.478 100.898 108.838L102.559 117.054C102.737 117.763 102.559 118.472 102.144 119.063C101.788 119.536 101.254 119.831 100.661 119.89L93.1898 120.482L93.0712 120.541ZM98.2302 107.124H98.1116L90.64 107.715C90.225 107.774 89.8692 107.951 89.6319 108.306C89.3355 108.72 89.2169 109.311 89.3355 109.843L90.9958 118.059C91.1737 119.122 92.1224 119.89 93.1898 119.89L100.661 119.3C101.076 119.3 101.432 119.063 101.669 118.708C101.966 118.236 102.084 117.704 101.966 117.172L100.306 108.897C100.128 108.011 99.2975 107.243 98.2302 107.124Z" fill="white"/>
<path d="M54.6462 142.706L47.1749 143.296C45.9297 143.296 44.8623 142.41 44.6844 141.228L43.0241 133.012C42.7869 131.77 43.4985 130.647 44.6251 130.588L52.0965 129.998C53.3416 129.998 54.409 130.884 54.5869 132.066L56.2472 140.282C56.4844 141.523 55.7728 142.587 54.6462 142.706Z" fill="white"/>
<path d="M47.0574 143.592C45.7529 143.533 44.6263 142.528 44.3891 141.228L42.7288 133.012C42.551 132.303 42.7288 131.594 43.1439 131.002C43.4997 130.529 44.0333 130.234 44.567 130.175L52.0383 129.583C53.4022 129.583 54.6473 130.529 54.8845 131.948L56.5448 140.164C56.7227 140.873 56.5448 141.582 56.1298 142.173C55.774 142.646 55.2403 142.941 54.6473 143L47.176 143.592H47.0574ZM52.2162 130.234H52.0976L44.6263 130.825C44.2112 130.825 43.8554 131.061 43.6183 131.416C43.3218 131.83 43.2032 132.421 43.3218 132.953L44.9821 141.168C45.16 142.232 46.1087 143 47.176 143L54.6473 142.41C55.0624 142.351 55.4182 142.173 55.6554 141.818C55.9519 141.405 56.0705 140.814 55.9519 140.282L54.2916 132.066C54.0544 131.061 53.2243 130.293 52.2162 130.234Z" fill="white"/>
<path d="M71.3082 141.346L63.8369 141.936C62.5917 141.936 61.5243 141.05 61.3464 139.868L59.6862 131.594C59.449 130.352 60.1606 129.229 61.2871 129.17L68.7585 128.58C70.0037 128.58 71.071 129.466 71.2489 130.648L72.9093 138.863C73.1464 140.164 72.4348 141.227 71.3082 141.346Z" fill="white"/>
<path d="M63.6591 142.232C62.3545 142.173 61.2279 141.168 60.9907 139.868L59.3304 131.594C59.1525 130.884 59.3304 130.175 59.7455 129.584C60.1012 129.111 60.6349 128.815 61.1686 128.756L68.6399 128.166C70.0037 128.166 71.2489 129.111 71.4861 130.471L73.1464 138.686C73.3243 139.396 73.1464 140.104 72.7313 140.696C72.3756 141.168 71.8419 141.464 71.3082 141.523L63.8369 142.114L63.6591 142.232ZM68.8177 128.815H68.6992L61.2279 129.407C60.8128 129.466 60.457 129.643 60.2198 129.997C59.9233 130.412 59.8048 131.002 59.9233 131.535L61.5837 139.809C61.7616 140.873 62.7103 141.642 63.7777 141.642L71.2489 141.05C71.664 140.991 72.0198 140.813 72.257 140.459C72.5535 140.045 72.672 139.455 72.5535 138.922L70.8931 130.707C70.7153 129.702 69.8851 128.934 68.8177 128.815Z" fill="white"/>
<path d="M87.9117 139.927L80.4404 140.518C79.1952 140.518 78.1279 139.631 77.95 138.449L76.2897 130.234C76.0525 128.993 76.7641 127.87 77.8908 127.811L85.362 127.22C86.6073 127.22 87.6746 128.107 87.9117 129.289L89.5721 137.504C89.75 138.745 89.0384 139.868 87.9117 139.927Z" fill="white"/>
<path d="M80.3212 140.873C79.0166 140.814 77.89 139.809 77.6528 138.509L75.9925 130.293C75.8146 129.584 75.9925 128.875 76.4076 128.284C76.7633 127.811 77.2971 127.515 77.8307 127.457L85.3021 126.865C86.6658 126.865 87.9111 127.811 88.1483 129.23L89.8085 137.446C89.9864 138.154 89.8085 138.863 89.3935 139.455C89.0377 139.927 88.504 140.223 87.9704 140.282L80.4991 140.873H80.3212ZM85.48 127.457H85.3614L77.89 128.047C77.475 128.107 77.1191 128.284 76.8819 128.638C76.5855 129.052 76.4669 129.644 76.5855 130.175L78.2458 138.391C78.4237 139.455 79.3724 140.223 80.4398 140.223L87.9111 139.632C88.3262 139.573 88.6819 139.396 88.9191 139.041C89.2156 138.627 89.3342 138.036 89.2156 137.504L87.5553 129.289C87.3774 128.284 86.5472 127.515 85.48 127.457Z" fill="white"/>
<path d="M104.574 138.567L97.1026 139.159C95.8574 139.159 94.7901 138.273 94.6122 137.09L92.9518 128.874C92.7146 127.633 93.4262 126.51 94.5529 126.451L102.024 125.86C103.269 125.86 104.336 126.747 104.514 127.929L106.175 136.203C106.412 137.385 105.7 138.508 104.574 138.567Z" fill="white"/>
<path d="M96.9836 139.513C95.6791 139.454 94.5525 138.449 94.3153 137.15L92.6546 128.934C92.4767 128.225 92.6546 127.515 93.0697 126.924C93.4254 126.451 93.9592 126.155 94.4932 126.097L101.964 125.505C103.328 125.505 104.514 126.451 104.81 127.811L106.471 136.086C106.649 136.795 106.471 137.503 106.056 138.095C105.7 138.567 105.166 138.863 104.573 138.922L97.1021 139.513H96.9836ZM102.083 126.097H101.964L94.4932 126.688C94.0778 126.747 93.722 126.924 93.4847 127.278C93.1883 127.692 93.0697 128.284 93.1883 128.815L94.849 137.031C95.0269 138.095 95.9756 138.863 97.0429 138.863L104.514 138.273C104.929 138.213 105.285 138.036 105.522 137.681C105.818 137.267 105.937 136.676 105.818 136.144L104.158 127.929C103.98 126.924 103.15 126.155 102.083 126.097Z" fill="white"/>
<path d="M58.5016 161.678L51.0302 162.269C49.7851 162.269 48.7177 161.382 48.5398 160.2L46.8796 151.984C46.6424 150.743 47.3539 149.62 48.4805 149.562L55.9518 148.97C57.1971 148.97 58.2644 149.857 58.4423 151.039L60.1026 159.255C60.3398 160.496 59.6282 161.56 58.5016 161.678Z" fill="#2E3038"/>
<path d="M75.1637 160.259L67.6924 160.85C66.4472 160.85 65.3799 159.963 65.202 158.781L63.5417 150.566C63.3045 149.325 64.016 148.202 65.1427 148.143L72.614 147.551C73.8592 147.551 74.9265 148.439 75.1044 149.62L76.7647 157.836C77.0019 159.077 76.2904 160.2 75.1637 160.259Z" fill="#2E3038"/>
<path d="M91.7653 158.9L84.294 159.491C83.0487 159.491 81.9814 158.604 81.8036 157.422L80.1432 149.207C79.9061 147.966 80.6176 146.843 81.7443 146.783L89.2156 146.193C90.4608 146.193 91.5282 147.079 91.7061 148.261L93.3663 156.476C93.6035 157.718 92.8919 158.782 91.7653 158.9Z" fill="#2E3038"/>
<path d="M108.429 157.54L100.958 158.132C99.7127 158.132 98.6454 157.245 98.4675 156.063L96.8073 147.847C96.5701 146.606 97.2816 145.483 98.4082 145.424L105.879 144.833C107.124 144.833 108.192 145.719 108.37 146.902L110.031 155.118C110.268 156.358 109.556 157.422 108.429 157.54Z" fill="#2E3038"/>
<path d="M66.0915 90.6931C63.8975 90.6931 61.7035 88.8017 61.2292 86.3784L57.7899 69.6517C57.4934 68.4106 57.7899 67.0512 58.5015 66.0464C59.0945 65.219 60.0432 64.687 61.0513 64.6279L76.1717 63.3867C78.4843 63.2094 80.8562 65.1598 81.3305 67.7013L84.7698 84.428C85.0662 85.6691 84.8291 86.9695 84.0581 88.0333C83.4652 88.8609 82.5165 89.3928 81.4491 89.4518L66.3286 90.6931H66.0915ZM76.5276 63.5049H76.231L61.1106 64.7461C60.1025 64.8052 59.2131 65.3371 58.6201 66.1055C57.9085 67.1102 57.6713 68.4106 57.9085 69.5927L61.3477 86.3194C61.8814 88.8017 64.1347 90.6931 66.3879 90.5158L81.5084 89.2746C82.5165 89.2154 83.4059 88.6835 83.9988 87.9151C84.7105 86.9103 84.9476 85.6101 84.7105 84.428L81.2712 67.7013C80.7376 65.3371 78.7215 63.5049 76.5276 63.5049Z" fill="#2E3038"/>
<path d="M66.8616 88.8019C64.9049 88.8019 63.0667 87.147 62.6516 85.0192L59.7461 70.7158C59.509 69.652 59.7461 68.4699 60.3984 67.5833C60.932 66.874 61.7621 66.4012 62.6516 66.3421L75.5782 65.2782C77.5942 65.1009 79.6103 66.815 80.0847 69.0609L82.9902 83.3643C83.2275 84.4281 82.9902 85.6103 82.338 86.4968C81.8043 87.206 80.9742 87.6789 80.0847 87.738L67.1582 88.8019C67.0396 88.8019 66.9209 88.8019 66.8616 88.8019ZM75.7561 65.5737C75.6968 65.5737 75.5782 65.5737 75.5189 65.5737L62.5924 66.6376C61.7622 66.6967 61.0506 67.1104 60.5763 67.7606C59.9833 68.5881 59.7461 69.652 59.9833 70.6567L62.8888 84.9601C63.3039 87.0878 65.2014 88.6245 67.0989 88.4473L80.0254 87.3834C80.8556 87.3243 81.5671 86.9105 82.0415 86.2604C82.6344 85.4329 82.8716 84.369 82.6344 83.3643L79.7289 69.0609C79.3139 67.1105 77.5942 65.5737 75.7561 65.5737Z" fill="#2E3038"/>
<path d="M67.8707 86.2011C66.2104 86.0828 64.7873 84.8416 64.4909 83.1867L62.2376 72.1933C62.0597 71.3067 62.2376 70.4201 62.7119 69.6518C63.127 69.0607 63.8385 68.706 64.5501 68.647L74.5118 67.8195C76.1129 67.7012 77.7732 69.0016 78.129 70.8338L80.3822 81.8864C80.5601 82.773 80.3822 83.6596 79.8485 84.4279C79.4334 85.019 78.7812 85.3735 78.0104 85.4327L68.0486 86.2601L67.8707 86.2011ZM74.7491 68.2923H74.5712L64.6094 69.1197C64.0164 69.1789 63.4828 69.4744 63.127 69.9473C62.6526 70.5974 62.5341 71.3658 62.7119 72.1341L64.9652 83.1867C65.2617 84.7234 66.6848 85.9056 68.1079 85.7873L78.0697 84.9598C78.6626 84.9008 79.1963 84.6052 79.552 84.1324C80.0265 83.4823 80.1451 82.7139 79.9672 81.9455L77.7139 70.8929C77.4174 69.4744 76.2315 68.3514 74.7491 68.2923Z" fill="#2E3038"/>
<path d="M76.3493 83.1274L68.878 83.7185C67.6328 83.7185 66.5654 82.8319 66.3875 81.5907L64.7272 73.3752C64.49 72.134 65.2017 71.011 66.3282 70.9518L73.7996 70.3608C75.0448 70.3608 76.1121 71.2474 76.29 72.4886L77.9503 80.7041C78.1875 81.9453 77.4759 83.0092 76.3493 83.1274Z" fill="#2E3038"/>
<path d="M117.916 84.4281C117.916 84.4281 90.6992 78.1039 89.1576 77.8084C87.6158 77.5129 81.3305 75.6215 79.848 75.6806C78.3657 75.7397 73.0883 76.449 72.0802 76.9809C71.0722 77.5129 71.428 77.9857 71.9616 77.9266L77.5356 77.1582L80.4411 78.8131C80.4411 78.8131 78.6621 80.5863 78.5436 81.7684C78.3064 84.7237 78.3657 85.4329 79.0179 85.3146C79.6701 85.1964 79.7887 81.8866 79.7887 81.8866L80.2632 81.532L80.7375 84.0144C80.7375 84.0144 81.3898 84.9009 81.7455 83.8961C81.9827 83.246 81.5084 81.6501 81.5084 81.6501L82.4571 80.8227C82.4571 80.8227 82.6943 82.8914 83.1687 83.1278C83.643 83.3642 83.8802 83.1278 83.8209 82.7141C83.7616 82.3004 83.5245 80.7637 83.5245 80.7637L85.244 79.6997C85.244 79.6997 112.935 91.2842 115.781 91.7571C117.738 91.9935 119.754 91.8753 121.652 91.4024L117.916 84.4281Z" fill="white"/>
<path d="M117.62 92.2298C117.027 92.2298 116.374 92.1707 115.781 92.1116C112.935 91.6979 87.6747 81.1182 85.3028 80.1134L83.8798 80.9999C83.939 81.4137 84.1169 82.4184 84.1169 82.7139C84.1762 83.0095 84.0576 83.246 83.8205 83.4232C83.5833 83.6005 83.2274 83.6005 82.9902 83.4232C82.5752 83.1868 82.338 82.182 82.2194 81.4137L81.8044 81.7683C81.9229 82.2412 82.2194 83.4232 81.9822 84.0143C81.8637 84.428 81.6265 84.6053 81.33 84.6645C80.8556 84.7235 80.4998 84.2507 80.4405 84.1916C80.4405 84.1325 80.3812 84.1325 80.3812 84.0734L80.0254 82.0638C79.9662 83.6597 79.729 85.551 79.0174 85.6101C78.7803 85.6692 78.6024 85.6101 78.4245 85.4328C78.0094 85.0782 78.0094 84.1916 78.2466 81.7092C78.3059 80.7045 79.4325 79.4041 79.9662 78.8722L77.4757 77.4537L72.0205 78.163C71.6647 78.222 71.3682 78.0447 71.1903 77.7492C71.131 77.5127 71.131 77.099 71.9612 76.6261C73.0878 76.0352 78.4838 75.3259 79.8476 75.2668C80.915 75.2077 84.4727 76.1534 87.0224 76.8035C87.9711 77.0399 88.8014 77.2764 89.2164 77.3945C90.7581 77.7492 117.679 83.9552 117.975 84.0143C118.035 84.0143 118.153 84.0734 118.153 84.1325L121.948 91.166C122.007 91.225 122.007 91.3432 121.948 91.4024C121.889 91.4615 121.829 91.5206 121.77 91.5797C120.406 92.0525 119.043 92.2298 117.62 92.2298ZM85.2435 79.4632C85.3028 79.4632 85.3028 79.4632 85.3621 79.4632C85.6586 79.5815 113.054 91.0477 115.841 91.4615C117.62 91.6979 119.458 91.5797 121.236 91.166L117.738 84.6053C115.663 84.1325 90.5802 78.3402 89.0978 77.9856C88.6828 77.8674 87.8526 77.6901 86.8446 77.3945C84.4727 76.7444 80.8556 75.7987 79.8476 75.8578C78.3652 75.9169 73.1471 76.6262 72.1983 77.099C71.7833 77.3354 71.724 77.4537 71.724 77.5127C71.724 77.5719 71.7833 77.5127 71.8426 77.5127H71.9019L77.4757 76.8035C77.535 76.8035 77.5943 76.8035 77.6536 76.8626L80.5591 78.5175C80.6184 78.5767 80.6777 78.6357 80.6777 78.7539C80.6777 78.8722 80.6777 78.9313 80.6184 78.9904C80.144 79.4632 78.8989 80.8817 78.7803 81.7092C78.721 82.8322 78.5431 84.7235 78.7803 84.9599C78.8396 84.9599 78.8396 84.9599 78.8989 84.9599C79.136 84.7827 79.3732 83.305 79.3732 81.7683C79.3732 81.6501 79.4325 81.591 79.4918 81.5319L79.9662 81.1772C80.0254 81.1182 80.144 81.1182 80.2626 81.1182C80.3812 81.1772 80.4405 81.2364 80.4405 81.3546L80.915 83.7779C81.0335 83.8961 81.1521 83.9552 81.2114 83.9552C81.2707 83.9552 81.33 83.8961 81.3893 83.7187C81.4486 83.0095 81.3893 82.3002 81.1521 81.6501C81.0928 81.5319 81.1521 81.4137 81.2707 81.3546L82.2194 80.5271C82.2787 80.468 82.3973 80.468 82.5159 80.468C82.6345 80.5271 82.6938 80.5862 82.6938 80.7045C82.8124 81.7092 83.0495 82.6549 83.2867 82.8322C83.346 82.8913 83.4053 82.8913 83.5239 82.8322C83.5239 82.8322 83.5833 82.7731 83.5239 82.7139C83.4646 82.3002 83.2274 80.8226 83.2274 80.8226C83.2274 80.7045 83.2867 80.5862 83.3461 80.5271L85.0656 79.4632C85.1842 79.4041 85.1842 79.4632 85.2435 79.4632Z" fill="#2E3038"/>
<path d="M197.551 100.15C197.551 100.15 195.713 103.105 196.188 103.341C196.662 103.578 198.619 101.214 198.619 101.214L197.67 104.169C197.67 104.169 197.611 104.76 198.678 104.051C199.745 103.341 199.508 101.391 199.508 101.391L199.627 104.523C199.627 104.523 198.915 105.646 199.923 105.528C200.931 105.41 201.109 102.987 200.99 102.277C200.753 101.391 200.338 100.623 199.805 99.9131C199.212 99.2042 197.729 99.3817 197.551 100.15Z" fill="white"/>
<path d="M199.745 105.824C199.508 105.824 199.27 105.765 199.152 105.528C198.915 105.174 199.152 104.642 199.33 104.405V103.814C199.211 103.992 199.033 104.168 198.855 104.287C198.262 104.701 197.847 104.819 197.61 104.642C197.432 104.523 197.373 104.346 197.373 104.168L197.907 102.514C196.602 103.874 196.246 103.696 196.069 103.637C195.95 103.578 195.891 103.46 195.831 103.341C195.653 102.751 196.78 100.859 197.314 100.091C197.492 99.6183 197.907 99.3225 198.381 99.2633C198.974 99.0859 199.626 99.2633 200.041 99.7356C200.634 100.445 201.109 101.332 201.286 102.277C201.346 102.928 201.286 103.578 201.168 104.228C200.871 105.469 200.338 105.824 199.982 105.883C199.923 105.824 199.804 105.824 199.745 105.824ZM199.685 105.233C199.745 105.233 199.804 105.233 199.863 105.233C200.16 105.174 200.397 104.76 200.575 104.051C200.693 103.46 200.753 102.869 200.693 102.277C200.456 101.45 200.101 100.682 199.567 100.031C199.27 99.7356 198.855 99.6774 198.5 99.7948C198.262 99.8539 198.025 100.031 197.907 100.268C197.907 100.327 197.907 100.327 197.847 100.327C197.314 101.154 196.839 102.1 196.484 103.045C197.195 102.455 197.847 101.805 198.44 101.036C198.559 100.918 198.677 100.918 198.796 100.977C198.915 101.036 198.974 101.214 198.915 101.332L198.025 104.11C198.203 104.051 198.381 103.933 198.559 103.814C199.093 103.341 199.33 102.691 199.27 102.041V101.391C199.27 101.214 199.389 101.095 199.567 101.095C199.745 101.095 199.863 101.214 199.863 101.332C199.863 101.568 199.923 101.805 199.863 101.982L199.923 104.464C199.923 104.523 199.923 104.583 199.863 104.642C199.804 104.819 199.745 104.997 199.685 105.233Z" fill="#2E3038"/>
<path d="M177.034 75.562C177.034 75.562 180.414 76.2122 182.193 77.1578C183.972 78.1035 197.55 92.4069 197.906 94.003C198.321 95.6574 199.032 97.2537 200.04 98.6133C200.753 99.5588 203.065 102.395 203.243 103.578C203.421 104.76 202.947 105.705 202.354 104.878C201.761 104.051 200.516 102.159 199.507 101.391C198.499 100.623 195.415 99.972 195.415 99.972C195.415 100.918 195.356 101.864 195.178 102.81C194.882 104.169 193.874 105.35 193.755 104.641C193.577 103.4 193.459 102.1 193.518 100.8C193.637 99.4405 193.637 97.0762 193.637 97.0762L194.052 94.4753C194.052 94.4753 185.039 88.8014 181.659 87.0283C178.279 85.2552 175.196 83.2456 175.196 83.2456L173.061 83.0683C173.061 83.0683 173.179 79.3447 174.484 77.808C175.255 77.0397 176.085 76.2122 177.034 75.562Z" fill="white"/>
<path d="M202.768 105.469C202.472 105.469 202.234 105.292 202.116 105.056C201.582 104.228 200.278 102.336 199.329 101.627C198.617 101.095 196.541 100.564 195.711 100.386C195.711 101.213 195.652 102.1 195.474 102.928C195.296 103.992 194.585 105.233 193.932 105.233C193.695 105.233 193.458 104.996 193.458 104.76C193.28 103.459 193.162 102.159 193.221 100.859C193.339 99.5588 193.339 97.1945 193.339 97.1353L193.695 94.7119C192.45 93.9438 184.564 89.038 181.54 87.383C178.516 85.7281 175.551 83.955 175.077 83.6594L173.002 83.4821C172.824 83.4821 172.705 83.3639 172.705 83.1866C172.705 83.0092 172.824 79.3447 174.187 77.749C174.958 76.8624 175.848 76.0349 176.796 75.3847C176.856 75.3257 176.915 75.3257 177.034 75.3257C177.152 75.3257 180.473 75.9758 182.251 76.9215C184.03 77.8672 197.727 92.1705 198.142 93.9438C198.557 95.5391 199.269 97.0762 200.218 98.4358L200.574 98.9081C201.938 100.623 203.361 102.514 203.48 103.578C203.598 104.346 203.48 105.292 202.887 105.469C202.887 105.469 202.827 105.469 202.768 105.469ZM195.415 99.6771H195.474C195.593 99.7363 198.617 100.327 199.684 101.154C200.752 101.982 202.057 103.873 202.59 104.701C202.709 104.878 202.768 104.878 202.768 104.878C202.946 104.464 203.005 104.051 202.946 103.578C202.827 102.632 201.049 100.327 200.159 99.2039L199.803 98.7316C198.794 97.3128 198.083 95.7166 197.609 94.003C197.312 92.7025 183.912 78.3991 182.014 77.3353C180.413 76.626 178.753 76.094 177.093 75.7985C176.203 76.4487 175.433 77.1579 174.721 77.9854C173.713 79.1675 173.476 81.8862 173.417 82.7728L175.255 82.891C175.314 82.891 175.373 82.891 175.373 82.9502C175.373 82.9502 178.516 84.9598 181.836 86.6738C185.157 88.3878 194.11 94.0621 194.229 94.1213C194.347 94.1804 194.407 94.2987 194.347 94.4161L193.932 97.017C193.932 97.0762 193.932 99.3814 193.814 100.741C193.754 101.982 193.814 103.164 193.992 104.405C194.407 103.933 194.703 103.341 194.822 102.691C195 101.746 195.059 100.859 195.059 99.9128C195.059 99.7954 195.118 99.7363 195.178 99.6771C195.296 99.7363 195.355 99.6771 195.415 99.6771Z" fill="#2E3038"/>
<path d="M155.569 113.803L156.162 121.309C156.162 121.309 153.375 146.134 158.948 153.285C164.522 160.437 182.608 179.173 182.608 179.173L185.454 175.804C185.454 175.804 175.374 156.299 173.476 153.521C171.579 150.743 168.554 143.474 168.554 143.474C168.554 143.474 174.781 117.585 175.255 115.28C175.73 112.976 175.492 106.769 175.374 106.179C175.255 105.587 168.258 109.074 164.166 110.493C160.075 111.912 155.569 113.803 155.569 113.803Z" fill="#2E3038"/>
<path d="M182.549 179.527C182.49 179.527 182.372 179.468 182.312 179.409C182.134 179.232 164.167 160.554 158.594 153.462C153.02 146.369 155.629 122.255 155.748 121.25L155.155 113.803C155.155 113.685 155.214 113.566 155.333 113.507C155.392 113.507 159.78 111.735 163.871 110.257C165.591 109.666 167.904 108.66 169.92 107.774C173.893 106.06 174.96 105.646 175.316 105.883C175.434 105.942 175.494 106.06 175.494 106.119C175.553 106.71 175.79 112.976 175.375 115.339C174.96 117.585 169.149 141.464 168.675 143.414C169.03 144.242 171.817 150.802 173.537 153.344C175.375 156.063 185.099 174.858 185.514 175.627C185.574 175.745 185.574 175.863 185.455 175.922L182.609 179.291C182.727 179.468 182.609 179.527 182.549 179.527ZM155.866 113.981L156.4 121.309C156.4 121.605 153.672 146.134 159.127 153.107C164.286 159.727 180.415 176.572 182.549 178.759L185.04 175.804C184.032 173.853 174.96 156.299 173.181 153.758C171.343 151.039 168.319 143.947 168.2 143.651C168.2 143.592 168.2 143.533 168.2 143.473C168.26 143.237 174.426 117.585 174.901 115.339C175.316 113.271 175.138 107.774 175.019 106.533C173.418 107.065 171.817 107.715 170.216 108.425C168.2 109.311 165.888 110.257 164.108 110.906C160.61 112.088 156.756 113.626 155.866 113.981Z" fill="#2E3038"/>
<path d="M166.244 115.635C166.244 115.635 164.286 117.822 164.82 118.354L165.354 118.886C165.354 118.886 154.384 133.189 152.961 136.913C151.538 140.636 148.692 149.679 148.751 150.152C148.81 150.625 150.648 152.162 151.834 152.103C153.02 152.044 190.021 154.644 190.021 154.644L190.851 150.98L163.99 142.469C163.99 142.469 180.118 119.004 180.889 116.817C181.66 114.63 180.652 107.478 180.533 106.414C180.415 105.351 178.992 103.933 177.806 104.109C176.62 104.287 166.54 111.439 166.54 111.439" fill="#2E3038"/>
<path d="M190.019 154.999C189.664 154.999 153.197 152.458 151.892 152.458C150.647 152.458 148.572 150.921 148.513 150.212C148.453 149.502 151.477 140.223 152.722 136.854C154.086 133.307 163.573 120.777 164.996 118.945L164.641 118.59C164.048 117.94 165.234 116.344 166.065 115.458C166.183 115.339 166.361 115.339 166.48 115.458C166.598 115.576 166.598 115.754 166.48 115.872C165.65 116.817 164.937 117.94 165.056 118.177L165.589 118.708C165.709 118.827 165.709 119.004 165.589 119.123C165.471 119.241 154.62 133.426 153.256 137.091C151.774 140.932 149.106 149.561 149.046 150.212C149.165 150.507 150.825 151.925 151.833 151.925C153.138 151.925 186.284 154.171 189.782 154.408L190.494 151.216L163.87 142.823C163.751 142.764 163.692 142.706 163.692 142.646C163.633 142.587 163.692 142.469 163.751 142.41C169.326 134.312 180.058 118.531 180.592 116.817C181.244 114.867 180.473 108.483 180.236 106.533C180.117 106.001 179.821 105.469 179.346 105.115C178.991 104.701 178.398 104.464 177.864 104.464C177.034 104.583 170.63 108.956 166.717 111.735C166.598 111.852 166.42 111.793 166.302 111.676C166.183 111.557 166.242 111.38 166.361 111.261C167.428 110.553 176.56 104.05 177.746 103.874C178.516 103.815 179.228 104.109 179.702 104.642C180.236 105.115 180.592 105.706 180.77 106.415C181.125 108.897 181.837 114.926 181.125 116.936C180.414 118.945 166.48 139.395 164.403 142.351L190.909 150.743C191.087 150.802 191.146 150.921 191.087 151.098L190.257 154.763C190.257 154.88 190.197 154.999 190.019 154.999Z" fill="#2E3038"/>
<path d="M135.704 79.6404C127.7 82.1819 128.115 82.1227 128.115 82.1227L116.492 83.8368L121.652 94.0031L135.171 95.5393C135.171 95.5393 148.394 108.011 150.885 108.484C153.375 108.956 154.857 111.853 154.857 111.853C154.857 111.853 153.909 113.566 155.213 114.335C156.518 115.104 158.415 115.221 162.447 114.157C166.479 113.093 172.231 109.783 174.9 107.656C177.568 105.528 181.422 103.045 180.177 101.982C179.05 101.213 177.864 100.564 176.56 100.15L164.226 87.3831L174.425 88.1515C174.425 88.1515 174.307 82.241 174.485 80.3496C174.663 78.4582 177.094 75.5622 177.094 75.5622C177.094 75.5622 164.048 74.6164 160.312 74.0254C156.577 73.4344 152.96 73.6708 151.478 74.38C149.995 75.0893 143.057 76.9807 142.701 77.0397C142.345 77.0989 135.704 79.6404 135.704 79.6404Z" fill="white"/>
<path d="M157.822 115.222C156.873 115.281 155.925 115.045 155.095 114.571C153.909 113.922 154.205 112.562 154.561 111.794C154.264 111.261 152.901 109.075 150.885 108.721C148.394 108.247 136.238 96.8399 135.052 95.776L121.474 94.2399L116.078 83.5416L128.115 81.8276C128.708 81.532 130.487 81.0001 135.645 79.3451C136.772 78.9314 142.228 76.8628 142.643 76.8036C143.058 76.7446 149.936 74.9123 151.359 74.2031C153.019 73.3756 156.696 73.2573 160.372 73.7893C164.048 74.3803 176.975 75.3261 177.094 75.3261L177.687 75.3851L177.331 75.858C177.331 75.858 174.959 78.695 174.781 80.4681C174.603 82.2413 174.781 88.1517 174.781 88.2109V88.5655L164.997 87.7971L176.797 100.031C178.102 100.446 179.347 101.036 180.414 101.864C180.651 102.042 180.77 102.337 180.77 102.573C180.711 103.696 178.695 105.292 176.501 106.947C176.026 107.302 175.552 107.656 175.137 108.011C172.528 110.02 166.776 113.448 162.566 114.571C160.965 114.926 159.364 115.163 157.822 115.222ZM121.83 93.7076L135.289 95.2446L135.349 95.3037C139.025 98.7319 148.987 107.774 150.944 108.188C153.553 108.661 155.035 111.616 155.095 111.735L155.154 111.853L155.095 111.971C155.095 112.03 154.264 113.448 155.332 114.099C156.399 114.749 157.941 115.104 162.388 113.922C166.479 112.858 172.172 109.489 174.722 107.479C175.137 107.124 175.611 106.769 176.086 106.415C177.864 105.056 180.118 103.4 180.118 102.514C180.118 102.396 180.058 102.277 179.999 102.218C178.932 101.45 177.746 100.86 176.501 100.446H176.441L176.382 100.386L163.514 86.9696L174.188 87.7971C174.188 86.5559 174.129 81.9458 174.248 80.2909C174.366 78.7541 175.848 76.6854 176.56 75.7988C174.01 75.6216 163.574 74.7941 160.312 74.3213C156.814 73.7893 153.197 73.9075 151.656 74.6758C150.114 75.4442 143.236 77.2765 142.761 77.3356C142.406 77.3947 138.373 78.9314 135.882 79.8771C129.064 82.064 128.411 82.3003 128.293 82.3595L128.174 82.1231L128.233 82.4186L117.027 84.0144L121.83 93.7076Z" fill="#2E3038"/>
<path d="M143.947 88.979L148.869 95.8943L150.173 94.7121L146.556 90.2793" fill="white"/>
<path d="M172.053 100.09C172.468 100.031 172.942 100.031 173.357 99.9722L172.053 100.09Z" fill="white"/>
<path d="M136.357 81.1773C137.069 83.3641 137.603 85.551 138.077 87.797C138.314 89.8066 137.365 91.6388 138.551 91.3433C139.738 91.0477 139.679 87.7378 139.679 87.7378L143.948 88.6244L145.845 84.7235C145.845 84.7235 149.344 87.856 149.284 86.2603C149.225 84.6644 145.608 77.8082 145.371 76.2125C145.134 74.6166 143.236 74.2029 141.873 75.3259C140.509 76.4489 136.357 81.1773 136.357 81.1773Z" fill="white"/>
<path d="M138.315 91.6385C138.137 91.6385 138.018 91.5795 137.9 91.5204C137.603 91.2248 137.603 90.6929 137.722 89.9245C137.84 89.2153 137.84 88.506 137.781 87.7967C137.306 85.5508 136.772 83.3639 136.12 81.2362L136.061 81.0588L136.179 80.9406C136.357 80.7633 140.449 76.2122 141.754 75.0892C142.465 74.4391 143.533 74.2027 144.481 74.5573C145.193 74.7937 145.667 75.4439 145.726 76.1532C145.845 76.8624 146.675 78.8129 147.505 80.7042C148.573 83.1276 149.581 85.3735 149.581 86.26C149.64 86.5556 149.521 86.8511 149.225 86.9693C148.513 87.324 146.853 86.0236 145.904 85.1962L144.066 88.9198L139.916 88.0332C139.916 89.038 139.738 91.343 138.552 91.5795C138.493 91.6385 138.374 91.6385 138.315 91.6385ZM138.255 91.0476C138.315 91.0476 138.374 91.0476 138.433 91.0476C139.085 90.8702 139.323 88.9789 139.323 87.6785V87.324L143.77 88.2696L145.726 84.2505L146.023 84.4869C147.268 85.6099 148.632 86.4965 148.988 86.4374C148.988 86.4374 148.988 86.3783 148.988 86.3192C148.928 85.5508 147.861 83.1275 146.912 80.9998C146.023 78.9902 145.133 77.0988 145.074 76.2714C145.015 75.7394 144.659 75.3257 144.185 75.1484C143.473 74.912 142.643 75.0892 142.05 75.6213C140.864 76.626 137.307 80.586 136.653 81.2953C137.307 83.423 137.9 85.6099 138.315 87.7967C138.374 88.5651 138.374 89.2744 138.255 90.0428C138.196 90.3383 138.196 90.6929 138.255 91.0476Z" fill="#2E3038"/>
<path d="M130.842 79.463C132.206 80.1132 133.569 80.7042 134.992 81.1771C136.534 81.6499 144.184 90.5748 143.947 88.5652C143.71 86.5556 143.175 78.872 142.701 77.0397C142.108 75.3257 141.455 73.6117 140.685 71.9567C140.685 71.9567 141.93 71.1293 139.914 70.3018C137.898 69.4744 136.356 71.0111 136.475 71.8385C136.593 72.666 136.83 74.321 136.297 74.5574C135.763 74.7938 130.842 79.463 130.842 79.463Z" fill="white"/>
<path d="M143.769 89.1563C143.176 89.1563 142.108 88.1515 139.143 85.2554C137.423 83.5414 135.466 81.65 134.874 81.4726C133.45 80.9407 132.087 80.3497 130.723 79.6996L130.367 79.5222L130.664 79.2267C131.85 78.1037 135.644 74.4984 136.178 74.2619C136.237 74.2028 136.415 73.8481 136.178 71.8977C136.178 71.3066 136.474 70.7157 137.008 70.4201C137.898 69.7699 139.024 69.5927 140.032 70.0655C140.863 70.4201 141.278 70.7747 141.338 71.3066C141.338 71.6022 141.219 71.8977 141.041 72.075C141.812 73.6709 142.464 75.3258 142.998 77.0399C143.354 78.281 143.65 82.0637 143.946 85.0781C144.065 86.6148 144.184 87.9151 144.302 88.5652C144.362 88.9199 144.184 89.0972 144.065 89.1563C143.946 89.1563 143.887 89.1563 143.769 89.1563ZM131.375 79.404C132.561 79.9951 133.806 80.527 135.051 80.9407C135.763 81.1772 137.245 82.5957 139.558 84.9007C140.982 86.3193 142.879 88.2106 143.591 88.5652C143.531 87.856 143.413 86.6148 143.235 85.1372C142.998 82.1229 142.642 78.3992 142.346 77.2172C141.753 75.5031 141.1 73.7891 140.33 72.1342L140.21 71.8977L140.448 71.7795C140.507 71.7204 140.745 71.5431 140.685 71.3658C140.626 71.1885 140.567 70.9521 139.736 70.6565C138.965 70.3019 138.016 70.4201 137.305 70.9521C136.949 71.1885 136.771 71.484 136.712 71.8977C136.949 73.6118 136.949 74.6757 136.356 74.9121C136.059 75.0303 133.628 77.2762 131.375 79.404Z" fill="#2E3038"/>
<path d="M126.396 63.1503C124.914 62.8548 123.431 62.3229 122.127 61.5544C120.466 60.4315 121.118 58.0673 122.838 57.0034C124.558 55.9395 126.692 54.4619 128.946 54.4619C131.199 54.4619 131.97 56.8852 133.571 56.9443C135.171 57.0034 139.5 55.0529 141.931 57.0625C144.362 59.0721 144.066 65.9282 143.176 67.3467C142.287 68.7652 140.567 72.016 140.567 72.016C140.567 72.016 139.144 71.6614 138.077 71.4249C137.01 71.1885 137.721 70.5383 136.535 70.8339C135.349 71.1294 134.163 71.4249 133.155 70.5975C132.147 69.77 131.851 68.8834 131.199 68.1742C130.547 67.4649 129.42 65.869 129.598 65.2781C129.716 64.6279 129.835 63.9186 129.835 63.2093L126.396 63.1503Z" fill="#2E3038"/>
<path d="M140.803 72.3112L140.566 72.2522C140.566 72.2522 139.202 71.8975 138.076 71.6611C137.72 71.602 137.364 71.3656 137.186 71.07L137.127 71.011C136.949 71.011 136.831 71.0109 136.653 71.07C135.408 71.3656 134.162 71.6611 133.036 70.7745C132.443 70.3017 131.969 69.7697 131.613 69.1196C131.435 68.8241 131.257 68.5877 131.02 68.2922C131.02 68.2922 129.063 66.0462 129.36 65.1004C129.478 64.5685 129.597 63.9775 129.597 63.4455L126.336 63.3864C124.794 63.0909 123.312 62.5589 121.948 61.7315C121.236 61.2586 120.821 60.4312 120.881 59.6037C120.999 58.4217 121.651 57.2986 122.719 56.7076L123.43 56.2939C125.09 55.2891 126.929 54.1661 129.004 54.107C130.368 54.0478 131.257 54.8754 131.969 55.5847C132.562 56.1166 133.036 56.5894 133.629 56.5894C134.281 56.5303 134.874 56.4712 135.526 56.2939C137.542 55.8801 140.329 55.23 142.167 56.7667C144.658 58.7763 144.481 65.8097 143.473 67.4647C142.582 68.8832 140.863 72.0748 140.863 72.0748L140.803 72.3112ZM137.009 70.4199C137.246 70.4199 137.483 70.5381 137.602 70.7745C137.661 70.8927 137.779 71.011 138.135 71.1292C138.965 71.3064 139.973 71.5429 140.448 71.6611C140.863 70.9518 142.226 68.4694 142.939 67.2282C143.828 65.8097 143.947 59.0718 141.752 57.2986C140.151 55.9984 137.483 56.5303 135.586 56.944C134.933 57.1214 134.222 57.2396 133.57 57.2396C132.739 57.2396 132.087 56.6485 131.494 56.0574C130.783 55.4073 130.071 54.7571 129.004 54.7571H128.945C127.047 54.7571 125.268 55.8801 123.667 56.8258L122.956 57.2396C122.066 57.7124 121.474 58.6581 121.414 59.6629C121.355 60.313 121.711 60.904 122.244 61.2586C123.49 62.027 124.913 62.4999 126.336 62.7954L130.13 62.8545V63.15C130.13 63.8593 130.012 64.5685 129.834 65.2778C129.715 65.5733 130.486 66.8736 131.376 67.8784C131.613 68.174 131.791 68.4694 132.028 68.7649C132.324 69.356 132.799 69.8289 133.273 70.2426C134.222 70.9518 135.289 70.7155 136.416 70.4199C136.653 70.4199 136.831 70.4199 137.009 70.4199Z" fill="#2E3038"/>
<path d="M125.327 62.3226C125.327 62.3226 124.141 66.519 124.379 67.1691C124.616 67.8193 124.794 68.5286 124.912 69.2378L123.252 72.0157C123.252 72.0157 123.548 73.0796 124.082 73.1387C124.734 73.316 125.387 73.6116 125.92 73.9661C125.92 73.9661 127.521 79.8175 128.055 79.9949C128.588 80.1722 129.893 80.8223 130.427 80.4677C130.96 80.1131 136.949 75.8575 137.66 75.2074C138.372 74.5572 138.075 71.3656 138.075 71.3656C138.075 71.3656 139.914 69.1196 139.202 67.5829C138.491 66.0461 136.771 66.5781 136.237 67.7011C135.704 68.8241 135.526 69.4152 135.526 69.4152C135.526 69.4152 134.221 69.8289 133.984 69.0605L133.747 68.2922C133.747 68.2922 131.494 66.5781 131.435 66.1644C131.375 65.7507 132.146 61.6133 132.146 61.6133L125.327 62.3226Z" fill="white"/>
<path d="M130.072 80.8224C129.479 80.7633 128.886 80.586 128.353 80.3496L127.997 80.2313C127.523 80.0541 126.752 78.0445 125.685 74.1435C125.151 73.8481 124.617 73.6116 124.024 73.4342C123.313 73.3752 122.957 72.2522 122.957 72.134V72.0158L124.617 69.2378C124.499 68.5877 124.321 67.9375 124.084 67.3466C123.846 66.6963 124.736 63.3274 125.032 62.3226L125.092 62.1453L132.622 61.436L132.563 61.7907C132.266 63.4456 131.792 65.928 131.851 66.2235C132.503 66.9327 133.274 67.5829 134.045 68.1149L134.104 68.174L134.401 69.0605C134.401 69.1196 134.46 69.1788 134.519 69.2378C134.816 69.356 135.112 69.356 135.409 69.2378C135.468 69.0015 135.705 68.4695 136.061 67.642C136.357 66.9327 137.069 66.4008 137.899 66.4008C138.611 66.4008 139.263 66.8737 139.559 67.5238C140.271 69.0015 138.848 71.0701 138.492 71.543C138.551 72.3113 138.729 74.8528 137.958 75.503C137.188 76.1531 131.199 80.4678 130.725 80.7633C130.428 80.8224 130.25 80.8815 130.072 80.8224ZM123.609 72.0749C123.728 72.4296 123.965 72.8433 124.143 72.8433C124.854 73.0205 125.507 73.3161 126.1 73.7298L126.218 73.7889L126.278 73.9071C126.989 76.5668 127.938 79.463 128.293 79.7585C128.412 79.8176 128.531 79.8176 128.649 79.8767C129.124 80.0541 130.072 80.4086 130.369 80.2313C130.843 79.8767 136.891 75.6212 137.543 74.9711C137.958 74.6164 138.018 72.6659 137.899 71.4248V71.3066L137.958 71.1883C137.958 71.1883 139.678 69.0605 139.026 67.7011C138.848 67.2283 138.433 66.9328 137.899 66.9328C137.306 66.9919 136.832 67.2874 136.595 67.8193C136.061 68.9423 135.883 69.4743 135.883 69.4743L135.824 69.5925L135.705 69.6516C135.231 69.8289 134.697 69.8289 134.223 69.6516C133.986 69.5334 133.867 69.356 133.749 69.1196L133.511 68.4695C132.029 67.2874 131.199 66.5781 131.14 66.2235C131.318 64.8051 131.495 63.3865 131.792 61.968L125.447 62.559C124.914 64.4504 124.38 66.6373 124.558 66.9919C124.795 67.7011 125.032 68.4104 125.151 69.1196V69.2378L123.609 72.0749Z" fill="#2E3038"/>
<path d="M81.4475 77.4536C81.4475 77.4536 78.9571 78.8721 77.949 79.404C76.941 79.936 75.4585 79.9951 75.933 80.5862C76.4073 81.1772 79.135 80.1724 79.135 80.1724C79.135 80.1724 82.2183 80.1724 83.4042 79.9951C84.1159 79.8769 84.7088 79.404 85.0053 78.6948" fill="white"/>
<path d="M76.5859 81.0588C76.2895 81.1179 75.9337 80.9997 75.6965 80.7632C75.5779 80.586 75.5187 80.4087 75.5779 80.2313C75.6965 79.8767 76.1709 79.6994 76.7638 79.5221C77.1196 79.4039 77.4754 79.2857 77.8311 79.1083C78.8392 78.5764 81.3297 77.1579 81.3297 77.1579C81.4483 77.0988 81.6854 77.0988 81.7447 77.2761C81.804 77.3943 81.7447 77.5716 81.6261 77.6898C81.5668 77.6898 79.1357 79.1083 78.1277 79.6403C77.7718 79.8176 77.3568 79.9949 76.9417 80.1131C76.7045 80.1722 76.4081 80.2905 76.1709 80.4087C76.3488 80.645 77.7125 80.4087 79.0171 79.8767C79.0764 79.8767 79.0764 79.8767 79.1357 79.8767C79.195 79.8767 82.2191 79.8767 83.4051 79.6994C83.998 79.5812 84.5316 79.1675 84.7095 78.6355C84.7688 78.4582 84.9467 78.3991 85.0653 78.4582C85.1839 78.5173 85.3025 78.6946 85.2432 78.8128C84.9467 79.5812 84.2352 80.1722 83.4051 80.2905C82.2784 80.4087 79.5507 80.4677 79.1357 80.4677C78.3649 80.8224 77.4754 80.9997 76.5859 81.0588Z" fill="#2E3038"/>
<path d="M182.548 179.231L182.252 184.906L178.635 192.412C178.397 192.885 178.813 193.89 179.939 193.417C181.066 192.944 183.497 190.698 184.801 189.634C186.106 188.57 188.181 185.91 189.426 184.965C190.671 184.019 192.035 182.069 191.976 181.655C191.917 181.242 185.394 175.803 185.394 175.803L182.548 179.231Z" fill="#184AFB"/>
<path d="M179.464 193.83C178.872 193.83 178.338 193.358 178.338 192.766C178.338 192.59 178.338 192.472 178.456 192.294C178.694 191.821 181.718 185.497 182.073 184.847L182.37 179.232C182.37 179.173 182.37 179.114 182.429 179.055L185.275 175.686C185.394 175.567 185.572 175.567 185.69 175.627C192.331 181.064 192.391 181.478 192.391 181.655C192.45 182.246 190.908 184.374 189.722 185.26C188.892 185.97 188.181 186.738 187.469 187.506C186.758 188.334 185.928 189.162 185.097 189.871C184.742 190.166 184.267 190.58 183.734 190.994C182.429 192.117 181.006 193.358 180.117 193.712C179.88 193.771 179.642 193.83 179.464 193.83ZM182.844 179.35L182.548 184.965C182.548 185.024 182.548 185.024 182.548 185.083L178.931 192.59C178.872 192.766 178.931 193.003 179.049 193.121C179.227 193.299 179.524 193.358 179.88 193.18C180.65 192.885 182.133 191.584 183.319 190.58C183.852 190.166 184.267 189.752 184.682 189.457C185.512 188.748 186.283 187.98 186.936 187.151C187.647 186.324 188.418 185.497 189.307 184.788C190.315 183.96 191.145 182.955 191.738 181.773C191.323 181.242 187.825 178.226 185.453 176.276L182.844 179.35Z" fill="#2E3038"/>
<path d="M189.486 185.024C190.731 184.137 192.095 182.128 192.036 181.714C191.798 181.419 191.561 181.123 191.265 180.887C190.375 181.832 188.597 183.842 186.996 185.497C185.217 187.447 180.592 191.762 178.932 193.358C179.228 193.595 179.643 193.595 179.999 193.417C181.126 192.944 183.557 190.698 184.861 189.634C186.166 188.57 188.241 185.969 189.486 185.024Z" fill="#2E3038"/>
<path d="M179.465 193.83C179.168 193.83 178.931 193.771 178.753 193.595C178.694 193.535 178.635 193.476 178.635 193.358C178.635 193.299 178.694 193.181 178.753 193.121C180.591 191.408 185.039 187.151 186.817 185.26C188.418 183.547 190.138 181.655 191.087 180.65C191.146 180.591 191.205 180.532 191.324 180.532C191.383 180.532 191.502 180.532 191.561 180.591C192.332 181.301 192.391 181.477 192.45 181.596C192.51 182.187 190.968 184.315 189.782 185.201C188.952 185.91 188.24 186.679 187.529 187.447C186.817 188.274 185.987 189.103 185.157 189.812C184.801 190.107 184.327 190.52 183.793 190.935C182.489 192.058 181.066 193.299 180.176 193.653C179.88 193.771 179.643 193.83 179.465 193.83ZM179.465 193.24C179.583 193.24 179.761 193.24 179.88 193.121C180.651 192.826 182.133 191.525 183.319 190.52C183.853 190.107 184.268 189.693 184.683 189.397C185.513 188.689 186.284 187.92 186.936 187.092C187.647 186.265 188.418 185.438 189.308 184.729C190.316 183.901 191.146 182.896 191.739 181.714C191.62 181.536 191.442 181.36 191.264 181.242C190.316 182.305 188.655 184.078 187.232 185.674C185.572 187.506 181.481 191.349 179.465 193.24Z" fill="#2E3038"/>
<path d="M190.02 154.704L193.163 158.191L198.144 168.297C198.144 168.297 199.389 168.593 199.923 168.239C200.456 167.884 199.567 155.294 199.27 153.403C198.974 151.512 199.33 150.684 198.559 150.389C197.788 150.093 190.851 151.098 190.851 151.098L190.02 154.704Z" fill="#184AFB"/>
<path d="M199.033 168.593C198.677 168.593 198.38 168.534 198.084 168.475C198.024 168.475 197.906 168.416 197.906 168.297L192.984 158.25L189.9 154.822C189.841 154.763 189.782 154.645 189.841 154.526L190.671 150.862C190.671 150.743 190.79 150.625 190.908 150.625C192.094 150.448 197.906 149.561 198.736 149.916C199.448 150.212 199.448 150.802 199.507 151.689C199.507 152.103 199.566 152.576 199.625 153.167C199.625 153.285 200.989 167.707 200.159 168.297C199.803 168.534 199.448 168.652 199.033 168.593ZM198.321 167.943C198.795 168.062 199.27 168.062 199.685 167.884C200.04 166.82 199.27 155.59 198.973 153.344C198.914 152.812 198.855 152.339 198.855 151.807C198.795 150.921 198.795 150.684 198.44 150.567C198.024 150.389 194.407 150.802 191.086 151.276L190.315 154.645L193.339 157.955L193.399 158.014L198.321 167.943Z" fill="#2E3038"/>
<path d="M198.558 150.271C198.262 150.212 197.906 150.152 197.609 150.212C198.024 153.699 198.974 162.505 199.271 164.337C199.389 165.638 199.448 166.997 199.33 168.297C199.567 168.297 199.745 168.238 199.923 168.12C200.456 167.766 199.567 155.176 199.271 153.285C198.974 151.394 199.389 150.625 198.558 150.271Z" fill="#2E3038"/>
<path d="M199.329 168.593C199.269 168.593 199.151 168.533 199.092 168.533C199.032 168.474 198.973 168.415 199.032 168.297C199.092 166.997 199.092 165.697 198.973 164.396C198.736 162.505 197.728 153.876 197.371 150.271C197.371 150.211 197.371 150.093 197.431 150.034C197.491 149.975 197.55 149.916 197.669 149.916C198.024 149.856 198.38 149.916 198.736 149.975C199.447 150.271 199.447 150.861 199.507 151.748C199.507 152.162 199.566 152.635 199.625 153.225C199.625 153.344 200.989 167.765 200.159 168.356C199.862 168.474 199.625 168.593 199.329 168.593ZM197.965 150.507C198.38 154.289 199.329 162.505 199.566 164.337C199.685 165.519 199.744 166.761 199.685 167.943H199.744C200.1 166.879 199.329 155.649 199.032 153.403C198.973 152.871 198.914 152.398 198.914 151.866C198.854 150.979 198.854 150.743 198.499 150.625C198.321 150.507 198.143 150.507 197.965 150.507Z" fill="#2E3038"/>
</g>
</g>
<defs>
<clipPath id="clip0_1_4253">
<rect width="224" height="200" fill="white"/>
</clipPath>
</defs>
</svg>
