<svg width="204" height="200" viewBox="0 0 204 200" fill="none" xmlns="http://www.w3.org/2000/svg">
<path d="M4.01354 122.989C4.01354 122.989 10.4198 157.12 42.9126 175.615C75.4 194.11 115.787 189.698 148.614 186.974C181.442 184.249 203.592 162.302 203.115 134.25C202.637 106.197 176.568 101.872 158.271 72.6097C139.974 43.3525 139.59 32.8837 108.118 17.9376C76.6516 2.99691 33.8878 21.5357 15.5965 58.0271C-2.69472 94.5129 4.01354 122.989 4.01354 122.989Z" fill="white"/>
<path d="M88.0821 119.462C88.0821 117.968 86.8634 115.597 85.3428 115.597C83.8222 115.597 82.6035 117.968 82.6035 119.462C82.6035 120.954 84.9311 123.939 85.3428 123.939C85.7545 123.939 88.0821 120.954 88.0821 119.462Z" fill="#184AFB"/>
<path d="M144.937 119.462C144.937 117.969 143.718 115.598 142.198 115.598C140.683 115.598 139.459 117.969 139.459 119.462C139.459 120.954 141.787 123.939 142.198 123.939C142.61 123.939 144.937 120.954 144.937 119.462Z" fill="#184AFB"/>
<path d="M85.6602 101.65L104.967 84.8477V99.0992L86.9447 107.473L85.6602 101.65Z" fill="#2E3038" stroke="#2E3038" stroke-width="1.2223" stroke-miterlimit="10"/>
<path d="M89.5529 115.478H81.1705L79.3973 82.9485C79.3754 82.7151 79.3754 82.4817 79.3973 82.2484C79.6883 79.562 82.219 70.7593 85.3535 70.7593C88.466 70.7593 90.9967 79.562 91.315 82.2484C91.337 82.4817 91.337 82.7151 91.315 82.9485L89.5529 115.478Z" fill="white" stroke="#2E3038" stroke-width="1.2223" stroke-miterlimit="10"/>
<path d="M80.5664 77.5324H90.1623C89.0755 74.2653 87.3405 70.7485 85.3643 70.7485C83.388 70.7485 81.6533 74.2653 80.5664 77.5324Z" fill="#2E3038" stroke="#2E3038" stroke-width="1.2223" stroke-miterlimit="10"/>
<path d="M80.791 108.613L81.1697 115.479H89.5521L89.9258 108.613H80.791Z" fill="#2E3038" stroke="#2E3038" stroke-width="1.2223" stroke-miterlimit="10"/>
<path d="M142.243 101.65L122.914 84.8477V99.0992L140.936 107.473L142.243 101.65Z" fill="#2E3038" stroke="#2E3038" stroke-width="1.2223" stroke-miterlimit="10"/>
<path d="M138.349 115.478H146.731L148.505 82.9485C148.527 82.7151 148.527 82.4817 148.505 82.2484C148.214 79.562 145.683 70.7593 142.549 70.7593C139.436 70.7593 136.905 79.562 136.587 82.2484C136.565 82.4817 136.565 82.7151 136.587 82.9485L138.349 115.478Z" fill="white" stroke="#2E3038" stroke-width="1.2223" stroke-miterlimit="10"/>
<path d="M147.111 108.613L146.733 115.479H138.35L137.977 108.613H147.111Z" fill="#2E3038" stroke="#2E3038" stroke-width="1.2223" stroke-miterlimit="10"/>
<path d="M137.729 77.5324H147.324C146.232 74.2653 144.503 70.7485 142.527 70.7485C140.55 70.754 138.832 74.2653 137.729 77.5324Z" fill="#2E3038" stroke="#2E3038" stroke-width="1.2223" stroke-miterlimit="10"/>
<path d="M118.378 120.281C118.279 117.915 116.264 116.08 113.87 116.173C111.615 116.265 109.809 118.05 109.715 120.281C109.715 122.647 113.393 127.363 114.041 127.363C114.552 127.357 118.378 122.63 118.378 120.281Z" fill="#184AFB"/>
<path d="M125.025 104.022H103.1L98.455 33.6112C98.3952 32.9979 98.3952 32.3793 98.455 31.7606C99.2297 24.7162 105.926 1.65674 114.068 1.65674C122.214 1.65674 128.89 24.7162 129.68 31.7606C129.746 32.3738 129.746 32.9925 129.68 33.6112L125.025 104.022Z" fill="white" stroke="#2E3038" stroke-width="1.2223" stroke-miterlimit="10"/>
<path d="M114.108 86.644C108.811 86.644 104.512 82.4 104.512 77.1629V37.6378C104.518 32.4007 108.811 28.1567 114.108 28.1567C119.405 28.1621 123.693 32.4007 123.698 37.6378V77.1629C123.698 82.4 119.405 86.6386 114.108 86.644Z" fill="#184AFB" stroke="#2E3038" stroke-width="1.2223" stroke-miterlimit="10"/>
<path d="M121.777 114.132H106.346L103.102 103.571H125.054L121.777 114.132Z" fill="#2E3038" stroke="#2E3038" stroke-width="1.2223" stroke-miterlimit="10"/>
<path d="M114.075 44.9131C116.837 44.9131 119.076 42.6745 119.076 39.913C119.076 37.1516 116.837 34.9131 114.075 34.9131C111.313 34.9131 109.074 37.1516 109.074 39.913C109.074 42.6745 111.313 44.9131 114.075 44.9131Z" fill="white" stroke="#2E3038" stroke-width="1.2223" stroke-miterlimit="10"/>
<path d="M114.075 62.9131C116.837 62.9131 119.076 60.6745 119.076 57.913C119.076 55.1516 116.837 52.9131 114.075 52.9131C111.313 52.9131 109.074 55.1516 109.074 57.913C109.074 60.6745 111.313 62.9131 114.075 62.9131Z" fill="white" stroke="#2E3038" stroke-width="1.2223" stroke-miterlimit="10"/>
<path d="M114.075 80.9131C116.837 80.9131 119.076 78.6745 119.076 75.913C119.076 73.1516 116.837 70.9131 114.075 70.9131C111.313 70.9131 109.074 73.1516 109.074 75.913C109.074 78.6745 111.313 80.9131 114.075 80.9131Z" fill="white" stroke="#2E3038" stroke-width="1.2223" stroke-miterlimit="10"/>
<path d="M102.969 15.425H125.185C122.364 8.04961 118.444 1.20068 114.08 1.20068C109.716 1.23867 105.774 8.05504 102.969 15.425Z" fill="#2E3038" stroke="#2E3038" stroke-width="1.2223" stroke-miterlimit="10"/>
<path d="M36.7435 115.782C36.7435 115.782 33.0051 127.141 32.1708 132.888C31.3363 138.636 29.6784 154.65 29.6784 154.65C26.7415 158.27 24.8092 162.585 24.0736 167.17C23.036 174.497 23.3819 184.363 23.3819 184.363C23.3819 184.363 22.5529 185.596 22.5529 186.214C22.5529 186.833 22.6902 188.201 22.6902 188.201C21.1642 189.373 19.7093 190.626 18.326 191.962C16.8054 193.536 17.0799 196.276 17.0799 197.025C17.0799 197.774 17.9802 198.876 18.4687 198.876C18.9574 198.876 22.273 198.257 23.9583 196.89C25.6436 195.522 25.6875 192.716 26.1047 191.463C26.522 190.209 29.3326 186.535 29.3326 186.535C30.2 186.443 30.8862 185.763 30.9795 184.906C31.1167 183.403 31.4626 180.733 31.5998 180.185C31.7371 179.637 37.556 170.33 38.868 164.717C40.18 159.106 44.2697 150.694 45.7244 146.998C47.1792 143.303 50.2918 135.776 50.2918 135.776L50.9176 135.569C50.9176 135.569 49.7374 151.85 49.3915 156.99C49.0457 162.129 48.9743 163.421 48.9743 170.194C48.9743 176.967 51.6752 188.103 51.6752 188.103V191.592C51.6752 191.799 52.2241 192.005 53.2672 192.07C54.3102 192.135 57.3624 192.151 58.1254 192.613C58.8885 193.074 62.0011 193.432 65.185 193.297C68.369 193.161 70.0323 192.613 69.6864 191.994C69.3406 191.376 63.873 189.281 62.9727 188.71C62.0724 188.141 59.9809 186.779 59.9809 186.779C59.9809 186.779 60.1236 185.004 59.635 184.179C59.1465 183.354 58.9434 183.43 58.9434 182.551C58.9434 181.672 60.9525 170.025 61.507 164.484C62.0614 158.943 65.0368 151.069 65.2454 145.186C65.454 139.303 64.8996 134.783 64.411 128.075C64.1255 124.063 63.4064 120.097 62.2701 116.238L36.7435 115.782Z" fill="#2E3038" stroke="#2E3038" stroke-width="0.9508" stroke-linecap="round" stroke-linejoin="round"/>
<path d="M71.4202 125.09C71.4202 125.09 72.6663 130.353 72.3205 133.572C72.1888 134.799 70.5199 138.364 70.1741 138.57C69.8393 138.679 69.4715 138.679 69.1365 138.57C69.3891 137.898 69.5977 137.213 69.7569 136.513C69.8283 135.971 69.8996 134.462 69.8996 134.462C69.4989 135.341 69.0378 136.188 68.5107 136.997C68.0442 137.463 67.5062 137.854 66.9188 138.158C66.6717 138.141 66.4412 138.017 66.2985 137.816C66.1612 137.61 66.8474 137.132 67.1987 136.378C67.5501 135.624 68.099 134.207 68.099 134.207C67.5995 134.842 67.0505 135.433 66.4522 135.981C65.9087 136.378 65.2994 136.676 64.6516 136.872C64.4429 136.872 64.0313 136.123 64.2398 136.052C64.4485 135.981 66.1777 135.026 66.3808 134.685C66.5729 134.397 66.7816 134.125 67.0066 133.865C66.1942 134.191 65.3597 134.462 64.5143 134.685C64.1685 134.685 64.0312 134.142 64.0312 134.142L66.3149 132.98L66.8639 131.607C66.5839 130.554 66.5839 129.447 66.8639 128.394C67.347 126.82 67.5555 125.725 67.5555 125.725L71.4202 125.09Z" fill="white" stroke="#2E3038" stroke-width="0.9508" stroke-linecap="round" stroke-linejoin="round"/>
<path d="M69 127.347C69 127.347 69.0659 129.605 69.4831 130.061C69.9003 130.517 70.6579 131.086 70.6579 131.565C70.6579 132.042 69.9003 134.783 70.1089 134.989C70.29 135.227 70.636 135.271 70.8775 135.092C70.9818 135.016 71.0531 134.907 71.0805 134.783C71.5197 133.285 71.8217 131.749 71.9809 130.197" fill="white"/>
<path d="M69 127.347C69 127.347 69.0659 129.605 69.4831 130.061C69.9003 130.517 70.6579 131.086 70.6579 131.565C70.6579 132.042 69.9003 134.783 70.1089 134.989C70.29 135.227 70.636 135.271 70.8775 135.092C70.9818 135.016 71.0531 134.907 71.0805 134.783C71.5197 133.285 71.8217 131.749 71.9809 130.197" stroke="#2E3038" stroke-width="0.9508" stroke-linecap="round" stroke-linejoin="round"/>
<path d="M65.5354 87.5837C65.5354 87.5837 67.4073 98.741 67.6104 102.095C67.8136 105.449 67.819 107.978 67.819 107.978L71.4201 125.09L67.5446 125.703C67.5446 125.703 62.9773 116.477 62.055 115.391C61.1327 114.306 60.6661 112.244 61.0175 109.302C61.3687 106.361 61.0833 90.275 61.775 88.3593C62.1648 87.2089 63.4218 86.5847 64.5857 86.9697C64.948 87.0897 65.2774 87.301 65.5354 87.5837Z" fill="white" stroke="#2E3038" stroke-width="0.9508" stroke-linecap="round" stroke-linejoin="round"/>
<path d="M67.0625 124.606L70.9381 123.581" stroke="#2E3038" stroke-width="0.9508" stroke-linecap="round" stroke-linejoin="round"/>
<path d="M43.3851 76.3652C43.3851 76.3652 28.2229 82.5846 27.5313 82.8777C26.8395 83.1708 26.3564 82.8777 26.0106 84.2453C25.6647 85.613 19.9172 110.013 20.1807 111.945C20.4442 113.877 24.6931 130.635 24.6931 130.635L29.4745 129.816L30.0235 109.628L32.5871 103.191C32.5871 103.191 35.9797 111.608 35.9083 112.298C35.837 112.987 35.008 114.555 35.4966 115.445C35.7381 115.928 36.0949 116.352 36.5342 116.677H62.8841C62.8841 116.677 64.531 116.135 64.6133 115.375C64.5584 114.273 64.4211 113.171 64.2016 112.091C64.2016 112.091 66.5511 102.92 66.5511 96.5537C66.5511 90.1876 65.7936 84.9237 64.7505 83.415C63.7075 81.9063 59.9746 80.403 56.5875 79.2416C53.2004 78.0802 50.3568 76.9839 47.3102 76.7125C44.2635 76.4412 43.3851 76.3652 43.3851 76.3652Z" fill="white" stroke="#2E3038" stroke-width="0.9508" stroke-linecap="round" stroke-linejoin="round"/>
<path d="M54.875 81.4937C54.875 81.4937 57.2246 91.9243 57.2246 97.7747C57.2246 103.625 57.3838 110.626 57.7022 111.738C58.0206 112.851 58.5091 114.75 57.3838 116.021" stroke="#2E3038" stroke-width="0.9508" stroke-linecap="round" stroke-linejoin="round"/>
<path d="M32.5859 103.185L36.8074 93.0591" stroke="#2E3038" stroke-width="0.9508" stroke-linecap="round" stroke-linejoin="round"/>
<path d="M34.7344 98.5348L38.6813 93.6069" stroke="#2E3038" stroke-width="0.9508" stroke-linecap="round" stroke-linejoin="round"/>
<path d="M24.2109 128.509L29.4755 127.96" stroke="#2E3038" stroke-width="0.9508" stroke-linecap="round" stroke-linejoin="round"/>
<path d="M57.7845 78.2812L59.3765 81.6298L55.7754 79.6489L57.7845 78.2812Z" fill="white" stroke="#2E3038" stroke-width="0.9508" stroke-linecap="round" stroke-linejoin="round"/>
<path d="M54.875 81.4941L57.7845 78.2812L54.9464 76.9082L54.875 81.4941Z" fill="white" stroke="#2E3038" stroke-width="0.9508" stroke-linecap="round" stroke-linejoin="round"/>
<path d="M55.3634 55.4927C55.3634 55.4927 57.2298 57.5441 57.2298 58.1573C57.2134 58.6621 57.1694 59.1668 57.0926 59.6661C57.0926 59.6661 60.2051 61.1694 59.8373 61.788C59.4696 62.4067 59.0084 63.5627 59.0084 63.5627C59.0084 63.5627 61.5666 69.1091 61.2043 69.6572C60.8419 70.2054 57.3286 73.5539 56.7083 75.1983C56.0879 76.8427 54.8363 81.4937 54.8363 81.4937L42.9295 74.9812C42.9295 74.9812 44.3842 72.6584 44.4555 71.0845C44.5269 69.5107 44.7301 68.2788 44.4555 67.3182C44.1811 66.3576 42.7264 63.8937 42.5837 61.5004C42.4409 59.107 45.0759 56.3013 48.5398 54.6569C52.0037 53.0125 55.3634 55.4927 55.3634 55.4927Z" fill="white" stroke="#2E3038" stroke-width="0.9508" stroke-linecap="round" stroke-linejoin="round"/>
<path d="M53.6992 65.1367C54.5281 66.0702 55.8786 66.347 57.0204 65.8259" stroke="#2E3038" stroke-width="0.9508" stroke-linecap="round" stroke-linejoin="round"/>
<path d="M55.2425 60.7844C55.4291 61.1805 55.3632 61.5985 55.1052 61.7125C54.8472 61.8264 54.4849 61.6093 54.2983 61.2132C54.1116 60.817 54.183 60.3991 54.441 60.2852C54.699 60.1712 55.0613 60.3882 55.2425 60.7844Z" fill="#2E3038"/>
<path d="M52.3828 60.4857C52.7891 59.4655 53.843 58.8468 54.9464 58.9824" stroke="#2E3038" stroke-width="1.9016" stroke-linecap="round" stroke-linejoin="round"/>
<path d="M47.1236 66.8513C47.1236 66.8513 48.9242 66.8513 48.9242 65.8907C48.9242 64.9301 47.5408 63.0198 47.8867 62.0593C48.2325 61.0987 49.8904 60.4311 49.27 59.3891C48.6497 58.3471 47.3981 58.3634 48.0953 57.6796C48.7925 56.9958 53.9088 57.8858 55.6379 56.0515C57.3672 54.2172 58.0588 51.4005 56.8128 50.8578C55.5666 50.3151 53.9746 51.6773 53.9746 51.6773C53.9746 51.6773 53.1457 49.7615 50.6535 50.4454C48.1611 51.1292 44.7027 53.7993 42.7649 56.4694C40.8271 59.1394 40.1299 60.0947 40.8929 61.8964C41.656 63.6982 44.1482 67.0304 45.1144 67.5786C46.0806 68.1267 47.1236 66.8513 47.1236 66.8513Z" fill="#2E3038" stroke="#2E3038" stroke-width="0.9508" stroke-linecap="round" stroke-linejoin="round"/>
<path d="M48.2335 67.7418C48.2335 67.7418 46.2957 65.0011 44.6323 65.343C42.969 65.6849 43.3862 68.0837 44.4951 69.1745C45.604 70.2653 47.5418 69.5164 47.9535 69.245C47.9535 69.245 49.4797 72.8703 51.0002 73.0114C52.5208 73.1525 56.8137 71.2965 56.8137 71.2965" fill="white"/>
<path d="M48.2335 67.7418C48.2335 67.7418 46.2957 65.0011 44.6323 65.343C42.969 65.6849 43.3862 68.0837 44.4951 69.1745C45.604 70.2653 47.5418 69.5164 47.9535 69.245C47.9535 69.245 49.4797 72.8703 51.0002 73.0114C52.5208 73.1525 56.8137 71.2965 56.8137 71.2965" stroke="#2E3038" stroke-width="0.9508" stroke-linecap="round" stroke-linejoin="round"/>
<path d="M52.7283 77.7979L54.8748 81.4937L50.7246 79.4422L52.7283 77.7979Z" fill="white" stroke="#2E3038" stroke-width="0.9508" stroke-linecap="round" stroke-linejoin="round"/>
<path d="M43.1769 73.2827L52.7288 77.798L50.5164 83.1382L41.6562 76.5661L43.1769 73.2827Z" fill="white" stroke="#2E3038" stroke-width="0.9508" stroke-linecap="round" stroke-linejoin="round"/>
<path d="M31.5879 138.423H21.6573C21.2346 138.423 20.8887 138.765 20.8887 139.183V143.189C20.8887 143.606 21.2346 143.948 21.6573 143.948H22.821C22.3984 143.948 22.0525 143.606 22.0525 143.189V140.572C22.0525 140.155 22.3984 139.813 22.821 139.813H30.4241C30.8468 139.813 31.1926 140.155 31.1926 140.572V143.189C31.1926 143.606 30.8468 143.948 30.4241 143.948H31.5879C32.0106 143.948 32.3565 143.606 32.3565 143.189V139.183C32.3565 138.76 32.0106 138.423 31.5879 138.423Z" fill="#2E3038" stroke="#2E3038" stroke-width="0.9508" stroke-linecap="round" stroke-linejoin="round"/>
<path d="M24.6932 130.635C24.6932 130.635 23.2385 136.247 23.513 137.202C23.7874 138.157 24.556 138.711 24.6109 138.917C24.7152 139.222 24.5999 139.557 24.3309 139.736L23.9851 139.943C23.9851 139.943 23.7106 139.943 23.9192 140.35C24.0015 140.573 24.1552 140.762 24.3584 140.893C24.814 141.121 25.094 140.659 25.5057 140.6C25.9174 140.54 26.1755 140.985 26.5652 140.958C26.955 140.93 27.1635 140.545 27.5423 140.578C27.9212 140.61 28.1682 141.288 28.7171 141.05C28.9531 140.942 29.1233 140.708 29.3594 140.588C29.7107 140.409 30.2103 140.459 30.5232 140.193C30.7757 139.932 30.9294 139.595 30.9623 139.237C31.0886 138.537 29.4582 129.8 29.4582 129.8L24.6932 130.635Z" fill="white" stroke="#2E3038" stroke-width="0.9508" stroke-linecap="round" stroke-linejoin="round"/>
<path d="M11.2371 142.206H40.6832C41.891 142.206 42.8736 143.177 42.8736 144.371V162.867C42.8736 164.061 41.891 165.032 40.6832 165.032H11.2371C10.0295 165.032 9.04688 164.061 9.04688 162.867V144.371C9.04688 143.172 10.024 142.206 11.2371 142.206Z" fill="#184AFB" stroke="#2E3038" stroke-width="1.2223" stroke-miterlimit="10"/>
<path d="M9.125 144.312L25.1216 155.481C26.0109 156.11 27.2021 156.11 28.0915 155.481L42.787 144.909" stroke="#2E3038" stroke-width="0.9508" stroke-linecap="round" stroke-linejoin="round"/>
<path d="M27.9493 153.978H25.2266V157.76H27.9493V153.978Z" fill="white" stroke="#2E3038" stroke-width="0.9508" stroke-linecap="round" stroke-linejoin="round"/>
</svg>
